<svg id="Capa_1" data-name="Capa 1" xmlns="http://www.w3.org/2000/svg" xmlns:xlink="http://www.w3.org/1999/xlink" viewBox="0 0 600 600"><defs><style>.cls-1{fill:none;}.cls-2{fill:url(#Degradado_sin_nombre_254);}.cls-3{fill:url(#Degradado_sin_nombre_253);}.cls-4{fill:url(#Degradado_sin_nombre_253-2);}.cls-5{fill:url(#Degradado_sin_nombre_211);}.cls-6{clip-path:url(#clip-path);}.cls-7{fill:#1e8ec7;}.cls-8{fill:url(#Degradado_sin_nombre_211-2);}.cls-9{fill:url(#Degradado_sin_nombre_211-3);}.cls-10{fill:url(#Degradado_sin_nombre_211-9);}</style><linearGradient id="Degradado_sin_nombre_254" x1="162.79" y1="236.03" x2="312.68" y2="236.03" gradientUnits="userSpaceOnUse"><stop offset="0" stop-color="#294683"/><stop offset="1" stop-color="#004d86"/></linearGradient><linearGradient id="Degradado_sin_nombre_253" x1="214.51" y1="225.14" x2="371.62" y2="225.14" gradientUnits="userSpaceOnUse"><stop offset="0" stop-color="#004d86"/><stop offset="1" stop-color="#294683"/></linearGradient><linearGradient id="Degradado_sin_nombre_253-2" x1="361.45" y1="283.59" x2="417.75" y2="283.59" xlink:href="#Degradado_sin_nombre_253"/><linearGradient id="Degradado_sin_nombre_211" x1="172.08" y1="236.03" x2="417.75" y2="236.03" gradientUnits="userSpaceOnUse"><stop offset="0" stop-color="#23398a"/><stop offset="1" stop-color="#36a9e1"/></linearGradient><clipPath id="clip-path"><path class="cls-1" d="M303.57,104.54A131.49,131.49,0,1,0,417.75,301.26L365.6,275a73.28,73.28,0,0,1-135.32-39c0-40.47,32.81-72.83,73.28-73.28,33.5-.37,48.12-2.11,62.43,33.25l51.67-13.5C415.88,157.38,376.19,104.54,303.57,104.54Z"/></clipPath><linearGradient id="Degradado_sin_nombre_211-2" x1="128" y1="429.3" x2="468.8" y2="429.3" xlink:href="#Degradado_sin_nombre_211"/><linearGradient id="Degradado_sin_nombre_211-3" x1="128" y1="429.25" x2="468.8" y2="429.25" xlink:href="#Degradado_sin_nombre_211"/><linearGradient id="Degradado_sin_nombre_211-9" x1="128" y1="500.39" x2="468.8" y2="500.39" xlink:href="#Degradado_sin_nombre_211"/></defs><title>Logo Charlie Team</title><path class="cls-2" d="M209.95,226.56c0-72.23,155.86-121.32,83.63-121.32a130.79,130.79,0,0,0,0,261.57C365.8,366.82,209.95,298.8,209.95,226.56Z"/><path class="cls-3" d="M352.25,191.75c-4.13-8.23-13.08-19.25-34.75-24.5-32.5-7.88-62-.66-75.79,16.09-14.08,17.08-23.32,70-4.91,97.48,7.46,11.15,34.29,26.7,60.84,25.42,14.55-.7,37.34-4.56,63.82-40.32l10.17,21-22.47,21-75.21,4.21S229.06,290,228.53,290s-13.85-45.76-13.85-45.76l-0.18-33L236.77,174l50.9-35.8,81.82,33.35L365.33,197Z"/><polygon class="cls-4" points="365.5 275.3 361.45 265.91 413.34 291.68 417.75 301.26 365.5 275.3"/><path class="cls-5" d="M303.57,104.54A131.49,131.49,0,1,0,417.75,301.26L365.6,275a73.28,73.28,0,1,1-62-112.28c34.09,0,49.18,11.75,61.77,34.25l52.33-14.5C417,158,376.19,104.54,303.57,104.54Z"/><g class="cls-6"><path class="cls-7" d="M421.27,161.32a8,8,0,0,0-8,7.31H391.17V147.41a8,8,0,1,0-2.84-.17v21.39H367.69v-52a8,8,0,1,0-2.84,0v21.73H336.95V128.31a8,8,0,1,0-2.84-.14v12.94h0v0.09h30.7v27.43H336.07a8,8,0,1,0-.17,2.84h52.44v26h-27.4a8,8,0,1,0,.16,2.84h30.08V171.47h22.4A8,8,0,1,0,421.27,161.32Z"/><path class="cls-7" d="M460.89,236a8,8,0,0,0-8,7.31H430.79V222.1a8,8,0,1,0-2.84-.17v21.39H407.31v-52a8,8,0,1,0-2.84,0V213H376.57V203a8,8,0,1,0-2.84-.14v12.94h0v0.09h30.7v27.43H375.69a8,8,0,1,0-.17,2.84H428v26h-27.4a8,8,0,1,0,.16,2.84h30.08V246.15h22.4A8,8,0,1,0,460.89,236Z"/><path class="cls-7" d="M321.69,127.31a8,8,0,0,0-8,7.31H291.59V113.4a8,8,0,1,0-2.84-.17v21.39H268.11v-52a8,8,0,1,0-2.84,0v21.73H237.37V94.29a8,8,0,1,0-2.84-.14V107.1h0v0.09h30.7v27.43H236.49a8,8,0,1,0-.17,2.84h52.44v26h-27.4a8,8,0,1,0,.16,2.84h30.08V137.46H314A8,8,0,1,0,321.69,127.31Z"/><path class="cls-7" d="M359.73,199.36a8,8,0,0,0-8,7.31H329.63V185.46a8,8,0,1,0-2.84-.17v21.39H306.16v-52a8,8,0,1,0-2.84,0V176.4H275.41V166.35a8,8,0,1,0-2.84-.14v12.94h0v0.09h30.7v27.43H274.53a8,8,0,1,0-.17,2.84H326.8v26H299.4a8,8,0,1,0,.16,2.84h30.08V209.51H352A8,8,0,1,0,359.73,199.36Z"/><path class="cls-7" d="M279.61,208.65a8,8,0,0,0-8,7.31H249.51V194.75a8,8,0,1,0-2.84-.17V216H226V164a8,8,0,1,0-2.84,0v21.73H195.29V175.64a8,8,0,1,0-2.84-.14v12.94h0v0.09h30.7V216H194.41a8,8,0,1,0-.17,2.84h52.44v26h-27.4a8,8,0,1,0,.16,2.84h30.08V218.8h22.4A8,8,0,1,0,279.61,208.65Z"/><path class="cls-7" d="M255.07,283.69a8,8,0,0,0-8,7.31H225V269.78a8,8,0,1,0-2.84-.17V291H201.49V239a8,8,0,1,0-2.84,0v21.73H170.75V250.68a8,8,0,1,0-2.84-.14v12.94h0v0.09h30.7V291H169.87a8,8,0,1,0-.17,2.84h52.44v26h-27.4a8,8,0,1,0,.16,2.84H225V293.84h22.4A8,8,0,1,0,255.07,283.69Z"/><path class="cls-7" d="M338,309.81a8,8,0,0,0-8,7.31H307.89V295.91a8,8,0,1,0-2.84-.17v21.39H284.42v-52a8,8,0,1,0-2.84,0v21.73H253.67V276.8a8,8,0,1,0-2.84-.14V289.6h0v0.09h30.7v27.43H252.79a8,8,0,1,0-.17,2.84h52.44v26h-27.4a8,8,0,1,0,.16,2.84h30.08V320h22.4A8,8,0,1,0,338,309.81Z"/><path class="cls-7" d="M252.53,342.68a8,8,0,0,0-8,7.31H222.43V328.78a8,8,0,1,0-2.84-.17V350H198.95V298a8,8,0,1,0-2.84,0v21.73H168.2V309.67a8,8,0,1,0-2.84-.14v12.94h0v0.09h30.7V350H167.33a8,8,0,1,0-.17,2.84h52.44v26h-27.4a8,8,0,1,0,.16,2.84h30.08V352.83h22.4A8,8,0,1,0,252.53,342.68Z"/><path class="cls-7" d="M375.51,377.13a8,8,0,0,0-8,7.31H345.41V363.23a8,8,0,1,0-2.84-.17v21.39H321.93v-52a8,8,0,1,0-2.84,0v21.73H291.19V344.12a8,8,0,1,0-2.84-.14v12.94h0V357h30.7v27.43H290.31a8,8,0,1,0-.17,2.84h52.44v26h-27.4a8,8,0,1,0,.16,2.84h30.08V387.28h22.4A8,8,0,1,0,375.51,377.13Z"/><path class="cls-7" d="M456,310.34a8,8,0,0,0-8,7.31H425.88V296.43a8,8,0,1,0-2.84-.17v21.39H402.4v-52a8,8,0,1,0-2.84,0v21.73H371.66V277.33a8,8,0,1,0-2.84-.14v12.94h0v0.09h30.7v27.43H370.78a8,8,0,1,0-.17,2.84H423v26h-27.4a8,8,0,1,0,.16,2.84h30.08V320.49h22.4A8,8,0,1,0,456,310.34Z"/><path class="cls-7" d="M448.62,380.38a8,8,0,0,0-8,7.31H418.52V366.47a8,8,0,1,0-2.84-.17v21.39H395v-52a8,8,0,1,0-2.84,0v21.73H364.3V347.37a8,8,0,1,0-2.84-.14v12.94h0v0.09h30.7v27.43H363.42a8,8,0,1,0-.17,2.84h52.44v26h-27.4a8,8,0,1,0,.16,2.84h30.08V390.53h22.4A8,8,0,1,0,448.62,380.38Z"/></g><path class="cls-8" d="M169.29,437.44a31,31,0,0,1-4.34,9.77,33,33,0,0,1-7.1,7.65,32.51,32.51,0,0,1-9.23,5,32.33,32.33,0,0,1-23.21-.72,33.28,33.28,0,0,1-10.33-6.92,32.46,32.46,0,0,1-7-10.32,32.2,32.2,0,0,1,0-25.2,33,33,0,0,1,17.34-17.28,32.39,32.39,0,0,1,23.44-.65,32.25,32.25,0,0,1,9.32,5.25,33.86,33.86,0,0,1,7.15,8,31.55,31.55,0,0,1,4.25,10h-7a26.55,26.55,0,0,0-3.62-7.42,25.62,25.62,0,0,0-5.61-5.79,26.06,26.06,0,0,0-7.19-3.8,25.51,25.51,0,0,0-18.19.68,25.93,25.93,0,0,0-13.66,13.69,25.49,25.49,0,0,0,0,20A25.93,25.93,0,0,0,128,453.06a25.38,25.38,0,0,0,18,.72,26.91,26.91,0,0,0,7.06-3.62,25.35,25.35,0,0,0,9.28-12.71h7Z"/><path class="cls-9" d="M221.95,396.9h6.79v64.7h-6.79v-29H183.49v29H176.7V396.9h6.79v29h38.46v-29Z"/><path class="cls-9" d="M269.55,396.9L298,461.6h-7.33l-8.78-20H252.08l-8.78,20H236l28.41-64.7h5.16Zm9.32,37.92L267,407.76l-11.94,27.06h23.8Z"/><path class="cls-9" d="M320.16,432.65l32.67,29h-10L312,434.18V461.6H305.2V396.9h25.66a17.28,17.28,0,0,1,6.89,1.4,17.64,17.64,0,0,1,5.67,3.84,18.53,18.53,0,0,1,3.81,5.7,17.2,17.2,0,0,1,1.41,6.88,17.42,17.42,0,0,1-1.41,7,18.51,18.51,0,0,1-3.81,5.7,17.61,17.61,0,0,1-5.67,3.85,17.27,17.27,0,0,1-6.89,1.4h-10.7ZM312,425.86h18.82a10.92,10.92,0,0,0,4.3-.86,10.6,10.6,0,0,0,3.53-2.4,11.66,11.66,0,0,0,2.35-3.53,11.29,11.29,0,0,0,0-8.64,11,11,0,0,0-10.18-6.74H312v22.17Z"/><path class="cls-9" d="M402.84,454.82v6.79H360V396.9h6.79v57.91h36Z"/><path class="cls-9" d="M427.9,403.69v51.13h11v6.79H410.07v-6.79h11V403.69h-11V396.9h28.87v6.79h-11Z"/><path class="cls-9" d="M446.18,396.9H488.8v6.79H453v22.17h26.15v6.79H453v22.17H488.8v6.79H446.18V396.9Z"/><path class="cls-10" d="M212.56,478.3h33.06v4.63H231.4v39.54h-4.63V482.94H212.56V478.3Z"/><path class="cls-10" d="M250.5,478.3h29.1v4.63H255.13v15.14H273v4.63H255.13v15.14H279.6v4.63H250.5V478.3Z"/><path class="cls-10" d="M307.46,478.3l19.4,44.18h-5l-6-13.66H295.54l-6,13.66h-5l19.4-44.18h3.52Zm6.36,25.89-8.09-18.47-8.16,18.47h16.25Z"/><path class="cls-10" d="M374.32,478.3v44.18h-4.63V490.6l-15,31.88h-3.4l-14.83-31.82v31.82h-4.63V478.3h4L353,515.19l17.3-36.89h4Z"/></svg>