<?xml version="1.0" encoding="utf-8"?>
<!-- Generator: Adobe Illustrator 17.0.0, SVG Export Plug-In . SVG Version: 6.00 Build 0)  -->
<!DOCTYPE svg PUBLIC "-//W3C//DTD SVG 1.1//EN" "http://www.w3.org/Graphics/SVG/1.1/DTD/svg11.dtd">
<svg version="1.1" id="Layer_1" xmlns="http://www.w3.org/2000/svg" xmlns:xlink="http://www.w3.org/1999/xlink" x="0px" y="0px"
	 width="792px" height="612px" viewBox="0 0 792 612" enable-background="new 0 0 792 612" xml:space="preserve">
<g>
	<g>
		<circle fill="#F06460" cx="395.582" cy="306.059" r="230.67"/>
		<g>
			<path fill="#FFFFFF" d="M395.581,517.525c-116.602,0-211.466-94.863-211.466-211.465c0-116.604,94.863-211.467,211.466-211.467
				c116.604,0,211.467,94.863,211.467,211.467C607.048,422.662,512.185,517.525,395.581,517.525z M395.581,103.456
				c-111.715,0-202.603,90.888-202.603,202.604s90.887,202.602,202.603,202.602s202.604-90.886,202.604-202.602
				S507.297,103.456,395.581,103.456z"/>
		</g>
	</g>
	<path fill="#E85C59" d="M598.185,306.06c0-5.333-0.271-10.6-0.678-15.83l-75.82-84.383L273.052,341.899l160.946,163.062
		C527.4,486.956,598.185,404.639,598.185,306.06z"/>
	<g>
		<path fill="#F8C999" d="M378.692,201.854l-91.761,0.003c-17.091,0.001-30.945,13.856-30.944,30.946l0.002,56.303
			c0.001,13.488,8.645,24.928,20.684,29.165c3.704,1.253,5.983,5.289,4.344,9.659c-2.149,5.731-5.73,13.969-5.73,13.969
			s23.623-21.849,40.875-21.85l62.535-0.002c17.091-0.001,30.945-13.856,30.944-30.946l-0.002-56.303
			C409.637,215.708,395.782,201.854,378.692,201.854z"/>
		<path fill="#FFFFFF" d="M273.052,341.899c0-0.512,0.176-0.982,0.474-1.352c0.806-1.859,3.673-8.558,5.482-13.372
			c0.562-1.503,0.537-2.98-0.08-4.277c-0.583-1.226-1.629-2.145-2.967-2.598c-13.23-4.659-22.119-17.192-22.119-31.194
			l-0.004-56.301c0-18.249,14.846-33.095,33.095-33.095l91.76-0.004c18.25,0,33.095,14.846,33.095,33.091l0.004,56.306
			c0,18.249-14.846,33.095-33.095,33.095h-62.534c-16.205,0.004-39.189,21.066-39.416,21.28c-0.411,0.378-0.936,0.571-1.461,0.571
			c-0.034,0.004-0.063,0-0.084,0C274.013,344.048,273.052,343.087,273.052,341.899z M286.932,204.008
			c-15.878,0-28.797,12.919-28.797,28.797l0.004,56.301c0,12.18,7.735,23.085,19.223,27.131c2.392,0.81,4.378,2.564,5.448,4.818
			c1.108,2.338,1.188,5.045,0.218,7.631c-0.676,1.805-1.498,3.866-2.304,5.838c8.491-6.648,23.257-16.621,35.437-16.625h62.534
			c15.878,0,28.797-12.919,28.797-28.797l-0.004-56.306c0-15.878-12.919-28.793-28.797-28.793L286.932,204.008z"/>
		<g>
			<path fill="#FFFFFF" d="M391.958,247.011H274.782c-2.374,0-4.298-1.924-4.298-4.298c0-2.374,1.924-4.298,4.298-4.298h117.176
				c2.374,0,4.298,1.924,4.298,4.298C396.256,245.087,394.331,247.011,391.958,247.011z"/>
		</g>
		<g>
			<path fill="#FFFFFF" d="M391.958,264.866H274.782c-2.374,0-4.298-1.924-4.298-4.298c0-2.374,1.924-4.298,4.298-4.298h117.176
				c2.374,0,4.298,1.924,4.298,4.298C396.256,262.942,394.331,264.866,391.958,264.866z"/>
		</g>
		<g>
			<path fill="#FFFFFF" d="M335.57,282.721h-60.788c-2.374,0-4.298-1.924-4.298-4.298s1.924-4.298,4.298-4.298h60.788
				c2.374,0,4.298,1.924,4.298,4.298S337.944,282.721,335.57,282.721z"/>
		</g>
	</g>
	<g>
		<g>
			<path fill="#00B498" d="M408.094,199.706l91.761,0.003c17.091,0.001,30.945,13.856,30.944,30.946l-0.002,56.303
				c-0.001,13.488-8.645,24.928-20.684,29.165c-3.704,1.253-5.983,5.289-4.345,9.659c2.149,5.731,5.73,13.969,5.73,13.969
				s-23.623-21.849-40.875-21.85L408.09,317.9c-17.091-0.001-30.945-13.856-30.944-30.946l0.002-56.303
				C377.148,213.56,391.004,199.705,408.094,199.706z"/>
			<path fill="#FFFFFF" d="M511.585,341.9c-0.021,0-0.05,0.004-0.084,0c-0.525,0-1.049-0.193-1.461-0.571
				c-0.227-0.214-23.211-21.276-39.416-21.28H408.09c-18.25,0-33.095-14.846-33.095-33.095l0.004-56.306
				c0-18.245,14.846-33.091,33.095-33.091l91.76,0.004c18.25,0,33.095,14.846,33.095,33.095l-0.004,56.301
				c0,14.002-8.89,26.535-22.119,31.194c-1.339,0.453-2.384,1.372-2.967,2.598c-0.617,1.297-0.642,2.774-0.08,4.277
				c1.809,4.814,4.676,11.513,5.482,13.372c0.298,0.369,0.474,0.839,0.474,1.352C513.734,340.939,512.772,341.9,511.585,341.9z
				 M408.094,201.856c-15.878,0-28.797,12.915-28.797,28.793l-0.004,56.306c0,15.878,12.919,28.797,28.797,28.797h62.534
				c12.18,0.004,26.946,9.977,35.437,16.625c-0.806-1.973-1.629-4.034-2.304-5.838c-0.97-2.585-0.89-5.293,0.218-7.631
				c1.07-2.254,3.056-4.008,5.448-4.818c11.488-4.046,19.223-14.951,19.223-27.131l0.004-56.301
				c0-15.878-12.919-28.797-28.797-28.797L408.094,201.856z"/>
		</g>
		<g>
			<g>
				<path fill="#FFFFFF" d="M419.9,303.086c-0.148-0.023-0.29-0.08-0.413-0.168c-0.153-0.109-0.252-0.143-0.45-0.211
					c-0.138-0.048-0.285-0.1-0.457-0.174c-3.638-1.579-3.636-5.086-3.635-7.903l-0.009-11.824l-0.03-58.915
					c-0.006-1.808-0.011-3.516,0.989-5.099c0.991-1.561,2.223-2.047,3.038-2.368c0.265-0.104,0.493-0.194,0.644-0.291
					c0.156-0.1,0.336-0.152,0.521-0.152l67.484-0.037c0.152-0.001,0.302,0.036,0.438,0.104c0.22,0.111,0.445,0.18,0.707,0.26
					c0.439,0.134,0.936,0.285,1.501,0.66c2.765,1.83,2.768,4.474,2.771,7.031l0,0.259l0.037,70.683
					c-0.001,1.93-0.003,3.753-0.996,5.314c-1.033,1.624-2.249,2.067-3.137,2.39c-0.273,0.099-0.508,0.185-0.686,0.286
					c-0.146,0.084-0.313,0.128-0.482,0.128l-67.687,0.037C420,303.098,419.95,303.094,419.9,303.086z M420.356,217.923
					c-0.232,0.12-0.474,0.215-0.71,0.308c-0.717,0.283-1.458,0.574-2.11,1.601c-0.697,1.103-0.693,2.405-0.688,4.053l0.001,0.418
					l0.038,70.328c-0.001,3.143,0.164,5.122,2.468,6.122c0.119,0.052,0.222,0.087,0.317,0.12c0.194,0.067,0.407,0.141,0.659,0.284
					l67.168-0.036c0.246-0.118,0.497-0.209,0.742-0.298c0.763-0.277,1.484-0.54,2.163-1.608c0.691-1.085,0.692-2.563,0.693-4.273
					l0-0.195l-0.038-70.744c-0.003-2.733-0.089-4.215-1.901-5.414c-0.331-0.218-0.624-0.308-0.996-0.421
					c-0.242-0.074-0.509-0.155-0.794-0.28L420.356,217.923z"/>
			</g>
			<path fill="#FFFFFF" d="M487.349,222.106c0-0.268-0.213-0.481-0.486-0.485l-65.822,0.008c-0.129,0-0.252,0.051-0.343,0.142
				c-0.091,0.091-0.142,0.215-0.142,0.343l0.034,59.331c0,0.242,0.178,0.443,0.41,0.479c0.024,0.004,0.049,0.006,0.075,0.006
				l65.806-0.001c0.129,0,0.252-0.051,0.343-0.142c0.091-0.091,0.142-0.214,0.142-0.343L487.349,222.106z M481.055,236.977
				c-0.545,2.519-2.5,4.511-4.979,5.073c-0.911,0.207-1.798,0.246-2.635,0.116c-3.329-0.518-5.227-3.562-5.382-6.301
				c-0.182-3.222,1.744-5.703,5.152-6.636c0.71-0.194,1.535-0.227,2.384-0.095c1.063,0.166,2.116,0.582,2.816,1.116
				C480.615,231.924,481.603,234.439,481.055,236.977z M425.278,256.674l12.697-15.264c0.179-0.213,0.357-0.441,0.54-0.675
				c0.807-1.032,1.64-2.098,2.974-2.495c0.51-0.151,1.002-0.191,1.464-0.119c1.257,0.196,2.133,1.183,2.684,1.909
				c0.939,1.236,1.734,2.306,2.624,3.502l6.305,8.56c0.397,0.533,0.772,1.048,1.139,1.552c0.602,0.827,1.171,1.608,1.792,2.411
				l4.404,5.964c0.145,0.191,0.288,0.395,0.432,0.602c0.347,0.498,0.706,1.012,1.141,1.399c0.142,0.127,0.345,0.159,0.519,0.081
				c0.484-0.214,0.693-0.468,0.913-0.736c0.08-0.098,0.169-0.206,0.29-0.331l6.422-6.777c0.282-0.271,0.548-0.572,0.829-0.89
				c0.899-1.017,1.829-2.068,3.307-2.175c0.327-0.024,0.64-0.013,0.93,0.032c1.39,0.216,2.169,1.188,2.922,2.127
				c0.165,0.206,0.326,0.406,0.481,0.583l3.461,4.118c1.186,1.6,1.604,3.07,1.598,5.618c0.001,1.631,0.016,3.281,0.031,4.938
				c0.03,3.197,0.06,6.497-0.02,9.714l-63.094,0.033c-0.142-2.874-0.095-6.036-0.05-9.099c0.023-1.534,0.045-2.982,0.044-4.402
				l-0.001-0.763C422.048,260.644,422.048,260.644,425.278,256.674z"/>
		</g>
	</g>
	<g>
		<g>
			<path fill="#317460" d="M455.521,277.8H363.76c-17.091,0-30.945,13.855-30.945,30.945v56.303
				c0,13.488,8.644,24.928,20.683,29.166c3.704,1.253,5.983,5.289,4.344,9.659c-2.149,5.731-5.731,13.968-5.731,13.968
				s23.624-21.848,40.875-21.848h62.535c17.091,0,30.945-13.854,30.945-30.945v-56.303C486.466,291.654,472.611,277.8,455.521,277.8
				z"/>
			<path fill="#FFFFFF" d="M352.111,419.989c-0.432,0-0.869-0.13-1.242-0.395c-0.831-0.592-1.133-1.679-0.73-2.611
				c0.038-0.084,3.584-8.252,5.691-13.868c0.562-1.503,0.537-2.976-0.076-4.269c-0.571-1.209-1.645-2.157-2.946-2.598
				c-13.255-4.667-22.145-17.204-22.145-31.202v-56.301c0-18.249,14.846-33.095,33.095-33.095h91.764
				c18.245,0,33.091,14.846,33.091,33.095v56.301c0,18.25-14.846,33.095-33.091,33.095h-62.539
				c-16.222,0-39.185,21.062-39.412,21.276C353.161,419.796,352.636,419.989,352.111,419.989z M363.759,279.949
				c-15.878,0-28.797,12.919-28.797,28.797v56.301c0,12.18,7.735,23.085,19.248,27.139c2.371,0.806,4.361,2.564,5.431,4.823
				c1.104,2.334,1.179,5.041,0.21,7.618c-0.676,1.805-1.498,3.866-2.304,5.843c8.491-6.653,23.257-16.625,35.437-16.625h62.539
				c15.878,0,28.793-12.919,28.793-28.797v-56.301c0-15.878-12.915-28.797-28.793-28.797H363.759z"/>
		</g>
		<path fill="#FFFFFF" d="M429.492,321.296c-1.105,0.007-1.105,0.007-1.531,0.084c-2.894,0.473-2.447,0.563-5.354,1.032
			c-4.683,0.742-9.373,1.491-14.061,2.257c-4.151,0.649-8.921,1.429-8.921,1.429c0.95-0.151,0.013-0.415,0,0
			c-0.257,9.526-1.38,21.345-3.503,30.124c-0.059,3.14-2.613,5.387-4.707,7.61c-1.829,1.946-4.115,3.1-6.755,3.552
			c-0.241,0.044-0.512-0.007-0.719,0.194c-0.849-0.031-1.701-0.063-2.561-0.079c-1.131-0.166-2.203-0.479-3.158-1.103
			c-2.419-1.557-3.767-3.751-3.729-6.646c0.056-4.549,2.397-7.691,6.216-9.902c1.47-0.867,3.112-1.2,4.759-1.527
			c3.26-0.634,5.416-3.15,5.511-6.468c0.245-8.502,0.52-17.002,0.707-25.506c0.051-2.795,2.114-5.602,5.39-5.99
			c1.759-0.201,3.506-0.535,5.265-0.816c3.406-0.561,6.814-1.071,10.217-1.639c2.764-0.454,5.526-0.872,8.294-1.328
			c2.682-0.427,5.357-0.867,8.053-1.283c1.322-0.207,2.647-0.426,3.987-0.565c0.372,0.013,0.757,0.023,1.14,0.031
			c0.378,0.179,0.788,0.3,1.127,0.561c0.668,0.535,1.032,1.233,1.031,2.085c-0.012,1.513-0.074,3.04-0.118,4.56
			c-0.003,0.421-0.011,0.854-0.017,1.278c-0.355,12.743-0.708,25.478-1.08,38.223c-0.095,3.119-1.399,5.731-3.638,7.877
			c-1.679,1.606-3.661,2.685-5.937,3.15c-2.23,0.458-4.437,0.316-6.478-0.756c-2.823-1.495-4.381-4.315-4.076-7.612
			c0.348-3.839,2.413-6.613,5.585-8.636c1.478-0.929,3.082-1.435,4.791-1.695c2.035-0.33,4.145-1.336,3.921-3.441
			c-0.049,2.631,0.443-25.903-0.227-17.635"/>
	</g>
</g>
</svg>
