<?xml version="1.0" encoding="utf-8"?>
<!-- Generator: Adobe Illustrator 17.0.0, SVG Export Plug-In . SVG Version: 6.00 Build 0)  -->
<!DOCTYPE svg PUBLIC "-//W3C//DTD SVG 1.1//EN" "http://www.w3.org/Graphics/SVG/1.1/DTD/svg11.dtd">
<svg version="1.1" id="Layer_1" xmlns="http://www.w3.org/2000/svg" xmlns:xlink="http://www.w3.org/1999/xlink" x="0px" y="0px"
	 width="792px" height="612px" viewBox="0 0 792 612" enable-background="new 0 0 792 612" xml:space="preserve">
<circle fill="#F06460" cx="395.625" cy="306.525" r="206.336"/>
<path fill="#E85C59" d="M575.047,281.191l-21.426-21.426l-84.868,74.303l-76.599-33.985l-101.791,80.036L397.94,487.696
	c98.863-1.25,178.915-82.017,178.915-181.17C576.855,297.925,576.212,289.475,575.047,281.191z"/>
<g>
	<path fill="#FFFFFF" d="M395.624,495.683c-104.302,0-189.158-84.856-189.158-189.157c0-104.303,84.856-189.159,189.158-189.159
		c104.303,0,189.159,84.856,189.159,189.159C584.784,410.826,499.928,495.683,395.624,495.683z M395.624,125.294
		c-99.931,0-181.23,81.301-181.23,181.231s81.3,181.229,181.23,181.229s181.231-81.299,181.231-181.229
		S495.555,125.294,395.624,125.294z"/>
</g>
<path fill="#317460" d="M297.424,264.82c0,17.941,14.544,32.486,32.486,32.486v-64.972
	C311.968,232.334,297.424,246.878,297.424,264.82z"/>
<path fill="#2D6653" d="M362.396,264.82c0-17.941-14.545-32.486-32.486-32.486v64.972
	C347.851,297.306,362.396,282.761,362.396,264.82z"/>
<path fill="#2D6653" d="M378.732,285.642l-10.79,11.609c-9.17,10.743-22.801,17.563-38.032,17.563v85.378
	c11.88,4.885,24.401,8.536,37.436,10.683v-76.632l28.279-30.426L378.732,285.642z"/>
<path fill="#317460" d="M329.909,314.814c-15.232,0-28.863-6.821-38.033-17.565l-33.498-36.04
	c-4.652-5.005-12.482-5.292-17.487-0.639c-5.005,4.652-5.292,12.482-0.639,17.487l52.222,56.185v44.8
	c11.456,8.542,24.036,15.638,37.436,21.149L329.909,314.814L329.909,314.814z"/>
<path fill="#FFFFFF" d="M329.91,299.229c-18.973,0-34.41-15.435-34.41-34.41s15.436-34.41,34.41-34.41
	c18.973,0,34.408,15.435,34.408,34.41S348.884,299.229,329.91,299.229z M329.91,234.255c-16.854,0-30.565,13.711-30.565,30.565
	c0,16.854,13.711,30.565,30.565,30.565c16.852,0,30.563-13.711,30.563-30.565C360.474,247.966,346.762,234.255,329.91,234.255z"/>
<path fill="#049E80" d="M493.826,264.82c0-17.941-14.544-32.486-32.486-32.486v64.972
	C479.282,297.306,493.826,282.761,493.826,264.82z"/>
<path fill="#00B498" d="M428.855,264.82c0,17.941,14.545,32.486,32.486,32.486v-64.972
	C443.399,232.334,428.855,246.878,428.855,264.82z"/>
<path fill="#00B498" d="M423.307,297.25l-10.789-11.608l-16.893,18.175l28.279,30.426v76.632
	c13.035-2.148,25.556-5.798,37.436-10.683v-85.378C446.108,314.814,432.477,307.994,423.307,297.25z"/>
<path fill="#049E80" d="M550.359,260.57c-5.006-4.652-12.835-4.366-17.487,0.639l-33.499,36.042
	c-9.17,10.743-22.801,17.563-38.032,17.563v85.378c13.4-5.511,25.98-12.607,37.436-21.149v-44.801l52.222-56.185
	C555.651,273.052,555.364,265.223,550.359,260.57z"/>
<path fill="#FFFFFF" d="M461.341,299.229c-18.973,0-34.408-15.435-34.408-34.41s15.435-34.41,34.408-34.41
	c18.973,0,34.408,15.435,34.408,34.41S480.314,299.229,461.341,299.229z M461.341,234.255c-16.852,0-30.563,13.711-30.563,30.565
	c0,16.854,13.711,30.565,30.563,30.565s30.563-13.711,30.563-30.565C491.904,247.966,478.193,234.255,461.341,234.255z"/>
<path fill="#FFFFFF" d="M369.268,413.139l-2.234-0.368c-27.327-4.502-53.507-15.63-75.71-32.191l-0.773-0.574v-45.008l-51.706-55.63
	c-5.367-5.774-5.037-14.841,0.738-20.206c2.654-2.467,6.11-3.826,9.732-3.826c3.961,0,7.777,1.663,10.473,4.562l33.497,36.043
	c9.217,10.794,22.547,16.951,36.627,16.951c14.081,0,27.411-6.157,36.568-16.888l12.253-13.186l19.518,20.999l-28.981,31.181
	V413.139z M294.395,378.073c20.939,15.427,45.431,25.947,71.029,30.524v-75.108L393,303.817l-14.269-15.352l-9.382,10.096
	c-9.835,11.526-24.229,18.175-39.439,18.175c-15.206,0-29.602-6.649-39.497-18.239l-33.443-35.979
	c-3.769-4.059-10.706-4.318-14.772-0.541c-4.22,3.923-4.462,10.55-0.539,14.77l52.735,56.741V378.073z"/>
<path fill="#FFFFFF" d="M421.983,413.139v-78.141L393,303.817l19.518-20.999l12.198,13.122
	c9.215,10.794,22.546,16.951,36.625,16.951c14.081,0,27.411-6.157,36.57-16.888l33.554-36.107c2.696-2.898,6.512-4.562,10.473-4.562
	c3.621,0,7.077,1.359,9.73,3.826c5.774,5.369,6.107,14.432,0.74,20.206l-51.708,55.63v45.012l-0.773,0.574
	c-22.204,16.557-48.384,27.685-75.709,32.187L421.983,413.139z M398.249,303.817l27.578,29.671v75.108
	c25.596-4.573,50.088-15.093,71.027-30.52v-44.588l52.737-56.741c3.923-4.22,3.681-10.847-0.541-14.77
	c-4.092-3.803-10.969-3.544-14.77,0.541l-33.499,36.043c-9.837,11.526-24.233,18.175-39.441,18.175
	c-15.207,0-29.602-6.649-39.495-18.239l-9.328-10.032L398.249,303.817z"/>
<path fill="#F8C999" d="M389.809,261.209c-4.653-5.005-12.482-5.292-17.488-0.639c-5.005,4.652-5.292,12.482-0.639,17.487
	l7.049,7.584l16.893,18.175v-36.35L389.809,261.209z"/>
<path fill="#F4BE8E" d="M418.928,260.57c-5.006-4.652-12.835-4.366-17.487,0.639l-5.816,6.257v36.35l16.893-18.175l7.049-7.584
	C424.22,273.052,423.934,265.223,418.928,260.57z"/>
<path fill="#FFFFFF" d="M395.625,306.641l-25.35-27.272c-2.6-2.797-3.955-6.439-3.815-10.257c0.139-3.818,1.757-7.351,4.554-9.949
	c2.652-2.467,6.108-3.826,9.73-3.826c3.961,0,7.777,1.663,10.473,4.562l4.408,4.746l4.408-4.746
	c2.696-2.898,6.514-4.562,10.473-4.562c3.621,0,7.077,1.359,9.732,3.826c2.797,2.598,4.413,6.135,4.554,9.949
	c0.139,3.818-1.216,7.46-3.816,10.257L395.625,306.641z M380.744,259.181c-2.647,0-5.174,0.995-7.113,2.797
	c-2.044,1.9-3.227,4.483-3.33,7.272c-0.101,2.793,0.89,5.455,2.79,7.498l22.534,24.246l22.534-24.246
	c1.902-2.042,2.891-4.704,2.79-7.498c-0.101-2.79-1.284-5.373-3.328-7.272c-4.092-3.8-10.967-3.544-14.772,0.541l-7.224,7.772
	l-7.224-7.772C386.432,260.397,383.64,259.181,380.744,259.181z"/>
</svg>
