<?xml version="1.0" encoding="utf-8"?>
<!-- Generator: Adobe Illustrator 17.0.0, SVG Export Plug-In . SVG Version: 6.00 Build 0)  -->
<!DOCTYPE svg PUBLIC "-//W3C//DTD SVG 1.1//EN" "http://www.w3.org/Graphics/SVG/1.1/DTD/svg11.dtd">
<svg version="1.1" id="Layer_1" xmlns="http://www.w3.org/2000/svg" xmlns:xlink="http://www.w3.org/1999/xlink" x="0px" y="0px"
	 width="792px" height="612px" viewBox="0 0 792 612" enable-background="new 0 0 792 612" xml:space="preserve">
<g>
	<circle fill="#F06460" cx="395.625" cy="306.024" r="203.67"/>
	<path fill="#E85C59" d="M572.729,281.018l-21.149-21.149l-83.771,73.343l-75.609-33.545l-100.475,79.002L397.91,484.854
		c97.585-1.234,176.603-80.957,176.603-178.829C574.513,297.536,573.878,289.195,572.729,281.018z"/>
	<g>
		<path fill="#FFFFFF" d="M395.624,492.738c-102.954,0-186.714-83.76-186.714-186.713c0-102.955,83.76-186.715,186.714-186.715
			c102.955,0,186.715,83.76,186.715,186.715C582.339,408.978,498.58,492.738,395.624,492.738z M395.624,127.136
			c-98.639,0-178.888,80.25-178.888,178.889s80.249,178.887,178.888,178.887s178.889-80.248,178.889-178.887
			S494.264,127.136,395.624,127.136z"/>
	</g>
	<g>
		<circle fill="#317460" cx="330.759" cy="264.859" r="32.066"/>
		<path fill="#FFFFFF" d="M330.76,298.822c-18.728,0-33.965-15.235-33.965-33.963c0-18.728,15.237-33.963,33.965-33.963
			c18.728,0,33.963,15.235,33.963,33.963C364.723,283.587,349.488,298.822,330.76,298.822z M330.76,234.691
			c-16.636,0-30.17,13.534-30.17,30.168s13.534,30.168,30.17,30.168c16.634,0,30.168-13.534,30.168-30.168
			S347.394,234.691,330.76,234.691z"/>
	</g>
	<g>
		<circle fill="#00B498" cx="460.491" cy="264.859" r="32.066"/>
		<path fill="#FFFFFF" d="M460.49,298.822c-18.726,0-33.961-15.235-33.961-33.963c0-18.728,15.235-33.963,33.961-33.963
			c18.73,0,33.965,15.235,33.965,33.963C494.454,283.587,479.219,298.822,460.49,298.822z M460.49,234.691
			c-16.632,0-30.166,13.534-30.166,30.168s13.534,30.168,30.166,30.168c16.636,0,30.17-13.534,30.17-30.168
			S477.125,234.691,460.49,234.691z"/>
	</g>
	<g>
		<path fill="#317460" d="M395.625,303.352l-16.675-17.94L368.3,296.871c-9.052,10.604-22.506,17.336-37.541,17.336
			c-15.035,0-28.49-6.733-37.542-17.337l-33.065-35.575c-4.592-4.941-12.32-5.223-17.261-0.631
			c-4.941,4.592-5.223,12.32-0.631,17.261l51.547,55.459v44.221c21.334,15.907,46.525,26.91,73.905,31.421v-75.642L395.625,303.352z
			"/>
		<path fill="#FFFFFF" d="M369.609,411.262l-2.205-0.363c-26.974-4.443-52.815-15.428-74.732-31.775l-0.763-0.567V334.13
			l-51.038-54.913c-5.296-5.7-4.97-14.646,0.728-19.943c5.49-5.096,14.857-4.749,19.943,0.73l33.064,35.575
			c9.096,10.655,22.254,16.73,36.153,16.73c13.899,0,27.055-6.076,36.096-16.671l12.094-13.013l19.265,20.727l-28.606,30.778
			V411.262z M295.703,376.648c20.668,15.228,44.844,25.612,70.111,30.129V332.64l27.22-29.288l-14.084-15.154l-9.261,9.963
			c-9.71,11.381-23.918,17.942-38.929,17.942c-15.011,0-29.221-6.561-38.986-18.002l-33.011-35.516
			c-3.723-4.004-10.567-4.26-14.581-0.534c-4.165,3.873-4.403,10.414-0.532,14.581l52.054,56.006V376.648z"/>
	</g>
	<g>
		<path fill="#00B498" d="M548.99,277.925c4.592-4.941,4.31-12.669-0.631-17.261c-4.941-4.592-12.669-4.31-17.261,0.631
			l-33.066,35.576c-9.051,10.604-22.506,17.336-37.541,17.336c-15.035,0-28.491-6.733-37.542-17.337l-10.65-11.458l-16.675,17.94
			l27.914,30.032v75.642c27.38-4.511,52.571-15.513,73.905-31.42v-44.222L548.99,277.925z"/>
		<path fill="#FFFFFF" d="M421.64,411.262V334.13l-28.606-30.778l19.267-20.727l12.037,12.954
			c9.098,10.655,22.254,16.73,36.151,16.73c13.901,0,27.057-6.076,36.099-16.671l33.12-35.634c2.661-2.863,6.426-4.505,10.34-4.505
			c3.573,0,6.982,1.34,9.602,3.775c5.7,5.298,6.026,14.244,0.73,19.943l-51.038,54.913v44.43l-0.763,0.567
			c-21.921,16.343-47.762,27.331-74.734,31.771L421.64,411.262z M398.215,303.352l27.22,29.288v74.137
			c25.267-4.514,49.441-14.898,70.112-30.125V332.64l52.053-56.006c3.873-4.167,3.632-10.708-0.534-14.581
			c-4.043-3.758-10.829-3.5-14.579,0.534l-33.068,35.575c-9.71,11.381-23.918,17.942-38.931,17.942
			c-15.009,0-29.218-6.561-38.983-18.002l-9.206-9.904L398.215,303.352z"/>
	</g>
	<g>
		<path fill="#F8C999" d="M418.627,260.664c-4.941-4.592-12.669-4.31-17.261,0.631l-5.741,6.176l-5.74-6.176
			c-4.593-4.941-12.321-5.223-17.262-0.631c-4.941,4.592-5.223,12.32-0.631,17.261l6.958,7.486l16.675,17.94l16.675-17.94
			l6.958-7.486C423.85,272.984,423.568,265.256,418.627,260.664z"/>
		<path fill="#FFFFFF" d="M395.625,306.139l-25.022-26.922c-5.296-5.7-4.97-14.646,0.73-19.943
			c5.485-5.096,14.853-4.749,19.942,0.73l4.351,4.681l4.351-4.681c2.661-2.863,6.43-4.505,10.34-4.505
			c3.573,0,6.986,1.34,9.606,3.775c5.696,5.298,6.022,14.244,0.726,19.943L395.625,306.139z M380.936,259.294
			c-2.613,0-5.107,0.98-7.021,2.759c-4.165,3.873-4.405,10.414-0.534,14.581l22.243,23.931l22.243-23.931
			c3.873-4.167,3.632-10.708-0.534-14.581c-4.032-3.754-10.825-3.502-14.579,0.534l-7.13,7.671l-7.13-7.671
			C386.549,260.493,383.795,259.294,380.936,259.294z"/>
	</g>
</g>
</svg>
