<?xml version="1.0" encoding="utf-8"?>
<!-- Generator: Adobe Illustrator 17.0.0, SVG Export Plug-In . SVG Version: 6.00 Build 0)  -->
<!DOCTYPE svg PUBLIC "-//W3C//DTD SVG 1.1//EN" "http://www.w3.org/Graphics/SVG/1.1/DTD/svg11.dtd">
<svg version="1.1" id="Layer_1" xmlns="http://www.w3.org/2000/svg" xmlns:xlink="http://www.w3.org/1999/xlink" x="0px" y="0px"
	 width="792px" height="612px" viewBox="0 0 792 612" enable-background="new 0 0 792 612" xml:space="preserve">
<g>
	<g>
		<circle fill="#F06460" cx="395.582" cy="306.059" r="211.67"/>
		<g>
			<path fill="#FFFFFF" d="M395.581,500.107c-106.998,0-194.048-87.05-194.048-194.047c0-106.999,87.05-194.049,194.048-194.049
				c106.999,0,194.049,87.05,194.049,194.049C589.63,413.057,502.58,500.107,395.581,500.107z M395.581,120.145
				c-102.514,0-185.915,83.402-185.915,185.916s83.401,185.914,185.915,185.914s185.916-83.4,185.916-185.914
				S498.095,120.145,395.581,120.145z"/>
		</g>
	</g>
	<path fill="#E85C59" d="M581.497,306.06c0-4.893-0.249-9.727-0.622-14.526l-67.885-67.885L307.373,365.117l123.461,123.461
		C516.542,472.055,581.497,396.519,581.497,306.06z"/>
	<g>
		<g>
			<path fill="#F8C999" d="M361.318,212.641l-80.464,24.813c-14.986,4.621-23.389,20.517-18.767,35.503l15.225,49.371
				c3.647,11.827,14.321,19.522,26.023,19.982c3.586,0.098,6.677,3.02,6.421,7.295c-0.335,5.606-1.248,13.798-1.248,13.798
				s14.808-25.546,29.935-30.211l54.836-16.91c14.986-4.621,23.389-20.517,18.768-35.503l-15.225-49.371
				C392.2,216.422,376.304,208.02,361.318,212.641z"/>
			<path fill="#FFFFFF" d="M308.507,365.377c-0.204,0-0.412-0.031-0.616-0.1c-0.886-0.293-1.448-1.163-1.344-2.091
				c0.012-0.081,0.913-8.208,1.24-13.7c0.089-1.467-0.335-2.758-1.221-3.724c-0.843-0.917-2.01-1.444-3.285-1.479
				c-12.883-0.505-24.068-9.093-27.854-21.372l-15.225-49.372c-4.934-16.003,4.067-33.034,20.07-37.968l80.465-24.811
				c2.919-0.901,5.931-1.356,8.959-1.356c13.399,0,25.058,8.608,29.009,21.426l15.225,49.368
				c4.934,16.003-4.067,33.034-20.07,37.968l-54.838,16.912c-14.208,4.383-28.667,29.067-28.809,29.318
				C309.852,365.015,309.197,365.377,308.507,365.377z M369.696,213.347c-2.631,0-5.253,0.397-7.795,1.179l-80.465,24.811
				c-13.923,4.294-21.761,19.115-17.467,33.038l15.225,49.372c3.297,10.684,13.026,18.156,24.218,18.591
				c2.299,0.065,4.514,1.071,6.062,2.758c1.602,1.749,2.399,4.102,2.249,6.625c-0.104,1.768-0.27,3.798-0.443,5.75
				c5.65-8.131,15.899-20.867,26.579-24.16l54.838-16.912c13.923-4.294,21.761-19.115,17.467-33.038l-15.225-49.369
				C391.499,220.838,381.355,213.347,369.696,213.347z"/>
		</g>
		<g>
			<g>
				<path fill="#FFFFFF" d="M281.682,279.858c-1.687,0-3.247-1.09-3.771-2.785c-0.639-2.08,0.528-4.287,2.611-4.93l98.252-30.242
					c2.084-0.647,4.287,0.532,4.93,2.611c0.639,2.08-0.528,4.287-2.611,4.93l-98.252,30.242
					C282.456,279.804,282.063,279.858,281.682,279.858z"/>
			</g>
			<g>
				<path fill="#FFFFFF" d="M286.504,295.518c-1.687,0-3.247-1.09-3.771-2.785c-0.639-2.08,0.528-4.287,2.611-4.93l98.248-30.242
					c2.091-0.647,4.287,0.532,4.93,2.611c0.639,2.08-0.528,4.287-2.611,4.93l-98.248,30.242
					C287.278,295.465,286.885,295.518,286.504,295.518z"/>
			</g>
			<g>
				<path fill="#FFFFFF" d="M291.322,311.179c-1.687,0-3.247-1.09-3.771-2.785c-0.639-2.08,0.528-4.287,2.611-4.93l98.252-30.242
					c2.084-0.651,4.287,0.535,4.93,2.611c0.639,2.08-0.528,4.287-2.611,4.93l-98.252,30.242
					C292.096,311.125,291.703,311.179,291.322,311.179z"/>
			</g>
		</g>
	</g>
	<g>
		<g>
			<path fill="#00B498" d="M407.064,216.354l84.203,0.003c15.683,0.001,28.396,12.715,28.395,28.397l-0.002,51.666
				c0,12.377-7.933,22.874-18.98,26.763c-3.399,1.15-5.49,4.853-3.987,8.863c1.972,5.259,5.258,12.818,5.258,12.818
				s-21.677-20.049-37.508-20.05l-57.384-0.002c-15.683-0.001-28.396-12.714-28.395-28.397l0.002-51.666
				C378.667,229.067,391.381,216.354,407.064,216.354z"/>
			<path fill="#FFFFFF" d="M502.03,346.836c-0.019,0-0.046,0.004-0.077,0c-0.481,0-0.963-0.177-1.34-0.524
				c-0.208-0.196-21.299-19.523-36.169-19.527h-57.383c-16.746,0-30.369-13.623-30.369-30.369l0.004-51.668
				c0-16.742,13.623-30.365,30.369-30.365l84.201,0.004c16.746,0,30.369,13.623,30.369,30.369l-0.004,51.664
				c0,12.849-8.157,24.349-20.297,28.624c-1.229,0.416-2.188,1.259-2.723,2.384c-0.566,1.19-0.589,2.546-0.073,3.925
				c1.66,4.418,4.291,10.565,5.03,12.271c0.273,0.339,0.435,0.77,0.435,1.24C504.002,345.954,503.12,346.836,502.03,346.836z
				 M407.063,218.327c-14.57,0-26.425,11.851-26.425,26.421l-0.004,51.668c0,14.57,11.855,26.425,26.425,26.425h57.383
				c11.177,0.004,24.727,9.155,32.518,15.256c-0.739-1.81-1.494-3.701-2.114-5.357c-0.89-2.373-0.817-4.857,0.2-7.002
				c0.982-2.068,2.804-3.678,4.999-4.422c10.542-3.713,17.64-13.719,17.64-24.896l0.004-51.664c0-14.57-11.855-26.425-26.425-26.425
				L407.063,218.327z"/>
		</g>
		<g>
			<g>
				<path fill="#FFFFFF" d="M417.897,311.219c-0.136-0.021-0.266-0.074-0.379-0.154c-0.14-0.1-0.231-0.131-0.413-0.194
					c-0.127-0.044-0.262-0.091-0.419-0.16c-3.338-1.449-3.337-4.667-3.336-7.252l-0.008-10.85l-0.028-54.062
					c-0.005-1.659-0.01-3.226,0.908-4.679c0.91-1.433,2.04-1.878,2.788-2.173c0.243-0.096,0.452-0.178,0.591-0.267
					c0.143-0.091,0.309-0.139,0.478-0.139l61.925-0.034c0.14-0.001,0.277,0.033,0.402,0.096c0.202,0.102,0.409,0.165,0.649,0.238
					c0.403,0.123,0.858,0.262,1.378,0.605c2.537,1.679,2.54,4.106,2.543,6.451l0,0.238l0.034,64.861
					c-0.001,1.771-0.002,3.444-0.914,4.877c-0.948,1.491-2.064,1.897-2.878,2.193c-0.251,0.091-0.467,0.17-0.629,0.263
					c-0.134,0.077-0.287,0.118-0.442,0.118l-62.112,0.034C417.989,311.23,417.942,311.226,417.897,311.219z M418.315,233.071
					c-0.213,0.11-0.435,0.197-0.651,0.282c-0.658,0.259-1.338,0.527-1.936,1.469c-0.64,1.012-0.636,2.207-0.631,3.72l0.001,0.384
					l0.035,64.535c-0.001,2.884,0.151,4.7,2.265,5.618c0.11,0.048,0.203,0.08,0.291,0.11c0.178,0.062,0.374,0.129,0.605,0.261
					l61.636-0.034c0.226-0.108,0.456-0.192,0.681-0.274c0.7-0.255,1.361-0.495,1.985-1.475c0.634-0.996,0.635-2.351,0.636-3.921
					l0-0.179l-0.035-64.917c-0.003-2.508-0.082-3.868-1.745-4.968c-0.303-0.2-0.573-0.282-0.914-0.387
					c-0.222-0.068-0.467-0.142-0.729-0.257L418.315,233.071z"/>
			</g>
			<path fill="#FFFFFF" d="M479.79,236.909c0-0.246-0.195-0.442-0.446-0.445l-60.4,0.008c-0.118,0-0.231,0.047-0.315,0.131
				c-0.083,0.084-0.131,0.197-0.13,0.315l0.031,54.444c0,0.222,0.163,0.407,0.376,0.44c0.022,0.003,0.045,0.005,0.069,0.005
				l60.386-0.001c0.118,0,0.231-0.047,0.315-0.131s0.131-0.197,0.13-0.315L479.79,236.909z M474.014,250.555
				c-0.5,2.311-2.294,4.139-4.569,4.655c-0.836,0.19-1.65,0.226-2.418,0.106c-3.055-0.476-4.797-3.268-4.938-5.782
				c-0.167-2.957,1.6-5.233,4.727-6.09c0.652-0.178,1.408-0.209,2.187-0.087c0.975,0.152,1.941,0.534,2.584,1.024
				C473.611,245.918,474.518,248.226,474.014,250.555z M422.832,268.629l11.651-14.007c0.164-0.196,0.328-0.405,0.496-0.62
				c0.74-0.947,1.505-1.925,2.729-2.289c0.468-0.138,0.92-0.175,1.344-0.109c1.153,0.18,1.958,1.086,2.463,1.751
				c0.861,1.134,1.591,2.116,2.408,3.214l5.785,7.855c0.364,0.489,0.708,0.962,1.045,1.424c0.553,0.759,1.075,1.475,1.645,2.213
				l4.041,5.473c0.133,0.175,0.264,0.363,0.396,0.552c0.318,0.457,0.648,0.929,1.047,1.284c0.131,0.116,0.317,0.146,0.477,0.075
				c0.444-0.197,0.635-0.429,0.838-0.675c0.074-0.09,0.155-0.189,0.266-0.304l5.893-6.219c0.258-0.249,0.503-0.525,0.761-0.817
				c0.825-0.933,1.678-1.898,3.034-1.996c0.3-0.022,0.587-0.012,0.854,0.029c1.275,0.199,1.991,1.09,2.682,1.952
				c0.151,0.189,0.299,0.372,0.441,0.535l3.176,3.779c1.088,1.468,1.472,2.817,1.466,5.155c0.001,1.497,0.015,3.011,0.029,4.531
				c0.027,2.933,0.055,5.962-0.018,8.914l-57.897,0.031c-0.13-2.637-0.087-5.539-0.046-8.35c0.021-1.407,0.041-2.737,0.04-4.04
				l-0.001-0.7C419.868,272.272,419.868,272.272,422.832,268.629z"/>
		</g>
	</g>
	<g>
		<g>
			<path fill="#317460" d="M450.584,280.127h-84.203c-15.683,0-28.396,12.714-28.396,28.396v51.666
				c0,12.377,7.932,22.875,18.979,26.763c3.398,1.15,5.49,4.854,3.986,8.863c-1.972,5.259-5.259,12.818-5.259,12.818
				s21.678-20.048,37.509-20.048h57.384c15.683,0,28.396-12.713,28.396-28.396v-51.666
				C478.98,292.841,466.266,280.127,450.584,280.127z"/>
			<path fill="#FFFFFF" d="M355.692,410.605c-0.397,0-0.797-0.119-1.14-0.362c-0.763-0.543-1.04-1.541-0.67-2.396
				c0.035-0.077,3.289-7.572,5.223-12.725c0.516-1.379,0.493-2.731-0.069-3.917c-0.524-1.109-1.51-1.98-2.704-2.384
				c-12.163-4.283-20.32-15.787-20.32-28.632v-51.664c0-16.746,13.623-30.369,30.369-30.369h84.205
				c16.742,0,30.365,13.623,30.365,30.369v51.664c0,16.746-13.623,30.369-30.365,30.369h-57.387
				c-14.886,0-35.958,19.327-36.166,19.523C356.655,410.428,356.173,410.605,355.692,410.605z M366.38,282.1
				c-14.57,0-26.425,11.855-26.425,26.425v51.664c0,11.177,7.098,21.183,17.663,24.904c2.176,0.74,4.002,2.353,4.984,4.425
				c1.013,2.141,1.082,4.626,0.193,6.99c-0.62,1.656-1.375,3.547-2.114,5.361c7.792-6.105,21.341-15.256,32.518-15.256h57.387
				c14.57,0,26.421-11.855,26.421-26.425v-51.664c0-14.57-11.851-26.425-26.421-26.425H366.38z"/>
		</g>
		<path fill="#FFFFFF" d="M426.699,320.041c-1.014,0.006-1.014,0.006-1.405,0.077c-2.656,0.434-2.245,0.517-4.913,0.947
			c-4.298,0.681-8.601,1.368-12.903,2.071c-3.809,0.596-8.186,1.311-8.186,1.311c0.872-0.138,0.012-0.381,0,0
			c-0.236,8.742-1.266,19.586-3.215,27.643c-0.055,2.881-2.398,4.943-4.319,6.983c-1.679,1.785-3.776,2.845-6.199,3.26
			c-0.221,0.041-0.47-0.006-0.659,0.178c-0.779-0.028-1.561-0.058-2.35-0.072c-1.038-0.152-2.022-0.44-2.897-1.012
			c-2.22-1.429-3.456-3.442-3.422-6.098c0.051-4.175,2.2-7.058,5.704-9.086c1.349-0.796,2.856-1.101,4.367-1.401
			c2.991-0.582,4.97-2.891,5.057-5.936c0.225-7.801,0.477-15.601,0.649-23.405c0.047-2.564,1.94-5.14,4.946-5.496
			c1.614-0.184,3.218-0.49,4.831-0.748c3.125-0.515,6.253-0.982,9.376-1.504c2.537-0.417,5.071-0.8,7.611-1.219
			c2.461-0.392,4.916-0.796,7.389-1.177c1.213-0.19,2.429-0.391,3.658-0.519c0.342,0.012,0.695,0.022,1.046,0.028
			c0.347,0.164,0.723,0.276,1.034,0.515c0.613,0.491,0.947,1.131,0.946,1.914c-0.011,1.388-0.068,2.789-0.108,4.184
			c-0.003,0.386-0.01,0.784-0.015,1.173c-0.326,11.694-0.65,23.38-0.991,35.075c-0.087,2.862-1.283,5.259-3.338,7.228
			c-1.54,1.474-3.36,2.464-5.448,2.891c-2.046,0.42-4.072,0.29-5.945-0.694c-2.59-1.372-4.02-3.96-3.74-6.985
			c0.319-3.522,2.214-6.068,5.125-7.925c1.356-0.853,2.828-1.316,4.397-1.556c1.867-0.302,3.804-1.226,3.598-3.158
			c-0.045,2.415,0.407-23.77-0.208-16.182"/>
	</g>
</g>
</svg>
