<?xml version="1.0" encoding="utf-8"?>
<!-- Generator: Adobe Illustrator 16.0.0, SVG Export Plug-In . SVG Version: 6.00 Build 0)  -->
<!DOCTYPE svg PUBLIC "-//W3C//DTD SVG 1.1//EN" "http://www.w3.org/Graphics/SVG/1.1/DTD/svg11.dtd">
<svg version="1.1" id="Capa_1" xmlns="http://www.w3.org/2000/svg" xmlns:xlink="http://www.w3.org/1999/xlink" x="0px" y="0px"
	 width="974.081px" height="243.919px" viewBox="0 0 974.081 243.919" enable-background="new 0 0 974.081 243.919"
	 xml:space="preserve">
<g>
	<path d="M57.134,62.896l22.228,56.874l22.225-56.874l22.227,56.874l22.15-56.874h26.042l-48.192,122.881l-22.451-59.792l-22,59.792
		L31.166,62.896H57.134z"/>
	<path fill="#39CCFF" d="M282.013,80.261c11.973,11.973,17.959,26.342,17.959,43.103c0,16.765-5.986,31.133-17.959,43.031
		c-11.974,11.9-26.342,17.89-43.105,17.89s-31.131-5.989-43.03-17.89c-11.898-11.898-17.885-26.267-17.885-43.031
		c0-16.761,5.987-31.13,17.885-43.103c11.898-11.975,26.267-17.961,43.03-17.961S270.039,68.286,282.013,80.261z M213.09,97.397
		c-7.109,7.186-10.702,15.789-10.702,25.818c0,10.103,3.593,18.707,10.702,25.817c7.109,7.111,15.716,10.701,25.817,10.701
		c10.027,0,18.634-3.59,25.819-10.701c7.183-7.11,10.775-15.715,10.775-25.817c0-10.029-3.592-18.633-10.775-25.818
		c-7.185-7.185-15.792-10.775-25.819-10.775C228.806,86.622,220.2,90.213,213.09,97.397z"/>
	<path d="M308.728,62.751h39.214c11.601,0,23.048,4.038,31.355,12.346c8.309,8.307,11.676,16.092,11.676,27.688v3.742
		c0,8.979-2.545,15.566-7.634,22.751c-5.088,7.183-9.354,9.278-17.287,12.272l27.238,41.982h-29.482l-30.832-47.146v47.146h-24.172
		L308.728,62.751z M350.187,120.896c5.014,0,7.559-1.271,11.075-4.791c3.517-3.518,4.79-7.556,4.79-12.57
		c0-4.939-1.272-8.232-4.79-11.825c-3.517-3.592-9.802-4.866-14.818-4.866h-13.543v33.978L350.187,120.896z"/>
	<path d="M428.687,62.896v45.799l26.568-45.799h27.913l-35.62,61.292l41.383,59.345H459.52l-30.833-44.303v44.303h-24.169V62.896
		H428.687z"/>
	<path d="M457.542,124.337"/>
	<polygon points="477.483,88.714 455.654,124.337 479.371,158.533 945.096,158.533 945.096,88.714 	"/>
	<path fill="#FFFFFF" d="M503.158,97.866c3.518,0,6.813,0.661,9.919,2.01c3.108,1.349,5.838,3.169,8.193,5.461l-7.221,7.221
		c-3.045-3.016-6.652-4.521-10.828-4.521c-4.238,0-7.847,1.505-10.829,4.521c-2.981,3.013-4.487,6.621-4.487,10.828
		c0,4.238,1.506,7.846,4.487,10.83c2.982,2.98,6.591,4.487,10.829,4.487c4.236,0,7.848-1.507,10.859-4.52l7.22,7.219
		c-2.354,2.323-5.086,4.143-8.193,5.494c-3.105,1.347-6.402,2.007-9.918,2.007c-7.029,0-13.057-2.509-18.048-7.501
		c-4.99-4.992-7.502-11.019-7.502-18.048c0-7.032,2.512-13.058,7.502-18.079c4.991-5.023,11.019-7.534,18.048-7.534L503.158,97.866z
		"/>
	<path fill="#FFFFFF" d="M567.408,105.275c5.023,5.021,7.535,11.047,7.535,18.079c0,7.029-2.512,13.056-7.535,18.048
		c-5.021,4.992-11.046,7.501-18.077,7.501c-7.032,0-13.059-2.509-18.048-7.501c-4.991-4.992-7.503-11.019-7.503-18.048
		c0-7.032,2.512-13.058,7.503-18.079c4.989-5.023,11.016-7.534,18.048-7.534C556.362,97.741,562.388,100.252,567.408,105.275z
		 M538.502,112.463c-2.981,3.012-4.489,6.622-4.489,10.83c0,4.235,1.508,7.846,4.489,10.827c2.981,2.982,6.592,4.489,10.829,4.489
		c4.205,0,7.814-1.507,10.826-4.489c3.016-2.981,4.521-6.592,4.521-10.827c0-4.208-1.506-7.818-4.521-10.83
		c-3.012-3.014-6.621-4.52-10.826-4.52C545.094,107.943,541.483,109.449,538.502,112.463z"/>
	<path fill="#FFFFFF" d="M608.998,125.959V97.992h10.14v51.54l-30.353-28.941v27.998h-10.138V97.05L608.998,125.959z"/>
	<path fill="#FFFFFF" d="M654.512,125.959V97.992h10.14v51.54l-30.354-28.941v27.998H624.16V97.05L654.512,125.959z"/>
	<path fill="#FFFFFF" d="M700.023,97.992v10.106h-20.213v10.142h15.16v10.105h-15.16v10.105h20.213v10.138h-20.213h-10.139V97.992
		H700.023z"/>
	<path fill="#FFFFFF" d="M728.996,97.866c3.515,0,6.812,0.661,9.918,2.01s5.838,3.169,8.191,5.461l-7.217,7.221
		c-3.045-3.016-6.655-4.521-10.83-4.521c-4.237,0-7.848,1.505-10.828,4.521c-2.982,3.013-4.489,6.621-4.489,10.828
		c0,4.238,1.507,7.846,4.489,10.83c2.98,2.98,6.591,4.487,10.828,4.487c4.238,0,7.846-1.507,10.857-4.52l7.223,7.219
		c-2.354,2.323-5.086,4.143-8.193,5.494c-3.106,1.347-6.402,2.007-9.92,2.007c-7.029,0-13.057-2.509-18.046-7.501
		s-7.502-11.019-7.502-18.048c0-7.032,2.513-13.058,7.502-18.079c4.989-5.023,11.017-7.534,18.046-7.534L728.996,97.866z"/>
	<path fill="#FFFFFF" d="M773.032,97.992h12.65v10.106h-12.65v40.49h-10.137v-40.49h-12.649V97.992h12.649H773.032z"/>
	<path fill="#FFFFFF" d="M790.076,97.992h10.14v50.597h-10.14V97.992z"/>
	<path fill="#FFFFFF" d="M847.611,105.275c5.021,5.021,7.532,11.047,7.532,18.079c0,7.029-2.511,13.056-7.532,18.048
		c-5.023,4.992-11.049,7.501-18.08,7.501c-7.03,0-13.058-2.509-18.048-7.501c-4.991-4.992-7.503-11.019-7.503-18.048
		c0-7.032,2.512-13.058,7.503-18.079c4.99-5.023,11.018-7.534,18.048-7.534C836.563,97.741,842.588,100.252,847.611,105.275z
		 M818.702,112.463c-2.981,3.012-4.487,6.622-4.487,10.83c0,4.235,1.506,7.846,4.487,10.827c2.981,2.982,6.592,4.489,10.829,4.489
		c4.207,0,7.814-1.507,10.829-4.489c3.013-2.981,4.521-6.592,4.521-10.827c0-4.208-1.509-7.818-4.521-10.83
		c-3.015-3.014-6.622-4.52-10.829-4.52C825.294,107.943,821.684,109.449,818.702,112.463z"/>
	<path fill="#FFFFFF" d="M889.198,125.959V97.992h10.142v51.54l-30.354-28.941v27.998H858.85V97.05L889.198,125.959z"/>
	<path fill="#FFFFFF" d="M919.366,138.544c2.793,0,5.115-2.32,5.115-5.113c0-2.167-0.85-3.548-2.572-4.176
		c-3.643-1.349-2.766-1.035-6.312-2.261c-3.733-1.285-7.188-3.829-9.511-6.999c-1.38-1.884-2.07-4.207-2.07-6.999
		c0-4.207,1.506-7.813,4.519-10.829c3.015-3.012,6.624-4.52,10.861-4.52c4.205,0,7.815,1.508,10.827,4.52
		c3.015,3.016,4.521,6.622,4.521,10.829h-10.201c0-2.762-2.324-5.086-5.086-5.086c-2.793,0-5.116,2.324-5.116,5.116
		c0,1.822,0.724,3.201,2.196,4.146c3.016,1.944,2.67,1.566,6.279,2.636c3.892,1.129,7.406,3.546,9.822,6.652
		c1.416,1.82,2.138,4.176,2.138,7.033c0,4.236-1.509,7.845-4.521,10.859c-3.012,3.012-6.624,4.519-10.83,4.519
		c-4.234,0-7.847-1.507-10.858-4.519c-3.015-3.015-4.521-6.623-4.521-10.859h10.234c0,2.824,2.291,5.115,5.116,5.115
		L919.366,138.544z"/>
</g>
</svg>
