<?xml version="1.0" encoding="utf-8"?>
<!-- Generator: Adobe Illustrator 17.0.0, SVG Export Plug-In . SVG Version: 6.00 Build 0)  -->
<!DOCTYPE svg PUBLIC "-//W3C//DTD SVG 1.1//EN" "http://www.w3.org/Graphics/SVG/1.1/DTD/svg11.dtd">
<svg version="1.1" id="Layer_2" xmlns="http://www.w3.org/2000/svg" xmlns:xlink="http://www.w3.org/1999/xlink" x="0px" y="0px"
	 width="800px" height="800px" viewBox="0 0 800 800" enable-background="new 0 0 800 800" xml:space="preserve">
<g>
	<g>
		<path fill="#413028" d="M383.198,670.062c-72.188,0-140.054-28.111-191.098-79.156c-51.044-51.044-79.156-118.911-79.156-191.098
			c0-72.188,28.111-140.054,79.156-191.099c51.044-51.044,118.911-79.155,191.098-79.155c72.187,0,140.054,28.111,191.098,79.155
			c51.045,51.044,79.156,118.911,79.156,191.099c0,72.187-28.111,140.054-79.156,191.098
			C523.252,641.95,455.385,670.062,383.198,670.062z M383.198,141.013c-142.699,0-258.794,116.095-258.794,258.794
			c0,142.7,116.095,258.793,258.794,258.793c142.7,0,258.793-116.094,258.793-258.793
			C641.991,257.108,525.897,141.013,383.198,141.013z"/>
	</g>
</g>
<path fill="#413028" d="M317.49,577.891c0,0-44.401,48.408-84.89,34.262c-59.336-20.731-53.916-59.711-53.916-59.711
	s-76.913-20.273-70.073-78.258c6.84-57.985,31.402-66.846,31.402-66.846s-35.557-53.631,7.475-88.657s92.631-3.108,107.086-1.959
	c7.249,0.576,90.451-39.926,149.378,34.957s21.909,157.33-8.283,187.37C365.476,569.089,317.49,577.891,317.49,577.891z"/>
<g>
	<path fill="#413028" d="M592.835,560.073c-0.172-0.414-0.407-0.779-0.77-1.038c-15.416-11.011-37.574-50.249-37.574-50.249
		l15.552,1.8c-16.517-14.315-45.933-50.651-45.933-50.651h10.541c-46.402-68.269-10.541-102.42-10.541-102.42
		c26.288,1.644,55.843-3.287,55.843-3.287c13.213,1.101,29.491,11.566,29.491,11.566c21.784-74.321-39.302-105.079-39.302-105.079
		c-2.103-34.052-17.59-55.123-17.59-55.123l-3.155,11.521c-70.196-93.07-205.083-48.381-205.083-48.381l26.373,10.092
		c-88.671,23.53-108.106,105.389-108.106,105.389l27.685-12.245C275.858,283.3,223.19,429.103,223.19,429.103l16.606-8.377
		c-42.177,77.387-40.595,154.499-39.876,168.917c5.153,4.976,10.502,9.748,16.046,14.294l19.501,14.557
		c42.154,28.532,92.995,45.199,147.731,45.199C468.655,663.693,544.609,623.06,592.835,560.073z"/>
	<path fill="#A7A9A4" d="M361.138,275.427c0,0,62.118-54.531,117.658-20.026c0,0-40.549-14.246-60.073,1.741
		c0,0,18.621-7.42,49.499,7.137c6.75,3.182,23.749,11.044,33.401,12.155c18.926,2.177,31.703-5.519,38.323-12.704
		c0,0-24.735-3.888-34.882-11.926s-32.979-21.642-59.426-19.082C422.735,234.938,391.231,241.589,361.138,275.427z"/>
	<path fill="#DCD6C3" d="M532.012,270.249c0,0,21.86-11.065,11.686-34.946c0,0,14.243,12.104,18.827,18.614
		c0,0-2.706-19.341-7.917-28.073l-1.667,8.75c0,0-31.666-39.583-71.249-48.333c-39.583-8.75-139.748,9.661-167.998,62.122
		s-22.989,146.591-23.119,148.484s121.5,12.317,134.851-22.27s7.934-40.003,5.434-50.42c0,0-7.502,26.69-14.584,30.637
		c0,0,3.334-26.887-3.749-46.053c-7.083-19.167-15.766-12.917-18.716-10.417c0,0,3.3-13.748,17.05-22.916
		c0,0-21.49-19.346-30.999-13.193c0,0,9.041-11.03,38.863-22.641C458.811,223.985,532.012,270.249,532.012,270.249z"/>
	<path fill="#D88631" d="M455.244,265.958c1.755,1.424,2.901,3.572,2.901,6.008c0,4.29-3.477,7.767-7.767,7.767
		s-7.767-3.477-7.767-7.767c0-4.108,3.2-7.437,7.238-7.714c-3.524-1.049-7.46-2.095-11.806-3.122c-2.545,2.894-4.1,6.679-4.1,10.836
		c0,9.077,7.358,16.435,16.435,16.435s16.435-7.358,16.435-16.435c0-0.523-0.03-1.038-0.078-1.548
		C463.614,269.001,459.824,267.492,455.244,265.958z"/>
	<path fill="#413028" d="M433.942,215.62c0,0,55.581-22.564,100.709,26.614C534.651,242.234,501.595,174.542,433.942,215.62z"/>
	<path fill="#413028" d="M347.861,241.954c0,0,39.282-18.807,80.311-8.875C428.173,233.079,384.615,204.982,347.861,241.954z"/>
	<path fill="#413028" d="M534.651,242.234c0,0-9.151-11.996-54.552-18.398C480.099,223.837,513.96,205.975,534.651,242.234z"/>
	<path fill="#413028" d="M498.636,236.693c0,0,7.366,9.656,43.911,14.809C542.547,251.502,515.291,265.88,498.636,236.693z"/>
	<path fill="#CCC9B3" d="M530.061,269.081c0,0-9.813-11.043-50.919-11.896C479.142,257.185,506.57,234.835,530.061,269.081z"/>
	<path fill="#413028" d="M384.602,400.199c0,0,11.23-16.119,17.223-96.093C401.826,304.106,418.547,363.752,384.602,400.199z"/>
	<path fill="#413028" d="M393.948,279.462c0,0-8.073,7.204-21.485,49.288C372.463,328.75,371.112,294.66,393.948,279.462z"/>
	<path fill="#CCA888" d="M401.35,639.976c0,0,11.23-16.119,17.223-96.093C418.574,543.882,435.295,603.528,401.35,639.976z"/>
	<path fill="#CCA888" d="M410.696,519.238c0,0-8.073,7.204-21.485,49.288C389.211,568.527,387.86,534.437,410.696,519.238z"/>
	<path fill="#413028" d="M317.507,355.993c0,0-8.599-74.008,67.268-110.124C384.775,245.868,290.331,261.075,317.507,355.993z"/>
	<path fill="#413028" d="M384.775,245.868c0,0-17.869,6.604-41.325,58.238C343.45,304.106,333.16,257.558,384.775,245.868z"/>
	<path fill="#CCA888" d="M421.222,445.562c0,0-6.468-45.109,38.047-69.385C459.269,376.177,403.311,388.166,421.222,445.562z"/>
	<path fill="#CCA888" d="M471.757,596.37c0,0-25.445-35.346-22.91-77.484C448.847,518.887,428.879,566.72,471.757,596.37z"/>
	<path fill="#CCA888" d="M501.183,565.686c0,0-69.307-83.014-22.376-154.538c0,0-9.565,24.9-0.686,37.215
		c0,0-1.067-25.943,16.426-43.302c12.935-12.837,10.365-46.131-3.501-59.556c0,0-5.251,23.337-15.667,36.692
		c-15.274,19.583-27.74,42.147-25.25,76.822C452.284,489.044,457.902,525.228,501.183,565.686z"/>
	<path fill="#CCA888" d="M459.679,375.577c0,0-12.521,8.419-21.621,53.357C438.059,428.934,422.25,394.067,459.679,375.577z"/>
	<path fill="#CCA888" d="M554.902,573.439c0,0-45.467-3.061-59.948-51.655C494.955,521.784,495.035,579.012,554.902,573.439z"/>
	<path fill="#CCA888" d="M494.453,521.258c0,0,5.628,13.999,47.689,32.252C542.142,553.51,504.749,561.716,494.453,521.258z"/>
	<path fill="#CCA888" d="M308.103,641.482c0,0-0.532-59.984,61.8-83.854C369.902,557.629,294.796,563.461,308.103,641.482z"/>
	<path fill="#CCA888" d="M369.902,557.629c0,0-14.522,4.095-37.178,43.957C332.724,601.585,328.573,563.528,369.902,557.629z"/>
	<path fill="#D88631" d="M561.579,295.832c6.637-7.663,9.484-14.845,8.461-21.344c-0.276-1.75-0.825-3.308-1.502-4.692
		c-7.93-6.508-14.054-10.613-14.054-10.613s-3.617,8.591-16.73,17.249c-13.112,8.659-30.747,8.976-28.486,10.228
		c2.261,1.252,17.634,4.626,17.634,4.626c-6.782,7.687-37.077,18.539-63.754,20.799c-26.678,2.261-21.251,10.852-18.086,14.017
		c3.165,3.165,37.529,6.33,50.25,5.878c0,0,1.296-5.426,32.495,5.426c31.199,10.852,32.103,4.522,32.103,4.522
		c-5.878,0-37.981-15.373-47.024-18.991c-9.043-3.617-52.45,0-52.45,0c4.483-6.083,60.137-10.852,72.345-1.356
		c4.635,3.605,11.049,6.371,17.851,8.424c-2.024-2.521-3.331-5.111-3.594-7.974C546.466,315.833,550.407,308.733,561.579,295.832z
		 M539.563,302.815c-6.26-2.975,1.809-8.363,7.687-8.363c5.878,0,7.687-3.617,7.687-3.617s-0.967,7.149-4.069,9.495
		C544.495,305.147,539.563,302.815,539.563,302.815z"/>
	<path fill="#FFAF61" d="M603.317,314.799c-2.833-14.935-18.273-30.89-31.046-41.865c0.086,0.384,0.174,0.765,0.237,1.166
		c1.143,7.26-1.898,15.123-9.039,23.369c-10.528,12.156-14.437,18.978-13.943,24.333c0.293,3.182,2.187,6.066,5.67,9.454
		c9.754,2.458,19.671,3.551,25.844,3.58c15.887,0.074,24.821,14.367,24.821,14.367C607.217,345.134,608.291,341.024,603.317,314.799
		z"/>
	<path fill="#FFFFFF" d="M444.856,266.528c0,0-2.496,2.048-2.251,5.9l-8.649,0.191c0,0-0.471-5.159,2.651-9.6L444.856,266.528z"/>
</g>
<g>
	<path fill="#413028" d="M305.706,106.625C352.131,76.6,428.571,75.673,496.75,155.108c0,0,34.909-14.329,42.541-8.828
		c8.624,6.216-0.985,29.226-15.913,48.776c0,0-60.97-17.248-133.861,29.446c-13.975,8.952-72.878,28.332-91.016,67.489
		c-5.52,11.917-22.794,35.781-28.706,20.57C268.205,308.471,209.308,168.969,305.706,106.625z"/>
	<path fill="#FBF9EA" d="M265.484,284.803c0,0,30.738-7.995,155.595-95.29c45.918-32.104,66.885-32.382,70.866-32.99
		c0,0-62.041-77.57-139.301-61.559c-116.181,24.076-103.197,139.322-90.251,182.607l27.873-16.441
		c0,0-56.549-132.947,68.462-159.051c62.765-13.106,117.645,47.317,117.645,47.317s-38.243,12.402-57.65,27.586
		C399.315,192.166,335.827,241.356,265.484,284.803z"/>
	<g>
		
			<ellipse transform="matrix(0.6845 -0.729 0.729 0.6845 41.2401 345.4413)" fill="#FBF9EA" cx="419.694" cy="125.078" rx="27.682" ry="38.415"/>
		
			<ellipse transform="matrix(0.6845 -0.729 0.729 0.6845 42.7522 345.9854)" fill="#413028" cx="421.079" cy="123.603" rx="25.659" ry="38.415"/>
		
			<ellipse transform="matrix(0.6845 -0.729 0.729 0.6845 45.7991 346.4346)" fill="#D88631" cx="423.121" cy="120.307" rx="19.221" ry="33.015"/>
		
			<ellipse transform="matrix(0.6845 -0.729 0.729 0.6845 47.4198 347.016)" fill="#FFFFFF" cx="424.603" cy="118.726" rx="14.013" ry="29.332"/>
	</g>
	<path fill="#FBF9EA" d="M521.828,189.513c0,0,25.563-36.522,15.833-38.575c-19.139-4.038-93.115,31.252-93.115,31.252
		s75.522-26.781,78.66-20.648C526.096,167.193,529.152,176.659,521.828,189.513z"/>
</g>
<g>
	<path fill="#FFFFFF" d="M299.418,315.174c-69.975,0-126.905,56.93-126.905,126.905s56.93,126.905,126.905,126.905
		s126.902-56.93,126.902-126.905S369.393,315.174,299.418,315.174z"/>
	<path fill="#413028" d="M299.417,303.806c-76.244,0-138.273,62.029-138.273,138.273c0,76.245,62.029,138.273,138.273,138.273
		c76.245,0,138.273-62.028,138.273-138.273C437.69,365.835,375.662,303.806,299.417,303.806L299.417,303.806z"/>
	<g>
		<path fill="#FFFFFF" d="M299.416,328.557c62.597,0,113.522,50.926,113.522,113.521c0,62.597-50.926,113.522-113.522,113.522
			c-62.596,0-113.521-50.926-113.521-113.522C185.895,379.483,236.821,328.557,299.416,328.557 M299.416,317.747
			c-68.667,0-124.332,55.665-124.332,124.332s55.665,124.333,124.332,124.333s124.333-55.666,124.333-124.333
			S368.083,317.747,299.416,317.747L299.416,317.747z"/>
		<circle fill="#D88631" cx="299.417" cy="442.078" r="89.598"/>
		<path fill="#413028" d="M333.023,436.717c8.844-4.315,12.765-11.879,11.763-22.691c-1.261-13.884-12.228-21.592-32.904-23.121
			l0.158-22.567l-13.588,0.115l-0.096,21.81c-1.322-0.006-3.217,0.005-5.686,0.033c-2.468,0.028-4.208,0.001-5.219-0.081
			l0.096-21.81l-13.645-0.119l0.018,22.277c-2.412,0.262-5.289,0.307-8.632,0.137l-18.835-0.084l0.111,14.579l9.623-0.132
			c4.626,0.02,7.261,2.014,7.904,5.983l-0.171,25.541c0.223-0.055,0.579-0.027,0.999,0.038c0.199-0.015,0.378,0.002,0.516,0.085
			c-0.2-0.045-0.348-0.059-0.516-0.085c-0.079,0.006-0.153,0.002-0.242,0.024c-0.312,0.076-0.564,0.056-0.758-0.062l-0.158,35.689
			c-0.091,2.993-1.789,4.482-5.093,4.468l-9.914-0.044l-2.695,16.258l17.843,0.078c1.128-0.112,2.781-0.104,4.957,0.022
			s3.751,0.153,4.723,0.079l-0.158,22.567l13.646,0.119l-0.018-22.277c1.01,0.083,2.75,0.109,5.219,0.082
			c2.468-0.028,4.363-0.039,5.686-0.034l0.018,22.277l13.587-0.115l-0.075-22.51c7.778-0.588,14.577-1.636,20.395-3.146
			s10.564-4.366,14.237-8.568c3.674-4.202,5.817-9.761,6.43-16.679C354.096,449.62,347.586,440.242,333.023,436.717z
			 M287.671,406.252c0.505,0.041,1.536,0.035,3.091-0.015c1.555-0.052,2.906-0.094,4.053-0.128c1.146-0.034,2.644,0.012,4.489,0.136
			c1.846,0.125,3.449,0.268,4.809,0.43c1.36,0.162,2.923,0.48,4.69,0.954c1.767,0.474,3.144,1.044,4.133,1.709
			c0.988,0.666,2.141,1.497,3.458,2.494c1.318,0.997,2.1,2.168,2.347,3.509c0.247,1.343,0.502,2.889,0.767,4.64
			c0.03,2.138-0.377,4.012-1.22,5.621c-0.843,1.61-2.102,2.868-3.778,3.774c-1.675,0.907-3.341,1.686-4.996,2.34
			c-1.655,0.654-3.736,1.082-6.245,1.285c-2.509,0.203-4.453,0.35-5.834,0.441c-1.381,0.092-3.276,0.103-5.686,0.034
			c-2.41-0.069-3.771-0.065-4.082,0.011L287.671,406.252z M324.666,467.238c-0.629,1.474-1.567,2.695-2.815,3.661
			c-1.249,0.967-2.555,1.865-3.919,2.694c-1.364,0.83-3.108,1.464-5.228,1.901c-2.121,0.438-3.979,0.77-5.573,0.997
			c-1.595,0.226-3.54,0.373-5.834,0.441c-2.294,0.067-4.053,0.128-5.278,0.181c-1.225,0.053-2.829,0.075-4.811,0.066
			c-1.983-0.009-3.227-0.034-3.732-0.074l0.074-29.974c0.155-0.038,1.75-0.099,4.783-0.184c3.032-0.084,5.345-0.074,6.94,0.031
			c1.593,0.104,3.944,0.27,7.054,0.498c3.109,0.227,5.575,0.695,7.399,1.403s3.774,1.592,5.849,2.65
			c2.075,1.059,3.624,2.495,4.646,4.307c1.023,1.812,1.509,3.963,1.459,6.45C325.632,464.113,325.295,465.763,324.666,467.238z"/>
	</g>
</g>
<g>
	<path fill="#413028" d="M125.29,359.218c0,0,9.882-60.804,74.581-56.902c55.633,3.355,103.49,45.378,95.47,106.35
		c0,0-26.482-27.863-46.501-34.642c0,0,0.892-13.896-1.1-18.578c0,0-6.78,11.798-8.395,15.361c0,0-6.56-11.101-7.525-19.338
		c0,0-6.194,6.029-9.096,11.422C222.724,362.89,166.88,347.953,125.29,359.218z"/>
	<path fill="#413028" d="M221.244,608.082c0,0-20.911-39.86,23.956-82.925s58.193-46.439,58.193-46.439s-51.58-41.258-103.26,11.436
		C143.974,547.415,197.268,601.444,221.244,608.082z"/>
	<path fill="#FFFFFF" d="M186.562,549.331c0,0-9.554-32.159,29.372-60.897c39.469-29.139,71.342-10.031,71.342-10.031
		s-91.764,56.308-77.325,116.251c0,0-14.463-7.405-16.273-24.728c-0.959-9.18-1.421-32.518,34.458-72.334
		C228.136,497.592,192.938,513.346,186.562,549.331z"/>
	<path fill="#413028" d="M115.204,510.104c0,0-21.467-54.254,10.661-91.085s122.667-62.718,169.476,33.065
		c0,0-19.287-14.435-55.996-5.724c0,0-2.121-6.661-4.939-10.505c0,0-6.405,3.937-7.686,12.089c0,0-10.761-5.94-10.761-12.601
		c0,0-7.942,9.736-7.942,16.91C208.015,452.253,135.381,476.744,115.204,510.104z"/>
	<path fill="#FFFFFF" d="M202.434,393.662c-30.393,0-57.375,15.336-70.634,30.534c-6.39,7.326-10.415,15.472-12.795,23.746
		c0,0,16.605-14.242,30.207-20.21c15.84-6.95,30.064-7.112,30.064-7.112c-22.467,10.345-63.178,44.902-63.223,48.303
		c-0.12,9.054,1.082,17.515,2.553,24.375c23.809-24.081,67.244-41.378,82.434-46.929c2.257-7.827,8.119-15.152,8.817-16.005
		l13.977-17.138v22.035c2.903-3.851,6.021-5.853,6.441-6.112l6.188-3.802l4.293,5.85c1.195,1.628,2.364,3.676,3.485,6.109
		c11.83-2.092,23.175-2.146,33.485-0.187C253.733,401.371,223.787,393.662,202.434,393.662z"/>
	<path fill="#FFFFFF" d="M199.396,310.175c-1.824-0.108-3.642-0.164-5.402-0.164c-13.113,0-23.464,3.064-31.617,7.683
		c0,0,10.358-0.525,22.196,1.478c11.307,1.913,22.777,7.508,22.777,7.508c-46.635,0.506-63.406,8.029-63.406,8.029
		c-3.438,4.946-5.844,9.921-7.503,14.166c7.642-1.154,15.931-1.736,24.782-1.736c24.764,0,47.734,4.476,57.972,6.796
		c3.16-4.202,6.613-7.607,7.131-8.112l11.455-11.144l1.86,15.872c0.087,0.746,0.247,1.548,0.46,2.384
		c0.401-0.7,0.688-1.202,0.81-1.415l7.882-13.713l6.193,14.554c1.732,4.069,2.025,11.042,1.941,16.469
		c11.033,5.194,22.726,14.506,31.307,22.14c-0.888-17.405-7.003-33.333-18.058-46.729
		C253.734,324.314,227.935,311.898,199.396,310.175z"/>
</g>
<path fill="#413028" d="M551.491,537.988c0,0,25.299,27.582,48.369,19.522c33.809-11.812,30.721-34.023,30.721-34.023
	s43.824-11.551,39.927-44.59s-17.892-38.088-17.892-38.088s20.26-30.558-4.259-50.516c-24.52-19.958-52.78-1.771-61.016-1.116
	c-4.13,0.328-51.538-22.749-85.114,19.918s-12.484,89.645,4.72,106.761C524.149,532.973,551.491,537.988,551.491,537.988z"/>
<g>
	<path fill="#FFFFFF" d="M561.789,388.295c-39.871,0-72.309,32.438-72.309,72.309s32.438,72.309,72.309,72.309
		s72.307-32.438,72.307-72.309S601.66,388.295,561.789,388.295z"/>
	<path fill="#413028" d="M561.789,381.818c-43.442,0-78.785,35.343-78.785,78.785c0,43.443,35.343,78.785,78.785,78.785
		c43.443,0,78.785-35.342,78.785-78.785C640.574,417.161,605.231,381.818,561.789,381.818L561.789,381.818z"/>
	<g>
		<path fill="#FFFFFF" d="M561.788,395.92c35.667,0,64.684,29.017,64.684,64.683c0,35.667-29.017,64.684-64.684,64.684
			c-35.666,0-64.683-29.017-64.683-64.684C497.105,424.937,526.122,395.92,561.788,395.92 M561.788,389.761
			c-39.125,0-70.843,31.717-70.843,70.843s31.717,70.843,70.843,70.843s70.843-31.718,70.843-70.843
			S600.913,389.761,561.788,389.761L561.788,389.761z"/>
		<circle fill="#D88631" cx="561.788" cy="460.604" r="51.052"/>
		<path fill="#413028" d="M580.937,457.549c5.039-2.459,7.273-6.768,6.703-12.929c-0.718-7.911-6.968-12.303-18.749-13.174
			l0.09-12.859l-7.742,0.066l-0.055,12.427c-0.753-0.004-1.833,0.003-3.24,0.019c-1.406,0.016-2.398,0.001-2.974-0.046l0.055-12.427
			l-7.775-0.068l0.01,12.693c-1.374,0.149-3.014,0.175-4.918,0.078l-10.732-0.048l0.063,8.307l5.483-0.075
			c2.636,0.011,4.137,1.148,4.504,3.409l-0.097,14.553c0.127-0.031,0.33-0.016,0.569,0.022c0.113-0.008,0.215,0.001,0.294,0.049
			c-0.114-0.026-0.198-0.034-0.294-0.049c-0.045,0.004-0.087,0.001-0.138,0.013c-0.178,0.043-0.321,0.032-0.432-0.035l-0.09,20.335
			c-0.052,1.706-1.019,2.554-2.902,2.546l-5.649-0.025l-1.536,9.264l10.167,0.045c0.643-0.064,1.584-0.06,2.825,0.012
			c1.24,0.072,2.137,0.087,2.691,0.045l-0.09,12.859l7.775,0.068l-0.01-12.693c0.576,0.047,1.567,0.062,2.974,0.047
			c1.406-0.016,2.486-0.022,3.24-0.019l0.01,12.693l7.742-0.066l-0.043-12.826c4.432-0.335,8.306-0.932,11.621-1.793
			c3.315-0.86,6.019-2.488,8.112-4.882c2.093-2.394,3.314-5.562,3.664-9.503C592.944,464.901,589.234,459.557,580.937,457.549z
			 M555.096,440.19c0.288,0.023,0.875,0.02,1.761-0.009c0.886-0.029,1.656-0.054,2.31-0.073c0.653-0.019,1.506,0.007,2.558,0.078
			c1.052,0.071,1.965,0.153,2.74,0.245c0.775,0.092,1.666,0.273,2.672,0.543c1.007,0.27,1.791,0.595,2.355,0.974
			c0.563,0.379,1.22,0.853,1.971,1.421c0.751,0.568,1.197,1.235,1.337,2c0.141,0.765,0.286,1.646,0.437,2.644
			c0.017,1.218-0.215,2.286-0.695,3.203s-1.198,1.634-2.153,2.15c-0.954,0.517-1.904,0.961-2.847,1.333
			c-0.943,0.373-2.129,0.616-3.558,0.732c-1.43,0.115-2.537,0.199-3.324,0.251c-0.787,0.052-1.867,0.059-3.24,0.019
			s-2.149-0.037-2.326,0.006L555.096,440.19z M576.175,474.939c-0.358,0.84-0.893,1.536-1.604,2.086
			c-0.712,0.551-1.456,1.063-2.233,1.535c-0.777,0.473-1.771,0.834-2.979,1.083c-1.209,0.25-2.267,0.439-3.176,0.568
			c-0.909,0.129-2.017,0.213-3.324,0.251c-1.307,0.038-2.31,0.073-3.007,0.103s-1.612,0.043-2.741,0.038
			c-1.13-0.005-1.839-0.019-2.126-0.042l0.042-17.079c0.089-0.022,0.997-0.056,2.725-0.105c1.728-0.048,3.046-0.042,3.954,0.018
			c0.908,0.06,2.247,0.154,4.019,0.284c1.771,0.129,3.177,0.396,4.216,0.799c1.039,0.403,2.15,0.907,3.333,1.51
			c1.182,0.604,2.065,1.421,2.647,2.454c0.583,1.033,0.86,2.258,0.831,3.675C576.725,473.158,576.533,474.099,576.175,474.939z"/>
	</g>
</g>
<g>
	<path fill="#413028" d="M661.004,413.391c0,0-5.63-34.645-42.495-32.422c-31.699,1.912-58.968,25.856-54.397,60.597
		c0,0,15.089-15.876,26.495-19.739c0,0-0.508-7.918,0.627-10.585c0,0,3.863,6.723,4.783,8.753c0,0,3.738-6.325,4.288-11.019
		c0,0,3.529,3.435,5.182,6.508C605.487,415.483,637.307,406.972,661.004,413.391z"/>
	<path fill="#413028" d="M606.331,555.191c0,0,11.915-22.712-13.65-47.25c-25.565-24.538-33.158-26.46-33.158-26.46
		s29.39-23.508,58.836,6.516C650.358,520.623,619.992,551.408,606.331,555.191z"/>
	<path fill="#FFFFFF" d="M626.092,521.715c0,0,5.444-18.324-16.736-34.699c-22.489-16.603-40.65-5.716-40.65-5.716
		s52.286,32.084,44.059,66.239c0,0,8.241-4.219,9.272-14.09c0.546-5.231,0.81-18.528-19.634-41.215
		C602.404,492.235,622.459,501.211,626.092,521.715z"/>
	<path fill="#413028" d="M666.751,499.364c0,0,12.232-30.913-6.075-51.899c-18.306-20.986-69.894-35.736-96.565,18.84
		c0,0,10.989-8.225,31.906-3.262c0,0,1.209-3.796,2.814-5.985c0,0,3.65,2.243,4.38,6.888c0,0,6.131-3.384,6.131-7.18
		c0,0,4.526,5.547,4.526,9.635C613.868,466.401,655.255,480.356,666.751,499.364z"/>
	<path fill="#FFFFFF" d="M617.048,433.017c17.317,0,32.691,8.738,40.247,17.398c3.641,4.174,5.934,8.816,7.291,13.53
		c0,0-9.462-8.115-17.212-11.515c-9.026-3.96-17.13-4.052-17.13-4.052c12.802,5.894,35.998,25.585,36.024,27.522
		c0.068,5.159-0.616,9.98-1.455,13.889c-13.566-13.721-38.315-23.577-46.97-26.74c-1.286-4.46-4.626-8.633-5.024-9.12l-7.964-9.765
		v12.555c-1.654-2.194-3.431-3.335-3.67-3.482l-3.526-2.166l-2.446,3.333c-0.681,0.928-1.347,2.095-1.986,3.481
		c-6.741-1.192-13.205-1.223-19.079-0.107C587.819,437.409,604.882,433.017,617.048,433.017z"/>
	<path fill="#FFFFFF" d="M618.779,385.447c1.039-0.061,2.075-0.093,3.078-0.093c7.472,0,13.369,1.746,18.015,4.378
		c0,0-5.902-0.299-12.647,0.842c-6.443,1.09-12.978,4.278-12.978,4.278c26.572,0.288,36.128,4.575,36.128,4.575
		c1.959,2.818,3.33,5.653,4.275,8.072c-4.355-0.657-9.077-0.989-14.121-0.989c-14.11,0-27.198,2.551-33.032,3.872
		c-1.8-2.394-3.768-4.334-4.063-4.622l-6.527-6.35l-1.06,9.044c-0.05,0.425-0.141,0.882-0.262,1.359
		c-0.229-0.399-0.392-0.685-0.462-0.806l-4.491-7.814l-3.529,8.293c-0.987,2.318-1.154,6.292-1.106,9.384
		c-6.286,2.96-12.949,8.265-17.838,12.615c0.506-9.917,3.99-18.993,10.289-26.626C587.818,393.503,602.518,386.428,618.779,385.447z
		"/>
</g>
<path fill="#FFFFFF" d="M604.292,338.681c0,0-4.726-34.232-32.948-41.634c0,0,8.8-8.186,5.321-16.985
	C576.665,280.062,604.036,303.842,604.292,338.681z"/>
<g>
	<g>
		<polygon fill="#413028" points="752.034,639.624 752.034,543.116 734.661,525.743 734.661,519.054 710.209,494.602 
			710.209,494.334 709.941,494.334 665.379,494.334 662.358,494.334 599.02,494.334 584.671,494.334 535.145,494.334 
			527.053,494.334 468.031,494.334 455.627,494.334 396.605,494.334 323.234,494.334 304.89,494.334 296.8,494.334 278.458,494.334 
			261.733,494.334 228.176,494.334 193.976,494.334 130.53,494.334 124.704,494.334 98.828,494.334 65.681,494.334 40.961,519.054 
			40.961,639.624 130.53,671.426 662.694,671.426 		"/>
	</g>
	<g>
		<path fill="#FFFFFF" d="M663.4,675.52H129.825l-0.665-0.235l-92.292-32.771V517.358l27.118-27.117h650.316v2.665l24.452,24.452
			v6.689l17.373,17.372v101.092L663.4,675.52z M131.235,667.334h530.751l85.955-30.598v-91.926l-17.373-17.372v-6.689
			l-22.322-22.322H67.376l-22.323,22.322v115.985L131.235,667.334z"/>
	</g>
</g>
<g>
	<path fill="#FFFFFF" d="M129.126,570.304v54.813H65.68v-107.9h59.022v11.006l-18.235,18.666v-11.438H83.916v71.431h26.759v-36.578
		H129.126z"/>
	<path fill="#FFFFFF" d="M193.974,517.217V624.47l-63.446,0.647v-107.9H193.974z M175.523,535.451h-26.759v70.783h26.759V535.451z"
		/>
	<path fill="#FFFFFF" d="M201.74,625.117v-90.313l18.235-17.588v107.9H201.74z"/>
	<path fill="#FFFFFF" d="M296.799,517.217v107.9h-18.343v-65.28l-24.278-24.386h-7.769v89.666h-18.235v-107.9h33.557l16.725,16.725
		v-16.725H296.799z"/>
	<path fill="#FFFFFF" d="M368.335,561.995v63.122H304.89v-107.9h18.343l44.779,44.778l-0.216,0.324L368.335,561.995z
		 M349.992,606.882v-36.578v-0.108l-26.867-27.083l0.108,63.77H349.992z"/>
	<path fill="#FFFFFF" d="M370.169,625.117v-90.313l18.235-17.588v107.9H370.169z"/>
	<path fill="#FFFFFF" d="M453.574,570.304h6.475v54.813h-63.446v-107.9h59.022v11.006l-18.235,18.666v-11.438h-22.552v71.431h26.76
		v-24.817l-23.846,23.954v-25.748l42.297-42.371l0.107,25.815L453.574,570.304z"/>
	<path fill="#FFFFFF" d="M525.002,570.304h6.475v54.813H468.03v-107.9h59.022v11.006l-18.235,18.666v-11.438h-22.552v71.431h26.76
		v-24.817l-23.846,23.954v-25.748l42.297-42.371l0.107,25.815L525.002,570.304z"/>
	<path fill="#FFFFFF" d="M598.266,592.854v32.263H580.03h-44.995v-56h20.07l-20.07-26.274l0.108-25.626h49.526v18.234h-33.988
		l44.023,52.009h-41.435v19.422h26.76v-14.027H598.266z"/>
	<path fill="#FFFFFF" d="M662.465,584.87v40.247h-18.451v-22.012h-20.419l-6.341,6.32v15.691h-18.235v-107.9h63.338l0.108,47.044
		l-20.609,20.609H662.465z M617.254,583.575l26.76-26.759v-21.365h-26.76V583.575z"/>
	<path fill="#FFFFFF" d="M727.313,541.278v83.839h-61.286l18.126-18.235h24.817v-39.658l-43.593,44.007v-94.014h44.563v18.234
		h-26.328v31.184l25.357-25.356H727.313z"/>
</g>
</svg>
