<?xml version="1.0" encoding="utf-8"?>
<!-- Generator: Adobe Illustrator 16.0.3, SVG Export Plug-In . SVG Version: 6.00 Build 0)  -->
<!DOCTYPE svg PUBLIC "-//W3C//DTD SVG 1.1//EN" "http://www.w3.org/Graphics/SVG/1.1/DTD/svg11.dtd">
<svg version="1.1" id="Capa_1" xmlns="http://www.w3.org/2000/svg" xmlns:xlink="http://www.w3.org/1999/xlink" x="0px" y="0px"
	 width="270px" height="270px" viewBox="0 0 270 270" enable-background="new 0 0 270 270" xml:space="preserve">
<circle fill="none" stroke="#FFFFFF" stroke-width="4" stroke-miterlimit="10" cx="135.435" cy="133.937" r="131.542"/>
<g>
	<g>
		<g>
			<linearGradient id="SVGID_1_" gradientUnits="userSpaceOnUse" x1="127.4507" y1="202.5664" x2="127.4507" y2="11.5778">
				<stop  offset="0" style="stop-color:#048EBA"/>
				<stop  offset="0.9948" style="stop-color:#03A98A"/>
			</linearGradient>
			<path fill="url(#SVGID_1_)" d="M69.798,202.566c-9.879,0-13.273-4.34-14.417-6.927c-1.117-2.538-2.078-7.936,4.054-15.54
				c8.033-9.99,14.802-28.695,14.783-40.846c-0.008-12.898,0.2-27.376,0.465-32.425l0.984-4.837
				c1.075-5.072,2.761-10.035,5.01-14.738c6.53-13.695,17.524-24.697,30.959-30.981c4.734-2.209,9.802-3.798,15.062-4.723
				l1.454-0.256l-0.232-1.458c-0.152-0.954-0.229-1.931-0.229-2.903c0-8.053,5.039-14.605,11.232-14.605s11.231,6.552,11.231,14.605
				c0,1.154-0.119,2.348-0.354,3.548l-0.276,1.418l1.407,0.33c4.746,1.111,9.333,2.777,13.634,4.951
				c15.254,7.714,27.103,21.619,32.507,38.147c1.16,3.529,2.029,7.223,2.585,10.981l0.438,2.971
				c0.118,2.774,0.212,10.278,0.252,19.953c-5.949-3.196-12.551-4.875-19.247-4.875c-22.383,0-41.293,18.91-41.293,41.294
				c0,15.773,9.123,29.989,22.961,36.916H69.798z"/>
			<path fill="#FFFFFF" d="M138.922,33.828c5.366,0,9.731,5.879,9.731,13.105c0,1.058-0.109,2.155-0.325,3.261l-0.554,2.837
				l2.814,0.659c4.63,1.084,9.104,2.709,13.299,4.829c14.9,7.536,26.477,21.123,31.76,37.279c1.132,3.446,1.981,7.057,2.524,10.729
				l0.427,2.894c0.105,2.571,0.191,8.995,0.235,17.378c-5.57-2.589-11.614-3.941-17.735-3.941
				c-23.196,0-42.793,19.597-42.793,42.794c0,14.423,7.356,27.587,18.934,35.416H69.798c-9.029,0-12.049-3.78-13.043-6.029
				c-0.98-2.228-1.785-7.009,3.851-13.999c8.353-10.39,15.132-29.135,15.112-41.784c-0.008-12.785,0.196-27.112,0.457-32.236
				l0.958-4.704c1.052-4.968,2.7-9.817,4.899-14.417c6.38-13.38,17.119-24.129,30.237-30.266c4.617-2.154,9.559-3.704,14.688-4.605
				l2.908-0.511l-0.465-2.916c-0.14-0.876-0.21-1.773-0.21-2.667C129.189,39.707,133.555,33.828,138.922,33.828 M138.922,30.828
				c-7.032,0-12.732,7.211-12.732,16.105c0,1.075,0.086,2.123,0.248,3.139C121.153,51,115.96,52.599,111,54.913
				c-13.744,6.429-24.997,17.684-31.677,31.693c-2.3,4.811-4.025,9.891-5.126,15.085l-1.007,4.946
				c-0.276,5.115-0.48,19.752-0.473,32.618c0.019,11.884-6.611,30.152-14.45,39.902c-6.632,8.225-5.513,14.239-4.259,17.088
				c1.289,2.915,5.051,7.82,15.789,7.82h101.076c-16.876-4.601-29.568-20.234-29.568-38.416c0-21.705,18.088-39.794,39.793-39.794
				c7.564,0,14.684,2.201,20.756,5.981c-0.03-10.185-0.125-19.517-0.266-22.701l-0.449-3.048c-0.567-3.839-1.455-7.614-2.643-11.228
				c-5.527-16.904-17.649-31.127-33.256-39.02c-4.493-2.271-9.183-3.952-13.969-5.072c0.24-1.231,0.381-2.511,0.381-3.835
				C151.653,38.039,145.952,30.828,138.922,30.828L138.922,30.828z"/>
		</g>
		<g>
			<linearGradient id="SVGID_2_" gradientUnits="userSpaceOnUse" x1="135.8267" y1="233.4189" x2="135.8267" y2="215.4043">
				<stop  offset="0" style="stop-color:#048EBA"/>
				<stop  offset="0.9948" style="stop-color:#03A98A"/>
			</linearGradient>
			<path fill="url(#SVGID_2_)" d="M135.83,233.419c-11.686,0-21.192-7.705-21.192-17.177c0-0.396,0.574-0.838,1.343-0.838h39.694
				c0.768,0,1.341,0.442,1.341,0.838c0.003,5.771-2.611,10.291-7.771,13.434C144.715,232.436,139.345,233.419,135.83,233.419z"/>
			<path fill="#FFFFFF" d="M155.503,216.904c-0.191,4.896-2.557,8.761-7.039,11.491c-4.27,2.601-9.474,3.523-12.634,3.523
				c-10.58,0-19.238-6.676-19.675-15.015H155.503 M155.675,213.904H115.98c-1.573,0-2.843,1.047-2.843,2.338
				c0,10.295,10.177,18.677,22.692,18.677c7.598,0,22.693-4.339,22.686-18.677C158.516,214.958,157.244,213.904,155.675,213.904
				L155.675,213.904z"/>
		</g>
	</g>
	<g>
		<g>
			<linearGradient id="SVGID_3_" gradientUnits="userSpaceOnUse" x1="182.1035" y1="198.7012" x2="182.1035" y2="132.2808">
				<stop  offset="0" style="stop-color:#048EBA"/>
				<stop  offset="0.9948" style="stop-color:#03A98A"/>
			</linearGradient>
			<path fill="url(#SVGID_3_)" d="M182.105,198.701c-10.171,0-19.449-4.854-25.599-12.323h12.805l12.586-13.718l13.114,13.718
				h12.689C201.554,193.848,192.275,198.701,182.105,198.701z M156.327,186.157c-4.628-5.718-7.434-12.935-7.434-20.666
				c0-18.002,15.209-33.211,33.212-33.211c18.001,0,33.209,15.209,33.209,33.211c0,7.712-2.79,14.91-7.396,20.621l-19.449-19.973
				l19.058-19.895h-13.64l-11.818,12.741l-12.009-12.741h-13.751l19.18,19.495L156.327,186.157z"/>
			<path fill="#FFFFFF" d="M182.105,133.78c9.341,0,17.895,4.29,23.758,10.965h-1.851h-9.472h-1.31l-0.89,0.96L182.06,156.79
				l-10.464-11.103l-0.889-0.942h-1.295h-9.523h-1.543C164.209,138.07,172.764,133.78,182.105,133.78 M208.188,147.723
				c3.534,5.106,5.626,11.246,5.626,17.769c0,6.767-2.25,13.119-6.027,18.336l-1.016-1.042l-16.217-16.654l15.624-16.311
				L208.188,147.723 M155.871,147.939l1.879,1.909l15.658,15.916l-16.011,17.061l-0.961,1.023
				c-3.786-5.221-6.043-11.582-6.043-18.357C150.394,159.06,152.426,153.003,155.871,147.939 M181.92,174.854l11.564,12.097
				l0.887,0.927h1.282h8.666c-5.771,5.729-13.663,9.323-22.214,9.323c-8.552,0-16.444-3.595-22.216-9.323h8.763h1.319l0.892-0.972
				L181.92,174.854 M182.105,130.78c-18.934,0-34.712,15.777-34.712,34.711c0,18.935,15.778,34.71,34.712,34.71
				s34.709-15.776,34.709-34.71S201.038,130.78,182.105,130.78L182.105,130.78z M182.077,161.183l12.464-13.438h9.472
				l-17.629,18.403l18.238,18.729h-8.969l-13.778-14.412l-13.223,14.412h-9.067l17.983-19.162l-17.68-17.971h9.523L182.077,161.183
				L182.077,161.183z"/>
		</g>
	</g>
</g>
</svg>
