<?xml version="1.0" encoding="utf-8"?>
<!-- Generator: Adobe Illustrator 16.0.3, SVG Export Plug-In . SVG Version: 6.00 Build 0)  -->
<!DOCTYPE svg PUBLIC "-//W3C//DTD SVG 1.1//EN" "http://www.w3.org/Graphics/SVG/1.1/DTD/svg11.dtd">
<svg version="1.1" id="Capa_1" xmlns="http://www.w3.org/2000/svg" xmlns:xlink="http://www.w3.org/1999/xlink" x="0px" y="0px"
	 width="500px" height="500px" viewBox="0 0 500 500" enable-background="new 0 0 500 500" xml:space="preserve">
<rect fill="#161616" width="499.999" height="500"/>
<g>
	<g>
		<path fill="#FFFFFF" d="M123.464,210.911h7.681v61.975h-7.681V210.911z"/>
		<path fill="#FFFFFF" d="M168.328,272.886l-0.61-5.325h-0.262c-2.357,3.317-6.896,6.285-12.92,6.285
			c-8.554,0-12.918-6.022-12.918-12.133c0-10.213,9.077-15.8,25.401-15.712v-0.872c0-3.492-0.959-9.776-9.603-9.776
			c-3.928,0-8.029,1.222-10.998,3.142l-1.745-5.062c3.491-2.27,8.554-3.753,13.878-3.753c12.919,0,16.061,8.815,16.061,17.281
			v15.801c0,3.666,0.177,7.244,0.699,10.125H168.328z M167.194,251.325c-8.382-0.174-17.896,1.309-17.896,9.516
			c0,4.975,3.318,7.33,7.246,7.33c5.499,0,8.99-3.489,10.212-7.068c0.263-0.786,0.438-1.66,0.438-2.445V251.325z"/>
		<path fill="#FFFFFF" d="M186.831,265.029c2.269,1.485,6.285,3.055,10.127,3.055c5.585,0,8.202-2.792,8.202-6.284
			c0-3.666-2.181-5.674-7.854-7.768c-7.596-2.707-11.173-6.896-11.173-11.959c0-6.808,5.5-12.395,14.576-12.395
			c4.278,0,8.032,1.222,10.388,2.618l-1.92,5.586c-1.657-1.047-4.713-2.444-8.642-2.444c-4.538,0-7.069,2.619-7.069,5.761
			c0,3.492,2.531,5.063,8.029,7.157c7.332,2.794,11.087,6.459,11.087,12.745c0,7.419-5.762,12.655-15.8,12.655
			c-4.627,0-8.903-1.134-11.871-2.88L186.831,265.029z"/>
		<path fill="#FFFFFF" d="M222.269,265.029c2.271,1.485,6.284,3.055,10.125,3.055c5.587,0,8.207-2.792,8.207-6.284
			c0-3.666-2.184-5.674-7.857-7.768c-7.593-2.707-11.172-6.896-11.172-11.959c0-6.808,5.499-12.395,14.576-12.395
			c4.276,0,8.03,1.222,10.388,2.618l-1.921,5.586c-1.658-1.047-4.714-2.444-8.642-2.444c-4.538,0-7.07,2.619-7.07,5.761
			c0,3.492,2.532,5.063,8.031,7.157c7.333,2.794,11.086,6.459,11.086,12.745c0,7.419-5.763,12.655-15.8,12.655
			c-4.626,0-8.902-1.134-11.871-2.88L222.269,265.029z"/>
		<path fill="#FFFFFF" d="M267.308,218.767c0.087,2.619-1.833,4.714-4.889,4.714c-2.705,0-4.625-2.096-4.625-4.714
			c0-2.705,2.006-4.801,4.8-4.801C265.475,213.966,267.308,216.062,267.308,218.767z M258.753,272.886v-42.248h7.683v42.248H258.753
			z"/>
		<path fill="#FFFFFF" d="M280.836,272.886v-36.399h-5.937v-5.849h5.937v-2.007c0-5.936,1.31-11.347,4.887-14.752
			c2.881-2.792,6.722-3.927,10.301-3.927c2.706,0,5.063,0.611,6.547,1.222l-1.047,5.935c-1.136-0.522-2.707-0.959-4.89-0.959
			c-6.547,0-8.204,5.76-8.204,12.221v2.269h10.212v5.849H288.43v36.399H280.836z"/>
		<path fill="#FFFFFF" d="M316.06,218.767c0.087,2.619-1.833,4.714-4.889,4.714c-2.706,0-4.626-2.096-4.626-4.714
			c0-2.705,2.008-4.801,4.8-4.801C314.227,213.966,316.06,216.062,316.06,218.767z M307.505,272.886v-42.248h7.682v42.248H307.505z"
			/>
		<path fill="#FFFFFF" d="M333.078,253.158c0.175,10.388,6.809,14.665,14.491,14.665c5.498,0,8.816-0.961,11.695-2.183l1.31,5.499
			c-2.705,1.222-7.331,2.618-14.053,2.618c-13.006,0-20.775-8.554-20.775-21.298c0-12.743,7.507-22.781,19.814-22.781
			c13.792,0,17.457,12.133,17.457,19.9c0,1.572-0.173,2.793-0.261,3.579H333.078z M355.599,247.658
			c0.088-4.886-2.008-12.481-10.649-12.481c-7.768,0-11.172,7.157-11.783,12.481H355.599z"/>
		<path fill="#FFFFFF" d="M409.89,210.911v51.064c0,3.753,0.087,8.03,0.35,10.911h-6.896l-0.349-7.332h-0.174
			c-2.357,4.713-7.507,8.292-14.403,8.292c-10.213,0-18.069-8.642-18.069-21.474c-0.087-14.052,8.642-22.693,18.942-22.693
			c6.458,0,10.823,3.055,12.744,6.458h0.175v-25.227H409.89z M402.209,247.834c0-0.961-0.087-2.27-0.35-3.229
			c-1.135-4.889-5.324-8.905-11.086-8.905c-7.943,0-12.656,6.985-12.656,16.323c0,8.555,4.19,15.626,12.482,15.626
			c5.148,0,9.863-3.405,11.26-9.166c0.263-1.048,0.35-2.096,0.35-3.317V247.834z"/>
		<path fill="#FFFFFF" d="M422.457,265.029c2.27,1.485,6.285,3.055,10.125,3.055c5.587,0,8.205-2.792,8.205-6.284
			c0-3.666-2.181-5.674-7.855-7.768c-7.595-2.707-11.174-6.896-11.174-11.959c0-6.808,5.5-12.395,14.578-12.395
			c4.277,0,8.03,1.222,10.388,2.618l-1.92,5.586c-1.659-1.047-4.714-2.444-8.643-2.444c-4.54,0-7.07,2.619-7.07,5.761
			c0,3.492,2.53,5.063,8.03,7.157c7.332,2.794,11.086,6.459,11.086,12.745c0,7.419-5.76,12.655-15.799,12.655
			c-4.627,0-8.904-1.134-11.872-2.88L422.457,265.029z"/>
	</g>
	<linearGradient id="SVGID_1_" gradientUnits="userSpaceOnUse" x1="106.875" y1="289.7617" x2="140.4277" y2="289.7617">
		<stop  offset="0" style="stop-color:#F99008"/>
		<stop  offset="1" style="stop-color:#FA8508"/>
	</linearGradient>
	<path fill="url(#SVGID_1_)" d="M138.24,293.771l-20.779-20.781c-2.82,4.125-6.455,7.749-10.586,10.562l20.793,20.793
		c1.413,1.41,3.29,2.189,5.287,2.189c1.996,0,3.875-0.779,5.285-2.189C141.156,301.428,141.156,296.686,138.24,293.771z"/>
	<path fill="#FFFFFF" d="M85.316,236.979v-4.748c-10.71,0-19.394,8.684-19.394,19.395h4.747
		C70.67,243.537,77.229,236.979,85.316,236.979z"/>
	<linearGradient id="SVGID_2_" gradientUnits="userSpaceOnUse" x1="51.791" y1="251.3545" x2="114.0908" y2="251.3545">
		<stop  offset="0" style="stop-color:#F99008"/>
		<stop  offset="1" style="stop-color:#FA8508"/>
	</linearGradient>
	<path fill="url(#SVGID_2_)" d="M85.316,276.673c-13.982,0-25.318-11.336-25.318-25.319c0-13.984,11.336-25.319,25.318-25.319
		c7.33,0,13.911,3.132,18.536,8.11h10.238c-5.857-9.773-16.55-16.316-28.774-16.316c-18.515,0-33.525,15.01-33.525,33.526
		c0,18.517,15.011,33.528,33.525,33.528c11.996,0,22.513-6.305,28.437-15.774h-10.396C98.764,273.773,92.381,276.673,85.316,276.673
		z"/>
</g>
</svg>
