<?xml version="1.0" encoding="utf-8"?>
<!-- Generator: Adobe Illustrator 16.0.3, SVG Export Plug-In . SVG Version: 6.00 Build 0)  -->
<!DOCTYPE svg PUBLIC "-//W3C//DTD SVG 1.1//EN" "http://www.w3.org/Graphics/SVG/1.1/DTD/svg11.dtd">
<svg version="1.1" id="Capa_1" xmlns="http://www.w3.org/2000/svg" xmlns:xlink="http://www.w3.org/1999/xlink" x="0px" y="0px"
	 width="212.85px" height="212.85px" viewBox="0 0 212.85 212.85" enable-background="new 0 0 212.85 212.85" xml:space="preserve">
<linearGradient id="SVGID_1_" gradientUnits="userSpaceOnUse" x1="14.1094" y1="110.1045" x2="204.6006" y2="110.1045">
	<stop  offset="0" style="stop-color:#220369"/>
	<stop  offset="1" style="stop-color:#7D00FF"/>
</linearGradient>
<circle fill-rule="evenodd" clip-rule="evenodd" fill="url(#SVGID_1_)" stroke="#FFFFFF" stroke-width="5" stroke-miterlimit="10" cx="109.355" cy="110.104" r="95.246"/>
<circle fill-rule="evenodd" clip-rule="evenodd" fill="#FFFFFF" cx="109.354" cy="110.764" r="78.479"/>
<g>
	<linearGradient id="SVGID_2_" gradientUnits="userSpaceOnUse" x1="109.3545" y1="32.1895" x2="109.3545" y2="190.0942">
		<stop  offset="0" style="stop-color:#ADBAFF"/>
		<stop  offset="0.5222" style="stop-color:#FFFFFF"/>
		<stop  offset="1" style="stop-color:#380072"/>
	</linearGradient>
	<ellipse fill-rule="evenodd" clip-rule="evenodd" fill="url(#SVGID_2_)" cx="109.354" cy="111.142" rx="79.211" ry="78.952"/>
	<ellipse fill-rule="evenodd" clip-rule="evenodd" fill="#FFFFFF" cx="109.355" cy="111.042" rx="71.935" ry="71.7"/>
</g>
<g>
	<g>
		<path fill-rule="evenodd" clip-rule="evenodd" fill="#220369" d="M109.354,63.392c-6.795-0.011-13.591,0.333-20.295,1.024
			c-17.402,1.786-24.53,8.89-26.41,26.371c-1.417,13.167-1.434,26.735,0.014,39.899c1.945,17.711,9.898,24.718,27.629,26.979
			c6.345,0.81,12.705,1.241,19.063,1.244c6.797,0.01,13.594-0.334,20.295-1.022c17.402-1.792,24.53-8.892,26.413-26.373
			c1.416-13.168,1.431-26.74-0.016-39.9c-1.944-17.71-9.897-24.718-27.63-26.977c-6.345-0.812-12.703-1.244-19.063-1.248V63.392z"/>
	</g>
	<g>
		<path fill-rule="evenodd" clip-rule="evenodd" fill="#FFFFFF" d="M109.591,155.179h-0.281c-5.658,0-11.532-0.384-17.459-1.14
			c-16.921-2.16-23.869-8.952-25.639-25.055c-1.321-12.019-1.325-24.303-0.014-36.51c1.745-16.207,8.397-22.847,24.541-24.507
			c6.028-0.622,12.183-0.938,18.291-0.938h0.281c5.676,0.001,11.547,0.386,17.455,1.139c16.706,2.132,23.895,9.156,25.643,25.054
			c1.319,12.021,1.324,24.303,0.014,36.511c-1.748,16.206-8.401,22.849-24.545,24.508
			C121.852,154.864,115.698,155.179,109.591,155.179L109.591,155.179z M109.311,68.023L109.311,68.023l-0.269,0.002
			c-6.086,0-12.205,0.314-18.201,0.934c-15.56,1.597-21.972,7.999-23.653,23.62c-1.304,12.137-1.3,24.349,0.015,36.296
			c1.705,15.535,8.422,22.09,24.775,24.178c5.886,0.75,11.718,1.13,17.333,1.131h0.28c6.074,0,12.191-0.312,18.186-0.932
			c15.561-1.6,21.972-8.003,23.655-23.622c1.306-12.139,1.3-24.35-0.013-36.297c-1.706-15.536-8.425-22.088-24.778-24.175
			C120.779,68.409,114.948,68.027,109.311,68.023z"/>
	</g>
	<path opacity="0.5" fill-rule="evenodd" clip-rule="evenodd" fill="#000006" d="M156.047,91.638
		c-0.095-0.871-0.216-1.691-0.341-2.514l-9.114-9.111c-0.998-0.762-1.647-1.234-1.647-1.234l-1.906,1.497l-2.742-2.743
		c-0.194-0.146-0.385-0.292-0.583-0.436l-2.956,2.949l2.884,2.885l-1.426,1.035l-3.658-3.662l-3.043,3.042l3.171,3.167l-1.395,1.008
		l-3.923-3.923l-3.075,3.068l3.433,3.43l-1.352,0.975l-4.071-4.067l-2.997,3.002l3.584,3.584l-27.707,19.089l-29.077,11.909
		l-0.135,0.135l34.011,34.002c2.458,0.125,4.916,0.211,7.374,0.211c6.797,0.011,13.594-0.33,20.295-1.022
		c8.379-0.86,14.356-2.975,18.531-6.862l0.948-0.948c3.891-4.172,6.028-10.155,6.934-18.563
		C157.479,118.37,157.493,104.802,156.047,91.638z"/>
	<g>
		<g>
			<g>
				<path fill-rule="evenodd" clip-rule="evenodd" fill="#FF157C" d="M140.109,77.259c0.649,1.015,0.345,2.356-0.671,2.998
					c-1.012,0.642-2.363,0.347-2.998-0.67c-0.646-1.019-0.341-2.357,0.674-2.996C138.131,75.945,139.471,76.245,140.109,77.259z"/>
				<path fill-rule="evenodd" clip-rule="evenodd" fill="#FF6250" d="M134.816,80.621c0.64,1.01,0.343,2.352-0.68,2.998
					c-1.018,0.642-2.354,0.333-2.998-0.681c-0.638-1.01-0.341-2.352,0.669-2.996C132.828,79.3,134.179,79.608,134.816,80.621z"/>
				<path fill-rule="evenodd" clip-rule="evenodd" fill="#FF940F" d="M129.511,83.843c0.64,1.016,0.337,2.354-0.672,2.993
					c-1.017,0.64-2.361,0.341-3.001-0.667c-0.639-1.015-0.343-2.357,0.675-3.002C127.524,82.525,128.874,82.832,129.511,83.843z"/>
				<path fill-rule="evenodd" clip-rule="evenodd" fill="#FFFF00" d="M124.519,87.196c0.641,1.011,0.337,2.354-0.678,3
					c-1.014,0.645-2.355,0.337-3.001-0.677c-0.636-1.013-0.337-2.354,0.679-2.992C122.536,85.881,123.874,86.179,124.519,87.196z"/>
			</g>
		</g>
		<g>
			<linearGradient id="SVGID_3_" gradientUnits="userSpaceOnUse" x1="67.9697" y1="115.9707" x2="145.1885" y2="115.9707">
				<stop  offset="0" style="stop-color:#F7FB16"/>
				<stop  offset="0.2734" style="stop-color:#F6AB31"/>
				<stop  offset="0.5319" style="stop-color:#F56748"/>
				<stop  offset="0.7464" style="stop-color:#F43658"/>
				<stop  offset="0.9087" style="stop-color:#F31762"/>
				<stop  offset="1" style="stop-color:#F30C66"/>
			</linearGradient>
			<polygon fill-rule="evenodd" clip-rule="evenodd" fill="url(#SVGID_3_)" points="131.331,135.106 113.907,117.694 
				145.188,79.141 103.122,106.913 85.965,89.761 89.717,113.702 67.97,124.72 92.081,128.762 96.056,152.8 107.053,131.177 			"/>
			<g>
				<g>
					<polygon fill-rule="evenodd" clip-rule="evenodd" fill="#150329" points="112.637,124.7 106.335,118.396 145.188,79.141 
						102.428,114.494 96.22,108.289 97.579,116.954 89.712,120.94 98.434,122.397 99.87,131.103 103.851,123.276 					"/>
				</g>
				<g>
					<path fill-rule="evenodd" clip-rule="evenodd" d="M99.502,133.467l-1.718-10.419l-10.438-1.746l9.411-4.768l-1.631-10.392
						l7.349,7.345l42.238-34.921l1.007,1.1l-38.333,38.73l7.411,7.411l-10.529-1.707L99.502,133.467L99.502,133.467z
						 M92.074,120.579L92.074,120.579l7.009,1.174l1.152,6.985l3.197-6.286l7.042,1.143l-5.193-5.193l28.856-29.154l-31.759,26.254
						l-5.067-5.065l1.089,6.939L92.074,120.579z"/>
				</g>
			</g>
			<g>
				
					<rect x="118.108" y="66.812" transform="matrix(0.6495 0.7603 -0.7603 0.6495 119.0362 -54.3343)" fill-rule="evenodd" clip-rule="evenodd" fill="#FFFFFF" width="0.696" height="70.284"/>
			</g>
			<g>
				
					<rect x="119.456" y="68.006" transform="matrix(0.6771 0.7359 -0.7359 0.6771 114.1155 -55.0639)" fill-rule="evenodd" clip-rule="evenodd" fill="#FFFFFF" width="0.698" height="69.002"/>
			</g>
			<g>
				
					<rect x="119.718" y="68.613" transform="matrix(0.6994 0.7148 -0.7148 0.6994 110.3284 -54.5976)" fill-rule="evenodd" clip-rule="evenodd" fill="#FFFFFF" width="0.697" height="70.48"/>
			</g>
			<g>
				<g>
					<path fill-rule="evenodd" clip-rule="evenodd" d="M95.413,134.357c-0.549,0-1.025-0.397-1.106-0.95l-0.924-6.289l-6.676-1.377
						c-0.601-0.124-0.991-0.715-0.862-1.314c0.12-0.602,0.711-0.99,1.31-0.865l8.204,1.689l1.158,7.83
						c0.086,0.611-0.337,1.176-0.943,1.264C95.516,134.355,95.461,134.357,95.413,134.357z"/>
				</g>
			</g>
			<g>
				<path fill-rule="evenodd" clip-rule="evenodd" fill="#FF6250" d="M95.963,133.599c-0.545,0-1.024-0.394-1.103-0.949l-0.93-6.282
					l-6.665-1.38c-0.61-0.125-0.997-0.717-0.872-1.318c0.128-0.599,0.719-0.988,1.317-0.863l8.199,1.688l1.154,7.83
					c0.092,0.605-0.33,1.174-0.938,1.267C96.071,133.595,96.013,133.599,95.963,133.599z"/>
			</g>
		</g>
	</g>
</g>
</svg>
