<?xml version="1.0" encoding="utf-8"?>
<!-- Generator: Adobe Illustrator 16.0.3, SVG Export Plug-In . SVG Version: 6.00 Build 0)  -->
<!DOCTYPE svg PUBLIC "-//W3C//DTD SVG 1.1//EN" "http://www.w3.org/Graphics/SVG/1.1/DTD/svg11.dtd">
<svg version="1.1" id="Capa_1" xmlns="http://www.w3.org/2000/svg" xmlns:xlink="http://www.w3.org/1999/xlink" x="0px" y="0px"
	 width="212.85px" height="212.85px" viewBox="0 0 212.85 212.85" enable-background="new 0 0 212.85 212.85" xml:space="preserve">
<linearGradient id="SVGID_1_" gradientUnits="userSpaceOnUse" x1="11.1787" y1="110.7637" x2="201.6709" y2="110.7637">
	<stop  offset="0" style="stop-color:#5A5B5D"/>
	<stop  offset="1" style="stop-color:#131011"/>
</linearGradient>
<circle fill-rule="evenodd" clip-rule="evenodd" fill="url(#SVGID_1_)" stroke="#FFFFFF" stroke-width="5" stroke-miterlimit="10" cx="106.425" cy="110.764" r="95.246"/>
<circle fill-rule="evenodd" clip-rule="evenodd" fill="#FFFFFF" cx="106.45" cy="110.322" r="78.479"/>
<g>
	<linearGradient id="SVGID_2_" gradientUnits="userSpaceOnUse" x1="106.4512" y1="31.748" x2="106.4512" y2="189.6528">
		<stop  offset="0" style="stop-color:#8A8A8A"/>
		<stop  offset="0.3342" style="stop-color:#D2D2D2"/>
		<stop  offset="0.5665" style="stop-color:#FFFFFF"/>
		<stop  offset="0.72" style="stop-color:#D6D6D6"/>
		<stop  offset="0.9951" style="stop-color:#848484"/>
	</linearGradient>
	<path fill-rule="evenodd" clip-rule="evenodd" fill="url(#SVGID_2_)" d="M185.662,110.7c0,43.604-35.463,78.952-79.211,78.952
		c-43.75,0-79.211-35.348-79.211-78.952s35.461-78.952,79.211-78.952C150.199,31.748,185.662,67.096,185.662,110.7z"/>
	<ellipse fill-rule="evenodd" clip-rule="evenodd" fill="#FFFFFF" cx="106.451" cy="110.601" rx="71.936" ry="71.7"/>
</g>
<g>
	<g>
		<defs>
			<path id="SVGID_226_" d="M59.34,146.271c-0.854,0-1.553,0.699-1.553,1.553v2.793c0,0.855,0.699,1.553,1.553,1.553h17.308
				c0.853,0,1.553-0.697,1.553-1.553v-2.793c0-0.854-0.7-1.553-1.553-1.553H59.34z"/>
		</defs>
		<clipPath id="SVGID_3_">
			<use xlink:href="#SVGID_226_"  overflow="visible"/>
		</clipPath>
		
			<linearGradient id="SVGID_4_" gradientUnits="userSpaceOnUse" x1="-2446.6279" y1="635.4629" x2="-2445.6807" y2="635.4629" gradientTransform="matrix(0 6.2255 6.2255 0 -3888.0811 15377.7539)">
			<stop  offset="0" style="stop-color:#5A5B5D"/>
			<stop  offset="1" style="stop-color:#302E2F"/>
		</linearGradient>
		<rect x="57.787" y="146.271" clip-path="url(#SVGID_3_)" fill="url(#SVGID_4_)" width="20.413" height="5.898"/>
	</g>
	<g>
		<defs>
			<path id="SVGID_229_" d="M88.832,138.898c-0.854,0-1.551,0.699-1.551,1.552v5.821h-4.735c-0.854,0-1.551,0.699-1.551,1.553v2.793
				c0,0.855,0.697,1.553,1.551,1.553h17.308c0.854,0,1.553-0.697,1.553-1.553v-2.793c0-0.854-0.699-1.553-1.553-1.553h-4.345v-5.821
				c0-0.853-0.7-1.552-1.554-1.552H88.832z"/>
		</defs>
		<clipPath id="SVGID_5_">
			<use xlink:href="#SVGID_229_"  overflow="visible"/>
		</clipPath>
		
			<linearGradient id="SVGID_6_" gradientUnits="userSpaceOnUse" x1="-2451.1323" y1="419.6826" x2="-2450.1851" y2="419.6826" gradientTransform="matrix(0 14.0073 14.0073 0 -5787.4102 34472.6445)">
			<stop  offset="0" style="stop-color:#5A5B5D"/>
			<stop  offset="1" style="stop-color:#302E2F"/>
		</linearGradient>
		<rect x="80.995" y="138.898" clip-path="url(#SVGID_5_)" fill="url(#SVGID_6_)" width="20.411" height="13.271"/>
	</g>
	<g>
		<defs>
			<path id="SVGID_232_" d="M105.752,146.271c-0.854,0-1.553,0.699-1.553,1.553v2.793c0,0.855,0.698,1.553,1.553,1.553h17.307
				c0.855,0,1.555-0.697,1.555-1.553v-2.793c0-0.854-0.699-1.553-1.555-1.553H105.752z"/>
		</defs>
		<clipPath id="SVGID_7_">
			<use xlink:href="#SVGID_232_"  overflow="visible"/>
		</clipPath>
		
			<linearGradient id="SVGID_8_" gradientUnits="userSpaceOnUse" x1="-2446.6279" y1="635.0488" x2="-2445.6807" y2="635.0488" gradientTransform="matrix(0 6.2255 6.2255 0 -3839.0928 15377.7539)">
			<stop  offset="0" style="stop-color:#5A5B5D"/>
			<stop  offset="1" style="stop-color:#302E2F"/>
		</linearGradient>
		<rect x="104.199" y="146.271" clip-path="url(#SVGID_7_)" fill="url(#SVGID_8_)" width="20.414" height="5.898"/>
	</g>
	<g>
		<defs>
			<path id="SVGID_235_" d="M62.018,93.496c0-1.373,1.113-2.484,2.484-2.484s2.484,1.111,2.484,2.484
				c0,1.371-1.113,2.482-2.484,2.482S62.018,94.867,62.018,93.496 M86.079,93.496c0-1.623,1.326-2.949,2.947-2.949h4.347
				c1.623,0,2.949,1.326,2.949,2.949c0,1.621-1.326,2.949-2.949,2.949h-4.347C87.405,96.445,86.079,95.117,86.079,93.496
				 M97.253,93.496c0-1.623,1.327-2.949,2.949-2.949h4.345c1.623,0,2.951,1.326,2.951,2.949c0,1.621-1.328,2.949-2.951,2.949h-4.345
				C98.58,96.445,97.253,95.117,97.253,93.496 M108.43,93.496c0-1.623,1.327-2.949,2.948-2.949h4.347c1.623,0,2.95,1.326,2.95,2.949
				c0,1.621-1.327,2.949-2.95,2.949h-4.347C109.757,96.445,108.43,95.117,108.43,93.496 M64.113,85.813
				c-4.227,0-7.684,3.457-7.684,7.684c0,4.225,3.457,7.682,7.684,7.682h50.604c4.226,0,7.683-3.457,7.683-7.682
				c0-4.227-3.457-7.684-7.683-7.684H64.113z"/>
		</defs>
		<clipPath id="SVGID_9_">
			<use xlink:href="#SVGID_235_"  overflow="visible"/>
		</clipPath>
		
			<linearGradient id="SVGID_10_" gradientUnits="userSpaceOnUse" x1="-2451.4302" y1="396.1904" x2="-2450.4824" y2="396.1904" gradientTransform="matrix(0 16.2189 16.2189 0 -6336.374 39845.3086)">
			<stop  offset="0" style="stop-color:#5A5B5D"/>
			<stop  offset="1" style="stop-color:#302E2F"/>
		</linearGradient>
		<rect x="56.43" y="85.813" clip-path="url(#SVGID_9_)" fill="url(#SVGID_10_)" width="65.97" height="15.365"/>
	</g>
	<g>
		<defs>
			<path id="SVGID_238_" d="M62.018,110.764c0-1.371,1.113-2.483,2.484-2.483s2.484,1.112,2.484,2.483s-1.113,2.483-2.484,2.483
				S62.018,112.135,62.018,110.764 M86.079,110.764c0-1.621,1.326-2.949,2.947-2.949h4.347c1.623,0,2.949,1.328,2.949,2.949
				c0,1.623-1.326,2.949-2.949,2.949h-4.347C87.405,113.713,86.079,112.387,86.079,110.764 M97.253,110.764
				c0-1.621,1.327-2.949,2.949-2.949h4.345c1.623,0,2.951,1.328,2.951,2.949c0,1.623-1.328,2.949-2.951,2.949h-4.345
				C98.58,113.713,97.253,112.387,97.253,110.764 M108.43,110.764c0-1.621,1.327-2.949,2.948-2.949h4.347
				c1.623,0,2.95,1.328,2.95,2.949c0,1.623-1.327,2.949-2.95,2.949h-4.347C109.757,113.713,108.43,112.387,108.43,110.764
				 M64.113,103.08c-4.227,0-7.684,3.459-7.684,7.684c0,4.227,3.457,7.684,7.684,7.684h50.604c4.226,0,7.683-3.457,7.683-7.684
				c0-4.225-3.457-7.684-7.683-7.684H64.113z"/>
		</defs>
		<clipPath id="SVGID_11_">
			<use xlink:href="#SVGID_238_"  overflow="visible"/>
		</clipPath>
		
			<linearGradient id="SVGID_12_" gradientUnits="userSpaceOnUse" x1="-2451.5098" y1="396.1689" x2="-2450.562" y2="396.1689" gradientTransform="matrix(0 16.219 16.219 0 -6336.0723 39864.1055)">
			<stop  offset="0" style="stop-color:#5A5B5D"/>
			<stop  offset="1" style="stop-color:#302E2F"/>
		</linearGradient>
		<rect x="56.43" y="103.08" clip-path="url(#SVGID_11_)" fill="url(#SVGID_12_)" width="65.97" height="15.367"/>
	</g>
	<g>
		<defs>
			<path id="SVGID_241_" d="M62.018,128.227c0-1.372,1.113-2.484,2.484-2.484s2.484,1.112,2.484,2.484
				c0,1.371-1.113,2.483-2.484,2.483S62.018,129.598,62.018,128.227 M86.079,128.227c0-1.623,1.326-2.949,2.947-2.949h4.347
				c1.623,0,2.949,1.326,2.949,2.949c0,1.621-1.326,2.949-2.949,2.949h-4.347C87.405,131.176,86.079,129.848,86.079,128.227
				 M97.253,128.227c0-1.623,1.327-2.949,2.949-2.949h4.345c1.623,0,2.951,1.326,2.951,2.949c0,1.621-1.328,2.949-2.951,2.949
				h-4.345C98.58,131.176,97.253,129.848,97.253,128.227 M108.43,128.227c0-1.623,1.327-2.949,2.948-2.949h4.347
				c1.623,0,2.95,1.326,2.95,2.949c0,1.621-1.327,2.949-2.95,2.949h-4.347C109.757,131.176,108.43,129.848,108.43,128.227
				 M64.113,120.543c-4.227,0-7.684,3.457-7.684,7.684c0,4.225,3.457,7.684,7.684,7.684h50.604c4.226,0,7.683-3.459,7.683-7.684
				c0-4.227-3.457-7.684-7.683-7.684H64.113z"/>
		</defs>
		<clipPath id="SVGID_13_">
			<use xlink:href="#SVGID_241_"  overflow="visible"/>
		</clipPath>
		
			<linearGradient id="SVGID_14_" gradientUnits="userSpaceOnUse" x1="-2451.5488" y1="396.1904" x2="-2450.6016" y2="396.1904" gradientTransform="matrix(0 16.2189 16.2189 0 -6336.374 39881.9648)">
			<stop  offset="0" style="stop-color:#5A5B5D"/>
			<stop  offset="1" style="stop-color:#302E2F"/>
		</linearGradient>
		<rect x="56.43" y="120.543" clip-path="url(#SVGID_13_)" fill="url(#SVGID_14_)" width="65.97" height="15.367"/>
	</g>
	<g>
		<defs>
			<path id="SVGID_244_" d="M87.433,69.975c-1.432-0.221-3.082-0.386-4.836-0.386c-5.598,0-10.424,1.679-13.961,4.854
				c-2.716,2.44-4.605,5.07-5.92,7.516l8.793,0.029c0.593-0.705,1.264-1.408,2.024-2.09c5.984-5.376,16.49-1.832,16.49-1.832
				s10.626-15.086,27.484-8.674c16.854,6.414,14.045,23.574,14.045,23.574s17.59-1.037,17.59,16.613
				c0,12.673-13.222,14.658-13.222,14.658l-8.165-0.002v7.248c1.301,0,9.252,0,9.252,0c6.731-1.012,19.464-6.889,19.464-21.906
				c0-13.449-8.089-20.859-17.632-23.164c-0.171-1.479-0.46-3.096-0.923-4.779c-1.733-6.279-6.228-14.688-17.805-19.094
				c-3.604-1.37-7.263-2.066-10.873-2.066C98.972,60.475,91.474,66.021,87.433,69.975"/>
		</defs>
		<clipPath id="SVGID_15_">
			<use xlink:href="#SVGID_244_"  overflow="visible"/>
		</clipPath>
		
			<linearGradient id="SVGID_16_" gradientUnits="userSpaceOnUse" x1="-2454.064" y1="279.4229" x2="-2453.1167" y2="279.4229" gradientTransform="matrix(0 74.9444 74.9444 0 -20831.5918 183978.8281)">
			<stop  offset="0" style="stop-color:#5A5B5D"/>
			<stop  offset="1" style="stop-color:#302E2F"/>
		</linearGradient>
		<rect x="62.716" y="60.475" clip-path="url(#SVGID_15_)" fill="url(#SVGID_16_)" width="93.755" height="71.01"/>
	</g>
</g>
</svg>
