<?xml version="1.0" encoding="utf-8"?>
<!-- Generator: Adobe Illustrator 16.0.3, SVG Export Plug-In . SVG Version: 6.00 Build 0)  -->
<!DOCTYPE svg PUBLIC "-//W3C//DTD SVG 1.1//EN" "http://www.w3.org/Graphics/SVG/1.1/DTD/svg11.dtd">
<svg version="1.1" id="Capa_1" xmlns="http://www.w3.org/2000/svg" xmlns:xlink="http://www.w3.org/1999/xlink" x="0px" y="0px"
	 width="212.851px" height="212.85px" viewBox="0 0 212.851 212.85" enable-background="new 0 0 212.851 212.85"
	 xml:space="preserve">
<linearGradient id="SVGID_1_" gradientUnits="userSpaceOnUse" x1="10.7119" y1="108.833" x2="201.2021" y2="108.833">
	<stop  offset="0" style="stop-color:#00D407"/>
	<stop  offset="1" style="stop-color:#C4FF00"/>
</linearGradient>
<circle fill-rule="evenodd" clip-rule="evenodd" fill="url(#SVGID_1_)" stroke="#FFFFFF" stroke-width="5" stroke-miterlimit="10" cx="105.957" cy="108.833" r="95.245"/>
<circle fill-rule="evenodd" clip-rule="evenodd" fill="#FFFFFF" cx="105.957" cy="108.52" r="78.479"/>
<g>
	<linearGradient id="SVGID_2_" gradientUnits="userSpaceOnUse" x1="105.9561" y1="29.9453" x2="105.956" y2="187.8501">
		<stop  offset="0" style="stop-color:#CAFFA9"/>
		<stop  offset="1" style="stop-color:#6BA965"/>
	</linearGradient>
	<ellipse fill-rule="evenodd" clip-rule="evenodd" fill="url(#SVGID_2_)" cx="105.957" cy="108.897" rx="79.282" ry="78.952"/>
	<ellipse fill-rule="evenodd" clip-rule="evenodd" fill="#FFFFFF" cx="105.957" cy="108.798" rx="72" ry="71.7"/>
</g>
<g>
	<linearGradient id="SVGID_3_" gradientUnits="userSpaceOnUse" x1="54.9824" y1="107.8975" x2="156.9316" y2="107.8975">
		<stop  offset="0" style="stop-color:#EAEBE8"/>
		<stop  offset="0.29" style="stop-color:#FFFFFF"/>
		<stop  offset="0.53" style="stop-color:#F5F6F5"/>
		<stop  offset="0.75" style="stop-color:#FFFFFF"/>
		<stop  offset="1" style="stop-color:#EAEBE8"/>
	</linearGradient>
	
		<path fill-rule="evenodd" clip-rule="evenodd" fill="url(#SVGID_3_)" stroke="#64DD1A" stroke-width="2.4001" stroke-miterlimit="22.9256" d="
		M142.001,71.852c-9.627-9.627-22.429-14.93-36.044-14.93c-13.616,0-26.417,5.303-36.045,14.93
		c-9.628,9.629-14.93,22.43-14.93,36.045c0,9.553,2.66,18.867,7.695,26.939l0.662,1.061l-0.371,1.195l-3.016,9.702l-0.721,2.32
		l2.415-0.264l11.119-1.215l1.099-0.119l0.872,0.678c4.362,3.385,9.206,6.021,14.396,7.836c5.394,1.887,11.054,2.842,16.823,2.842
		c13.616,0,26.417-5.301,36.044-14.931c9.628-9.627,14.931-22.428,14.931-36.044C156.932,94.282,151.629,81.481,142.001,71.852z"/>
	<path fill-rule="evenodd" clip-rule="evenodd" fill="#2ABF11" d="M62.549,93.059c-1.607,4.715-2.445,9.712-2.445,14.838
		c0,8.594,2.393,16.972,6.919,24.228l1.903,3.051l-2.486,8l8.929-0.975l2.509,1.947c3.924,3.044,8.28,5.417,12.947,7.048
		c4.85,1.695,9.941,2.555,15.133,2.555c12.248,0,23.763-4.77,32.423-13.431c8.661-8.66,13.431-20.175,13.431-32.423
		c0-1.775-0.104-3.535-0.301-5.273c-10.593,5.785-23.728,9.21-37.954,9.21C92.67,111.833,74.139,104.454,62.549,93.059z"/>
	<path fill-rule="evenodd" clip-rule="evenodd" fill="#64DD1A" d="M105.957,62.043c-12.248,0-23.764,4.77-32.424,13.431
		c-5.035,5.035-8.752,11.036-10.984,17.585c11.59,11.395,30.121,18.774,51.007,18.774c14.227,0,27.361-3.425,37.954-9.21
		c-1.167-10.252-5.725-19.744-13.13-27.149C129.72,66.813,118.205,62.043,105.957,62.043z"/>
	<linearGradient id="SVGID_4_" gradientUnits="userSpaceOnUse" x1="76.0684" y1="95.4336" x2="87.9531" y2="95.4336">
		<stop  offset="0" style="stop-color:#EAEBE8"/>
		<stop  offset="0.29" style="stop-color:#FFFFFF"/>
		<stop  offset="0.53" style="stop-color:#F5F6F5"/>
		<stop  offset="0.75" style="stop-color:#FFFFFF"/>
		<stop  offset="1" style="stop-color:#EAEBE8"/>
	</linearGradient>
	<circle fill-rule="evenodd" clip-rule="evenodd" fill="url(#SVGID_4_)" cx="82.011" cy="95.434" r="5.942"/>
	<linearGradient id="SVGID_5_" gradientUnits="userSpaceOnUse" x1="100.0156" y1="95.4336" x2="111.8984" y2="95.4336">
		<stop  offset="0" style="stop-color:#EAEBE8"/>
		<stop  offset="0.29" style="stop-color:#FFFFFF"/>
		<stop  offset="0.53" style="stop-color:#F5F6F5"/>
		<stop  offset="0.75" style="stop-color:#FFFFFF"/>
		<stop  offset="1" style="stop-color:#EAEBE8"/>
	</linearGradient>
	<circle fill-rule="evenodd" clip-rule="evenodd" fill="url(#SVGID_5_)" cx="105.957" cy="95.434" r="5.941"/>
	<linearGradient id="SVGID_6_" gradientUnits="userSpaceOnUse" x1="123.9609" y1="95.4336" x2="135.8447" y2="95.4336">
		<stop  offset="0" style="stop-color:#EAEBE8"/>
		<stop  offset="0.29" style="stop-color:#FFFFFF"/>
		<stop  offset="0.53" style="stop-color:#F5F6F5"/>
		<stop  offset="0.75" style="stop-color:#FFFFFF"/>
		<stop  offset="1" style="stop-color:#EAEBE8"/>
	</linearGradient>
	<circle fill-rule="evenodd" clip-rule="evenodd" fill="url(#SVGID_6_)" cx="129.903" cy="95.434" r="5.942"/>
	<linearGradient id="SVGID_7_" gradientUnits="userSpaceOnUse" x1="76.0684" y1="120.6094" x2="87.9531" y2="120.6094">
		<stop  offset="0" style="stop-color:#EAEBE8"/>
		<stop  offset="0.29" style="stop-color:#FFFFFF"/>
		<stop  offset="0.53" style="stop-color:#F5F6F5"/>
		<stop  offset="0.75" style="stop-color:#FFFFFF"/>
		<stop  offset="1" style="stop-color:#EAEBE8"/>
	</linearGradient>
	<circle fill-rule="evenodd" clip-rule="evenodd" fill="url(#SVGID_7_)" cx="82.011" cy="120.61" r="5.942"/>
	<linearGradient id="SVGID_8_" gradientUnits="userSpaceOnUse" x1="100.0156" y1="120.6094" x2="111.8984" y2="120.6094">
		<stop  offset="0" style="stop-color:#EAEBE8"/>
		<stop  offset="0.29" style="stop-color:#FFFFFF"/>
		<stop  offset="0.53" style="stop-color:#F5F6F5"/>
		<stop  offset="0.75" style="stop-color:#FFFFFF"/>
		<stop  offset="1" style="stop-color:#EAEBE8"/>
	</linearGradient>
	<circle fill-rule="evenodd" clip-rule="evenodd" fill="url(#SVGID_8_)" cx="105.957" cy="120.61" r="5.941"/>
	<linearGradient id="SVGID_9_" gradientUnits="userSpaceOnUse" x1="123.9609" y1="120.6094" x2="135.8447" y2="120.6094">
		<stop  offset="0" style="stop-color:#EAEBE8"/>
		<stop  offset="0.29" style="stop-color:#FFFFFF"/>
		<stop  offset="0.53" style="stop-color:#F5F6F5"/>
		<stop  offset="0.75" style="stop-color:#FFFFFF"/>
		<stop  offset="1" style="stop-color:#EAEBE8"/>
	</linearGradient>
	<circle fill-rule="evenodd" clip-rule="evenodd" fill="url(#SVGID_9_)" cx="129.903" cy="120.61" r="5.942"/>
</g>
</svg>
