<?xml version="1.0" encoding="utf-8"?>
<!-- Generator: Adobe Illustrator 16.0.3, SVG Export Plug-In . SVG Version: 6.00 Build 0)  -->
<!DOCTYPE svg PUBLIC "-//W3C//DTD SVG 1.1//EN" "http://www.w3.org/Graphics/SVG/1.1/DTD/svg11.dtd">
<svg version="1.1" id="Capa_1" xmlns="http://www.w3.org/2000/svg" xmlns:xlink="http://www.w3.org/1999/xlink" x="0px" y="0px"
	 width="212.85px" height="212.85px" viewBox="0 0 212.85 212.85" enable-background="new 0 0 212.85 212.85" xml:space="preserve">
<linearGradient id="SVGID_1_" gradientUnits="userSpaceOnUse" x1="13.0107" y1="107.833" x2="203.501" y2="107.833">
	<stop  offset="0" style="stop-color:#FBEE3C"/>
	<stop  offset="0.296" style="stop-color:#B3DF76"/>
	<stop  offset="0.6362" style="stop-color:#67D0B3"/>
	<stop  offset="0.8795" style="stop-color:#36C6D9"/>
	<stop  offset="1" style="stop-color:#24C2E8"/>
</linearGradient>
<circle fill-rule="evenodd" clip-rule="evenodd" fill="url(#SVGID_1_)" stroke="#FFFFFF" stroke-width="5" stroke-miterlimit="10" cx="108.256" cy="107.832" r="95.245"/>
<circle fill-rule="evenodd" clip-rule="evenodd" fill="#FFFFFF" cx="108.256" cy="108.326" r="78.479"/>
<g>
	<linearGradient id="SVGID_2_" gradientUnits="userSpaceOnUse" x1="108.2568" y1="29.3564" x2="108.2568" y2="187.3569">
		<stop  offset="0" style="stop-color:#ADBAA6"/>
		<stop  offset="0.5025" style="stop-color:#FFFFFF"/>
		<stop  offset="1" style="stop-color:#5BA9D1"/>
	</linearGradient>
	<ellipse fill-rule="evenodd" clip-rule="evenodd" fill="url(#SVGID_2_)" cx="108.257" cy="108.357" rx="79.229" ry="78.999"/>
	<ellipse fill-rule="evenodd" clip-rule="evenodd" fill="#FFFFFF" cx="108.257" cy="108.258" rx="71.952" ry="71.742"/>
</g>
<g>
	<linearGradient id="SVGID_3_" gradientUnits="userSpaceOnUse" x1="5.9746" y1="116.2686" x2="190.3862" y2="116.2686">
		<stop  offset="0" style="stop-color:#FBEE3C"/>
		<stop  offset="0.296" style="stop-color:#B3DF76"/>
		<stop  offset="0.6362" style="stop-color:#67D0B3"/>
		<stop  offset="0.8795" style="stop-color:#36C6D9"/>
		<stop  offset="1" style="stop-color:#24C2E8"/>
	</linearGradient>
	<path fill-rule="evenodd" clip-rule="evenodd" fill="url(#SVGID_3_)" d="M103.375,126.77l-0.012-0.013v-20.984l0.006-0.006h6.733
		c5.51,0,10.177,4.8,10.177,10.499c0,5.693-4.667,10.504-10.177,10.504H103.375z"/>
	<linearGradient id="SVGID_4_" gradientUnits="userSpaceOnUse" x1="5.8926" y1="116.2627" x2="190.5062" y2="116.2627">
		<stop  offset="0" style="stop-color:#FBEE3C"/>
		<stop  offset="0.296" style="stop-color:#B3DF76"/>
		<stop  offset="0.6362" style="stop-color:#67D0B3"/>
		<stop  offset="0.8795" style="stop-color:#36C6D9"/>
		<stop  offset="1" style="stop-color:#24C2E8"/>
	</linearGradient>
	<polygon fill-rule="evenodd" clip-rule="evenodd" fill="url(#SVGID_4_)" points="100.733,109.7 100.742,109.709 100.742,122.824 
		100.741,122.825 92.867,122.825 92.867,109.7 	"/>
	<linearGradient id="SVGID_5_" gradientUnits="userSpaceOnUse" x1="-2.6914" y1="124.8037" x2="181.9606" y2="124.8037">
		<stop  offset="0" style="stop-color:#FBEE3C"/>
		<stop  offset="0.296" style="stop-color:#B3DF76"/>
		<stop  offset="0.6362" style="stop-color:#67D0B3"/>
		<stop  offset="0.8795" style="stop-color:#36C6D9"/>
		<stop  offset="1" style="stop-color:#24C2E8"/>
	</linearGradient>
	<path fill-rule="evenodd" clip-rule="evenodd" fill="url(#SVGID_5_)" d="M90.238,109.721l0.001,0.002v30.165H79.738l-0.005-0.005
		v-22.711C79.733,112.5,83.273,109.99,90.238,109.721z"/>
	<linearGradient id="SVGID_6_" gradientUnits="userSpaceOnUse" x1="40.4922" y1="81.6035" x2="225.1264" y2="81.6035">
		<stop  offset="0" style="stop-color:#FBEE3C"/>
		<stop  offset="0.296" style="stop-color:#B3DF76"/>
		<stop  offset="0.6362" style="stop-color:#67D0B3"/>
		<stop  offset="0.8795" style="stop-color:#36C6D9"/>
		<stop  offset="1" style="stop-color:#24C2E8"/>
	</linearGradient>
	<path fill-rule="evenodd" clip-rule="evenodd" fill="url(#SVGID_6_)" d="M114.85,71.759l0.002,0.002v19.688h-4.749
		c-5.709,0-10.183-4.321-10.183-9.839c0-5.524,4.474-9.851,10.183-9.851H114.85z"/>
	<linearGradient id="SVGID_7_" gradientUnits="userSpaceOnUse" x1="40.3311" y1="81.603" x2="225.3493" y2="81.603">
		<stop  offset="0" style="stop-color:#FBEE3C"/>
		<stop  offset="0.296" style="stop-color:#B3DF76"/>
		<stop  offset="0.6362" style="stop-color:#67D0B3"/>
		<stop  offset="0.8795" style="stop-color:#36C6D9"/>
		<stop  offset="1" style="stop-color:#24C2E8"/>
	</linearGradient>
	<polygon fill-rule="evenodd" clip-rule="evenodd" fill="url(#SVGID_7_)" points="125.345,74.382 125.35,74.387 125.35,88.824 
		117.476,88.824 117.476,74.389 117.482,74.382 	"/>
	<linearGradient id="SVGID_8_" gradientUnits="userSpaceOnUse" x1="32.8359" y1="89.4951" x2="217.0675" y2="89.4951">
		<stop  offset="0" style="stop-color:#FBEE3C"/>
		<stop  offset="0.296" style="stop-color:#B3DF76"/>
		<stop  offset="0.6362" style="stop-color:#67D0B3"/>
		<stop  offset="0.8795" style="stop-color:#36C6D9"/>
		<stop  offset="1" style="stop-color:#24C2E8"/>
	</linearGradient>
	<path fill-rule="evenodd" clip-rule="evenodd" fill="url(#SVGID_8_)" d="M138.483,104.572l-0.008,0.008h-10.494V74.41
		c6.962,0.297,10.502,3.005,10.502,8.07V104.572z"/>
	<linearGradient id="SVGID_9_" gradientUnits="userSpaceOnUse" x1="15.9727" y1="106.1924" x2="200.5399" y2="106.1924">
		<stop  offset="0" style="stop-color:#FBEE3C"/>
		<stop  offset="0.296" style="stop-color:#B3DF76"/>
		<stop  offset="0.6362" style="stop-color:#67D0B3"/>
		<stop  offset="0.8795" style="stop-color:#36C6D9"/>
		<stop  offset="1" style="stop-color:#24C2E8"/>
	</linearGradient>
	<path fill-rule="evenodd" clip-rule="evenodd" fill="url(#SVGID_9_)" d="M64.394,145.594V66.796c0-3.099,2.513-5.603,5.599-5.603
		h76.531c3.087,0,5.599,2.504,5.599,5.603v78.798c0,3.082-2.512,5.6-5.599,5.6h-11.845v-42.977c0-0.728-0.658-1.311-1.46-1.311
		c-0.806,0-1.461,0.583-1.461,1.311v42.977H86.301v-8.674c0-0.731-0.584-1.314-1.313-1.314c-0.727,0-1.312,0.583-1.312,1.314v8.674
		H69.992C66.906,151.193,64.394,148.676,64.394,145.594L64.394,145.594z M69.992,57.413L69.992,57.413
		c-5.176,0-9.384,4.21-9.384,9.383v78.798c0,5.172,4.208,9.379,9.384,9.379h76.531c5.177,0,9.38-4.207,9.38-9.379V66.796
		c0-5.173-4.203-9.383-9.38-9.383H69.992z"/>
</g>
</svg>
