<?xml version="1.0" encoding="utf-8"?>
<!-- Generator: Adobe Illustrator 16.0.0, SVG Export Plug-In . SVG Version: 6.00 Build 0)  -->
<!DOCTYPE svg PUBLIC "-//W3C//DTD SVG 1.1//EN" "http://www.w3.org/Graphics/SVG/1.1/DTD/svg11.dtd">
<svg version="1.1" xmlns="http://www.w3.org/2000/svg" xmlns:xlink="http://www.w3.org/1999/xlink" x="0px" y="0px" width="1440px"
	 height="2560px" viewBox="0 0 1440 2560" enable-background="new 0 0 1440 2560" xml:space="preserve">
<g id="Capa_1">
	<linearGradient id="SVGID_1_" gradientUnits="userSpaceOnUse" x1="-279.9995" y1="2280.001" x2="1720.0005" y2="280.001">
		<stop  offset="0" style="stop-color:#FFFFFF"/>
		<stop  offset="0.0849" style="stop-color:#F6FCFB"/>
		<stop  offset="0.2235" style="stop-color:#DEF5F2"/>
		<stop  offset="0.3985" style="stop-color:#B6E9E1"/>
		<stop  offset="0.6031" style="stop-color:#7FD9CB"/>
		<stop  offset="0.8298" style="stop-color:#39C5AF"/>
		<stop  offset="1" style="stop-color:#00B498"/>
	</linearGradient>
	<rect fill="url(#SVGID_1_)" width="1440" height="2560"/>
</g>
<g id="Capa_9">
	<linearGradient id="SVGID_2_" gradientUnits="userSpaceOnUse" x1="0" y1="1280" x2="1440" y2="1280">
		<stop  offset="0" style="stop-color:#FFFFFF;stop-opacity:0.75"/>
		<stop  offset="1" style="stop-color:#FFFFFF;stop-opacity:0"/>
	</linearGradient>
	<path fill-rule="evenodd" clip-rule="evenodd" fill="url(#SVGID_2_)" d="M0,0h1440C959.996,853.333,1800.003,1220,360,2560H0V0L0,0
		z"/>
</g>
<g id="Capa_8">
	<linearGradient id="SVGID_3_" gradientUnits="userSpaceOnUse" x1="900" y1="2560" x2="899.9999" y2="4.882813e-004">
		<stop  offset="0" style="stop-color:#317460;stop-opacity:0"/>
		<stop  offset="1" style="stop-color:#317460;stop-opacity:0.75"/>
	</linearGradient>
	<path fill-rule="evenodd" clip-rule="evenodd" fill="url(#SVGID_3_)" d="M1439.998,2559.996L360.002,2560
		C839.999,1706.668,0,1340.001,1439.998,0V2559.996L1439.998,2559.996z"/>
</g>
<g id="Capa_7">
	<linearGradient id="SVGID_4_" gradientUnits="userSpaceOnUse" x1="1079.998" y1="2560" x2="1079.9979" y2="4.882813e-004">
		<stop  offset="0" style="stop-color:#00B498;stop-opacity:0"/>
		<stop  offset="1" style="stop-color:#00B498;stop-opacity:0.75"/>
	</linearGradient>
	<path fill-rule="evenodd" clip-rule="evenodd" fill="url(#SVGID_4_)" d="M1439.998,2560H719.999
		c480.001-853.334-360-1279.998,719.999-2560V2560L1439.998,2560z"/>
</g>
<g id="Capa_6">
	<linearGradient id="SVGID_5_" gradientUnits="userSpaceOnUse" x1="180.001" y1="2560" x2="180.0009" y2="4.882813e-004">
		<stop  offset="0" style="stop-color:#00B498;stop-opacity:0.5"/>
		<stop  offset="1" style="stop-color:#00B498;stop-opacity:0"/>
	</linearGradient>
	<path fill-rule="evenodd" clip-rule="evenodd" fill="url(#SVGID_5_)" d="M0,0h360.002C-120,853.333,720.002,1279.998,0,2560V0L0,0z
		"/>
</g>
<g id="Capa_5">
	<linearGradient id="SVGID_6_" gradientUnits="userSpaceOnUse" x1="4.1665" y1="1280" x2="1000.3519" y2="1280">
		<stop  offset="0" style="stop-color:#00B498"/>
		<stop  offset="1" style="stop-color:#00B498;stop-opacity:0"/>
	</linearGradient>
	<path fill-rule="evenodd" clip-rule="evenodd" fill="url(#SVGID_6_)" d="M0,0v2560h1439.948C644.684,2559.952,0,1413.817,0,0L0,0z"
		/>
</g>
<g id="Capa_4">
	<linearGradient id="SVGID_7_" gradientUnits="userSpaceOnUse" x1="4.1665" y1="1280" x2="1444.1177" y2="1280">
		<stop  offset="0" style="stop-color:#FFFFFF;stop-opacity:0"/>
		<stop  offset="1" style="stop-color:#FFFFFF;stop-opacity:0.75"/>
	</linearGradient>
	<path fill-rule="evenodd" clip-rule="evenodd" fill="url(#SVGID_7_)" d="M1439.951,2560V0H0
		C795.266,0.051,1439.951,1146.181,1439.951,2560L1439.951,2560z"/>
</g>
<g id="Capa_3">
	<linearGradient id="SVGID_8_" gradientUnits="userSpaceOnUse" x1="720.0005" y1="2544.0449" x2="720.0004" y2="1383.0054">
		<stop  offset="0" style="stop-color:#FFFFFF;stop-opacity:0.5"/>
		<stop  offset="1" style="stop-color:#FFFFFF;stop-opacity:0"/>
	</linearGradient>
	<path fill-rule="evenodd" clip-rule="evenodd" fill="url(#SVGID_8_)" d="M160,1280.001c706.929,0,1280,573.072,1280,1279.999H0
		V1289.938C52.419,1283.403,105.811,1280.001,160,1280.001L160,1280.001z"/>
</g>
<g id="Capa_2">
	<g>
		<linearGradient id="SVGID_9_" gradientUnits="userSpaceOnUse" x1="202.8682" y1="2203.9902" x2="302.3013" y2="2205.7258">
			<stop  offset="0" style="stop-color:#317460;stop-opacity:0.6"/>
			<stop  offset="1" style="stop-color:#317460;stop-opacity:0.3"/>
		</linearGradient>
		<path fill-rule="evenodd" clip-rule="evenodd" fill="url(#SVGID_9_)" d="M252.584,2254.583c27.462,0,49.724-22.26,49.724-49.724
			c0-27.46-22.262-49.724-49.724-49.724c-27.461,0-49.724,22.264-49.724,49.724C202.861,2232.323,225.123,2254.583,252.584,2254.583
			L252.584,2254.583z"/>
		<linearGradient id="SVGID_10_" gradientUnits="userSpaceOnUse" x1="163.0879" y1="1980.4102" x2="242.6329" y2="1981.7986">
			<stop  offset="0" style="stop-color:#317460;stop-opacity:0.6"/>
			<stop  offset="1" style="stop-color:#317460;stop-opacity:0.3"/>
		</linearGradient>
		<path fill-rule="evenodd" clip-rule="evenodd" fill="url(#SVGID_10_)" d="M202.861,2020.884c21.969,0,39.777-17.809,39.777-39.781
			c0-21.969-17.809-39.777-39.777-39.777c-21.971,0-39.779,17.809-39.779,39.777C163.082,2003.075,180.89,2020.884,202.861,2020.884
			L202.861,2020.884z"/>
		<linearGradient id="SVGID_11_" gradientUnits="userSpaceOnUse" x1="386.8447" y1="2353.3359" x2="466.3878" y2="2354.7244">
			<stop  offset="0" style="stop-color:#317460;stop-opacity:0.6"/>
			<stop  offset="1" style="stop-color:#317460;stop-opacity:0.3"/>
		</linearGradient>
		<path fill-rule="evenodd" clip-rule="evenodd" fill="url(#SVGID_11_)" d="M426.616,2393.809c21.969,0,39.777-17.81,39.777-39.777
			c0-21.969-17.809-39.778-39.777-39.778s-39.777,17.81-39.777,39.778C386.838,2375.999,404.647,2393.809,426.616,2393.809
			L426.616,2393.809z"/>
		<linearGradient id="SVGID_12_" gradientUnits="userSpaceOnUse" x1="620.5439" y1="2378.3711" x2="680.2038" y2="2379.4124">
			<stop  offset="0" style="stop-color:#317460;stop-opacity:0.6"/>
			<stop  offset="1" style="stop-color:#317460;stop-opacity:0.3"/>
		</linearGradient>
		<path fill-rule="evenodd" clip-rule="evenodd" fill="url(#SVGID_12_)" d="M650.375,2408.728c16.476,0,29.833-13.357,29.833-29.835
			s-13.357-29.835-29.833-29.835c-16.478,0-29.835,13.357-29.835,29.835S633.897,2408.728,650.375,2408.728L650.375,2408.728z"/>
	</g>
</g>
</svg>
