<?xml version="1.0" encoding="utf-8"?>
<!-- Generator: Adobe Illustrator 16.0.3, SVG Export Plug-In . SVG Version: 6.00 Build 0)  -->
<!DOCTYPE svg PUBLIC "-//W3C//DTD SVG 1.1//EN" "http://www.w3.org/Graphics/SVG/1.1/DTD/svg11.dtd">
<svg version="1.1" id="Capa_1" xmlns="http://www.w3.org/2000/svg" xmlns:xlink="http://www.w3.org/1999/xlink" x="0px" y="0px"
	 width="144px" height="144px" viewBox="0 0 144 144" enable-background="new 0 0 144 144" xml:space="preserve">
<g>
	
		<linearGradient id="SVGID_1_" gradientUnits="userSpaceOnUse" x1="95.6328" y1="68.1353" x2="192.7164" y2="165.2188" gradientTransform="matrix(-0.2958 0.9553 -0.9553 -0.2958 225.7669 -31.1217)">
		<stop  offset="0.475" style="stop-color:#F5F5F5"/>
		<stop  offset="1" style="stop-color:#D9D9D9"/>
	</linearGradient>
	<circle fill-rule="evenodd" clip-rule="evenodd" fill="url(#SVGID_1_)" cx="71.667" cy="72.094" r="68.649"/>
	<linearGradient id="SVGID_2_" gradientUnits="userSpaceOnUse" x1="25.1689" y1="22.8711" x2="122.2525" y2="119.9546">
		<stop  offset="0.475" style="stop-color:#F5F5F5"/>
		<stop  offset="1" style="stop-color:#D9D9D9"/>
	</linearGradient>
	<circle fill-rule="evenodd" clip-rule="evenodd" fill="url(#SVGID_2_)" cx="73.71" cy="71.413" r="68.649"/>
	<path fill-rule="evenodd" clip-rule="evenodd" fill="#35A854" d="M102.691,88.079"/>
	<path fill-rule="evenodd" clip-rule="evenodd" fill="#35A854" d="M106.252,83.264"/>
	<path fill-rule="evenodd" clip-rule="evenodd" fill="#E94235" d="M95.095,76.526"/>
	
		<circle fill-rule="evenodd" clip-rule="evenodd" fill="none" stroke="#686868" stroke-miterlimit="10" cx="73.778" cy="71.612" r="63.74"/>
</g>
<g>
	<path fill-rule="evenodd" clip-rule="evenodd" fill="#E94235" d="M94.549,78.204"/>
	<g>
		<path fill-rule="evenodd" clip-rule="evenodd" fill="#96989A" d="M74.428,18.776c8.557-0.028,15.313,5.549,17.064,14.156
			c0.224,1.1,1.043,2.648-1.02,2.934c-1.546,0.215-3.068,0.38-3.385-1.97c-1.025-7.622-9.439-12.884-17.075-9.849
			c-4.268,1.696-7.142,4.776-7.906,9.385c-0.399,2.4-1.764,2.897-3.677,2.41c-2.108-0.538-1.032-2.164-0.755-3.343
			C59.652,24.066,66.111,18.804,74.428,18.776z"/>
		<path fill-rule="evenodd" clip-rule="evenodd" fill="#35A854" d="M113.811,72.161c0.088,0.145,0.083,0.611,0.082,0.795
			c0.011,13.088-0.032,26.182,0.076,39.269c0.018,2.279-0.511,3.068-2.934,3.031c-9.409-0.142-18.824-0.058-28.907-0.058
			c6.546-9.025,12.766-17.602,18.985-26.179"/>
		<path fill-rule="evenodd" clip-rule="evenodd" fill="#F9BB06" d="M27.402,43.062c1.145,0.034,3.943,0.092,5.086,0.096
			c13.96,0.041,27.987,0.058,41.947,0.092c0.018,20.38-0.033,40.78-0.02,61.159c-0.051,0.13-0.082,0.261-0.096,0.397"/>
		<path fill-rule="evenodd" clip-rule="evenodd" fill="#4386F4" d="M66.859,115.186c-5.737,0-10.813,0.002-15.887,0
			c-4.503-0.001-9.012-0.123-13.509,0.044c-2.355,0.089-2.994-0.665-2.979-3.01c0.084-12.461-0.009-24.923-0.042-37.384
			c0.098-0.81-0.098-1.867,0-2.675"/>
		<path fill-rule="evenodd" clip-rule="evenodd" fill="#E94235" d="M74.24,104.392c-0.016-20.379-0.031-40.761-0.047-61.142
			c15.501-0.021,31.005-0.041,46.505-0.061"/>
	</g>
</g>
</svg>
