<?xml version="1.0" encoding="utf-8"?>
<!-- Generator: Adobe Illustrator 16.0.3, SVG Export Plug-In . SVG Version: 6.00 Build 0)  -->
<!DOCTYPE svg PUBLIC "-//W3C//DTD SVG 1.1//EN" "http://www.w3.org/Graphics/SVG/1.1/DTD/svg11.dtd">
<svg version="1.1" id="Capa_1" xmlns="http://www.w3.org/2000/svg" xmlns:xlink="http://www.w3.org/1999/xlink" x="0px" y="0px"
	 width="192px" height="192px" viewBox="0 0 192 192" enable-background="new 0 0 192 192" xml:space="preserve">
<g>
	
		<linearGradient id="SVGID_1_" gradientUnits="userSpaceOnUse" x1="103.4775" y1="76.2529" x2="234.2868" y2="207.0622" gradientTransform="matrix(-0.2958 0.9553 -0.9553 -0.2958 279.7916 -22.9494)">
		<stop  offset="0.475" style="stop-color:#F5F5F5"/>
		<stop  offset="1" style="stop-color:#D9D9D9"/>
	</linearGradient>
	<circle fill-rule="evenodd" clip-rule="evenodd" fill="url(#SVGID_1_)" cx="94.521" cy="96.479" r="92.496"/>
	<linearGradient id="SVGID_2_" gradientUnits="userSpaceOnUse" x1="31.8691" y1="30.1567" x2="162.6791" y2="160.9667">
		<stop  offset="0.475" style="stop-color:#F5F5F5"/>
		<stop  offset="1" style="stop-color:#D9D9D9"/>
	</linearGradient>
	<circle fill-rule="evenodd" clip-rule="evenodd" fill="url(#SVGID_2_)" cx="97.273" cy="95.562" r="92.496"/>
	<path fill-rule="evenodd" clip-rule="evenodd" fill="#35A854" d="M136.322,118.018"/>
	<path fill-rule="evenodd" clip-rule="evenodd" fill="#35A854" d="M141.121,111.529"/>
	<path fill-rule="evenodd" clip-rule="evenodd" fill="#E94235" d="M126.088,102.452"/>
	
		<circle fill-rule="evenodd" clip-rule="evenodd" fill="none" stroke="#686868" stroke-width="2" stroke-miterlimit="10" cx="97.366" cy="95.83" r="85.882"/>
</g>
<g>
	<path fill-rule="evenodd" clip-rule="evenodd" fill="#E94235" d="M125.352,104.711"/>
	<g>
		<path fill-rule="evenodd" clip-rule="evenodd" fill="#96989A" d="M98.241,24.64c11.528-0.038,20.632,7.476,22.991,19.072
			c0.301,1.483,1.404,3.568-1.373,3.954c-2.082,0.289-4.135,0.511-4.561-2.655c-1.383-10.269-12.719-17.359-23.007-13.27
			c-5.75,2.286-9.623,6.435-10.653,12.645c-0.537,3.234-2.377,3.905-4.954,3.248c-2.84-0.724-1.391-2.915-1.018-4.504
			C78.332,31.768,87.035,24.678,98.241,24.64z"/>
		<path fill-rule="evenodd" clip-rule="evenodd" fill="#35A854" d="M151.305,96.569c0.119,0.196,0.113,0.823,0.111,1.071
			c0.014,17.635-0.045,35.275,0.102,52.911c0.023,3.069-0.688,4.132-3.953,4.083c-12.678-0.19-25.363-0.077-38.949-0.077
			c8.82-12.161,17.201-23.717,25.582-35.272"/>
		<path fill-rule="evenodd" clip-rule="evenodd" fill="#F9BB06" d="M34.88,57.362c1.541,0.044,5.312,0.124,6.853,0.129
			c18.81,0.055,37.71,0.077,56.52,0.124c0.023,27.459-0.047,54.944-0.027,82.404c-0.068,0.174-0.111,0.352-0.129,0.535"/>
		<path fill-rule="evenodd" clip-rule="evenodd" fill="#4386F4" d="M88.042,154.541c-7.729,0-14.567,0.002-21.406,0
			c-6.068-0.002-12.143-0.167-18.202,0.059c-3.173,0.119-4.035-0.896-4.013-4.056c0.113-16.789-0.013-33.58-0.057-50.369
			c0.132-1.092-0.132-2.516,0-3.605"/>
		<path fill-rule="evenodd" clip-rule="evenodd" fill="#E94235" d="M97.988,139.997c-0.022-27.459-0.043-54.921-0.063-82.382
			c20.886-0.028,41.774-0.055,62.661-0.083"/>
	</g>
</g>
</svg>
