<?xml version="1.0" encoding="utf-8"?>
<!-- Generator: Adobe Illustrator 16.0.3, SVG Export Plug-In . SVG Version: 6.00 Build 0)  -->
<!DOCTYPE svg PUBLIC "-//W3C//DTD SVG 1.1//EN" "http://www.w3.org/Graphics/SVG/1.1/DTD/svg11.dtd">
<svg version="1.1" id="Capa_1" xmlns="http://www.w3.org/2000/svg" xmlns:xlink="http://www.w3.org/1999/xlink" x="0px" y="0px"
	 width="48px" height="48px" viewBox="0 0 48 48" enable-background="new 0 0 48 48" xml:space="preserve">
<linearGradient id="SVGID_1_" gradientUnits="userSpaceOnUse" x1="79.791" y1="52.2754" x2="112.6004" y2="85.0847" gradientTransform="matrix(-0.2958 0.9553 -0.9553 -0.2958 117.7174 -47.4664)">
	<stop  offset="0.475" style="stop-color:#F5F5F5"/>
	<stop  offset="1" style="stop-color:#D9D9D9"/>
</linearGradient>
<circle fill-rule="evenodd" clip-rule="evenodd" fill="url(#SVGID_1_)" cx="23.658" cy="24.112" r="23.2"/>
<linearGradient id="SVGID_2_" gradientUnits="userSpaceOnUse" x1="7.9434" y1="7.4766" x2="40.7534" y2="40.2866">
	<stop  offset="0.475" style="stop-color:#F5F5F5"/>
	<stop  offset="1" style="stop-color:#D9D9D9"/>
</linearGradient>
<circle fill-rule="evenodd" clip-rule="evenodd" fill="url(#SVGID_2_)" cx="24.348" cy="23.882" r="23.2"/>
<path fill-rule="evenodd" clip-rule="evenodd" fill="#35A854" d="M34.142,29.514"/>
<path fill-rule="evenodd" clip-rule="evenodd" fill="#35A854" d="M35.346,27.886"/>
<path fill-rule="evenodd" clip-rule="evenodd" fill="#E94235" d="M31.576,25.61"/>
<circle fill-rule="evenodd" clip-rule="evenodd" fill="none" stroke="#686868" stroke-width="0.25" stroke-miterlimit="10" cx="24.371" cy="23.948" r="21.54"/>
<g>
	<path fill-rule="evenodd" clip-rule="evenodd" fill="#E94235" d="M31.391,26.176"/>
	<g>
		<path fill-rule="evenodd" clip-rule="evenodd" fill="#96989A" d="M24.59,6.093c2.891-0.01,5.174,1.875,5.767,4.784
			c0.076,0.371,0.352,0.895-0.344,0.991c-0.523,0.074-1.037,0.129-1.145-0.666c-0.348-2.576-3.19-4.353-5.771-3.328
			c-1.442,0.573-2.413,1.613-2.671,3.171c-0.135,0.812-0.597,0.979-1.243,0.814c-0.711-0.18-0.349-0.73-0.254-1.129
			C19.597,7.881,21.78,6.102,24.59,6.093z"/>
		<path fill-rule="evenodd" clip-rule="evenodd" fill="#35A854" d="M37.899,24.135c0.031,0.049,0.028,0.205,0.028,0.268
			c0.004,4.423-0.012,8.848,0.025,13.27c0.006,0.771-0.173,1.038-0.991,1.025c-3.18-0.049-6.361-0.019-9.769-0.019
			c2.212-3.051,4.314-5.95,6.416-8.849"/>
		<path fill-rule="evenodd" clip-rule="evenodd" fill="#F9BB06" d="M8.699,14.3c0.387,0.011,1.333,0.032,1.719,0.032
			c4.718,0.014,9.458,0.02,14.176,0.031c0.006,6.888-0.012,13.781-0.007,20.67c-0.018,0.044-0.028,0.088-0.033,0.134"/>
		<path fill-rule="evenodd" clip-rule="evenodd" fill="#4386F4" d="M22.034,38.674c-1.939,0-3.655,0-5.37,0
			c-1.522,0-3.046-0.041-4.565,0.016c-0.796,0.03-1.011-0.226-1.007-1.017c0.028-4.212-0.003-8.423-0.014-12.634
			c0.033-0.273-0.033-0.632,0-0.904"/>
		<path fill-rule="evenodd" clip-rule="evenodd" fill="#E94235" d="M24.528,35.027c-0.006-6.889-0.011-13.775-0.017-20.664
			c5.239-0.007,10.477-0.013,15.716-0.02"/>
	</g>
</g>
</svg>
