<?xml version="1.0" encoding="utf-8"?>
<!-- Generator: Adobe Illustrator 16.0.3, SVG Export Plug-In . SVG Version: 6.00 Build 0)  -->
<!DOCTYPE svg PUBLIC "-//W3C//DTD SVG 1.1//EN" "http://www.w3.org/Graphics/SVG/1.1/DTD/svg11.dtd">
<svg version="1.1" id="Capa_1" xmlns="http://www.w3.org/2000/svg" xmlns:xlink="http://www.w3.org/1999/xlink" x="0px" y="0px"
	 width="72px" height="72px" viewBox="0 0 72 72" enable-background="new 0 0 72 72" xml:space="preserve">
<g>
	
		<linearGradient id="SVGID_1_" gradientUnits="userSpaceOnUse" x1="83.9766" y1="56.4131" x2="132.6709" y2="105.1075" gradientTransform="matrix(-0.2958 0.9553 -0.9553 -0.2958 144.7298 -43.3802)">
		<stop  offset="0.475" style="stop-color:#F5F5F5"/>
		<stop  offset="1" style="stop-color:#D9D9D9"/>
	</linearGradient>
	<circle fill-rule="evenodd" clip-rule="evenodd" fill="url(#SVGID_1_)" cx="35.543" cy="36.211" r="34.433"/>
	<linearGradient id="SVGID_2_" gradientUnits="userSpaceOnUse" x1="12.2207" y1="11.522" x2="60.9158" y2="60.217">
		<stop  offset="0.475" style="stop-color:#F5F5F5"/>
		<stop  offset="1" style="stop-color:#D9D9D9"/>
	</linearGradient>
	<circle fill-rule="evenodd" clip-rule="evenodd" fill="url(#SVGID_2_)" cx="36.568" cy="35.87" r="34.432"/>
	<path fill-rule="evenodd" clip-rule="evenodd" fill="#35A854" d="M51.104,44.229"/>
	<path fill-rule="evenodd" clip-rule="evenodd" fill="#35A854" d="M52.891,41.813"/>
	<path fill-rule="evenodd" clip-rule="evenodd" fill="#E94235" d="M47.295,38.435"/>
	
		<circle fill-rule="evenodd" clip-rule="evenodd" fill="none" stroke="#686868" stroke-width="0.75" stroke-miterlimit="10" cx="36.602" cy="35.969" r="31.97"/>
</g>
<g>
	<path fill-rule="evenodd" clip-rule="evenodd" fill="#E94235" d="M47.02,39.275"/>
	<g>
		<path fill-rule="evenodd" clip-rule="evenodd" fill="#96989A" d="M36.928,9.468c4.291-0.014,7.681,2.783,8.56,7.101
			c0.112,0.551,0.522,1.328-0.513,1.471c-0.774,0.108-1.538,0.19-1.697-0.988c-0.515-3.823-4.734-6.462-8.564-4.94
			c-2.141,0.851-3.582,2.395-3.966,4.707c-0.199,1.205-0.885,1.454-1.844,1.209c-1.057-0.268-0.518-1.084-0.378-1.676
			C29.516,12.123,32.756,9.482,36.928,9.468z"/>
		<path fill-rule="evenodd" clip-rule="evenodd" fill="#35A854" d="M56.681,36.245c0.045,0.074,0.042,0.306,0.042,0.398
			c0.005,6.564-0.017,13.132,0.038,19.697c0.009,1.143-0.257,1.539-1.473,1.521c-4.719-0.072-9.44-0.028-14.498-0.028
			c3.283-4.527,6.402-8.83,9.522-13.131"/>
		<path fill-rule="evenodd" clip-rule="evenodd" fill="#F9BB06" d="M13.341,21.649c0.574,0.016,1.978,0.047,2.551,0.048
			c7.002,0.021,14.038,0.03,21.039,0.046c0.01,10.222-0.016,20.454-0.01,30.676c-0.025,0.066-0.041,0.131-0.049,0.2"/>
		<path fill-rule="evenodd" clip-rule="evenodd" fill="#4386F4" d="M33.132,57.825c-2.877,0-5.423,0-7.968,0
			c-2.26-0.001-4.521-0.063-6.776,0.021c-1.182,0.045-1.501-0.334-1.494-1.509c0.042-6.251-0.004-12.501-0.021-18.751
			c0.049-0.405-0.049-0.937,0-1.342"/>
		<path fill-rule="evenodd" clip-rule="evenodd" fill="#E94235" d="M36.834,52.411c-0.008-10.222-0.016-20.445-0.023-30.668
			c7.774-0.01,15.55-0.02,23.325-0.03"/>
	</g>
</g>
</svg>
