<?xml version="1.0" encoding="utf-8"?>
<!-- Generator: Adobe Illustrator 16.0.3, SVG Export Plug-In . SVG Version: 6.00 Build 0)  -->
<!DOCTYPE svg PUBLIC "-//W3C//DTD SVG 1.1//EN" "http://www.w3.org/Graphics/SVG/1.1/DTD/svg11.dtd">
<svg version="1.1" id="Capa_1" xmlns="http://www.w3.org/2000/svg" xmlns:xlink="http://www.w3.org/1999/xlink" x="0px" y="0px"
	 width="96px" height="96px" viewBox="0 0 96 96" enable-background="new 0 0 96 96" xml:space="preserve">
<linearGradient id="SVGID_1_" gradientUnits="userSpaceOnUse" x1="88.0215" y1="60.0762" x2="153.114" y2="125.1687" gradientTransform="matrix(-0.2958 0.9553 -0.9553 -0.2958 171.7422 -39.2941)">
	<stop  offset="0.475" style="stop-color:#F5F5F5"/>
	<stop  offset="1" style="stop-color:#D9D9D9"/>
</linearGradient>
<circle fill-rule="evenodd" clip-rule="evenodd" fill="url(#SVGID_1_)" cx="47.603" cy="48.486" r="46.028"/>
<linearGradient id="SVGID_2_" gradientUnits="userSpaceOnUse" x1="16.4272" y1="15.4824" x2="81.5197" y2="80.5749">
	<stop  offset="0.475" style="stop-color:#F5F5F5"/>
	<stop  offset="1" style="stop-color:#D9D9D9"/>
</linearGradient>
<circle fill-rule="evenodd" clip-rule="evenodd" fill="url(#SVGID_2_)" cx="48.973" cy="48.029" r="46.027"/>
<path fill-rule="evenodd" clip-rule="evenodd" fill="#35A854" d="M68.403,59.202"/>
<path fill-rule="evenodd" clip-rule="evenodd" fill="#35A854" d="M70.792,55.974"/>
<path fill-rule="evenodd" clip-rule="evenodd" fill="#E94235" d="M63.312,51.457"/>
<circle fill-rule="evenodd" clip-rule="evenodd" fill="none" stroke="#686868" stroke-width="0.85" stroke-miterlimit="10" cx="49.018" cy="48.162" r="42.736"/>
<g>
	<path fill-rule="evenodd" clip-rule="evenodd" fill="#E94235" d="M62.944,52.582"/>
	<g>
		<path fill-rule="evenodd" clip-rule="evenodd" fill="#96989A" d="M49.454,12.737c5.736-0.019,10.267,3.72,11.441,9.492
			c0.149,0.738,0.698,1.775-0.685,1.967c-1.035,0.145-2.057,0.254-2.27-1.321c-0.688-5.11-6.328-8.638-11.448-6.604
			c-2.861,1.137-4.789,3.202-5.301,6.292c-0.267,1.61-1.183,1.944-2.465,1.616c-1.413-0.358-0.692-1.449-0.506-2.24
			C39.547,16.285,43.878,12.755,49.454,12.737z"/>
		<path fill-rule="evenodd" clip-rule="evenodd" fill="#35A854" d="M75.859,48.53c0.059,0.098,0.057,0.41,0.056,0.532
			c0.006,8.775-0.022,17.554,0.05,26.33c0.013,1.526-0.342,2.057-1.967,2.032c-6.309-0.096-12.621-0.039-19.382-0.039
			c4.39-6.051,8.56-11.803,12.73-17.552"/>
		<path fill-rule="evenodd" clip-rule="evenodd" fill="#F9BB06" d="M17.925,29.02c0.767,0.022,2.643,0.063,3.41,0.065
			c9.36,0.026,18.765,0.039,28.124,0.061c0.013,13.664-0.021,27.342-0.014,41.005c-0.033,0.088-0.055,0.176-0.063,0.268"/>
		<path fill-rule="evenodd" clip-rule="evenodd" fill="#4386F4" d="M44.379,77.378c-3.846,0-7.249,0-10.651,0
			c-3.021-0.002-6.043-0.084-9.058,0.028c-1.58,0.06-2.007-0.446-1.997-2.018c0.056-8.354-0.006-16.711-0.029-25.064
			c0.066-0.543-0.065-1.252,0-1.794"/>
		<path fill-rule="evenodd" clip-rule="evenodd" fill="#E94235" d="M49.328,70.141c-0.011-13.664-0.021-27.329-0.031-40.995
			c10.393-0.014,20.787-0.026,31.181-0.041"/>
	</g>
</g>
</svg>
