<?xml version="1.0" encoding="utf-8"?>
<!-- Generator: Adobe Illustrator 16.0.0, SVG Export Plug-In . SVG Version: 6.00 Build 0)  -->
<!DOCTYPE svg PUBLIC "-//W3C//DTD SVG 1.1//EN" "http://www.w3.org/Graphics/SVG/1.1/DTD/svg11.dtd">
<svg version="1.1" id="Layer_1" xmlns="http://www.w3.org/2000/svg" xmlns:xlink="http://www.w3.org/1999/xlink" x="0px" y="0px"
	 width="213.333px" height="120px" viewBox="0 0 213.333 120" enable-background="new 0 0 213.333 120" xml:space="preserve">
<path fill="#0091B6" d="M209.289,3.033l-83.677,46.45c2.717,3.807,4.32,8.462,4.32,13.496c0,12.849-10.417,23.266-23.266,23.266
	c-9.679,0-17.975-5.912-21.481-14.321L4.044,116.967C6.163,118.848,8.944,120,12,120h189.333c6.627,0,12-5.373,12-12V12
	C213.333,8.429,211.764,5.231,209.289,3.033z"/>
<linearGradient id="SVGID_1_" gradientUnits="userSpaceOnUse" x1="0" y1="58.4834" x2="209.2886" y2="58.4834">
	<stop  offset="0" style="stop-color:#00C1F2"/>
	<stop  offset="1" style="stop-color:#0091B6"/>
</linearGradient>
<path fill="url(#SVGID_1_)" d="M83.401,62.979c0-12.85,10.417-23.266,23.266-23.266c7.816,0,14.727,3.858,18.945,9.77l83.677-46.45
	C207.17,1.152,204.389,0,201.333,0H12C5.373,0,0,5.373,0,12v96c0,3.571,1.569,6.769,4.044,8.967l81.141-45.043
	C84.038,69.17,83.401,66.149,83.401,62.979z"/>
<linearGradient id="SVGID_2_" gradientUnits="userSpaceOnUse" x1="106.6665" y1="24.25" x2="106.6665" y2="0">
	<stop  offset="0" style="stop-color:#5319E7"/>
	<stop  offset="1" style="stop-color:#3E13AD"/>
</linearGradient>
<path fill="url(#SVGID_2_)" d="M201.333,0H12C5.373,0,0,5.373,0,12v12.25h213.333V12c0-3.056-1.152-5.837-3.033-7.956
	C208.102,1.569,204.904,0,201.333,0z"/>
<path fill="#5319E7" d="M12,120h189.333c6.627,0,12-5.373,12-12v-1.54H0V108c0,3.057,1.152,5.837,3.033,7.956
	C5.231,118.432,8.429,120,12,120z"/>
<g>
	<path fill="#FFFFFF" d="M211.333,12v96c0,5.514-4.486,10-10,10H12c-5.514,0-10-4.486-10-10V12C2,6.486,6.486,2,12,2h189.333
		C206.847,2,211.333,6.486,211.333,12z M4,108c0,4.411,3.589,8,8,8h189.333c4.411,0,8-3.589,8-8V12c0-4.411-3.589-8-8-8H12
		c-4.411,0-8,3.589-8,8V108z"/>
</g>
<path fill="#3E13AD" d="M106.667,36.84c-14.436,0-26.139,11.703-26.139,26.139c0,14.436,11.703,26.139,26.139,26.139
	s26.139-11.703,26.139-26.139C132.805,48.543,121.103,36.84,106.667,36.84z M106.667,86.245c-12.849,0-23.266-10.417-23.266-23.266
	c0-12.85,10.417-23.266,23.266-23.266s23.266,10.416,23.266,23.266C129.932,75.828,119.516,86.245,106.667,86.245z"/>
</svg>
