<?xml version="1.0" encoding="utf-8"?>
<!-- Generator: Adobe Illustrator 16.0.0, SVG Export Plug-In . SVG Version: 6.00 Build 0)  -->
<!DOCTYPE svg PUBLIC "-//W3C//DTD SVG 1.1//EN" "http://www.w3.org/Graphics/SVG/1.1/DTD/svg11.dtd">
<svg version="1.1" id="Layer_1" xmlns="http://www.w3.org/2000/svg" xmlns:xlink="http://www.w3.org/1999/xlink" x="0px" y="0px"
	 width="213.333px" height="120px" viewBox="0 0 213.333 120" enable-background="new 0 0 213.333 120" xml:space="preserve">
<linearGradient id="SVGID_1_" gradientUnits="userSpaceOnUse" x1="54.6665" y1="49.9775" x2="174.6662" y2="49.9775" gradientTransform="matrix(0 -1 1 0 54.6665 174.6665)">
	<stop  offset="0" style="stop-color:#00A585"/>
	<stop  offset="0.4165" style="stop-color:#008A6F"/>
	<stop  offset="0.7092" style="stop-color:#007C64"/>
</linearGradient>
<path fill="url(#SVGID_1_)" d="M105.371,60.179c0,12.849-10.416,23.265-23.265,23.265S58.84,73.028,58.84,60.179
	c0-8.656,4.73-16.202,11.744-20.209L4.044,3.033C1.569,5.231,0,8.429,0,12v96c0,6.627,5.373,12,12,12h189.333
	c3.056,0,5.837-1.152,7.956-3.033l-103.94-57.699C105.36,59.571,105.371,59.874,105.371,60.179z"/>
<path fill="#00A585" d="M201.333,0H12C8.944,0,6.163,1.152,4.044,3.033l66.54,36.937c3.397-1.941,7.328-3.057,11.522-3.057
	c12.543,0,22.763,9.928,23.242,22.354l103.94,57.699c2.476-2.198,4.044-5.396,4.044-8.967V12C213.333,5.373,207.96,0,201.333,0z"/>
<path fill="#FF6700" d="M82.106,27.446H0v64.728h82.106c17.874,0,32.364-14.489,32.364-32.364
	C114.47,41.936,99.98,27.446,82.106,27.446z M82.106,83.444c-12.849,0-23.266-10.416-23.266-23.265
	c0-12.85,10.417-23.266,23.266-23.266s23.265,10.416,23.265,23.266C105.371,73.028,94.955,83.444,82.106,83.444z"/>
<path fill="#BF4D00" d="M82.106,34.041c-14.436,0-26.139,11.703-26.139,26.139S67.67,86.317,82.106,86.317
	s26.139-11.702,26.139-26.138S96.542,34.041,82.106,34.041z M82.106,83.444c-12.849,0-23.266-10.416-23.266-23.265
	c0-12.85,10.417-23.266,23.266-23.266s23.265,10.416,23.265,23.266C105.371,73.028,94.955,83.444,82.106,83.444z"/>
<path fill="#FFFFFF" d="M82.106,86.818c-14.688,0-26.639-11.95-26.639-26.639S67.417,33.54,82.106,33.54s26.639,11.95,26.639,26.639
	S96.794,86.818,82.106,86.818z M82.106,34.54c-14.137,0-25.639,11.501-25.639,25.639c0,14.137,11.501,25.639,25.639,25.639
	s25.639-11.502,25.639-25.639C107.745,46.042,96.243,34.54,82.106,34.54z"/>
<g>
	<path fill="#FFFFFF" d="M211.333,12v96c0,5.515-4.486,10-10,10H12c-5.514,0-10-4.485-10-10V12C2,6.486,6.486,2,12,2h189.333
		C206.847,2,211.333,6.486,211.333,12z M4,108c0,4.411,3.589,8,8,8h189.333c4.411,0,8-3.589,8-8V12c0-4.411-3.589-8-8-8H12
		c-4.411,0-8,3.589-8,8V108z"/>
</g>
</svg>
