<?xml version="1.0" encoding="utf-8"?>
<!-- Generator: Adobe Illustrator 16.0.0, SVG Export Plug-In . SVG Version: 6.00 Build 0)  -->
<!DOCTYPE svg PUBLIC "-//W3C//DTD SVG 1.1//EN" "http://www.w3.org/Graphics/SVG/1.1/DTD/svg11.dtd">
<svg version="1.1" xmlns="http://www.w3.org/2000/svg" xmlns:xlink="http://www.w3.org/1999/xlink" x="0px" y="0px" width="700px"
	 height="700px" viewBox="0 0 700 700" enable-background="new 0 0 700 700" xml:space="preserve">
<g id="Capa_5">
	<rect y="0" fill-rule="evenodd" clip-rule="evenodd" fill="none" width="700" height="700"/>
</g>
<g id="Capa_1">
	<path fill="#E44B00" d="M100,668.119v-82.867h30.555c11.283,0,20.359,3.979,27.197,11.998c6.838,7.957,10.257,17.841,10.257,29.591
		c0,11.749-3.543,21.571-10.568,29.467c-7.025,7.895-17.127,11.812-30.244,11.812H100L100,668.119z M115.355,655.934h12.464
		c6.683,0,12.34-2.549,17.002-7.522c4.663-5.035,6.963-12.495,6.963-22.441c0-8.082-2.021-14.92-6.092-20.516
		c-4.072-5.595-9.449-8.454-16.101-8.454h-14.236V655.934L115.355,655.934z"/>
	<polygon fill="#E44B00" points="312.017,655.25 312.017,668.119 250.784,668.119 250.784,656.369 293.212,597.063 253.768,597.063 
		253.768,585.251 310.836,585.251 310.836,597.063 268.874,655.25 312.017,655.25 	"/>
	<path fill="#E44B00" d="M181.873,668.119v-82.867h32.264c5.471,0,10.009,0.56,13.615,1.678c3.605,1.182,6.745,3.544,9.356,7.149
		c2.611,3.605,3.947,7.833,3.947,12.682c0,4.538-1.336,8.517-4.01,11.937c-2.673,3.356-6.341,5.532-11.065,6.465
		c5.844,0.994,10.257,3.356,13.241,7.087c3.015,3.729,4.507,8.144,4.507,13.241c0,6.403-2.083,11.749-6.279,16.101
		s-10.662,6.528-19.333,6.528H181.873L181.873,668.119z M195.984,620.064h18.215c3.73,0,6.683-1.119,8.858-3.357
		c2.176-2.237,3.233-5.097,3.233-8.517c0-3.792-1.244-6.589-3.699-8.392c-2.456-1.804-5.346-2.735-8.672-2.735h-17.935V620.064
		L195.984,620.064z M195.984,655.685h19.333c4.072,0,7.305-1.057,9.667-3.232c2.362-2.114,3.543-5.036,3.543-8.703
		c0-3.481-1.181-6.279-3.605-8.517c-2.394-2.238-5.595-3.357-9.542-3.357h-19.396V655.685L195.984,655.685z"/>
	<polygon points="349.938,668.119 339.495,668.119 339.495,594.265 315.747,594.265 315.747,585.189 373.717,585.189 
		373.717,594.265 349.938,594.265 349.938,668.119 	"/>
	<polygon points="438.866,659.042 438.866,668.119 385.279,668.119 385.279,585.189 437.747,585.189 437.747,594.265 
		395.724,594.265 395.724,620.624 429.044,620.624 429.044,629.078 395.724,629.078 395.724,659.042 438.866,659.042 	"/>
	<path d="M509.301,668.119H498.67l-8.268-24.245h-30.959l-7.46,24.245h-8.641l26.918-82.93h11.997L509.301,668.119L509.301,668.119z
		 M488.227,636.041l-12.993-39.786l-12.868,39.786H488.227L488.227,636.041z"/>
	<polygon points="600,668.119 589.93,668.119 589.93,595.695 563.012,668.119 555.987,668.119 528.883,595.695 528.883,668.119 
		520.055,668.119 520.055,585.189 535.597,585.189 560.4,651.396 584.832,585.189 600,585.189 600,668.119 	"/>
</g>
<g id="Capa_4">
	<radialGradient id="SVGID_1_" cx="350" cy="129.1309" r="397.3965" gradientUnits="userSpaceOnUse">
		<stop  offset="0" style="stop-color:#FF6600"/>
		<stop  offset="0.2582" style="stop-color:#F96000"/>
		<stop  offset="0.596" style="stop-color:#E95000"/>
		<stop  offset="0.9766" style="stop-color:#CE3500"/>
		<stop  offset="1" style="stop-color:#CC3300"/>
	</radialGradient>
	<path fill-rule="evenodd" clip-rule="evenodd" fill="url(#SVGID_1_)" d="M350,31.881c136.858,0,247.824,110.967,247.824,247.824
		c0,136.89-110.966,247.793-247.824,247.793c-136.889,0-247.824-110.903-247.824-247.793C102.176,142.848,213.111,31.881,350,31.881
		L350,31.881z"/>
</g>
<g id="Capa_3">
	<path fill-rule="evenodd" clip-rule="evenodd" fill="#FFFFFF" d="M350,59.421c121.627,0,220.285,98.626,220.285,220.284
		c0,121.659-98.657,220.316-220.285,220.316c-121.659,0-220.285-98.657-220.285-220.316C129.716,158.047,228.342,59.421,350,59.421
		L350,59.421z"/>
</g>
<g id="Capa_2">
	<g>
		<path fill-rule="evenodd" clip-rule="evenodd" d="M235.771,228.917c0.031-2.859-35.745-12.434-36.989-6.559
			c-2.921,73.107-26.669,107.392-40.874,128.776c-1.896,7.397,12.061,30.648,20.018,34.254c5.968,5.159,25.519-14.827,32.544-30.15
			C229.243,310.478,236.113,276.224,235.771,228.917L235.771,228.917z"/>
		<path fill-rule="evenodd" clip-rule="evenodd" d="M497.24,145.863c-1.927-13.614-13.987-31.394-30.274-33.694
			c-22.256-3.543-72.858,22.038-105.496,27.446c-9.014,1.213-20.608-0.621-30.274-5.595c-13.521-5.066-11.408,15.324-4.538,22.753
			c10.382,9.263,20.763,17.344,35.062,16.94c12.309-0.715,32.762-7.273,31.891-1.803c-2.362,36.056-21.043,29.87-54.395,31.486
			c-2.456-0.217-3.575-0.776-4.974-1.43c-6.683-3.108-15.417,0.622-7.522,8.672c8.393,8.02,15.883,15.169,24.245,23.188
			c4.289,3.17,14.174,3.481,27.478-0.56c4.414-2.27-0.591,23.996-4.259,34.16c-18.836,5.905-39.599,8.175-54.892-5.999
			c-12.744-10.661-12.775-18.215-30.617-16.318c-0.528-29.809,0.901-63.627,4.383-96.513c1.088-11.314-3.046-26.109-15.635-28.13
			c-31.549-5.284-42.428-2.674-52.841,15.013c-0.559,0.746,0.249,1.306,0.591,1.616c16.723,15.821,20.763,33.414,20.515,46.469
			c0.498,88.991-5.564,147.396-8.361,221.094c1.026,18.463,12.806,33.631,32.606,39.91c8.734,0.684,10.693-7.584,12.869-21.323
			c1.709-40.532,1.274-80.38,5.875-121.658c1.492-2.425,4.6,0.342,5.533,2.549c11.843,51.598,37.983,35.808,40.719,51.007
			c3.605,26.079-1.368,43.672-0.901,68.289c5.471,14.733,24.586,25.302,31.705,24.059c8.112-1.928,14.205-10.009,31.301-11.688
			c47.991-1.865,66.02-8.144,92.502-4.538c0.249,0,0.312-0.373,0.373-0.56c6.839-28.721,11.937-57.41,20.64-86.131
			c3.916-13.147-7.584-32.947-26.918-37.89c-21.012-5.035-90.576,10.879-136.579,15.386c-3.077,0.28-9.231-11.097-6.651-16.008
			c1.025-1.709,2.362-1.274,3.667-1.367c59.741,8.299,100.522-26.98,186.622-3.14c8.517,3.513,13.055-4.569,11.189-9.449
			c-6.651-17.127-34.377-23.561-48.862-36.429c-5.968-6.497,16.039-34.099,9.822-58.996c-2.549-7.148-8.766-17.438-21.261-18.027
			c-16.909-0.716-39.724,6.714-49.546,5.813c-0.436,0-0.373-0.373-0.373-0.529c-0.746-15.883-2.673-32.45,25.115-34.066
			c23.747-1.212,25.053,3.916,35.869,5.16C497.8,156.058,497.8,149.624,497.24,145.863L497.24,145.863z M458.884,218.721
			c4.041-11.594-34.191-3.792-36.367,8.361c-1.74,13.77-6.465,28.13-3.543,30.15c2.859,0.497,15.168-1.119,22.939-2.083
			C453.725,253.13,454.47,238.987,458.884,218.721L458.884,218.721z M463.174,342.742c1.118-5.314-21.261-3.108-43.827,1.431
			c-22.256,4.476-44.387,4.817-44.511,13.147c-0.28,14.547,1.088,29.001,2.176,42.988c0.497,8.454,37.485-0.249,74.412-5.223
			c0.622-0.062,1.803-0.933,2.301-2.362C458.014,378.363,460.563,359.993,463.174,342.742L463.174,342.742z"/>
	</g>
</g>
</svg>
