<?xml version="1.0" encoding="utf-8"?>
<!-- Generator: Adobe Illustrator 17.0.0, SVG Export Plug-In . SVG Version: 6.00 Build 0)  -->
<!DOCTYPE svg PUBLIC "-//W3C//DTD SVG 1.1//EN" "http://www.w3.org/Graphics/SVG/1.1/DTD/svg11.dtd">
<svg version="1.1" id="Layer_1" xmlns="http://www.w3.org/2000/svg" xmlns:xlink="http://www.w3.org/1999/xlink" x="0px" y="0px"
	 width="512px" height="512px" viewBox="0 0 512 512" enable-background="new 0 0 512 512" xml:space="preserve">
<g>
	<g>
		<g>
			
				<linearGradient id="SVGID_1_" gradientUnits="userSpaceOnUse" x1="5777.2588" y1="1129.5824" x2="5777.2588" y2="771.7433" gradientTransform="matrix(-1 0 0 -1 6097.4927 1225.3965)">
				<stop  offset="0" style="stop-color:#12B09F"/>
				<stop  offset="0.4694" style="stop-color:#128AA6"/>
				<stop  offset="0.6684" style="stop-color:#1371A7"/>
				<stop  offset="1" style="stop-color:#1371A7"/>
			</linearGradient>
			<path fill="url(#SVGID_1_)" stroke="#FFFFFF" stroke-width="10.8677" stroke-miterlimit="10" d="M141.499,274.734
				c-0.033,25.449,1.255,50.904,3.833,76.003c6.694,65.17,33.276,91.875,98.698,98.921c49.277,5.307,100.064,5.365,149.32-0.051
				c66.275-7.288,92.493-37.072,100.957-103.48c3.028-23.76,4.654-47.579,4.663-71.393h0c0.033-25.449-1.255-50.904-3.833-76.003
				c-6.694-65.17-33.276-91.875-98.699-98.921c-49.277-5.307-100.064-5.365-149.32,0.051
				c-66.274,7.288-92.493,37.072-100.957,103.48C143.133,227.101,141.507,250.92,141.499,274.734L141.499,274.734z"/>
			<g>
				
					<linearGradient id="SVGID_2_" gradientUnits="userSpaceOnUse" x1="3235.0405" y1="584.3304" x2="3282.3401" y2="631.6298" gradientTransform="matrix(1 0 0 1 -3052.5532 -445.6933)">
					<stop  offset="0" style="stop-color:#12B09F"/>
					<stop  offset="0.2918" style="stop-color:#12A4A1;stop-opacity:0.7082"/>
					<stop  offset="1" style="stop-color:#128AA6;stop-opacity:0"/>
				</linearGradient>
				<path fill="url(#SVGID_2_)" d="M245.924,113.318c-29.913,3.29-50.018,11.29-63.27,25.176
					c-13.018,13.642-20.935,34.534-24.913,65.748c-2.504,19.646-3.967,39.145-4.398,58.139l152.89-152.89
					C285.923,109.872,265.691,111.144,245.924,113.318z"/>
				
					<linearGradient id="SVGID_3_" gradientUnits="userSpaceOnUse" x1="3606.304" y1="631.6298" x2="3559.0044" y2="584.3304" gradientTransform="matrix(-1 0 0 1 4016.9854 -445.6933)">
					<stop  offset="0" style="stop-color:#128AA6;stop-opacity:0"/>
					<stop  offset="0.7082" style="stop-color:#12A4A1;stop-opacity:0.7082"/>
					<stop  offset="1" style="stop-color:#12B09F"/>
				</linearGradient>
				<path fill="url(#SVGID_3_)" d="M394.544,113.318c29.913,3.29,50.018,11.29,63.27,25.176
					c13.018,13.642,20.935,34.534,24.913,65.748c2.504,19.646,3.967,39.145,4.398,58.139l-152.89-152.89
					C354.545,109.872,374.778,111.144,394.544,113.318z"/>
			</g>
			
				<linearGradient id="SVGID_4_" gradientUnits="userSpaceOnUse" x1="5779.0972" y1="1129.5824" x2="5779.0972" y2="771.7433" gradientTransform="matrix(-1 0 0 -1 6097.4927 1225.3965)">
				<stop  offset="0.9031" style="stop-color:#128AA6;stop-opacity:0"/>
				<stop  offset="0.9277" style="stop-color:#1298A3;stop-opacity:0.2545"/>
				<stop  offset="0.9697" style="stop-color:#12AAA0;stop-opacity:0.687"/>
				<stop  offset="1" style="stop-color:#12B09F"/>
			</linearGradient>
			<path fill="url(#SVGID_4_)" d="M244.03,449.657c49.277,5.307,100.064,5.365,149.32-0.051
				c41.69-4.585,67.517-18.086,83.057-43.991H160.384C175.273,432.109,201.398,445.066,244.03,449.657z"/>
		</g>
		<g>
			<g>
				<path fill="#FFFFFF" d="M267.443,98.095v68.601c0,29.107,23.684,52.792,52.792,52.792c29.107,0,52.791-23.685,52.791-52.792
					V97.575C337.97,95.081,302.419,95.22,267.443,98.095z M354.313,166.631c0,18.789-15.289,34.071-34.079,34.071
					c-18.789,0-34.071-15.282-34.071-34.071s15.282-34.071,34.071-34.071C339.024,132.56,354.313,147.842,354.313,166.631z"/>
			</g>
		</g>
	</g>
	<g>
		<polygon fill="#FFFFFF" stroke="#FFFFFF" stroke-width="19.2831" stroke-miterlimit="10" points="254.232,267.333 
			133.849,350.597 133.849,496.677 254.232,496.677 		"/>
		<polygon fill="#FFFFFF" stroke="#FFFFFF" stroke-width="19.2831" stroke-miterlimit="10" points="374.615,267.333 
			254.232,350.597 254.232,496.677 374.615,496.677 		"/>
		<polygon fill="#FFFFFF" stroke="#FFFFFF" stroke-width="19.2831" stroke-miterlimit="10" points="494.998,267.333 
			374.615,350.597 374.615,496.677 494.998,496.677 		"/>
	</g>
	<g>
		
			<linearGradient id="SVGID_5_" gradientUnits="userSpaceOnUse" x1="6608.5122" y1="640.1457" x2="6608.5122" y2="230.2274" gradientTransform="matrix(-1 0 0 1 6832.6484 0)">
			<stop  offset="0.1378" style="stop-color:#019F88"/>
			<stop  offset="0.212" style="stop-color:#06A084"/>
			<stop  offset="0.3032" style="stop-color:#15A47A"/>
			<stop  offset="0.4032" style="stop-color:#2EA969"/>
			<stop  offset="0.5095" style="stop-color:#51B151"/>
			<stop  offset="0.6198" style="stop-color:#7DBB33"/>
			<stop  offset="0.6531" style="stop-color:#8CBE29"/>
		</linearGradient>
		<polygon fill="url(#SVGID_5_)" points="254.232,267.333 194.04,308.965 194.04,496.677 254.232,496.677 254.232,350.596 		"/>
		
			<linearGradient id="SVGID_6_" gradientUnits="userSpaceOnUse" x1="6668.7036" y1="640.1457" x2="6668.7036" y2="230.2274" gradientTransform="matrix(-1 0 0 1 6832.6484 0)">
			<stop  offset="0" style="stop-color:#12B09F"/>
			<stop  offset="0.4694" style="stop-color:#128AA6"/>
			<stop  offset="0.6684" style="stop-color:#1371A7"/>
			<stop  offset="1" style="stop-color:#1371A7"/>
		</linearGradient>
		<polygon fill="url(#SVGID_6_)" points="133.849,350.596 133.849,496.677 194.04,496.677 194.04,308.965 		"/>
		
			<linearGradient id="SVGID_7_" gradientUnits="userSpaceOnUse" x1="6548.3208" y1="640.1457" x2="6548.3208" y2="230.2274" gradientTransform="matrix(-1 0 0 1 6832.6484 0)">
			<stop  offset="0" style="stop-color:#12B09F"/>
			<stop  offset="0.4694" style="stop-color:#128AA6"/>
			<stop  offset="0.6684" style="stop-color:#1371A7"/>
			<stop  offset="1" style="stop-color:#1371A7"/>
		</linearGradient>
		<polygon fill="url(#SVGID_7_)" points="254.232,350.596 254.232,496.677 314.423,496.677 314.423,308.965 		"/>
		
			<linearGradient id="SVGID_8_" gradientUnits="userSpaceOnUse" x1="6488.1294" y1="640.1457" x2="6488.1294" y2="230.2274" gradientTransform="matrix(-1 0 0 1 6832.6484 0)">
			<stop  offset="0.1378" style="stop-color:#019F88"/>
			<stop  offset="0.212" style="stop-color:#06A084"/>
			<stop  offset="0.3032" style="stop-color:#15A47A"/>
			<stop  offset="0.4032" style="stop-color:#2EA969"/>
			<stop  offset="0.5095" style="stop-color:#51B151"/>
			<stop  offset="0.6198" style="stop-color:#7DBB33"/>
			<stop  offset="0.6531" style="stop-color:#8CBE29"/>
		</linearGradient>
		<polygon fill="url(#SVGID_8_)" points="374.615,267.333 314.423,308.965 314.423,496.677 374.615,496.677 374.615,350.596 		"/>
		
			<linearGradient id="SVGID_9_" gradientUnits="userSpaceOnUse" x1="6427.938" y1="640.1457" x2="6427.938" y2="230.2274" gradientTransform="matrix(-1 0 0 1 6832.6484 0)">
			<stop  offset="0" style="stop-color:#12B09F"/>
			<stop  offset="0.4694" style="stop-color:#128AA6"/>
			<stop  offset="0.6684" style="stop-color:#1371A7"/>
			<stop  offset="1" style="stop-color:#1371A7"/>
		</linearGradient>
		<polygon fill="url(#SVGID_9_)" points="374.615,350.596 374.615,496.677 434.806,496.677 434.806,308.965 		"/>
		
			<linearGradient id="SVGID_10_" gradientUnits="userSpaceOnUse" x1="6367.7466" y1="640.1457" x2="6367.7466" y2="230.2274" gradientTransform="matrix(-1 0 0 1 6832.6484 0)">
			<stop  offset="0.1378" style="stop-color:#019F88"/>
			<stop  offset="0.212" style="stop-color:#06A084"/>
			<stop  offset="0.3032" style="stop-color:#15A47A"/>
			<stop  offset="0.4032" style="stop-color:#2EA969"/>
			<stop  offset="0.5095" style="stop-color:#51B151"/>
			<stop  offset="0.6198" style="stop-color:#7DBB33"/>
			<stop  offset="0.6531" style="stop-color:#8CBE29"/>
		</linearGradient>
		<polygon fill="url(#SVGID_10_)" points="494.998,267.333 434.806,308.965 434.806,496.677 494.998,496.677 		"/>
	</g>
	<g>
		<g>
			<polygon fill="#FFFFFF" points="7.83,501.498 45.018,10.502 87.71,10.502 87.892,501.498 			"/>
			<path fill="#FFFFFF" d="M82.891,15.323l0.178,481.353H13.03L49.487,15.323H82.891 M92.529,5.682h-9.638H49.487h-8.939
				l-0.675,8.913L3.416,495.949l-0.785,10.37H13.03h70.039h9.645l-0.003-9.645L92.533,15.32L92.529,5.682L92.529,5.682z"/>
		</g>
		<g>
			<polygon fill="#FFFFFF" points="78.246,501.498 78.45,10.502 121.179,10.502 158.33,501.498 			"/>
			<path fill="#FFFFFF" d="M116.709,15.323l36.421,481.353H83.069l0.2-481.353H116.709 M125.649,5.682h-8.94H83.269h-9.638
				l-0.004,9.638l-0.2,481.353l-0.004,9.646h9.646h70.061h10.399l-0.785-10.369L126.324,14.596L125.649,5.682L125.649,5.682z"/>
		</g>
	</g>
	<polygon fill="#BCBEC0" points="83.471,496.677 83.656,15.323 52.393,15.323 18.654,496.677 	"/>
	<polygon fill="#B0B1B1" points="83.471,496.677 83.656,15.323 114.604,15.323 148.309,496.677 	"/>
</g>
</svg>
