<?xml version="1.0" encoding="utf-8"?>
<!-- Generator: Adobe Illustrator 16.0.0, SVG Export Plug-In . SVG Version: 6.00 Build 0)  -->
<!DOCTYPE svg PUBLIC "-//W3C//DTD SVG 1.1//EN" "http://www.w3.org/Graphics/SVG/1.1/DTD/svg11.dtd">
<svg version="1.1" id="Capa_1" xmlns="http://www.w3.org/2000/svg" xmlns:xlink="http://www.w3.org/1999/xlink" x="0px" y="0px"
	 width="800px" height="800px" viewBox="0 0 800 800" enable-background="new 0 0 800 800" xml:space="preserve">
<g>
	<path fill="#39CCFF" d="M626.126,167.453c62.918,62.92,94.369,138.428,94.369,226.504c0,88.091-31.451,163.601-94.369,226.123
		c-62.92,62.534-138.428,93.999-226.51,93.999c-88.089,0-163.595-31.465-226.123-93.999
		c-62.524-62.521-93.987-138.031-93.987-226.123c0-88.077,31.463-163.584,93.987-226.504
		c62.527-62.924,138.033-94.382,226.123-94.382C487.698,73.071,563.206,104.529,626.126,167.453z M263.943,257.507
		c-37.359,37.754-56.236,82.973-56.236,135.675c0,53.092,18.877,98.304,56.236,135.668c37.356,37.368,82.585,56.24,135.673,56.24
		c52.686,0,97.917-18.872,135.671-56.24c37.748-37.364,56.628-82.576,56.628-135.668c0-52.702-18.88-97.921-56.628-135.675
		c-37.754-37.752-82.985-56.626-135.671-56.626C346.528,200.88,301.299,219.754,263.943,257.507z"/>
	<path d="M282.649,305.595l39.164,100.208l39.16-100.208l39.159,100.208l39.026-100.208h45.884l-84.91,216.506l-39.556-105.35
		l-38.763,105.35l-84.918-216.506H282.649z"/>
	<path d="M494.212,362.306c8.737,0,16.929,1.642,24.649,4.994c7.724,3.354,14.51,7.877,20.36,13.575l-17.941,17.942
		c-7.565-7.49-16.54-11.232-26.913-11.232c-10.532,0-19.503,3.742-26.917,11.232c-7.408,7.487-11.152,16.458-11.152,26.913
		c0,10.532,3.744,19.5,11.152,26.915c7.414,7.412,16.385,11.154,26.917,11.154c10.529,0,19.504-3.742,26.99-11.234l17.942,17.941
		c-5.851,5.773-12.64,10.3-20.36,13.654c-7.725,3.353-15.916,4.993-24.653,4.993c-17.471,0-32.449-6.241-44.854-18.647
		c-12.403-12.406-18.643-27.382-18.643-44.854c0-17.475,6.239-32.452,18.643-44.933c12.405-12.484,27.384-18.728,44.854-18.728
		L494.212,362.306z"/>
</g>
</svg>
