<?xml version="1.0" encoding="utf-8"?>
<!-- Generator: Adobe Illustrator 17.0.0, SVG Export Plug-In . SVG Version: 6.00 Build 0)  -->
<!DOCTYPE svg PUBLIC "-//W3C//DTD SVG 1.1//EN" "http://www.w3.org/Graphics/SVG/1.1/DTD/svg11.dtd">
<svg version="1.1" id="Layer_1" xmlns="http://www.w3.org/2000/svg" xmlns:xlink="http://www.w3.org/1999/xlink" x="0px" y="0px"
	 width="792px" height="154.483px" viewBox="0 0 792 154.483" enable-background="new 0 0 792 154.483" xml:space="preserve">
<g>
	<g>
		<rect x="28.973" y="27.16" fill="#006C9F" width="734.054" height="100.163"/>
		<rect x="197.552" y="27.16" fill="#0086B8" width="198.448" height="100.163"/>
	</g>
	<g>
		<g>
			<path fill="#FFFFFF" d="M220.167,55.745h-1.932v6.001h-1.696v-6.001h-1.896V54.44h5.524V55.745z"/>
			<path fill="#FFFFFF" d="M226.946,61.747h-1.691v-2.94h-2.705v2.94h-1.696V54.44h1.696v3.061h2.705V54.44h1.691V61.747z"/>
			<path fill="#FFFFFF" d="M232.381,58.621h-2.574v1.821h3.086v1.305h-4.782V54.44h4.787v1.305h-3.091v1.571h2.574V58.621z"/>
			<path fill="#FFFFFF" d="M240.776,58.806h-2.674v2.94h-1.696V54.44h4.882v1.305h-3.186v1.756h2.674V58.806z"/>
			<path fill="#FFFFFF" d="M246.411,58.621h-2.574v1.821h3.086v1.305h-4.782V54.44h4.787v1.305h-3.091v1.571h2.574V58.621z"/>
			<path fill="#FFFFFF" d="M249.572,58.947v2.8h-1.696V54.44h2.544c0.847,0,1.517,0.196,2.012,0.587
				c0.495,0.392,0.743,0.927,0.743,1.606c0,0.378-0.1,0.703-0.298,0.974c-0.199,0.271-0.493,0.492-0.881,0.662
				c0.448,0.127,0.771,0.339,0.966,0.635c0.195,0.296,0.293,0.665,0.293,1.106v0.462c0,0.19,0.028,0.408,0.085,0.652
				c0.057,0.244,0.156,0.418,0.296,0.521v0.101h-1.751c-0.134-0.104-0.221-0.286-0.261-0.547c-0.04-0.261-0.06-0.507-0.06-0.738
				v-0.441c0-0.348-0.092-0.614-0.276-0.798s-0.453-0.276-0.808-0.276H249.572z M249.572,57.642h0.858
				c0.341,0,0.602-0.078,0.783-0.233c0.181-0.156,0.271-0.379,0.271-0.67c0-0.298-0.093-0.538-0.278-0.72
				c-0.186-0.182-0.448-0.273-0.786-0.273h-0.848V57.642z"/>
			<path fill="#FFFFFF" d="M258.289,59.554h0.03l1.651-5.113h2.243v7.306h-1.696V57.04l-0.03-0.005l-1.611,4.712h-1.139
				l-1.581-4.642l-0.03,0.005v4.637h-1.696V54.44h2.223L258.289,59.554z"/>
			<path fill="#FFFFFF" d="M267.291,60.327h-2.173l-0.421,1.42h-1.787l2.384-7.306h0.908v0.005l0.005-0.005h0.908l2.389,7.306
				h-1.786L267.291,60.327z M265.509,59.022h1.39l-0.682-2.268h-0.03L265.509,59.022z"/>
			<path fill="#FFFFFF" d="M274.662,55.745h-1.932v6.001h-1.696v-6.001h-1.896V54.44h5.524V55.745z"/>
			<path fill="#FFFFFF" d="M281.677,59.81c0-0.261-0.085-0.461-0.256-0.6c-0.171-0.139-0.48-0.287-0.928-0.444
				c-0.907-0.294-1.58-0.608-2.02-0.941s-0.66-0.812-0.66-1.438c0-0.612,0.256-1.107,0.768-1.485
				c0.512-0.378,1.163-0.567,1.952-0.567c0.833,0,1.503,0.195,2.012,0.584c0.508,0.39,0.754,0.939,0.738,1.648l-0.01,0.03h-1.646
				c0-0.345-0.094-0.595-0.281-0.75c-0.188-0.156-0.47-0.233-0.848-0.233c-0.308,0-0.55,0.075-0.728,0.226
				c-0.177,0.151-0.266,0.336-0.266,0.557c0,0.214,0.091,0.386,0.273,0.514c0.183,0.129,0.523,0.291,1.021,0.484
				c0.846,0.251,1.487,0.557,1.922,0.918c0.435,0.361,0.652,0.856,0.652,1.485c0,0.642-0.25,1.145-0.752,1.508
				c-0.502,0.363-1.167,0.544-1.997,0.544c-0.826,0-1.526-0.195-2.1-0.584s-0.852-1.003-0.835-1.839l0.01-0.03h1.651
				c0,0.425,0.104,0.727,0.313,0.906c0.209,0.179,0.529,0.269,0.961,0.269c0.354,0,0.619-0.07,0.793-0.21
				C281.59,60.221,281.677,60.037,281.677,59.81z"/>
			<path fill="#FFFFFF" d="M286.976,57.632h0.03l1.455-3.191h1.836l-2.479,4.737v2.569h-1.691v-2.645l-2.438-4.662h1.836
				L286.976,57.632z"/>
			<path fill="#FFFFFF" d="M294.543,59.81c0-0.261-0.085-0.461-0.256-0.6c-0.171-0.139-0.48-0.287-0.928-0.444
				c-0.907-0.294-1.58-0.608-2.02-0.941s-0.66-0.812-0.66-1.438c0-0.612,0.256-1.107,0.768-1.485
				c0.512-0.378,1.163-0.567,1.952-0.567c0.833,0,1.503,0.195,2.012,0.584c0.508,0.39,0.754,0.939,0.738,1.648l-0.01,0.03h-1.646
				c0-0.345-0.094-0.595-0.281-0.75c-0.188-0.156-0.47-0.233-0.848-0.233c-0.308,0-0.55,0.075-0.728,0.226
				c-0.177,0.151-0.266,0.336-0.266,0.557c0,0.214,0.091,0.386,0.273,0.514c0.183,0.129,0.523,0.291,1.021,0.484
				c0.846,0.251,1.487,0.557,1.922,0.918c0.435,0.361,0.652,0.856,0.652,1.485c0,0.642-0.25,1.145-0.752,1.508
				c-0.502,0.363-1.167,0.544-1.997,0.544c-0.826,0-1.526-0.195-2.1-0.584s-0.852-1.003-0.835-1.839l0.01-0.03h1.651
				c0,0.425,0.104,0.727,0.313,0.906c0.209,0.179,0.529,0.269,0.961,0.269c0.354,0,0.619-0.07,0.793-0.21
				C294.456,60.221,294.543,60.037,294.543,59.81z"/>
			<path fill="#FFFFFF" d="M302.246,55.745h-1.932v6.001h-1.696v-6.001h-1.896V54.44h5.524V55.745z"/>
			<path fill="#FFFFFF" d="M307.204,58.621h-2.574v1.821h3.086v1.305h-4.782V54.44h4.787v1.305h-3.091v1.571h2.574V58.621z"/>
			<path fill="#FFFFFF" d="M312.527,59.554h0.03l1.651-5.113h2.243v7.306h-1.696V57.04l-0.03-0.005l-1.611,4.712h-1.139
				l-1.581-4.642l-0.03,0.005v4.637h-1.696V54.44h2.223L312.527,59.554z"/>
			<path fill="#FFFFFF" d="M321.971,61.747h-1.691V54.44h1.691V61.747z"/>
			<path fill="#FFFFFF" d="M327.009,59.81c0-0.261-0.085-0.461-0.256-0.6c-0.171-0.139-0.48-0.287-0.928-0.444
				c-0.907-0.294-1.58-0.608-2.02-0.941s-0.66-0.812-0.66-1.438c0-0.612,0.256-1.107,0.768-1.485
				c0.512-0.378,1.163-0.567,1.952-0.567c0.833,0,1.503,0.195,2.012,0.584c0.508,0.39,0.754,0.939,0.738,1.648l-0.01,0.03h-1.646
				c0-0.345-0.094-0.595-0.281-0.75c-0.188-0.156-0.47-0.233-0.848-0.233c-0.308,0-0.55,0.075-0.728,0.226
				c-0.177,0.151-0.266,0.336-0.266,0.557c0,0.214,0.091,0.386,0.273,0.514c0.183,0.129,0.523,0.291,1.021,0.484
				c0.846,0.251,1.487,0.557,1.922,0.918c0.435,0.361,0.652,0.856,0.652,1.485c0,0.642-0.25,1.145-0.752,1.508
				c-0.502,0.363-1.167,0.544-1.997,0.544c-0.826,0-1.526-0.195-2.1-0.584s-0.852-1.003-0.835-1.839l0.01-0.03h1.651
				c0,0.425,0.104,0.727,0.313,0.906c0.209,0.179,0.529,0.269,0.961,0.269c0.354,0,0.619-0.07,0.793-0.21
				C326.922,60.221,327.009,60.037,327.009,59.81z"/>
			<path fill="#FFFFFF" d="M336.011,60.327h-2.173l-0.421,1.42h-1.787l2.384-7.306h0.908v0.005l0.005-0.005h0.908l2.389,7.306
				h-1.786L336.011,60.327z M334.23,59.022h1.39l-0.682-2.268h-0.03L334.23,59.022z"/>
			<path fill="#FFFFFF" d="M216.78,71.575v2.504h-1.696v-7.306h2.79c0.866,0,1.554,0.221,2.063,0.663
				c0.508,0.441,0.763,1.022,0.763,1.741s-0.254,1.299-0.763,1.739c-0.509,0.439-1.196,0.66-2.063,0.66H216.78z M216.78,70.27h1.094
				c0.368,0,0.649-0.101,0.843-0.304c0.194-0.202,0.292-0.462,0.292-0.78c0-0.324-0.097-0.59-0.289-0.798
				c-0.192-0.208-0.475-0.311-0.846-0.311h-1.094V70.27z"/>
			<path fill="#FFFFFF" d="M226.64,74.079h-5.078v-1.104l2.248-2.469c0.301-0.341,0.522-0.646,0.662-0.913
				c0.141-0.268,0.211-0.5,0.211-0.698c0-0.284-0.063-0.509-0.19-0.675c-0.127-0.166-0.332-0.249-0.612-0.249
				c-0.264,0-0.469,0.108-0.615,0.324s-0.218,0.491-0.218,0.826h-1.661l-0.01-0.03c-0.017-0.676,0.206-1.249,0.667-1.719
				c0.461-0.47,1.074-0.705,1.836-0.705c0.799,0,1.417,0.197,1.852,0.59c0.435,0.393,0.652,0.934,0.652,1.623
				c0,0.462-0.121,0.871-0.361,1.227s-0.683,0.882-1.325,1.578l-0.888,1.064l0.01,0.025h2.82V74.079z"/>
			<path fill="#FFFFFF" d="M229.285,71.575v2.504h-1.696v-7.306h2.79c0.866,0,1.554,0.221,2.063,0.663
				c0.508,0.441,0.763,1.022,0.763,1.741s-0.254,1.299-0.763,1.739c-0.509,0.439-1.196,0.66-2.063,0.66H229.285z M229.285,70.27
				h1.094c0.368,0,0.649-0.101,0.843-0.304c0.194-0.202,0.292-0.462,0.292-0.78c0-0.324-0.097-0.59-0.289-0.798
				c-0.192-0.208-0.475-0.311-0.846-0.311h-1.094V70.27z"/>
			<path fill="#FFFFFF" d="M242.793,74.079h-1.691l-2.675-4.597l-0.03,0.01v4.586h-1.696v-7.306h1.696l2.674,4.591l0.03-0.01v-4.582
				h1.691V74.079z"/>
			<path fill="#FFFFFF" d="M248.228,70.953h-2.574v1.821h3.086v1.305h-4.782v-7.306h4.787v1.305h-3.091v1.571h2.574V70.953z"/>
			<path fill="#FFFFFF" d="M254.776,68.077h-1.932v6.001h-1.696v-6.001h-1.896v-1.305h5.524V68.077z"/>
			<path fill="#FFFFFF" d="M261.415,71.509h0.03l0.883-4.737h1.716l-1.676,7.306h-1.596l-1.229-4.511h-0.03l-1.219,4.511h-1.596
				l-1.681-7.306h1.721l0.883,4.742l0.03,0.005l1.239-4.747h1.28L261.415,71.509z"/>
			<path fill="#FFFFFF" d="M270.768,71.083c0,0.9-0.285,1.642-0.855,2.226c-0.57,0.583-1.315,0.875-2.236,0.875
				c-0.926,0-1.677-0.292-2.253-0.875c-0.575-0.584-0.863-1.326-0.863-2.226v-1.315c0-0.896,0.287-1.637,0.86-2.223
				s1.322-0.878,2.246-0.878c0.917,0,1.663,0.293,2.238,0.878c0.576,0.585,0.863,1.326,0.863,2.223V71.083z M269.077,69.758
				c0-0.522-0.123-0.95-0.369-1.285c-0.246-0.334-0.593-0.502-1.041-0.502c-0.458,0-0.809,0.167-1.051,0.5s-0.364,0.762-0.364,1.287
				v1.325c0,0.528,0.123,0.96,0.369,1.294c0.246,0.334,0.598,0.502,1.056,0.502c0.445,0,0.79-0.167,1.034-0.502
				c0.244-0.334,0.366-0.766,0.366-1.294V69.758z"/>
			<path fill="#FFFFFF" d="M273.498,71.279v2.8h-1.696v-7.306h2.544c0.847,0,1.517,0.196,2.012,0.587
				c0.495,0.392,0.743,0.927,0.743,1.606c0,0.378-0.1,0.703-0.298,0.974c-0.199,0.271-0.493,0.492-0.881,0.662
				c0.448,0.127,0.771,0.339,0.966,0.635c0.195,0.296,0.293,0.665,0.293,1.106v0.462c0,0.19,0.028,0.408,0.085,0.652
				c0.057,0.244,0.156,0.418,0.296,0.521v0.101h-1.751c-0.134-0.104-0.221-0.286-0.261-0.547c-0.04-0.261-0.06-0.507-0.06-0.738
				v-0.441c0-0.348-0.092-0.614-0.276-0.798s-0.453-0.276-0.808-0.276H273.498z M273.498,69.974h0.858
				c0.341,0,0.602-0.078,0.783-0.233c0.181-0.156,0.271-0.379,0.271-0.67c0-0.298-0.093-0.538-0.278-0.72
				c-0.186-0.182-0.448-0.273-0.786-0.273h-0.848V69.974z"/>
			<path fill="#FFFFFF" d="M280.523,71.148h-0.472v2.931h-1.696v-7.306h1.696v2.86h0.351l1.651-2.86h2.133l-2.298,3.322l2.494,3.984
				h-2.178L280.523,71.148z"/>
			<path fill="#FFFFFF" d="M286.67,74.119l-0.818,1.596h-1.169l0.351-1.641v-1.32h1.636V74.119z"/>
			<path fill="#FFFFFF" d="M294.603,72.042h-3.206l-0.738,2.037h-0.622l2.685-7.306h0.567l2.665,7.306h-0.623L294.603,72.042z
				 M291.587,71.504h2.82l-1.385-3.874h-0.03L291.587,71.504z"/>
			<path fill="#FFFFFF" d="M304.614,71.795l0.01,0.03c0.013,0.716-0.221,1.288-0.703,1.716c-0.482,0.428-1.114,0.643-1.897,0.643
				c-0.813,0-1.468-0.293-1.967-0.881c-0.499-0.587-0.748-1.347-0.748-2.281v-1.189c0-0.93,0.249-1.69,0.748-2.281
				s1.154-0.886,1.967-0.886c0.793,0,1.428,0.209,1.904,0.627c0.477,0.418,0.708,0.994,0.695,1.726l-0.01,0.03h-0.562
				c0-0.589-0.18-1.048-0.54-1.377c-0.359-0.33-0.855-0.495-1.488-0.495c-0.639,0-1.151,0.248-1.538,0.743
				c-0.386,0.495-0.58,1.129-0.58,1.902v1.199c0,0.783,0.193,1.421,0.58,1.915c0.387,0.494,0.899,0.74,1.538,0.74
				c0.632,0,1.128-0.161,1.488-0.482c0.36-0.321,0.54-0.788,0.54-1.4H304.614z"/>
			<path fill="#FFFFFF" d="M311.529,71.023c0,0.943-0.258,1.707-0.775,2.289c-0.517,0.582-1.21,0.873-2.08,0.873
				c-0.856,0-1.54-0.291-2.05-0.873c-0.51-0.582-0.766-1.345-0.766-2.289v-1.189c0-0.94,0.254-1.703,0.763-2.288
				c0.509-0.585,1.191-0.878,2.047-0.878c0.87,0,1.564,0.293,2.083,0.878s0.778,1.348,0.778,2.288V71.023z M310.932,69.823
				c0-0.79-0.2-1.425-0.6-1.907c-0.4-0.481-0.954-0.723-1.664-0.723c-0.696,0-1.238,0.241-1.625,0.723
				c-0.388,0.482-0.582,1.117-0.582,1.907v1.199c0,0.796,0.195,1.436,0.584,1.917c0.39,0.482,0.932,0.723,1.628,0.723
				c0.712,0,1.267-0.24,1.663-0.72c0.396-0.48,0.595-1.12,0.595-1.919V69.823z"/>
			<path fill="#FFFFFF" d="M316.597,73.206h0.03l2.72-6.433h0.732v7.306h-0.602v-6.137l-0.03-0.005l-2.619,6.142h-0.432l-2.68-6.292
				l-0.03,0.005v6.288h-0.603v-7.306h0.803L316.597,73.206z"/>
			<path fill="#FFFFFF" d="M322.548,71.043v3.036h-0.603v-7.306h2.519c0.766,0,1.359,0.196,1.779,0.587
				c0.419,0.392,0.629,0.907,0.629,1.546c0,0.649-0.21,1.167-0.629,1.555c-0.42,0.388-1.013,0.583-1.779,0.583H322.548z
				 M322.548,70.531h1.917c0.603,0,1.054-0.153,1.355-0.459c0.301-0.306,0.452-0.691,0.452-1.157c0-0.468-0.15-0.857-0.452-1.167
				c-0.301-0.31-0.752-0.464-1.355-0.464h-1.917V70.531z"/>
			<path fill="#FFFFFF" d="M333.643,71.023c0,0.943-0.258,1.707-0.775,2.289c-0.517,0.582-1.21,0.873-2.08,0.873
				c-0.856,0-1.54-0.291-2.05-0.873c-0.51-0.582-0.766-1.345-0.766-2.289v-1.189c0-0.94,0.254-1.703,0.763-2.288
				c0.509-0.585,1.191-0.878,2.047-0.878c0.87,0,1.564,0.293,2.083,0.878s0.778,1.348,0.778,2.288V71.023z M333.046,69.823
				c0-0.79-0.2-1.425-0.6-1.907c-0.4-0.481-0.954-0.723-1.664-0.723c-0.696,0-1.238,0.241-1.625,0.723
				c-0.388,0.482-0.582,1.117-0.582,1.907v1.199c0,0.796,0.195,1.436,0.584,1.917c0.39,0.482,0.932,0.723,1.628,0.723
				c0.712,0,1.267-0.24,1.663-0.72c0.396-0.48,0.595-1.12,0.595-1.919V69.823z"/>
			<path fill="#FFFFFF" d="M340.583,74.079h-0.602l-4.15-6.252l-0.03,0.005v6.248h-0.603v-7.306h0.603l4.15,6.237l0.03-0.005v-6.232
				h0.602V74.079z"/>
			<path fill="#FFFFFF" d="M346.328,70.541h-3.276v3.031h3.789v0.507h-4.391v-7.306h4.366v0.512h-3.763v2.745h3.276V70.541z"/>
			<path fill="#FFFFFF" d="M353.499,74.079h-0.602l-4.15-6.252l-0.03,0.005v6.248h-0.603v-7.306h0.603l4.15,6.237l0.03-0.005v-6.232
				h0.602V74.079z"/>
			<path fill="#FFFFFF" d="M360.188,67.284h-2.489v6.794h-0.597v-6.794h-2.574v-0.512h5.66V67.284z"/>
			<path fill="#FFFFFF" d="M219.395,82.989h-3.357v3.422h-0.603v-7.306h4.471v0.512h-3.869v2.854h3.357V82.989z"/>
			<path fill="#FFFFFF" d="M221.683,83.109v3.302h-0.602V79.11h2.434c0.783,0,1.383,0.171,1.801,0.514
				c0.418,0.344,0.627,0.844,0.627,1.503c0,0.389-0.111,0.735-0.334,1.042c-0.222,0.306-0.538,0.529-0.946,0.669
				c0.452,0.114,0.777,0.317,0.976,0.61s0.299,0.659,0.299,1.102v0.688c0,0.228,0.026,0.432,0.08,0.612
				c0.053,0.18,0.142,0.327,0.266,0.441v0.12h-0.612c-0.124-0.12-0.211-0.289-0.261-0.507c-0.05-0.218-0.075-0.443-0.075-0.678
				v-0.667c0-0.448-0.145-0.802-0.434-1.062c-0.289-0.259-0.693-0.389-1.211-0.389H221.683z M221.683,82.597h1.761
				c0.659,0,1.141-0.133,1.445-0.399c0.304-0.266,0.457-0.624,0.457-1.076c0-0.481-0.151-0.852-0.454-1.111
				c-0.303-0.259-0.762-0.389-1.377-0.389h-1.832V82.597z"/>
			<path fill="#FFFFFF" d="M231.623,84.374h-3.206l-0.738,2.037h-0.622l2.685-7.306h0.567l2.665,7.306h-0.623L231.623,84.374z
				 M228.608,83.836h2.82l-1.385-3.874h-0.03L228.608,83.836z"/>
			<path fill="#FFFFFF" d="M237.614,85.538h0.03l2.72-6.433h0.732v7.306h-0.602v-6.137l-0.03-0.005l-2.619,6.142h-0.432l-2.68-6.293
				l-0.03,0.006v6.287h-0.603v-7.306h0.803L237.614,85.538z"/>
			<path fill="#FFFFFF" d="M246.842,82.873h-3.276v3.031h3.789v0.507h-4.391v-7.306h4.366v0.512h-3.763v2.744h3.276V82.873z"/>
			<path fill="#FFFFFF" d="M249.904,84.313l0.226,1.18h0.03l0.256-1.18l1.525-5.208h0.607l1.53,5.208l0.246,1.185h0.03l0.241-1.185
				l1.29-5.208h0.652l-1.872,7.306h-0.572l-1.651-5.605l-0.181-0.787h-0.03l-0.17,0.787l-1.671,5.605h-0.572l-1.872-7.306h0.652
				L249.904,84.313z"/>
			<path fill="#FFFFFF" d="M263.086,83.355c0,0.943-0.258,1.706-0.775,2.288c-0.517,0.582-1.21,0.873-2.08,0.873
				c-0.856,0-1.54-0.291-2.05-0.873c-0.51-0.582-0.766-1.345-0.766-2.288v-1.189c0-0.94,0.254-1.703,0.763-2.288
				c0.509-0.586,1.191-0.878,2.047-0.878c0.87,0,1.564,0.292,2.083,0.878c0.519,0.585,0.778,1.348,0.778,2.288V83.355z
				 M262.488,82.156c0-0.79-0.2-1.426-0.6-1.907s-0.954-0.723-1.664-0.723c-0.696,0-1.238,0.241-1.625,0.723
				c-0.388,0.481-0.582,1.117-0.582,1.907v1.199c0,0.796,0.195,1.435,0.584,1.917c0.39,0.481,0.932,0.723,1.628,0.723
				c0.712,0,1.267-0.24,1.663-0.721c0.396-0.479,0.595-1.12,0.595-1.919V82.156z"/>
			<path fill="#FFFFFF" d="M265.229,83.109v3.302h-0.602V79.11h2.434c0.783,0,1.383,0.171,1.801,0.514
				c0.418,0.344,0.627,0.844,0.627,1.503c0,0.389-0.111,0.735-0.334,1.042c-0.222,0.306-0.538,0.529-0.946,0.669
				c0.452,0.114,0.777,0.317,0.976,0.61s0.299,0.659,0.299,1.102v0.688c0,0.228,0.026,0.432,0.08,0.612
				c0.053,0.18,0.142,0.327,0.266,0.441v0.12h-0.612c-0.124-0.12-0.211-0.289-0.261-0.507c-0.05-0.218-0.075-0.443-0.075-0.678
				v-0.667c0-0.448-0.145-0.802-0.434-1.062c-0.289-0.259-0.693-0.389-1.211-0.389H265.229z M265.229,82.597h1.761
				c0.659,0,1.141-0.133,1.445-0.399c0.304-0.266,0.457-0.624,0.457-1.076c0-0.481-0.151-0.852-0.454-1.111
				c-0.303-0.259-0.762-0.389-1.377-0.389h-1.832V82.597z"/>
			<path fill="#FFFFFF" d="M272.735,82.943h-0.788v3.468h-0.603v-7.306h0.603v3.331h0.783l2.87-3.331h0.683l0.01,0.024l-3.031,3.513
				l3.332,3.743l-0.01,0.025h-0.722L272.735,82.943z"/>
			<path fill="#FFFFFF" d="M283.995,84.374h-3.206l-0.738,2.037h-0.622l2.685-7.306h0.567l2.665,7.306h-0.623L283.995,84.374z
				 M280.98,83.836h2.82l-1.385-3.874h-0.03L280.98,83.836z"/>
			<path fill="#FFFFFF" d="M291.858,86.411h-0.602l-4.15-6.252l-0.03,0.005v6.247h-0.603v-7.306h0.603l4.15,6.237l0.03-0.006v-6.231
				h0.602V86.411z"/>
			<path fill="#FFFFFF" d="M293.725,86.411v-7.306h2.228c0.894,0,1.632,0.297,2.216,0.893c0.583,0.596,0.875,1.36,0.875,2.293v0.938
				c0,0.934-0.292,1.697-0.875,2.291c-0.584,0.594-1.322,0.891-2.216,0.891H293.725z M294.328,79.617v6.287h1.625
				c0.723,0,1.318-0.253,1.787-0.758s0.703-1.144,0.703-1.917v-0.953c0-0.763-0.235-1.396-0.705-1.901
				c-0.47-0.506-1.065-0.758-1.784-0.758H294.328z"/>
			<path fill="#FFFFFF" d="M306.962,84.374h-3.206l-0.738,2.037h-0.622l2.685-7.306h0.567l2.665,7.306h-0.623L306.962,84.374z
				 M303.947,83.836h2.82l-1.385-3.874h-0.03L303.947,83.836z"/>
			<path fill="#FFFFFF" d="M314.825,86.411h-0.602l-4.15-6.252l-0.03,0.005v6.247h-0.603v-7.306h0.603l4.15,6.237l0.03-0.006v-6.231
				h0.602V86.411z"/>
			<path fill="#FFFFFF" d="M323.07,82.873h-3.276v3.031h3.789v0.507h-4.391v-7.306h4.366v0.512h-3.763v2.744h3.276V82.873z"/>
			<path fill="#FFFFFF" d="M329.89,84.128l0.01,0.03c0.013,0.716-0.221,1.288-0.703,1.716c-0.482,0.429-1.114,0.643-1.897,0.643
				c-0.813,0-1.468-0.294-1.967-0.881s-0.748-1.348-0.748-2.28v-1.189c0-0.93,0.249-1.69,0.748-2.28
				C325.832,79.295,326.487,79,327.3,79c0.793,0,1.428,0.209,1.904,0.627c0.477,0.418,0.708,0.993,0.695,1.727l-0.01,0.029h-0.562
				c0-0.589-0.18-1.048-0.54-1.377c-0.359-0.33-0.855-0.494-1.488-0.494c-0.639,0-1.151,0.247-1.538,0.742
				c-0.386,0.495-0.58,1.129-0.58,1.902v1.199c0,0.782,0.193,1.421,0.58,1.914c0.387,0.493,0.899,0.74,1.538,0.74
				c0.632,0,1.128-0.16,1.488-0.481c0.36-0.321,0.54-0.788,0.54-1.4H329.89z"/>
			<path fill="#FFFFFF" d="M336.804,83.355c0,0.943-0.258,1.706-0.775,2.288c-0.517,0.582-1.21,0.873-2.08,0.873
				c-0.856,0-1.54-0.291-2.05-0.873c-0.51-0.582-0.766-1.345-0.766-2.288v-1.189c0-0.94,0.254-1.703,0.763-2.288
				c0.509-0.586,1.191-0.878,2.047-0.878c0.87,0,1.564,0.292,2.083,0.878c0.519,0.585,0.778,1.348,0.778,2.288V83.355z
				 M336.207,82.156c0-0.79-0.2-1.426-0.6-1.907s-0.954-0.723-1.664-0.723c-0.696,0-1.238,0.241-1.625,0.723
				c-0.388,0.481-0.582,1.117-0.582,1.907v1.199c0,0.796,0.195,1.435,0.584,1.917c0.39,0.481,0.932,0.723,1.628,0.723
				c0.712,0,1.267-0.24,1.663-0.721c0.396-0.479,0.595-1.12,0.595-1.919V82.156z"/>
			<path fill="#FFFFFF" d="M342.48,84.634c0-0.375-0.149-0.684-0.447-0.929c-0.298-0.244-0.803-0.473-1.516-0.688
				c-0.779-0.214-1.372-0.48-1.779-0.8c-0.406-0.319-0.609-0.754-0.609-1.303c0-0.559,0.228-1.018,0.682-1.377
				c0.455-0.359,1.036-0.539,1.741-0.539c0.743,0,1.34,0.203,1.792,0.609s0.671,0.923,0.657,1.548l-0.01,0.03h-0.562
				c0-0.481-0.175-0.882-0.524-1.199c-0.35-0.318-0.8-0.477-1.353-0.477c-0.568,0-1.014,0.135-1.337,0.403
				c-0.323,0.27-0.484,0.6-0.484,0.991c0,0.371,0.146,0.677,0.439,0.916c0.293,0.239,0.809,0.463,1.548,0.67
				c0.769,0.224,1.356,0.5,1.761,0.828s0.607,0.763,0.607,1.305c0,0.568-0.237,1.026-0.71,1.372c-0.474,0.347-1.07,0.52-1.789,0.52
				s-1.346-0.184-1.881-0.55c-0.536-0.366-0.795-0.9-0.778-1.603l0.01-0.03h0.557c0,0.565,0.212,0.985,0.637,1.262
				s0.91,0.414,1.455,0.414c0.559,0,1.014-0.128,1.365-0.384C342.304,85.37,342.48,85.04,342.48,84.634z"/>
			<path fill="#FFFFFF" d="M346.765,83.164l2.263-4.059h0.697l-2.665,4.636v2.67h-0.597v-2.694l-2.644-4.611h0.697L346.765,83.164z"
				/>
			<path fill="#FFFFFF" d="M354.904,84.634c0-0.375-0.149-0.684-0.447-0.929c-0.298-0.244-0.803-0.473-1.516-0.688
				c-0.779-0.214-1.372-0.48-1.779-0.8c-0.406-0.319-0.609-0.754-0.609-1.303c0-0.559,0.228-1.018,0.682-1.377
				c0.455-0.359,1.036-0.539,1.741-0.539c0.743,0,1.34,0.203,1.792,0.609s0.671,0.923,0.657,1.548l-0.01,0.03h-0.562
				c0-0.481-0.175-0.882-0.524-1.199c-0.35-0.318-0.8-0.477-1.353-0.477c-0.568,0-1.014,0.135-1.337,0.403
				c-0.323,0.27-0.484,0.6-0.484,0.991c0,0.371,0.146,0.677,0.439,0.916c0.293,0.239,0.809,0.463,1.548,0.67
				c0.769,0.224,1.356,0.5,1.761,0.828s0.607,0.763,0.607,1.305c0,0.568-0.237,1.026-0.71,1.372c-0.474,0.347-1.07,0.52-1.789,0.52
				s-1.346-0.184-1.881-0.55c-0.536-0.366-0.795-0.9-0.778-1.603l0.01-0.03h0.557c0,0.565,0.212,0.985,0.637,1.262
				s0.91,0.414,1.455,0.414c0.559,0,1.014-0.128,1.365-0.384C354.728,85.37,354.904,85.04,354.904,84.634z"/>
			<path fill="#FFFFFF" d="M361.954,79.617h-2.489v6.794h-0.597v-6.794h-2.574v-0.512h5.66V79.617z"/>
			<path fill="#FFFFFF" d="M367.007,82.873h-3.276v3.031h3.789v0.507h-4.391v-7.306h4.366v0.512h-3.763v2.744h3.276V82.873z"/>
			<path fill="#FFFFFF" d="M372.306,85.538h0.03l2.72-6.433h0.732v7.306h-0.602v-6.137l-0.03-0.005l-2.619,6.142h-0.432l-2.68-6.293
				l-0.03,0.006v6.287h-0.603v-7.306h0.803L372.306,85.538z"/>
			<path fill="#FFFFFF" d="M220.795,95.687c0,0.943-0.258,1.706-0.775,2.288c-0.517,0.582-1.21,0.873-2.08,0.873
				c-0.856,0-1.54-0.291-2.05-0.873c-0.51-0.582-0.766-1.345-0.766-2.288v-1.189c0-0.94,0.254-1.703,0.763-2.288
				c0.509-0.586,1.191-0.878,2.047-0.878c0.87,0,1.564,0.292,2.083,0.878c0.519,0.585,0.778,1.348,0.778,2.288V95.687z
				 M220.197,94.488c0-0.79-0.2-1.426-0.6-1.907s-0.954-0.723-1.664-0.723c-0.696,0-1.238,0.241-1.625,0.723
				c-0.388,0.481-0.582,1.117-0.582,1.907v1.199c0,0.796,0.195,1.435,0.584,1.917c0.39,0.481,0.932,0.723,1.628,0.723
				c0.712,0,1.267-0.24,1.663-0.721c0.396-0.479,0.595-1.12,0.595-1.919V94.488z"/>
			<path fill="#FFFFFF" d="M226.309,95.321h-3.357v3.422h-0.603v-7.306h4.471v0.512h-3.869v2.854h3.357V95.321z"/>
			<path fill="#FFFFFF" d="M231.784,96.645l0.226,1.18h0.03l0.256-1.18l1.525-5.208h0.607l1.53,5.208l0.246,1.185h0.03l0.241-1.185
				l1.29-5.208h0.652l-1.872,7.306h-0.572l-1.651-5.605l-0.181-0.787h-0.03l-0.17,0.787l-1.671,5.605h-0.572l-1.872-7.306h0.652
				L231.784,96.645z"/>
			<path fill="#FFFFFF" d="M244.961,98.743h-0.602V95.38h-4.15v3.362h-0.603v-7.306h0.603v3.432h4.15v-3.432h0.602V98.743z"/>
			<path fill="#FFFFFF" d="M247.585,98.743h-0.602v-7.306h0.602V98.743z"/>
			<path fill="#FFFFFF" d="M254.43,91.949h-2.489v6.794h-0.597v-6.794h-2.574v-0.512h5.66V91.949z"/>
			<path fill="#FFFFFF" d="M259.483,95.205h-3.276v3.031h3.789v0.507h-4.391v-7.306h4.366v0.512h-3.763v2.744h3.276V95.205z"/>
			<path fill="#FFFFFF" d="M264.371,98.236h3.773v0.507h-4.376v-7.306h0.603V98.236z"/>
			<path fill="#FFFFFF" d="M273.347,96.706h-3.206l-0.738,2.037h-0.622l2.685-7.306h0.567l2.665,7.306h-0.623L273.347,96.706z
				 M270.332,96.169h2.82l-1.385-3.874h-0.03L270.332,96.169z"/>
			<path fill="#FFFFFF" d="M275.826,98.743v-7.306h2.133c0.759,0,1.352,0.159,1.776,0.479s0.637,0.801,0.637,1.443
				c0,0.364-0.103,0.684-0.309,0.958c-0.206,0.274-0.482,0.469-0.831,0.582c0.462,0.057,0.839,0.258,1.132,0.603
				c0.292,0.344,0.439,0.747,0.439,1.209c0,0.652-0.211,1.154-0.635,1.505c-0.423,0.352-0.989,0.527-1.699,0.527H275.826z
				 M276.429,94.713h1.756c0.505-0.01,0.896-0.132,1.171-0.364s0.414-0.569,0.414-1.011c0-0.462-0.154-0.809-0.461-1.041
				c-0.308-0.232-0.758-0.349-1.35-0.349h-1.53V94.713z M276.429,95.22v3.016h2.042c0.539,0,0.962-0.133,1.27-0.398
				c0.308-0.267,0.462-0.639,0.462-1.117c0-0.438-0.151-0.793-0.454-1.066c-0.303-0.272-0.708-0.417-1.217-0.434h-0.081H276.429z"/>
			<path fill="#FFFFFF" d="M286.043,95.205h-3.276v3.031h3.789v0.507h-4.391v-7.306h4.366v0.512h-3.763v2.744h3.276V95.205z"/>
			<path fill="#FFFFFF" d="M288.431,98.236h3.773v0.507h-4.376v-7.306h0.603V98.236z"/>
			<path fill="#FFFFFF" d="M296.59,95.707v3.036h-0.603v-7.306h2.519c0.766,0,1.359,0.195,1.779,0.587
				c0.419,0.392,0.629,0.906,0.629,1.545c0,0.649-0.21,1.168-0.629,1.556c-0.42,0.389-1.013,0.582-1.779,0.582H296.59z
				 M296.59,95.195h1.917c0.603,0,1.054-0.153,1.355-0.459c0.301-0.306,0.452-0.691,0.452-1.156c0-0.469-0.15-0.857-0.452-1.167
				c-0.301-0.31-0.752-0.464-1.355-0.464h-1.917V95.195z"/>
			<path fill="#FFFFFF" d="M306.607,98.743h-4.446v-0.462l2.404-2.805c0.428-0.505,0.724-0.919,0.888-1.242
				c0.164-0.322,0.246-0.642,0.246-0.956c0-0.444-0.12-0.795-0.358-1.051c-0.239-0.256-0.593-0.384-1.062-0.384
				c-0.522,0-0.923,0.154-1.204,0.464c-0.281,0.31-0.422,0.705-0.422,1.187h-0.562l-0.01-0.03c-0.017-0.595,0.176-1.1,0.577-1.513
				s0.941-0.619,1.621-0.619c0.625,0,1.119,0.175,1.48,0.526s0.542,0.826,0.542,1.425c0,0.396-0.119,0.79-0.356,1.185
				c-0.238,0.395-0.587,0.873-1.049,1.436l-1.977,2.308l0.01,0.025h3.678V98.743z"/>
			<path fill="#FFFFFF" d="M308.624,95.707v3.036h-0.603v-7.306h2.519c0.766,0,1.359,0.195,1.779,0.587
				c0.419,0.392,0.629,0.906,0.629,1.545c0,0.649-0.21,1.168-0.629,1.556c-0.42,0.389-1.013,0.582-1.779,0.582H308.624z
				 M308.624,95.195h1.917c0.603,0,1.054-0.153,1.355-0.459c0.301-0.306,0.452-0.691,0.452-1.156c0-0.469-0.15-0.857-0.452-1.167
				c-0.301-0.31-0.752-0.464-1.355-0.464h-1.917V95.195z"/>
			<path fill="#FFFFFF" d="M320.681,96.706h-3.206l-0.738,2.037h-0.622l2.685-7.306h0.567l2.665,7.306h-0.623L320.681,96.706z
				 M317.666,96.169h2.82l-1.385-3.874h-0.03L317.666,96.169z"/>
			<path fill="#FFFFFF" d="M323.763,95.707v3.036h-0.603v-7.306h2.519c0.766,0,1.359,0.195,1.779,0.587
				c0.419,0.392,0.629,0.906,0.629,1.545c0,0.649-0.21,1.168-0.629,1.556c-0.42,0.389-1.013,0.582-1.779,0.582H323.763z
				 M323.763,95.195h1.917c0.603,0,1.054-0.153,1.355-0.459c0.301-0.306,0.452-0.691,0.452-1.156c0-0.469-0.15-0.857-0.452-1.167
				c-0.301-0.31-0.752-0.464-1.355-0.464h-1.917V95.195z"/>
			<path fill="#FFFFFF" d="M330.101,95.707v3.036h-0.603v-7.306h2.519c0.766,0,1.359,0.195,1.779,0.587
				c0.419,0.392,0.629,0.906,0.629,1.545c0,0.649-0.21,1.168-0.629,1.556c-0.42,0.389-1.013,0.582-1.779,0.582H330.101z
				 M330.101,95.195h1.917c0.603,0,1.054-0.153,1.355-0.459c0.301-0.306,0.452-0.691,0.452-1.156c0-0.469-0.15-0.857-0.452-1.167
				c-0.301-0.31-0.752-0.464-1.355-0.464h-1.917V95.195z"/>
			<path fill="#FFFFFF" d="M339.956,96.966c0-0.375-0.149-0.684-0.447-0.929c-0.298-0.244-0.803-0.473-1.516-0.688
				c-0.779-0.214-1.372-0.48-1.779-0.8c-0.406-0.319-0.609-0.754-0.609-1.303c0-0.559,0.228-1.018,0.682-1.377
				c0.455-0.359,1.036-0.539,1.741-0.539c0.743,0,1.34,0.203,1.792,0.609s0.671,0.923,0.657,1.548l-0.01,0.03h-0.562
				c0-0.481-0.175-0.882-0.524-1.199c-0.35-0.318-0.8-0.477-1.353-0.477c-0.568,0-1.014,0.135-1.337,0.403
				c-0.323,0.27-0.484,0.6-0.484,0.991c0,0.371,0.146,0.677,0.439,0.916c0.293,0.239,0.809,0.463,1.548,0.67
				c0.769,0.224,1.356,0.5,1.761,0.828s0.607,0.763,0.607,1.305c0,0.568-0.237,1.026-0.71,1.372c-0.474,0.347-1.07,0.52-1.789,0.52
				s-1.346-0.184-1.881-0.55c-0.536-0.366-0.795-0.9-0.778-1.603l0.01-0.03h0.557c0,0.565,0.212,0.985,0.637,1.262
				s0.91,0.414,1.455,0.414c0.559,0,1.014-0.128,1.365-0.384C339.78,97.702,339.956,97.372,339.956,96.966z"/>
		</g>
	</g>
	<g>
		<g>
			<path fill="#FFFFFF" d="M418.279,59.463l0.01,0.03c0.013,0.716-0.221,1.288-0.703,1.716c-0.481,0.428-1.113,0.643-1.896,0.643
				c-0.813,0-1.469-0.293-1.967-0.881c-0.499-0.587-0.748-1.347-0.748-2.281v-1.189c0-0.93,0.249-1.69,0.748-2.281
				c0.498-0.59,1.154-0.886,1.967-0.886c0.793,0,1.428,0.209,1.904,0.627c0.477,0.418,0.708,0.994,0.695,1.726l-0.01,0.03h-0.563
				c0-0.589-0.18-1.048-0.539-1.377c-0.36-0.33-0.855-0.495-1.488-0.495c-0.639,0-1.151,0.248-1.538,0.743
				c-0.386,0.495-0.579,1.129-0.579,1.902v1.199c0,0.783,0.193,1.421,0.579,1.915c0.387,0.494,0.899,0.74,1.538,0.74
				c0.633,0,1.128-0.161,1.488-0.482c0.359-0.321,0.539-0.788,0.539-1.4H418.279z"/>
			<path fill="#FFFFFF" d="M419.358,58.952c0-0.8,0.219-1.455,0.657-1.967c0.438-0.512,1.019-0.768,1.741-0.768
				c0.726,0,1.308,0.256,1.746,0.768c0.438,0.512,0.657,1.167,0.657,1.967v0.166c0,0.803-0.219,1.459-0.655,1.97
				c-0.437,0.51-1.016,0.765-1.738,0.765c-0.729,0-1.313-0.255-1.751-0.765c-0.438-0.51-0.657-1.167-0.657-1.97V58.952z
				 M419.96,59.117c0,0.629,0.159,1.158,0.477,1.585c0.318,0.428,0.762,0.643,1.33,0.643c0.559,0,0.998-0.214,1.317-0.643
				c0.319-0.428,0.479-0.957,0.479-1.585v-0.166c0-0.619-0.161-1.144-0.482-1.576s-0.763-0.647-1.324-0.647
				c-0.563,0-1.002,0.216-1.32,0.647c-0.317,0.432-0.477,0.957-0.477,1.576V59.117z"/>
			<path fill="#FFFFFF" d="M426.086,61.747h-0.597v-7.828h0.597V61.747z"/>
			<path fill="#FFFFFF" d="M428.42,61.747h-0.597v-7.828h0.597V61.747z"/>
			<path fill="#FFFFFF" d="M433.519,61.747c-0.037-0.191-0.064-0.354-0.083-0.492s-0.027-0.278-0.027-0.421
				c-0.188,0.294-0.45,0.538-0.788,0.73s-0.726,0.289-1.164,0.289c-0.532,0-0.944-0.142-1.237-0.424
				c-0.293-0.282-0.438-0.667-0.438-1.151s0.212-0.878,0.637-1.179c0.425-0.301,0.977-0.452,1.656-0.452h1.335v-0.672
				c0-0.388-0.123-0.692-0.369-0.913c-0.246-0.221-0.593-0.332-1.041-0.332c-0.412,0-0.744,0.101-0.996,0.301
				c-0.253,0.201-0.379,0.453-0.379,0.758h-0.558l-0.01-0.03c-0.02-0.408,0.155-0.767,0.524-1.076
				c0.37-0.31,0.853-0.464,1.448-0.464c0.595,0,1.073,0.152,1.435,0.457c0.361,0.305,0.542,0.741,0.542,1.31v2.67
				c0,0.19,0.011,0.376,0.032,0.557c0.022,0.181,0.059,0.36,0.108,0.537H433.519z M431.522,61.32c0.461,0,0.861-0.109,1.199-0.329
				c0.338-0.219,0.566-0.501,0.688-0.845v-1.039h-1.34c-0.489,0-0.892,0.117-1.21,0.349c-0.317,0.232-0.477,0.513-0.477,0.84
				c0,0.308,0.102,0.555,0.304,0.743S431.166,61.32,431.522,61.32z"/>
			<path fill="#FFFFFF" d="M439.982,59.183c0,0.813-0.185,1.461-0.553,1.944s-0.875,0.725-1.521,0.725
				c-0.395,0-0.736-0.08-1.025-0.238c-0.29-0.159-0.524-0.386-0.705-0.68l-0.101,0.813h-0.472v-7.828h0.602v3.231
				c0.181-0.297,0.412-0.527,0.693-0.69c0.28-0.162,0.613-0.243,0.998-0.243c0.652,0,1.162,0.26,1.53,0.78s0.553,1.213,0.553,2.08
				V59.183z M439.374,59.077c0-0.692-0.134-1.255-0.401-1.688c-0.268-0.434-0.664-0.65-1.189-0.65c-0.415,0-0.749,0.101-1.004,0.304
				c-0.254,0.202-0.444,0.464-0.572,0.785v2.484c0.134,0.314,0.332,0.563,0.595,0.745s0.593,0.273,0.991,0.273
				c0.525,0,0.92-0.194,1.185-0.582c0.264-0.388,0.396-0.91,0.396-1.565V59.077z"/>
			<path fill="#FFFFFF" d="M440.99,58.952c0-0.8,0.219-1.455,0.657-1.967c0.438-0.512,1.019-0.768,1.741-0.768
				c0.726,0,1.308,0.256,1.746,0.768c0.438,0.512,0.657,1.167,0.657,1.967v0.166c0,0.803-0.219,1.459-0.655,1.97
				c-0.437,0.51-1.016,0.765-1.738,0.765c-0.729,0-1.313-0.255-1.751-0.765c-0.438-0.51-0.657-1.167-0.657-1.97V58.952z
				 M441.592,59.117c0,0.629,0.159,1.158,0.477,1.585c0.318,0.428,0.762,0.643,1.33,0.643c0.559,0,0.998-0.214,1.317-0.643
				c0.319-0.428,0.479-0.957,0.479-1.585v-0.166c0-0.619-0.161-1.144-0.482-1.576s-0.763-0.647-1.324-0.647
				c-0.563,0-1.002,0.216-1.32,0.647c-0.317,0.432-0.477,0.957-0.477,1.576V59.117z"/>
			<path fill="#FFFFFF" d="M449.525,56.834l-0.427-0.03c-0.378,0-0.688,0.106-0.931,0.319c-0.242,0.212-0.415,0.504-0.52,0.875
				v3.749h-0.602v-5.429h0.526l0.075,0.903v0.061c0.157-0.334,0.368-0.596,0.633-0.783c0.264-0.188,0.579-0.281,0.943-0.281
				c0.073,0,0.144,0.006,0.211,0.018c0.066,0.012,0.122,0.024,0.165,0.038L449.525,56.834z"/>
			<path fill="#FFFFFF" d="M453.992,61.747c-0.037-0.191-0.064-0.354-0.083-0.492s-0.027-0.278-0.027-0.421
				c-0.188,0.294-0.45,0.538-0.788,0.73s-0.726,0.289-1.164,0.289c-0.532,0-0.944-0.142-1.237-0.424
				c-0.293-0.282-0.438-0.667-0.438-1.151s0.212-0.878,0.637-1.179c0.425-0.301,0.977-0.452,1.656-0.452h1.335v-0.672
				c0-0.388-0.123-0.692-0.369-0.913c-0.246-0.221-0.593-0.332-1.041-0.332c-0.412,0-0.744,0.101-0.996,0.301
				c-0.253,0.201-0.379,0.453-0.379,0.758h-0.558l-0.01-0.03c-0.02-0.408,0.155-0.767,0.524-1.076
				c0.37-0.31,0.853-0.464,1.448-0.464c0.595,0,1.073,0.152,1.435,0.457c0.361,0.305,0.542,0.741,0.542,1.31v2.67
				c0,0.19,0.011,0.376,0.032,0.557c0.022,0.181,0.059,0.36,0.108,0.537H453.992z M451.995,61.32c0.461,0,0.861-0.109,1.199-0.329
				c0.338-0.219,0.566-0.501,0.688-0.845v-1.039h-1.34c-0.489,0-0.892,0.117-1.21,0.349c-0.317,0.232-0.477,0.513-0.477,0.84
				c0,0.308,0.102,0.555,0.304,0.743S451.64,61.32,451.995,61.32z"/>
			<path fill="#FFFFFF" d="M457.018,54.927v1.39h1.194v0.492h-1.194v3.538c0,0.354,0.064,0.606,0.193,0.755
				c0.128,0.149,0.3,0.224,0.514,0.224c0.074,0,0.145-0.004,0.214-0.013c0.068-0.008,0.149-0.022,0.243-0.042l0.09,0.446
				c-0.08,0.041-0.18,0.073-0.298,0.098c-0.119,0.025-0.237,0.038-0.354,0.038c-0.381,0-0.678-0.121-0.891-0.361
				c-0.212-0.241-0.318-0.622-0.318-1.144v-3.538h-0.938v-0.492h0.938v-1.39H457.018z"/>
			<path fill="#FFFFFF" d="M460.058,54.762h-0.597v-0.843h0.597V54.762z M460.058,61.747h-0.597v-5.429h0.597V61.747z"/>
			<path fill="#FFFFFF" d="M463.265,60.387l0.176,0.637h0.03l0.19-0.637l1.476-4.069h0.622l-2.063,5.429h-0.481l-2.067-5.429h0.622
				L463.265,60.387z"/>
			<path fill="#FFFFFF" d="M468.744,61.852c-0.703,0-1.273-0.249-1.711-0.745c-0.438-0.497-0.658-1.135-0.658-1.915v-0.276
				c0-0.783,0.222-1.428,0.665-1.937c0.443-0.508,0.993-0.763,1.648-0.763c0.659,0,1.169,0.211,1.528,0.635s0.539,0.993,0.539,1.708
				v0.467h-3.778v0.166c0,0.619,0.156,1.132,0.469,1.541c0.313,0.408,0.746,0.612,1.298,0.612c0.331,0,0.636-0.054,0.913-0.163
				s0.509-0.255,0.692-0.439l0.256,0.411c-0.19,0.201-0.44,0.367-0.75,0.5C469.546,61.786,469.176,61.852,468.744,61.852z
				 M468.689,56.729c-0.462,0-0.841,0.166-1.139,0.497c-0.298,0.331-0.472,0.751-0.522,1.259l0.016,0.03h3.111V58.39
				c0-0.482-0.127-0.879-0.379-1.192C469.523,56.885,469.16,56.729,468.689,56.729z"/>
			<path fill="#FFFFFF" d="M472.537,61.656l-0.531,1.385h-0.412l0.347-1.4v-0.838h0.597V61.656z"/>
			<path fill="#FFFFFF" d="M476.948,56.317l0.055,0.893c0.175-0.314,0.406-0.559,0.695-0.733c0.289-0.174,0.633-0.261,1.031-0.261
				c0.415,0,0.761,0.1,1.039,0.298c0.277,0.199,0.477,0.503,0.597,0.911c0.164-0.378,0.397-0.674,0.7-0.888
				c0.303-0.214,0.668-0.321,1.097-0.321c0.578,0,1.026,0.192,1.342,0.577c0.316,0.385,0.475,0.98,0.475,1.786v3.167h-0.603V58.57
				c0-0.669-0.118-1.142-0.356-1.417c-0.237-0.276-0.565-0.414-0.983-0.414c-0.458,0-0.813,0.14-1.063,0.419s-0.41,0.64-0.477,1.082
				c0,0.037,0.001,0.073,0.002,0.11c0.002,0.037,0.003,0.083,0.003,0.14v3.257h-0.607V58.57c0-0.656-0.119-1.125-0.358-1.408
				s-0.568-0.424-0.986-0.424c-0.422,0-0.757,0.106-1.006,0.318c-0.249,0.213-0.424,0.5-0.524,0.861v3.829h-0.603v-5.429H476.948z"
				/>
			<path fill="#FFFFFF" d="M485.208,58.952c0-0.8,0.219-1.455,0.657-1.967c0.438-0.512,1.019-0.768,1.741-0.768
				c0.726,0,1.308,0.256,1.746,0.768c0.438,0.512,0.657,1.167,0.657,1.967v0.166c0,0.803-0.219,1.459-0.655,1.97
				c-0.437,0.51-1.016,0.765-1.738,0.765c-0.729,0-1.313-0.255-1.751-0.765c-0.438-0.51-0.657-1.167-0.657-1.97V58.952z
				 M485.81,59.117c0,0.629,0.159,1.158,0.477,1.585c0.318,0.428,0.762,0.643,1.33,0.643c0.559,0,0.998-0.214,1.317-0.643
				c0.319-0.428,0.479-0.957,0.479-1.585v-0.166c0-0.619-0.161-1.144-0.482-1.576s-0.763-0.647-1.324-0.647
				c-0.563,0-1.002,0.216-1.32,0.647c-0.317,0.432-0.477,0.957-0.477,1.576V59.117z"/>
			<path fill="#FFFFFF" d="M491.028,59.077c0-0.867,0.184-1.56,0.55-2.08s0.877-0.78,1.533-0.78c0.371,0,0.696,0.079,0.976,0.236
				s0.511,0.38,0.695,0.667v-3.202h0.602v7.828h-0.491l-0.085-0.788c-0.185,0.288-0.419,0.508-0.703,0.662s-0.619,0.231-1.003,0.231
				c-0.649,0-1.157-0.242-1.523-0.725s-0.55-1.132-0.55-1.944V59.077z M491.631,59.183c0,0.655,0.131,1.177,0.394,1.565
				s0.658,0.582,1.188,0.582c0.388,0,0.71-0.086,0.968-0.258s0.459-0.411,0.603-0.715v-2.574c-0.138-0.308-0.331-0.559-0.582-0.752
				s-0.577-0.291-0.979-0.291c-0.528,0-0.926,0.216-1.192,0.65c-0.266,0.433-0.398,0.996-0.398,1.688V59.183z"/>
			<path fill="#FFFFFF" d="M500.538,60.863c-0.174,0.318-0.407,0.562-0.7,0.733c-0.293,0.17-0.64,0.256-1.041,0.256
				c-0.572,0-1.021-0.194-1.345-0.582c-0.325-0.388-0.487-0.99-0.487-1.807v-3.146h0.603v3.156c0,0.662,0.113,1.137,0.339,1.425
				c0.226,0.288,0.546,0.432,0.961,0.432c0.451,0,0.812-0.101,1.081-0.304c0.27-0.202,0.459-0.479,0.569-0.831v-3.878h0.603v5.429
				h-0.532L500.538,60.863z"/>
			<path fill="#FFFFFF" d="M503.378,61.747h-0.597v-7.828h0.597V61.747z"/>
			<path fill="#FFFFFF" d="M508.477,61.747c-0.037-0.191-0.064-0.354-0.083-0.492s-0.027-0.278-0.027-0.421
				c-0.188,0.294-0.45,0.538-0.788,0.73s-0.726,0.289-1.164,0.289c-0.532,0-0.944-0.142-1.237-0.424
				c-0.293-0.282-0.438-0.667-0.438-1.151s0.212-0.878,0.637-1.179c0.425-0.301,0.977-0.452,1.656-0.452h1.335v-0.672
				c0-0.388-0.123-0.692-0.369-0.913c-0.246-0.221-0.593-0.332-1.041-0.332c-0.412,0-0.744,0.101-0.996,0.301
				c-0.253,0.201-0.379,0.453-0.379,0.758h-0.558l-0.01-0.03c-0.02-0.408,0.155-0.767,0.524-1.076
				c0.37-0.31,0.853-0.464,1.448-0.464c0.595,0,1.073,0.152,1.435,0.457c0.361,0.305,0.542,0.741,0.542,1.31v2.67
				c0,0.19,0.011,0.376,0.032,0.557c0.022,0.181,0.059,0.36,0.108,0.537H508.477z M506.48,61.32c0.461,0,0.861-0.109,1.199-0.329
				c0.338-0.219,0.566-0.501,0.688-0.845v-1.039h-1.34c-0.489,0-0.892,0.117-1.21,0.349c-0.317,0.232-0.477,0.513-0.477,0.84
				c0,0.308,0.102,0.555,0.304,0.743S506.124,61.32,506.48,61.32z"/>
			<path fill="#FFFFFF" d="M513.042,56.834l-0.427-0.03c-0.378,0-0.688,0.106-0.931,0.319c-0.242,0.212-0.415,0.504-0.52,0.875
				v3.749h-0.602v-5.429h0.526l0.075,0.903v0.061c0.157-0.334,0.368-0.596,0.633-0.783c0.264-0.188,0.579-0.281,0.943-0.281
				c0.073,0,0.144,0.006,0.211,0.018c0.066,0.012,0.122,0.024,0.165,0.038L513.042,56.834z"/>
			<path fill="#FFFFFF" d="M412.869,71.409c0-0.867,0.184-1.56,0.55-2.08s0.877-0.78,1.533-0.78c0.371,0,0.696,0.079,0.976,0.236
				s0.511,0.38,0.695,0.667v-3.202h0.602v7.828h-0.491l-0.085-0.788c-0.185,0.288-0.419,0.508-0.703,0.662s-0.619,0.231-1.003,0.231
				c-0.649,0-1.157-0.242-1.523-0.725s-0.55-1.132-0.55-1.944V71.409z M413.472,71.515c0,0.655,0.131,1.177,0.394,1.565
				s0.658,0.582,1.188,0.582c0.388,0,0.71-0.086,0.968-0.258s0.459-0.411,0.603-0.715v-2.574c-0.138-0.308-0.331-0.559-0.582-0.752
				s-0.577-0.291-0.979-0.291c-0.528,0-0.926,0.216-1.192,0.65c-0.266,0.433-0.398,0.996-0.398,1.688V71.515z"/>
			<path fill="#FFFFFF" d="M420.889,74.184c-0.703,0-1.273-0.249-1.711-0.745c-0.438-0.497-0.658-1.135-0.658-1.915v-0.276
				c0-0.783,0.222-1.428,0.665-1.937c0.443-0.508,0.993-0.763,1.648-0.763c0.659,0,1.169,0.211,1.528,0.635s0.539,0.993,0.539,1.708
				v0.467h-3.778v0.166c0,0.619,0.156,1.132,0.469,1.541c0.313,0.408,0.746,0.612,1.298,0.612c0.331,0,0.636-0.054,0.913-0.163
				s0.509-0.255,0.692-0.439l0.256,0.411c-0.19,0.201-0.44,0.367-0.75,0.5C421.691,74.118,421.32,74.184,420.889,74.184z
				 M420.833,69.061c-0.462,0-0.841,0.166-1.139,0.497c-0.298,0.331-0.472,0.751-0.522,1.259l0.016,0.03h3.111v-0.125
				c0-0.482-0.127-0.879-0.379-1.192C421.667,69.217,421.305,69.061,420.833,69.061z"/>
			<path fill="#FFFFFF" d="M425.595,72.719l0.176,0.637h0.03l0.19-0.637l1.476-4.069h0.622l-2.063,5.429h-0.481l-2.067-5.429h0.622
				L425.595,72.719z"/>
			<path fill="#FFFFFF" d="M431.075,74.184c-0.703,0-1.273-0.249-1.711-0.745c-0.438-0.497-0.658-1.135-0.658-1.915v-0.276
				c0-0.783,0.222-1.428,0.665-1.937c0.443-0.508,0.993-0.763,1.648-0.763c0.659,0,1.169,0.211,1.528,0.635s0.539,0.993,0.539,1.708
				v0.467h-3.778v0.166c0,0.619,0.156,1.132,0.469,1.541c0.313,0.408,0.746,0.612,1.298,0.612c0.331,0,0.636-0.054,0.913-0.163
				s0.509-0.255,0.692-0.439l0.256,0.411c-0.19,0.201-0.44,0.367-0.75,0.5C431.877,74.118,431.507,74.184,431.075,74.184z
				 M431.02,69.061c-0.462,0-0.841,0.166-1.139,0.497c-0.298,0.331-0.472,0.751-0.522,1.259l0.016,0.03h3.111v-0.125
				c0-0.482-0.127-0.879-0.379-1.192C431.854,69.217,431.491,69.061,431.02,69.061z"/>
			<path fill="#FFFFFF" d="M434.973,74.079h-0.597v-7.828h0.597V74.079z"/>
			<path fill="#FFFFFF" d="M436.299,71.284c0-0.8,0.219-1.455,0.657-1.967c0.438-0.512,1.019-0.768,1.741-0.768
				c0.726,0,1.308,0.256,1.746,0.768c0.438,0.512,0.657,1.167,0.657,1.967v0.166c0,0.803-0.219,1.459-0.655,1.97
				c-0.437,0.51-1.016,0.765-1.738,0.765c-0.729,0-1.313-0.255-1.751-0.765c-0.438-0.51-0.657-1.167-0.657-1.97V71.284z
				 M436.9,71.449c0,0.629,0.159,1.158,0.477,1.585c0.318,0.428,0.762,0.643,1.33,0.643c0.559,0,0.998-0.214,1.317-0.643
				c0.319-0.428,0.479-0.957,0.479-1.585v-0.166c0-0.619-0.161-1.144-0.482-1.576s-0.763-0.647-1.324-0.647
				c-0.563,0-1.002,0.216-1.32,0.647c-0.317,0.432-0.477,0.957-0.477,1.576V71.449z"/>
			<path fill="#FFFFFF" d="M446.726,71.515c0,0.813-0.184,1.461-0.552,1.944s-0.875,0.725-1.521,0.725
				c-0.378,0-0.71-0.072-0.996-0.216c-0.286-0.144-0.52-0.348-0.7-0.612v2.81h-0.602v-7.517h0.462l0.11,0.848
				c0.181-0.301,0.414-0.534,0.702-0.7s0.626-0.249,1.014-0.249c0.652,0,1.162,0.26,1.53,0.78s0.552,1.213,0.552,2.08V71.515z
				 M446.124,71.409c0-0.689-0.138-1.251-0.412-1.686c-0.273-0.435-0.676-0.652-1.204-0.652c-0.397,0-0.724,0.095-0.976,0.286
				c-0.253,0.19-0.444,0.438-0.575,0.743v2.629c0.141,0.294,0.34,0.526,0.598,0.695s0.579,0.253,0.964,0.253
				c0.524,0,0.924-0.197,1.196-0.592c0.272-0.395,0.409-0.918,0.409-1.57V71.409z"/>
			<path fill="#FFFFFF" d="M448.587,68.649l0.055,0.893c0.175-0.314,0.406-0.559,0.695-0.733c0.289-0.174,0.633-0.261,1.031-0.261
				c0.415,0,0.761,0.1,1.039,0.298c0.277,0.199,0.477,0.503,0.597,0.911c0.164-0.378,0.397-0.674,0.7-0.888
				c0.303-0.214,0.668-0.321,1.097-0.321c0.578,0,1.026,0.192,1.342,0.577c0.316,0.385,0.475,0.98,0.475,1.786v3.167h-0.603v-3.176
				c0-0.669-0.118-1.142-0.356-1.417c-0.237-0.276-0.565-0.414-0.983-0.414c-0.458,0-0.813,0.14-1.063,0.419s-0.41,0.64-0.477,1.082
				c0,0.037,0.001,0.073,0.002,0.11c0.002,0.037,0.003,0.083,0.003,0.14v3.257h-0.607v-3.176c0-0.656-0.119-1.125-0.358-1.408
				s-0.568-0.424-0.986-0.424c-0.422,0-0.757,0.106-1.006,0.318c-0.249,0.213-0.424,0.5-0.524,0.861v3.829h-0.603v-5.429H448.587z"
				/>
			<path fill="#FFFFFF" d="M459.245,74.184c-0.703,0-1.273-0.249-1.711-0.745c-0.438-0.497-0.658-1.135-0.658-1.915v-0.276
				c0-0.783,0.222-1.428,0.665-1.937c0.443-0.508,0.993-0.763,1.648-0.763c0.659,0,1.169,0.211,1.528,0.635s0.539,0.993,0.539,1.708
				v0.467h-3.778v0.166c0,0.619,0.156,1.132,0.469,1.541c0.313,0.408,0.746,0.612,1.298,0.612c0.331,0,0.636-0.054,0.913-0.163
				s0.509-0.255,0.692-0.439l0.256,0.411c-0.19,0.201-0.44,0.367-0.75,0.5C460.047,74.118,459.677,74.184,459.245,74.184z
				 M459.19,69.061c-0.462,0-0.841,0.166-1.139,0.497c-0.298,0.331-0.472,0.751-0.522,1.259l0.016,0.03h3.111v-0.125
				c0-0.482-0.127-0.879-0.379-1.192C460.024,69.217,459.661,69.061,459.19,69.061z"/>
			<path fill="#FFFFFF" d="M463.004,68.649l0.055,0.943c0.178-0.332,0.413-0.588,0.708-0.771c0.294-0.182,0.644-0.273,1.048-0.273
				c0.589,0,1.037,0.18,1.346,0.54c0.308,0.359,0.461,0.921,0.461,1.684v3.307h-0.602v-3.302c0-0.622-0.116-1.062-0.349-1.32
				c-0.233-0.257-0.563-0.386-0.991-0.386c-0.429,0-0.773,0.105-1.036,0.316c-0.263,0.211-0.453,0.494-0.57,0.848v3.844h-0.602
				v-5.429H463.004z"/>
			<path fill="#FFFFFF" d="M469.131,67.259v1.39h1.194v0.492h-1.194v3.538c0,0.354,0.064,0.606,0.193,0.755
				c0.128,0.149,0.3,0.224,0.514,0.224c0.074,0,0.145-0.004,0.214-0.013c0.068-0.008,0.149-0.022,0.243-0.042l0.09,0.446
				c-0.08,0.041-0.18,0.073-0.298,0.098c-0.119,0.025-0.237,0.038-0.354,0.038c-0.381,0-0.678-0.121-0.891-0.361
				c-0.212-0.241-0.318-0.622-0.318-1.144v-3.538h-0.938v-0.492h0.938v-1.39H469.131z"/>
			<path fill="#FFFFFF" d="M474.409,74.079v-4.938h-0.898v-0.492h0.898v-0.793c0-0.545,0.138-0.967,0.412-1.265
				c0.273-0.298,0.657-0.447,1.148-0.447c0.107,0,0.218,0.009,0.331,0.025c0.114,0.017,0.231,0.04,0.352,0.07l-0.08,0.497
				c-0.08-0.02-0.162-0.036-0.246-0.048c-0.084-0.011-0.183-0.017-0.296-0.017c-0.328,0-0.58,0.104-0.755,0.311
				c-0.176,0.208-0.264,0.499-0.264,0.873v0.793h1.229v0.492h-1.229v4.938H474.409z"/>
			<path fill="#FFFFFF" d="M479.778,69.166l-0.427-0.03c-0.378,0-0.688,0.106-0.931,0.319c-0.242,0.212-0.415,0.504-0.52,0.875
				v3.749H477.3v-5.429h0.526l0.075,0.903v0.061c0.157-0.334,0.368-0.596,0.633-0.783c0.264-0.188,0.579-0.281,0.943-0.281
				c0.073,0,0.144,0.006,0.211,0.018c0.066,0.012,0.122,0.024,0.165,0.038L479.778,69.166z"/>
			<path fill="#FFFFFF" d="M482.775,74.184c-0.703,0-1.273-0.249-1.711-0.745c-0.438-0.497-0.658-1.135-0.658-1.915v-0.276
				c0-0.783,0.222-1.428,0.665-1.937c0.443-0.508,0.993-0.763,1.648-0.763c0.659,0,1.169,0.211,1.528,0.635s0.539,0.993,0.539,1.708
				v0.467h-3.778v0.166c0,0.619,0.156,1.132,0.469,1.541c0.313,0.408,0.746,0.612,1.298,0.612c0.331,0,0.636-0.054,0.913-0.163
				s0.509-0.255,0.692-0.439l0.256,0.411c-0.19,0.201-0.44,0.367-0.75,0.5C483.576,74.118,483.206,74.184,482.775,74.184z
				 M482.719,69.061c-0.462,0-0.841,0.166-1.139,0.497c-0.298,0.331-0.472,0.751-0.522,1.259l0.016,0.03h3.111v-0.125
				c0-0.482-0.127-0.879-0.379-1.192C483.553,69.217,483.191,69.061,482.719,69.061z"/>
			<path fill="#FFFFFF" d="M488.064,74.184c-0.703,0-1.273-0.249-1.711-0.745c-0.438-0.497-0.658-1.135-0.658-1.915v-0.276
				c0-0.783,0.222-1.428,0.665-1.937c0.443-0.508,0.993-0.763,1.648-0.763c0.659,0,1.169,0.211,1.528,0.635s0.539,0.993,0.539,1.708
				v0.467h-3.778v0.166c0,0.619,0.156,1.132,0.469,1.541c0.313,0.408,0.746,0.612,1.298,0.612c0.331,0,0.636-0.054,0.913-0.163
				s0.509-0.255,0.692-0.439l0.256,0.411c-0.19,0.201-0.44,0.367-0.75,0.5C488.865,74.118,488.495,74.184,488.064,74.184z
				 M488.008,69.061c-0.462,0-0.841,0.166-1.139,0.497c-0.298,0.331-0.472,0.751-0.522,1.259l0.016,0.03h3.111v-0.125
				c0-0.482-0.127-0.879-0.379-1.192C488.842,69.217,488.48,69.061,488.008,69.061z"/>
			<path fill="#FFFFFF" d="M494.2,74.079v-4.938h-0.898v-0.492h0.898v-0.793c0-0.545,0.138-0.967,0.412-1.265
				c0.273-0.298,0.657-0.447,1.148-0.447c0.107,0,0.218,0.009,0.331,0.025c0.114,0.017,0.231,0.04,0.352,0.07l-0.08,0.497
				c-0.08-0.02-0.162-0.036-0.246-0.048c-0.084-0.011-0.183-0.017-0.296-0.017c-0.328,0-0.58,0.104-0.755,0.311
				c-0.176,0.208-0.264,0.499-0.264,0.873v0.793h1.229v0.492h-1.229v4.938H494.2z"/>
			<path fill="#FFFFFF" d="M499.569,69.166l-0.427-0.03c-0.378,0-0.688,0.106-0.931,0.319c-0.242,0.212-0.415,0.504-0.52,0.875
				v3.749h-0.602v-5.429h0.526l0.075,0.903v0.061c0.157-0.334,0.368-0.596,0.633-0.783c0.264-0.188,0.579-0.281,0.943-0.281
				c0.073,0,0.144,0.006,0.211,0.018c0.066,0.012,0.122,0.024,0.165,0.038L499.569,69.166z"/>
			<path fill="#FFFFFF" d="M500.162,71.284c0-0.8,0.219-1.455,0.657-1.967c0.438-0.512,1.019-0.768,1.741-0.768
				c0.726,0,1.308,0.256,1.746,0.768c0.438,0.512,0.657,1.167,0.657,1.967v0.166c0,0.803-0.219,1.459-0.655,1.97
				c-0.437,0.51-1.016,0.765-1.738,0.765c-0.729,0-1.313-0.255-1.751-0.765c-0.438-0.51-0.657-1.167-0.657-1.97V71.284z
				 M500.764,71.449c0,0.629,0.159,1.158,0.477,1.585c0.318,0.428,0.762,0.643,1.33,0.643c0.559,0,0.998-0.214,1.317-0.643
				c0.319-0.428,0.479-0.957,0.479-1.585v-0.166c0-0.619-0.161-1.144-0.482-1.576s-0.763-0.647-1.324-0.647
				c-0.563,0-1.002,0.216-1.32,0.647c-0.317,0.432-0.477,0.957-0.477,1.576V71.449z"/>
			<path fill="#FFFFFF" d="M506.731,68.649l0.055,0.893c0.175-0.314,0.406-0.559,0.695-0.733c0.289-0.174,0.633-0.261,1.031-0.261
				c0.415,0,0.761,0.1,1.039,0.298c0.277,0.199,0.477,0.503,0.597,0.911c0.164-0.378,0.397-0.674,0.7-0.888
				c0.303-0.214,0.668-0.321,1.097-0.321c0.578,0,1.026,0.192,1.342,0.577c0.316,0.385,0.475,0.98,0.475,1.786v3.167h-0.603v-3.176
				c0-0.669-0.118-1.142-0.356-1.417c-0.237-0.276-0.565-0.414-0.983-0.414c-0.458,0-0.813,0.14-1.063,0.419s-0.41,0.64-0.477,1.082
				c0,0.037,0.001,0.073,0.002,0.11c0.002,0.037,0.003,0.083,0.003,0.14v3.257h-0.607v-3.176c0-0.656-0.119-1.125-0.358-1.408
				s-0.568-0.424-0.986-0.424c-0.422,0-0.757,0.106-1.006,0.318c-0.249,0.213-0.424,0.5-0.524,0.861v3.829h-0.603v-5.429H506.731z"
				/>
			<path fill="#FFFFFF" d="M518.994,72.317l0.211,0.994h0.03l0.251-0.994l1.153-3.668h0.518l1.154,3.668l0.25,1.023h0.03
				l0.236-1.023l0.969-3.668h0.642l-1.58,5.429h-0.512l-1.229-3.713l-0.216-0.878h-0.03l-0.216,0.878l-1.204,3.713h-0.518
				l-1.575-5.429h0.643L518.994,72.317z"/>
			<path fill="#FFFFFF" d="M529.04,74.079c-0.037-0.191-0.064-0.354-0.083-0.492s-0.027-0.278-0.027-0.421
				c-0.188,0.294-0.45,0.538-0.788,0.73s-0.726,0.289-1.164,0.289c-0.532,0-0.944-0.142-1.237-0.424
				c-0.293-0.282-0.438-0.667-0.438-1.151s0.212-0.878,0.637-1.179c0.425-0.301,0.977-0.452,1.656-0.452h1.335v-0.672
				c0-0.388-0.123-0.692-0.369-0.913c-0.246-0.221-0.593-0.332-1.041-0.332c-0.412,0-0.744,0.101-0.996,0.301
				c-0.253,0.201-0.379,0.453-0.379,0.758h-0.558l-0.01-0.03c-0.02-0.408,0.155-0.767,0.524-1.076
				c0.37-0.31,0.853-0.464,1.448-0.464c0.595,0,1.073,0.152,1.435,0.457c0.361,0.305,0.542,0.741,0.542,1.31v2.67
				c0,0.19,0.011,0.376,0.032,0.557c0.022,0.181,0.059,0.36,0.108,0.537H529.04z M527.043,73.652c0.461,0,0.861-0.109,1.199-0.329
				c0.338-0.219,0.566-0.501,0.688-0.845v-1.039h-1.34c-0.489,0-0.892,0.117-1.21,0.349c-0.317,0.232-0.477,0.513-0.477,0.84
				c0,0.308,0.102,0.555,0.304,0.743S526.688,73.652,527.043,73.652z"/>
			<path fill="#FFFFFF" d="M534.379,72.689c0-0.254-0.105-0.476-0.314-0.665s-0.586-0.344-1.131-0.464
				c-0.643-0.134-1.12-0.317-1.433-0.549c-0.313-0.232-0.47-0.558-0.47-0.976c0-0.415,0.175-0.766,0.524-1.054
				s0.813-0.432,1.388-0.432c0.605,0,1.089,0.153,1.45,0.459s0.533,0.684,0.517,1.132l-0.01,0.03h-0.557
				c0-0.297-0.128-0.557-0.385-0.777c-0.256-0.221-0.594-0.332-1.016-0.332c-0.435,0-0.763,0.096-0.983,0.286
				c-0.221,0.191-0.331,0.413-0.331,0.667c0,0.248,0.094,0.453,0.283,0.615s0.566,0.305,1.132,0.429
				c0.636,0.141,1.116,0.336,1.442,0.587s0.489,0.589,0.489,1.014c0,0.452-0.184,0.819-0.55,1.101
				c-0.366,0.283-0.851,0.424-1.452,0.424c-0.659,0-1.177-0.157-1.554-0.472c-0.376-0.314-0.554-0.689-0.534-1.124l0.01-0.03h0.553
				c0.023,0.392,0.183,0.676,0.479,0.853c0.297,0.177,0.646,0.266,1.047,0.266c0.435,0,0.777-0.097,1.028-0.291
				S534.379,72.96,534.379,72.689z"/>
			<path fill="#FFFFFF" d="M537.3,67.259v1.39h1.194v0.492H537.3v3.538c0,0.354,0.064,0.606,0.193,0.755
				c0.128,0.149,0.3,0.224,0.514,0.224c0.074,0,0.145-0.004,0.214-0.013c0.068-0.008,0.149-0.022,0.243-0.042l0.09,0.446
				c-0.08,0.041-0.18,0.073-0.298,0.098c-0.119,0.025-0.237,0.038-0.354,0.038c-0.381,0-0.678-0.121-0.891-0.361
				c-0.212-0.241-0.318-0.622-0.318-1.144v-3.538h-0.938v-0.492h0.938v-1.39H537.3z"/>
			<path fill="#FFFFFF" d="M541.731,74.184c-0.703,0-1.273-0.249-1.711-0.745c-0.438-0.497-0.658-1.135-0.658-1.915v-0.276
				c0-0.783,0.222-1.428,0.665-1.937c0.443-0.508,0.993-0.763,1.648-0.763c0.659,0,1.169,0.211,1.528,0.635s0.539,0.993,0.539,1.708
				v0.467h-3.778v0.166c0,0.619,0.156,1.132,0.469,1.541c0.313,0.408,0.746,0.612,1.298,0.612c0.331,0,0.636-0.054,0.913-0.163
				s0.509-0.255,0.692-0.439l0.256,0.411c-0.19,0.201-0.44,0.367-0.75,0.5C542.532,74.118,542.162,74.184,541.731,74.184z
				 M541.675,69.061c-0.462,0-0.841,0.166-1.139,0.497c-0.298,0.331-0.472,0.751-0.522,1.259l0.016,0.03h3.111v-0.125
				c0-0.482-0.127-0.879-0.379-1.192C542.509,69.217,542.147,69.061,541.675,69.061z"/>
			<path fill="#FFFFFF" d="M545.69,74.079h-0.688v-0.823h0.688V74.079z"/>
			<path fill="#FFFFFF" d="M415.093,86.009c0.385,0,0.725-0.113,1.021-0.341s0.444-0.544,0.444-0.949h0.537l0.01,0.03
				c0.014,0.502-0.184,0.922-0.592,1.26s-0.882,0.507-1.42,0.507c-0.723,0-1.286-0.254-1.688-0.763
				c-0.403-0.509-0.605-1.159-0.605-1.952V83.59c0-0.789,0.201-1.438,0.603-1.946c0.401-0.509,0.964-0.763,1.687-0.763
				c0.582,0,1.066,0.175,1.455,0.526c0.388,0.352,0.575,0.813,0.562,1.385l-0.01,0.03h-0.537c0-0.435-0.143-0.782-0.427-1.041
				c-0.284-0.26-0.632-0.389-1.043-0.389c-0.569,0-0.992,0.209-1.27,0.627c-0.278,0.418-0.417,0.941-0.417,1.57v0.211
				c0,0.639,0.139,1.167,0.417,1.583C414.096,85.801,414.521,86.009,415.093,86.009z"/>
			<path fill="#FFFFFF" d="M421.947,85.528c-0.174,0.317-0.407,0.562-0.7,0.732s-0.64,0.256-1.041,0.256
				c-0.572,0-1.021-0.194-1.345-0.582c-0.325-0.388-0.487-0.99-0.487-1.807v-3.146h0.603v3.156c0,0.663,0.113,1.138,0.339,1.426
				c0.226,0.287,0.546,0.432,0.961,0.432c0.451,0,0.812-0.102,1.081-0.304c0.27-0.203,0.459-0.479,0.569-0.831v-3.879h0.603v5.43
				h-0.532L421.947,85.528z"/>
			<path fill="#FFFFFF" d="M427.367,85.021c0-0.255-0.105-0.477-0.314-0.665c-0.209-0.189-0.586-0.344-1.131-0.464
				c-0.643-0.134-1.12-0.317-1.433-0.55c-0.313-0.232-0.47-0.558-0.47-0.977c0-0.414,0.175-0.766,0.524-1.054
				c0.35-0.287,0.813-0.431,1.388-0.431c0.605,0,1.089,0.152,1.45,0.459c0.361,0.306,0.533,0.683,0.517,1.131l-0.01,0.03h-0.557
				c0-0.298-0.128-0.557-0.385-0.777c-0.256-0.221-0.594-0.331-1.016-0.331c-0.435,0-0.763,0.095-0.983,0.286
				c-0.221,0.19-0.331,0.413-0.331,0.667c0,0.247,0.094,0.452,0.283,0.614c0.189,0.163,0.566,0.306,1.132,0.43
				c0.636,0.141,1.116,0.336,1.442,0.587s0.489,0.589,0.489,1.014c0,0.451-0.184,0.818-0.55,1.102
				c-0.366,0.282-0.851,0.424-1.452,0.424c-0.659,0-1.177-0.157-1.554-0.472c-0.376-0.314-0.554-0.689-0.534-1.124l0.01-0.03h0.553
				c0.023,0.392,0.183,0.676,0.479,0.854c0.297,0.177,0.646,0.266,1.047,0.266c0.435,0,0.777-0.097,1.028-0.291
				S427.367,85.292,427.367,85.021z"/>
			<path fill="#FFFFFF" d="M430.287,79.591v1.39h1.194v0.492h-1.194v3.537c0,0.355,0.064,0.606,0.193,0.756
				c0.128,0.148,0.3,0.223,0.514,0.223c0.074,0,0.145-0.004,0.214-0.012c0.068-0.009,0.149-0.023,0.243-0.043l0.09,0.446
				c-0.08,0.04-0.18,0.073-0.298,0.098c-0.119,0.025-0.237,0.038-0.354,0.038c-0.381,0-0.678-0.12-0.891-0.361
				c-0.212-0.241-0.318-0.622-0.318-1.145v-3.537h-0.938v-0.492h0.938v-1.39H430.287z"/>
			<path fill="#FFFFFF" d="M432.319,83.616c0-0.8,0.219-1.455,0.657-1.967c0.438-0.512,1.019-0.768,1.741-0.768
				c0.726,0,1.308,0.256,1.746,0.768s0.657,1.167,0.657,1.967v0.165c0,0.804-0.219,1.46-0.655,1.97
				c-0.437,0.511-1.016,0.766-1.738,0.766c-0.729,0-1.313-0.255-1.751-0.766c-0.438-0.51-0.657-1.166-0.657-1.97V83.616z
				 M432.921,83.781c0,0.63,0.159,1.158,0.477,1.586c0.318,0.429,0.762,0.643,1.33,0.643c0.559,0,0.998-0.214,1.317-0.643
				c0.319-0.428,0.479-0.956,0.479-1.586v-0.165c0-0.619-0.161-1.145-0.482-1.576c-0.321-0.431-0.763-0.646-1.324-0.646
				c-0.563,0-1.002,0.216-1.32,0.646c-0.317,0.432-0.477,0.957-0.477,1.576V83.781z"/>
			<path fill="#FFFFFF" d="M438.888,80.981l0.055,0.894c0.175-0.314,0.406-0.559,0.695-0.732s0.633-0.261,1.031-0.261
				c0.415,0,0.761,0.099,1.039,0.298c0.277,0.199,0.477,0.503,0.597,0.911c0.164-0.378,0.397-0.674,0.7-0.889
				c0.303-0.214,0.668-0.32,1.097-0.32c0.578,0,1.026,0.192,1.342,0.576c0.316,0.385,0.475,0.98,0.475,1.787v3.166h-0.603v-3.177
				c0-0.669-0.118-1.142-0.356-1.417c-0.237-0.276-0.565-0.414-0.983-0.414c-0.458,0-0.813,0.14-1.063,0.419s-0.41,0.64-0.477,1.081
				c0,0.037,0.001,0.074,0.002,0.11c0.002,0.037,0.003,0.084,0.003,0.141v3.257h-0.607v-3.177c0-0.655-0.119-1.124-0.358-1.407
				c-0.239-0.282-0.568-0.424-0.986-0.424c-0.422,0-0.757,0.106-1.006,0.318c-0.249,0.213-0.424,0.499-0.524,0.86v3.829h-0.603
				v-5.43H438.888z"/>
			<path fill="#FFFFFF" d="M448.155,79.425h-0.597v-0.843h0.597V79.425z M448.155,86.411h-0.597v-5.43h0.597V86.411z"/>
			<path fill="#FFFFFF" d="M450.218,85.904h3.527v0.507h-4.271v-0.441l3.272-4.471h-3.172v-0.518h3.93v0.447L450.218,85.904z"/>
			<path fill="#FFFFFF" d="M458.282,86.411c-0.037-0.19-0.064-0.354-0.083-0.492c-0.019-0.137-0.027-0.277-0.027-0.421
				c-0.188,0.294-0.45,0.538-0.788,0.729c-0.338,0.192-0.726,0.289-1.164,0.289c-0.532,0-0.944-0.142-1.237-0.424
				c-0.293-0.283-0.438-0.667-0.438-1.152c0-0.484,0.212-0.878,0.637-1.179s0.977-0.452,1.656-0.452h1.335v-0.672
				c0-0.388-0.123-0.692-0.369-0.913s-0.593-0.331-1.041-0.331c-0.412,0-0.744,0.1-0.996,0.301c-0.253,0.2-0.379,0.453-0.379,0.758
				h-0.558l-0.01-0.03c-0.02-0.408,0.155-0.767,0.524-1.076c0.37-0.31,0.853-0.464,1.448-0.464c0.595,0,1.073,0.151,1.435,0.456
				s0.542,0.741,0.542,1.31v2.67c0,0.19,0.011,0.376,0.032,0.557c0.022,0.181,0.059,0.359,0.108,0.537H458.282z M456.285,85.984
				c0.461,0,0.861-0.109,1.199-0.328c0.338-0.22,0.566-0.501,0.688-0.846v-1.039h-1.34c-0.489,0-0.892,0.116-1.21,0.349
				c-0.317,0.232-0.477,0.513-0.477,0.841c0,0.308,0.102,0.556,0.304,0.742C455.651,85.89,455.93,85.984,456.285,85.984z"/>
			<path fill="#FFFFFF" d="M464.745,83.846c0,0.813-0.185,1.461-0.553,1.944s-0.875,0.726-1.521,0.726
				c-0.395,0-0.736-0.08-1.025-0.238c-0.29-0.159-0.524-0.386-0.705-0.68l-0.101,0.813h-0.472v-7.828h0.602v3.231
				c0.181-0.298,0.412-0.527,0.693-0.689c0.28-0.162,0.613-0.243,0.998-0.243c0.652,0,1.162,0.26,1.53,0.78
				c0.368,0.52,0.553,1.213,0.553,2.079V83.846z M464.138,83.741c0-0.692-0.134-1.255-0.401-1.688
				c-0.268-0.433-0.664-0.649-1.189-0.649c-0.415,0-0.749,0.102-1.004,0.304c-0.254,0.202-0.444,0.464-0.572,0.785v2.483
				c0.134,0.314,0.332,0.563,0.595,0.745c0.263,0.183,0.593,0.274,0.991,0.274c0.525,0,0.92-0.194,1.185-0.583
				c0.264-0.388,0.396-0.909,0.396-1.565V83.741z"/>
			<path fill="#FFFFFF" d="M466.762,86.411h-0.597v-7.828h0.597V86.411z"/>
			<path fill="#FFFFFF" d="M470.485,86.516c-0.703,0-1.273-0.248-1.711-0.745c-0.438-0.497-0.658-1.135-0.658-1.914v-0.276
				c0-0.783,0.222-1.429,0.665-1.937c0.443-0.509,0.993-0.763,1.648-0.763c0.659,0,1.169,0.211,1.528,0.635
				c0.359,0.423,0.539,0.992,0.539,1.708v0.467h-3.778v0.166c0,0.618,0.156,1.132,0.469,1.54c0.313,0.408,0.746,0.612,1.298,0.612
				c0.331,0,0.636-0.055,0.913-0.163s0.509-0.255,0.692-0.439l0.256,0.412c-0.19,0.2-0.44,0.367-0.75,0.499
				S470.917,86.516,470.485,86.516z M470.43,81.393c-0.462,0-0.841,0.165-1.139,0.496s-0.472,0.751-0.522,1.26l0.016,0.03h3.111
				v-0.126c0-0.481-0.127-0.879-0.379-1.191C471.264,81.549,470.901,81.393,470.43,81.393z"/>
			<path fill="#FFFFFF" d="M479.649,86.411c-0.037-0.19-0.064-0.354-0.083-0.492c-0.019-0.137-0.027-0.277-0.027-0.421
				c-0.188,0.294-0.45,0.538-0.788,0.729c-0.338,0.192-0.726,0.289-1.164,0.289c-0.532,0-0.944-0.142-1.237-0.424
				c-0.293-0.283-0.438-0.667-0.438-1.152c0-0.484,0.212-0.878,0.637-1.179s0.977-0.452,1.656-0.452h1.335v-0.672
				c0-0.388-0.123-0.692-0.369-0.913s-0.593-0.331-1.041-0.331c-0.412,0-0.744,0.1-0.996,0.301c-0.253,0.2-0.379,0.453-0.379,0.758
				h-0.558l-0.01-0.03c-0.02-0.408,0.155-0.767,0.524-1.076c0.37-0.31,0.853-0.464,1.448-0.464c0.595,0,1.073,0.151,1.435,0.456
				s0.542,0.741,0.542,1.31v2.67c0,0.19,0.011,0.376,0.032,0.557c0.022,0.181,0.059,0.359,0.108,0.537H479.649z M477.651,85.984
				c0.461,0,0.861-0.109,1.199-0.328c0.338-0.22,0.566-0.501,0.688-0.846v-1.039h-1.34c-0.489,0-0.892,0.116-1.21,0.349
				c-0.317,0.232-0.477,0.513-0.477,0.841c0,0.308,0.102,0.556,0.304,0.742C477.018,85.89,477.296,85.984,477.651,85.984z"/>
			<path fill="#FFFFFF" d="M486.106,83.846c0,0.813-0.184,1.461-0.552,1.944s-0.875,0.726-1.521,0.726
				c-0.378,0-0.71-0.072-0.996-0.216s-0.52-0.348-0.7-0.612v2.811h-0.602v-7.518h0.462l0.11,0.849
				c0.181-0.302,0.414-0.535,0.702-0.7c0.288-0.166,0.626-0.248,1.014-0.248c0.652,0,1.162,0.26,1.53,0.78
				c0.368,0.52,0.552,1.213,0.552,2.079V83.846z M485.504,83.741c0-0.688-0.138-1.251-0.412-1.686
				c-0.273-0.435-0.676-0.652-1.204-0.652c-0.397,0-0.724,0.096-0.976,0.286c-0.253,0.19-0.444,0.438-0.575,0.742v2.63
				c0.141,0.294,0.34,0.526,0.598,0.694c0.258,0.169,0.579,0.254,0.964,0.254c0.524,0,0.924-0.197,1.196-0.592
				c0.272-0.396,0.409-0.919,0.409-1.571V83.741z"/>
			<path fill="#FFFFFF" d="M491.826,83.846c0,0.813-0.184,1.461-0.552,1.944s-0.875,0.726-1.521,0.726
				c-0.378,0-0.71-0.072-0.996-0.216s-0.52-0.348-0.7-0.612v2.811h-0.602v-7.518h0.462l0.11,0.849
				c0.181-0.302,0.414-0.535,0.702-0.7c0.288-0.166,0.626-0.248,1.014-0.248c0.652,0,1.162,0.26,1.53,0.78
				c0.368,0.52,0.552,1.213,0.552,2.079V83.846z M491.225,83.741c0-0.688-0.138-1.251-0.412-1.686
				c-0.273-0.435-0.676-0.652-1.204-0.652c-0.397,0-0.724,0.096-0.976,0.286c-0.253,0.19-0.444,0.438-0.575,0.742v2.63
				c0.141,0.294,0.34,0.526,0.598,0.694c0.258,0.169,0.579,0.254,0.964,0.254c0.524,0,0.924-0.197,1.196-0.592
				c0.272-0.396,0.409-0.919,0.409-1.571V83.741z"/>
			<path fill="#FFFFFF" d="M496.429,85.021c0-0.255-0.105-0.477-0.314-0.665c-0.209-0.189-0.586-0.344-1.131-0.464
				c-0.643-0.134-1.12-0.317-1.433-0.55c-0.313-0.232-0.47-0.558-0.47-0.977c0-0.414,0.175-0.766,0.524-1.054
				c0.35-0.287,0.813-0.431,1.388-0.431c0.605,0,1.089,0.152,1.45,0.459c0.361,0.306,0.533,0.683,0.517,1.131l-0.01,0.03h-0.557
				c0-0.298-0.128-0.557-0.385-0.777c-0.256-0.221-0.594-0.331-1.016-0.331c-0.435,0-0.763,0.095-0.983,0.286
				c-0.221,0.19-0.331,0.413-0.331,0.667c0,0.247,0.094,0.452,0.283,0.614c0.189,0.163,0.566,0.306,1.132,0.43
				c0.636,0.141,1.116,0.336,1.442,0.587s0.489,0.589,0.489,1.014c0,0.451-0.184,0.818-0.55,1.102
				c-0.366,0.282-0.851,0.424-1.452,0.424c-0.659,0-1.177-0.157-1.554-0.472c-0.376-0.314-0.554-0.689-0.534-1.124l0.01-0.03h0.553
				c0.023,0.392,0.183,0.676,0.479,0.854c0.297,0.177,0.646,0.266,1.047,0.266c0.435,0,0.777-0.097,1.028-0.291
				S496.429,85.292,496.429,85.021z"/>
			<path fill="#FFFFFF" d="M501.32,86.411v-4.938h-0.898v-0.492h0.898v-0.793c0-0.545,0.138-0.967,0.412-1.264
				c0.273-0.298,0.657-0.447,1.148-0.447c0.107,0,0.218,0.009,0.331,0.025c0.114,0.017,0.231,0.04,0.352,0.07l-0.08,0.497
				c-0.08-0.021-0.162-0.036-0.246-0.048s-0.183-0.018-0.296-0.018c-0.328,0-0.58,0.104-0.755,0.311
				c-0.176,0.208-0.264,0.499-0.264,0.873v0.793h1.229v0.492h-1.229v4.938H501.32z"/>
			<path fill="#FFFFFF" d="M506.69,81.499l-0.427-0.03c-0.378,0-0.688,0.105-0.931,0.318c-0.242,0.213-0.415,0.504-0.52,0.876v3.748
				h-0.602v-5.43h0.526l0.075,0.903v0.061c0.157-0.335,0.368-0.596,0.633-0.783c0.264-0.188,0.579-0.28,0.943-0.28
				c0.073,0,0.144,0.006,0.211,0.017c0.066,0.013,0.122,0.024,0.165,0.038L506.69,81.499z"/>
			<path fill="#FFFFFF" d="M509.686,86.516c-0.703,0-1.273-0.248-1.711-0.745c-0.438-0.497-0.658-1.135-0.658-1.914v-0.276
				c0-0.783,0.222-1.429,0.665-1.937c0.443-0.509,0.993-0.763,1.648-0.763c0.659,0,1.169,0.211,1.528,0.635
				c0.359,0.423,0.539,0.992,0.539,1.708v0.467h-3.778v0.166c0,0.618,0.156,1.132,0.469,1.54c0.313,0.408,0.746,0.612,1.298,0.612
				c0.331,0,0.636-0.055,0.913-0.163s0.509-0.255,0.692-0.439l0.256,0.412c-0.19,0.2-0.44,0.367-0.75,0.499
				S510.117,86.516,509.686,86.516z M509.63,81.393c-0.462,0-0.841,0.165-1.139,0.496s-0.472,0.751-0.522,1.26l0.016,0.03h3.111
				v-0.126c0-0.481-0.127-0.879-0.379-1.191C510.464,81.549,510.102,81.393,509.63,81.393z"/>
			<path fill="#FFFFFF" d="M514.975,86.516c-0.703,0-1.273-0.248-1.711-0.745c-0.438-0.497-0.658-1.135-0.658-1.914v-0.276
				c0-0.783,0.222-1.429,0.665-1.937c0.443-0.509,0.993-0.763,1.648-0.763c0.659,0,1.169,0.211,1.528,0.635
				c0.359,0.423,0.539,0.992,0.539,1.708v0.467h-3.778v0.166c0,0.618,0.156,1.132,0.469,1.54c0.313,0.408,0.746,0.612,1.298,0.612
				c0.331,0,0.636-0.055,0.913-0.163s0.509-0.255,0.692-0.439l0.256,0.412c-0.19,0.2-0.44,0.367-0.75,0.499
				S515.406,86.516,514.975,86.516z M514.919,81.393c-0.462,0-0.841,0.165-1.139,0.496s-0.472,0.751-0.522,1.26l0.016,0.03h3.111
				v-0.126c0-0.481-0.127-0.879-0.379-1.191C515.753,81.549,515.391,81.393,514.919,81.393z"/>
			<path fill="#FFFFFF" d="M521.111,86.411v-4.938h-0.898v-0.492h0.898v-0.793c0-0.545,0.138-0.967,0.412-1.264
				c0.273-0.298,0.657-0.447,1.148-0.447c0.107,0,0.218,0.009,0.331,0.025c0.114,0.017,0.231,0.04,0.352,0.07l-0.08,0.497
				c-0.08-0.021-0.162-0.036-0.246-0.048s-0.183-0.018-0.296-0.018c-0.328,0-0.58,0.104-0.755,0.311
				c-0.176,0.208-0.264,0.499-0.264,0.873v0.793h1.229v0.492h-1.229v4.938H521.111z"/>
			<path fill="#FFFFFF" d="M526.481,81.499l-0.427-0.03c-0.378,0-0.688,0.105-0.931,0.318c-0.242,0.213-0.415,0.504-0.52,0.876
				v3.748h-0.602v-5.43h0.526l0.075,0.903v0.061c0.157-0.335,0.368-0.596,0.633-0.783c0.264-0.188,0.579-0.28,0.943-0.28
				c0.073,0,0.144,0.006,0.211,0.017c0.066,0.013,0.122,0.024,0.165,0.038L526.481,81.499z"/>
			<path fill="#FFFFFF" d="M527.073,83.616c0-0.8,0.219-1.455,0.657-1.967c0.438-0.512,1.019-0.768,1.741-0.768
				c0.726,0,1.308,0.256,1.746,0.768s0.657,1.167,0.657,1.967v0.165c0,0.804-0.219,1.46-0.655,1.97
				c-0.437,0.511-1.016,0.766-1.738,0.766c-0.729,0-1.313-0.255-1.751-0.766c-0.438-0.51-0.657-1.166-0.657-1.97V83.616z
				 M527.675,83.781c0,0.63,0.159,1.158,0.477,1.586c0.318,0.429,0.762,0.643,1.33,0.643c0.559,0,0.998-0.214,1.317-0.643
				c0.319-0.428,0.479-0.956,0.479-1.586v-0.165c0-0.619-0.161-1.145-0.482-1.576c-0.321-0.431-0.763-0.646-1.324-0.646
				c-0.563,0-1.002,0.216-1.32,0.646c-0.317,0.432-0.477,0.957-0.477,1.576V83.781z"/>
			<path fill="#FFFFFF" d="M533.642,80.981l0.055,0.894c0.175-0.314,0.406-0.559,0.695-0.732s0.633-0.261,1.031-0.261
				c0.415,0,0.761,0.099,1.039,0.298c0.277,0.199,0.477,0.503,0.597,0.911c0.164-0.378,0.397-0.674,0.7-0.889
				c0.303-0.214,0.668-0.32,1.097-0.32c0.578,0,1.026,0.192,1.342,0.576c0.316,0.385,0.475,0.98,0.475,1.787v3.166h-0.603v-3.177
				c0-0.669-0.118-1.142-0.356-1.417c-0.237-0.276-0.565-0.414-0.983-0.414c-0.458,0-0.813,0.14-1.063,0.419s-0.41,0.64-0.477,1.081
				c0,0.037,0.001,0.074,0.002,0.11c0.002,0.037,0.003,0.084,0.003,0.141v3.257h-0.607v-3.177c0-0.655-0.119-1.124-0.358-1.407
				c-0.239-0.282-0.568-0.424-0.986-0.424c-0.422,0-0.757,0.106-1.006,0.318c-0.249,0.213-0.424,0.499-0.524,0.86v3.829h-0.603
				v-5.43H533.642z"/>
			<path fill="#FFFFFF" d="M413.617,93.313l0.055,0.894c0.175-0.314,0.406-0.559,0.695-0.732s0.633-0.261,1.031-0.261
				c0.415,0,0.761,0.099,1.039,0.298c0.277,0.199,0.477,0.503,0.597,0.911c0.164-0.378,0.397-0.674,0.7-0.889
				c0.303-0.214,0.668-0.32,1.097-0.32c0.578,0,1.026,0.192,1.342,0.576c0.316,0.385,0.475,0.98,0.475,1.787v3.166h-0.603v-3.177
				c0-0.669-0.118-1.142-0.356-1.417c-0.237-0.276-0.565-0.414-0.983-0.414c-0.458,0-0.813,0.14-1.063,0.419s-0.41,0.64-0.477,1.081
				c0,0.037,0.001,0.074,0.002,0.11c0.002,0.037,0.003,0.084,0.003,0.141v3.257h-0.607v-3.177c0-0.655-0.119-1.124-0.358-1.407
				c-0.239-0.282-0.568-0.424-0.986-0.424c-0.422,0-0.757,0.106-1.006,0.318c-0.249,0.213-0.424,0.499-0.524,0.86v3.829h-0.603
				v-5.43H413.617z"/>
			<path fill="#FFFFFF" d="M425.65,98.743c-0.037-0.19-0.064-0.354-0.083-0.492c-0.019-0.137-0.027-0.277-0.027-0.421
				c-0.188,0.294-0.45,0.538-0.788,0.729c-0.338,0.192-0.726,0.289-1.164,0.289c-0.532,0-0.944-0.142-1.237-0.424
				c-0.293-0.283-0.438-0.667-0.438-1.152c0-0.484,0.212-0.878,0.637-1.179s0.977-0.452,1.656-0.452h1.335v-0.672
				c0-0.388-0.123-0.692-0.369-0.913s-0.593-0.331-1.041-0.331c-0.412,0-0.744,0.1-0.996,0.301c-0.253,0.2-0.379,0.453-0.379,0.758
				h-0.558l-0.01-0.03c-0.02-0.408,0.155-0.767,0.524-1.076c0.37-0.31,0.853-0.464,1.448-0.464c0.595,0,1.073,0.151,1.435,0.456
				s0.542,0.741,0.542,1.31v2.67c0,0.19,0.011,0.376,0.032,0.557c0.022,0.181,0.059,0.359,0.108,0.537H425.65z M423.653,98.316
				c0.461,0,0.861-0.109,1.199-0.328c0.338-0.22,0.566-0.501,0.688-0.846v-1.039h-1.34c-0.489,0-0.892,0.116-1.21,0.349
				c-0.317,0.232-0.477,0.513-0.477,0.841c0,0.308,0.102,0.556,0.304,0.742C423.02,98.222,423.298,98.316,423.653,98.316z"/>
			<path fill="#FFFFFF" d="M430.989,97.353c0-0.255-0.105-0.477-0.314-0.665c-0.209-0.189-0.586-0.344-1.131-0.464
				c-0.643-0.134-1.12-0.317-1.433-0.55c-0.313-0.232-0.47-0.558-0.47-0.977c0-0.414,0.175-0.766,0.524-1.054
				c0.35-0.287,0.813-0.431,1.388-0.431c0.605,0,1.089,0.152,1.45,0.459c0.361,0.306,0.533,0.683,0.517,1.131l-0.01,0.03h-0.557
				c0-0.298-0.128-0.557-0.385-0.777c-0.256-0.221-0.594-0.331-1.016-0.331c-0.435,0-0.763,0.095-0.983,0.286
				c-0.221,0.19-0.331,0.413-0.331,0.667c0,0.247,0.094,0.452,0.283,0.614c0.189,0.163,0.566,0.306,1.132,0.43
				c0.636,0.141,1.116,0.336,1.442,0.587s0.489,0.589,0.489,1.014c0,0.451-0.184,0.818-0.55,1.102
				c-0.366,0.282-0.851,0.424-1.452,0.424c-0.659,0-1.177-0.157-1.554-0.472c-0.376-0.314-0.554-0.689-0.534-1.124l0.01-0.03h0.553
				c0.023,0.392,0.183,0.676,0.479,0.854c0.297,0.177,0.646,0.266,1.047,0.266c0.435,0,0.777-0.097,1.028-0.291
				S430.989,97.624,430.989,97.353z"/>
			<path fill="#FFFFFF" d="M436.224,97.353c0-0.255-0.105-0.477-0.314-0.665c-0.209-0.189-0.586-0.344-1.131-0.464
				c-0.643-0.134-1.12-0.317-1.433-0.55c-0.313-0.232-0.47-0.558-0.47-0.977c0-0.414,0.175-0.766,0.524-1.054
				c0.35-0.287,0.813-0.431,1.388-0.431c0.605,0,1.089,0.152,1.45,0.459c0.361,0.306,0.533,0.683,0.517,1.131l-0.01,0.03h-0.557
				c0-0.298-0.128-0.557-0.385-0.777c-0.256-0.221-0.594-0.331-1.016-0.331c-0.435,0-0.763,0.095-0.983,0.286
				c-0.221,0.19-0.331,0.413-0.331,0.667c0,0.247,0.094,0.452,0.283,0.614c0.189,0.163,0.566,0.306,1.132,0.43
				c0.636,0.141,1.116,0.336,1.442,0.587s0.489,0.589,0.489,1.014c0,0.451-0.184,0.818-0.55,1.102
				c-0.366,0.282-0.851,0.424-1.452,0.424c-0.659,0-1.177-0.157-1.554-0.472c-0.376-0.314-0.554-0.689-0.534-1.124l0.01-0.03h0.553
				c0.023,0.392,0.183,0.676,0.479,0.854c0.297,0.177,0.646,0.266,1.047,0.266c0.435,0,0.777-0.097,1.028-0.291
				S436.224,97.624,436.224,97.353z"/>
			<path fill="#FFFFFF" d="M441.025,95.882h-2.961v-0.507h2.961V95.882z"/>
			<path fill="#FFFFFF" d="M443.032,93.313l0.055,0.894c0.175-0.314,0.406-0.559,0.695-0.732s0.633-0.261,1.031-0.261
				c0.415,0,0.761,0.099,1.039,0.298c0.277,0.199,0.477,0.503,0.597,0.911c0.164-0.378,0.397-0.674,0.7-0.889
				c0.303-0.214,0.668-0.32,1.097-0.32c0.578,0,1.026,0.192,1.342,0.576c0.316,0.385,0.475,0.98,0.475,1.787v3.166h-0.603v-3.177
				c0-0.669-0.118-1.142-0.356-1.417c-0.237-0.276-0.565-0.414-0.983-0.414c-0.458,0-0.813,0.14-1.063,0.419s-0.41,0.64-0.477,1.081
				c0,0.037,0.001,0.074,0.002,0.11c0.002,0.037,0.003,0.084,0.003,0.141v3.257h-0.607v-3.177c0-0.655-0.119-1.124-0.358-1.407
				c-0.239-0.282-0.568-0.424-0.986-0.424c-0.422,0-0.757,0.106-1.006,0.318c-0.249,0.213-0.424,0.499-0.524,0.86v3.829H442.5v-5.43
				H443.032z"/>
			<path fill="#FFFFFF" d="M455.066,98.743c-0.037-0.19-0.064-0.354-0.083-0.492c-0.019-0.137-0.027-0.277-0.027-0.421
				c-0.188,0.294-0.45,0.538-0.788,0.729c-0.338,0.192-0.726,0.289-1.164,0.289c-0.532,0-0.944-0.142-1.237-0.424
				c-0.293-0.283-0.438-0.667-0.438-1.152c0-0.484,0.212-0.878,0.637-1.179s0.977-0.452,1.656-0.452h1.335v-0.672
				c0-0.388-0.123-0.692-0.369-0.913s-0.593-0.331-1.041-0.331c-0.412,0-0.744,0.1-0.996,0.301c-0.253,0.2-0.379,0.453-0.379,0.758
				h-0.558l-0.01-0.03c-0.02-0.408,0.155-0.767,0.524-1.076c0.37-0.31,0.853-0.464,1.448-0.464c0.595,0,1.073,0.151,1.435,0.456
				s0.542,0.741,0.542,1.31v2.67c0,0.19,0.011,0.376,0.032,0.557c0.022,0.181,0.059,0.359,0.108,0.537H455.066z M453.068,98.316
				c0.461,0,0.861-0.109,1.199-0.328c0.338-0.22,0.566-0.501,0.688-0.846v-1.039h-1.34c-0.489,0-0.892,0.116-1.21,0.349
				c-0.317,0.232-0.477,0.513-0.477,0.841c0,0.308,0.102,0.556,0.304,0.742C452.435,98.222,452.713,98.316,453.068,98.316z"/>
			<path fill="#FFFFFF" d="M459.632,93.831l-0.427-0.03c-0.378,0-0.688,0.105-0.931,0.318c-0.242,0.213-0.415,0.504-0.52,0.876
				v3.748h-0.602v-5.43h0.526l0.075,0.903v0.061c0.157-0.335,0.368-0.596,0.633-0.783c0.264-0.188,0.579-0.28,0.943-0.28
				c0.073,0,0.144,0.006,0.211,0.017c0.066,0.013,0.122,0.024,0.165,0.038L459.632,93.831z"/>
			<path fill="#FFFFFF" d="M461.9,96.098h-0.632v2.645h-0.603v-7.828h0.603v4.667h0.571l2.083-2.269h0.702l0.01,0.025l-2.228,2.464
				l2.408,2.915l-0.015,0.025h-0.688L461.9,96.098z"/>
			<path fill="#FFFFFF" d="M467.671,98.848c-0.703,0-1.273-0.248-1.711-0.745c-0.438-0.497-0.658-1.135-0.658-1.914v-0.276
				c0-0.783,0.222-1.429,0.665-1.937c0.443-0.509,0.993-0.763,1.648-0.763c0.659,0,1.169,0.211,1.528,0.635
				c0.359,0.423,0.539,0.992,0.539,1.708v0.467h-3.778v0.166c0,0.618,0.156,1.132,0.469,1.54c0.313,0.408,0.746,0.612,1.298,0.612
				c0.331,0,0.636-0.055,0.913-0.163s0.509-0.255,0.692-0.439l0.256,0.412c-0.19,0.2-0.44,0.367-0.75,0.499
				S468.103,98.848,467.671,98.848z M467.615,93.725c-0.462,0-0.841,0.165-1.139,0.496s-0.472,0.751-0.522,1.26l0.016,0.03h3.111
				v-0.126c0-0.481-0.127-0.879-0.379-1.191C468.449,93.881,468.087,93.725,467.615,93.725z"/>
			<path fill="#FFFFFF" d="M471.836,91.923v1.39h1.194v0.492h-1.194v3.537c0,0.355,0.064,0.606,0.193,0.756
				c0.128,0.148,0.3,0.223,0.514,0.223c0.074,0,0.145-0.004,0.214-0.012c0.068-0.009,0.149-0.023,0.243-0.043l0.09,0.446
				c-0.08,0.04-0.18,0.073-0.298,0.098c-0.119,0.025-0.237,0.038-0.354,0.038c-0.381,0-0.678-0.12-0.891-0.361
				c-0.212-0.241-0.318-0.622-0.318-1.145v-3.537h-0.938v-0.492h0.938v-1.39H471.836z"/>
			<path fill="#FFFFFF" d="M480.256,97.86c-0.174,0.317-0.407,0.562-0.7,0.732s-0.64,0.256-1.041,0.256
				c-0.572,0-1.021-0.194-1.345-0.582c-0.325-0.388-0.487-0.99-0.487-1.807v-3.146h0.603v3.156c0,0.663,0.113,1.138,0.339,1.426
				c0.226,0.287,0.546,0.432,0.961,0.432c0.451,0,0.812-0.102,1.081-0.304c0.27-0.203,0.459-0.479,0.569-0.831v-3.879h0.603v5.43
				h-0.532L480.256,97.86z"/>
			<path fill="#FFFFFF" d="M482.955,93.313l0.055,0.943c0.178-0.331,0.413-0.588,0.708-0.77c0.294-0.183,0.644-0.273,1.048-0.273
				c0.589,0,1.037,0.18,1.346,0.539c0.308,0.359,0.461,0.921,0.461,1.684v3.307h-0.602v-3.302c0-0.622-0.116-1.063-0.349-1.319
				c-0.233-0.258-0.563-0.387-0.991-0.387c-0.429,0-0.773,0.105-1.036,0.316c-0.263,0.21-0.453,0.493-0.57,0.848v3.844h-0.602v-5.43
				H482.955z"/>
			<path fill="#FFFFFF" d="M488.816,91.757h-0.597v-0.843h0.597V91.757z M488.816,98.743h-0.597v-5.43h0.597V98.743z"/>
			<path fill="#FFFFFF" d="M490.889,98.743v-4.938h-0.898v-0.492h0.898V92.52c0-0.545,0.138-0.967,0.412-1.264
				c0.273-0.298,0.657-0.447,1.148-0.447c0.107,0,0.218,0.009,0.331,0.025c0.114,0.017,0.231,0.04,0.352,0.07l-0.08,0.497
				c-0.08-0.021-0.162-0.036-0.246-0.048s-0.183-0.018-0.296-0.018c-0.328,0-0.58,0.104-0.755,0.311
				c-0.176,0.208-0.264,0.499-0.264,0.873v0.793h1.229v0.492h-1.229v4.938H490.889z"/>
			<path fill="#FFFFFF" d="M493.443,95.948c0-0.8,0.219-1.455,0.657-1.967c0.438-0.512,1.019-0.768,1.741-0.768
				c0.726,0,1.308,0.256,1.746,0.768s0.657,1.167,0.657,1.967v0.165c0,0.804-0.219,1.46-0.655,1.97
				c-0.437,0.511-1.016,0.766-1.738,0.766c-0.729,0-1.313-0.255-1.751-0.766c-0.438-0.51-0.657-1.166-0.657-1.97V95.948z
				 M494.045,96.113c0,0.63,0.159,1.158,0.477,1.586c0.318,0.429,0.762,0.643,1.33,0.643c0.559,0,0.998-0.214,1.317-0.643
				c0.319-0.428,0.479-0.956,0.479-1.586v-0.165c0-0.619-0.161-1.145-0.482-1.576c-0.321-0.431-0.763-0.646-1.324-0.646
				c-0.563,0-1.002,0.216-1.32,0.646c-0.317,0.432-0.477,0.957-0.477,1.576V96.113z"/>
			<path fill="#FFFFFF" d="M501.978,93.831l-0.427-0.03c-0.378,0-0.688,0.105-0.931,0.318c-0.242,0.213-0.415,0.504-0.52,0.876
				v3.748h-0.602v-5.43h0.526l0.075,0.903v0.061c0.157-0.335,0.368-0.596,0.633-0.783c0.264-0.188,0.579-0.28,0.943-0.28
				c0.073,0,0.144,0.006,0.211,0.017c0.066,0.013,0.122,0.024,0.165,0.038L501.978,93.831z"/>
			<path fill="#FFFFFF" d="M503.519,93.313l0.055,0.894c0.175-0.314,0.406-0.559,0.695-0.732s0.633-0.261,1.031-0.261
				c0.415,0,0.761,0.099,1.039,0.298c0.277,0.199,0.477,0.503,0.597,0.911c0.164-0.378,0.397-0.674,0.7-0.889
				c0.303-0.214,0.668-0.32,1.097-0.32c0.578,0,1.026,0.192,1.342,0.576c0.316,0.385,0.475,0.98,0.475,1.787v3.166h-0.603v-3.177
				c0-0.669-0.118-1.142-0.356-1.417c-0.237-0.276-0.565-0.414-0.983-0.414c-0.458,0-0.813,0.14-1.063,0.419s-0.41,0.64-0.477,1.081
				c0,0.037,0.001,0.074,0.002,0.11c0.002,0.037,0.003,0.084,0.003,0.141v3.257h-0.607v-3.177c0-0.655-0.119-1.124-0.358-1.407
				c-0.239-0.282-0.568-0.424-0.986-0.424c-0.422,0-0.757,0.106-1.006,0.318c-0.249,0.213-0.424,0.499-0.524,0.86v3.829h-0.603
				v-5.43H503.519z"/>
			<path fill="#FFFFFF" d="M512.786,91.757h-0.597v-0.843h0.597V91.757z M512.786,98.743h-0.597v-5.43h0.597V98.743z"/>
			<path fill="#FFFFFF" d="M515.386,91.923v1.39h1.194v0.492h-1.194v3.537c0,0.355,0.064,0.606,0.193,0.756
				c0.128,0.148,0.3,0.223,0.514,0.223c0.074,0,0.145-0.004,0.214-0.012c0.068-0.009,0.149-0.023,0.243-0.043l0.09,0.446
				c-0.08,0.04-0.18,0.073-0.298,0.098c-0.119,0.025-0.237,0.038-0.354,0.038c-0.381,0-0.678-0.12-0.891-0.361
				c-0.212-0.241-0.318-0.622-0.318-1.145v-3.537h-0.938v-0.492h0.938v-1.39H515.386z"/>
			<path fill="#FFFFFF" d="M519.295,97.272l0.191,0.647h0.029l1.642-4.606h0.672l-2.358,6.298c-0.141,0.368-0.322,0.681-0.547,0.938
				c-0.224,0.258-0.552,0.386-0.983,0.386c-0.07,0-0.155-0.007-0.256-0.022c-0.101-0.015-0.174-0.03-0.221-0.047l0.07-0.502
				c0.04,0.007,0.104,0.014,0.193,0.022c0.088,0.008,0.152,0.013,0.192,0.013c0.262,0,0.471-0.093,0.628-0.279
				c0.157-0.186,0.291-0.424,0.401-0.715l0.286-0.732l-2.098-5.359h0.667L519.295,97.272z"/>
			<path fill="#FFFFFF" d="M522.979,98.743h-0.688V97.92h0.688V98.743z"/>
		</g>
	</g>
</g>
</svg>
