<?xml version="1.0" encoding="UTF-8"?>
<!DOCTYPE svg PUBLIC "-//W3C//DTD SVG 1.1//EN" "http://www.w3.org/Graphics/SVG/1.1/DTD/svg11.dtd">
<!-- Creator: CorelDRAW X7 -->
<svg xmlns="http://www.w3.org/2000/svg" xml:space="preserve" width="240mm" height="240mm" version="1.1" style="shape-rendering:geometricPrecision; text-rendering:geometricPrecision; image-rendering:optimizeQuality; fill-rule:evenodd; clip-rule:evenodd"
viewBox="0 0 24000 24000"
 xmlns:xlink="http://www.w3.org/1999/xlink">
 <defs>
  <style type="text/css">
   <![CDATA[
    .str0 {stroke:white;stroke-width:186.27;stroke-linecap:round;stroke-linejoin:round}
    .fil2 {fill:none}
    .fil3 {fill:#00B498}
    .fil1 {fill:#E85C59}
    .fil0 {fill:#F06460}
    .fil4 {fill:#F9CC9F}
   ]]>
  </style>
   <clipPath id="id0">
    <path d="M12029 1502c5766,0 10441,4626 10441,10332 0,5706 -4675,10332 -10441,10332 -5767,0 -10441,-4626 -10441,-10332 0,-5706 4674,-10332 10441,-10332z"/>
   </clipPath>
 </defs>
 <g id="Capa_x0020_1">
  <metadata id="CorelCorpID_0Corel-Layer"/>
  <path class="fil0" d="M11992 608c6275,0 11362,5034 11362,11243 0,6210 -5087,11243 -11362,11243 -6275,0 -11362,-5033 -11362,-11243 0,-6209 5087,-11243 11362,-11243zm0 528c5980,0 10828,4797 10828,10715 0,5918 -4848,10715 -10828,10715 -5980,0 -10828,-4797 -10828,-10715 0,-5918 4848,-10715 10828,-10715z"/>
  <path class="fil0" d="M12029 1502c5766,0 10441,4626 10441,10332 0,5706 -4675,10332 -10441,10332 -5767,0 -10441,-4626 -10441,-10332 0,-5706 4674,-10332 10441,-10332z"/>
  <g style="clip-path:url(#id0)">
   <g id="_663270725952">
    <polygon id="1" class="fil1" points="19147,6858 42676,28863 33574,39976 4568,16875 4617,7575 12280,2856 "/>
   </g>
  </g>
  <path class="fil2" d="M12029 1502c5766,0 10441,4626 10441,10332 0,5706 -4675,10332 -10441,10332 -5767,0 -10441,-4626 -10441,-10332 0,-5706 4674,-10332 10441,-10332z"/>
  <path class="fil3 str0" d="M12260 7934c2074,157 3829,1980 3639,4265 -174,2085 -1971,3801 -4265,3629 -2071,-156 -3811,-1986 -3629,-4266 165,-2076 1972,-3800 4255,-3628z"/>
  <path class="fil3 str0" d="M4786 7028c-1584,498 -856,2933 783,2446 1545,-459 917,-2980 -783,-2446z"/>
  <path class="fil3 str0" d="M18519 14703c-1692,385 -1133,2829 531,2503 1610,-316 1139,-2882 -531,-2503z"/>
  <path class="fil3 str0" d="M18325 7037c-1546,540 -858,2926 766,2441 1659,-496 850,-3006 -766,-2441z"/>
  <g id="_663270722208">
   <path class="fil3 str0" d="M11772 18389c-1638,570 -792,2938 769,2444 1636,-518 836,-3002 -769,-2444z"/>
   <path class="fil3 str0" d="M11888 3131c-1744,486 -1022,2872 634,2475 586,-141 1082,-821 877,-1588 -148,-557 -746,-1101 -1511,-887z"/>
  </g>
  <path class="fil3 str0" d="M4947 14689c-1629,336 -1225,2864 531,2509 588,-119 1123,-770 957,-1531 -133,-609 -727,-1134 -1488,-978z"/>
  <path class="fil4 str0" d="M6568 9308c456,295 913,511 1391,827 165,-141 229,-288 307,-504l-1415 -794 -283 471z"/>
  <path class="fil4 str0" d="M11806 5963c-29,543 11,1046 -27,1618 205,73 364,56 590,16l-13 -1622 -550 -12z"/>
  <path class="fil4 str0" d="M6885 15418c492,-231 917,-504 1438,-742 -32,-214 -122,-347 -264,-527l-1423 778 249 491z"/>
  <path class="fil4 str0" d="M11818 16233c-29,544 10,1047 -27,1619 204,73 364,56 590,16l-13 -1622 -550 -13z"/>
  <path class="fil4 str0" d="M17143 8837c-483,249 -897,539 -1409,796 40,213 136,342 285,517l1392 -832 -268 -481z"/>
  <path class="fil4 str0" d="M17292 14905c-453,-301 -906,-522 -1380,-845 -167,139 -233,285 -314,500l1404 813 290 -468z"/>
  <rect class="fil4 str0" x="18578" y="9909" width="451" height="4337"/>
  <rect class="fil4 str0" x="4686" y="9911" width="451" height="4337"/>
  <rect class="fil4 str0" transform="matrix(3.6371 5.92589 -5.74 3.523 10228.3 4518.42)" width="64.8" height="643.93"/>
  <rect class="fil4 str0" transform="matrix(3.6371 5.92589 -5.74 3.523 17371.7 16808.3)" width="64.8" height="643.93"/>
  <rect class="fil4 str0" transform="matrix(3.58445 -5.95788 5.77098 3.47201 13764.3 4946.1)" width="64.8" height="643.93"/>
  <rect class="fil4 str0" transform="matrix(3.58445 -5.95788 5.77098 3.47201 6550.05 17146.8)" width="64.8" height="643.93"/>
  <path class="fil4 str0" d="M11493 9642c-160,-116 48,-143 -352,-333 -172,-81 -234,-100 -294,-221 -72,-142 8,21 -24,-61 -80,-234 -1036,759 -1138,879 -215,253 -290,440 -31,705 147,150 39,345 172,484 161,170 565,277 781,358 78,141 454,419 606,540 201,160 123,41 358,42 -49,211 -305,273 71,725 73,87 161,135 270,188 -24,370 -245,1671 -111,1913 4,9 11,20 17,28 349,490 186,-183 226,-276 66,-156 60,-360 209,-536 152,-181 465,-367 642,-642 299,-466 545,-23 781,-687 51,-144 -189,-159 -128,-291l-669 -258c-72,-172 -32,-189 -260,-279 -351,-139 -313,-191 -709,-182 -134,3 106,-120 -166,-9 -420,152 -591,125 -765,-292 166,-403 68,-145 -200,-173 -103,-133 -108,-164 -70,-332 165,-61 390,-95 588,-74l152 -109c305,-448 626,-357 893,-726 -211,-70 -113,-147 -330,-194 231,-251 339,45 586,-276 -185,-265 -233,-135 -375,-558 -139,85 -32,89 -153,109 -154,27 -63,-16 -111,-101 -36,-65 52,-176 -387,-235 8,103 4,176 5,263 0,132 25,139 24,215 0,46 -85,362 -108,396z"/>
  <path class="fil4 str0" d="M14564 11803c48,146 85,429 131,611 54,214 80,466 201,613 133,-454 212,-1000 152,-1530 -29,-261 -111,-793 -300,-983 -192,-192 -43,-12 -147,-235 -204,17 -673,36 -779,155 -246,275 -611,723 -394,1036 49,71 203,219 266,236 167,46 454,-58 870,97z"/>
 </g>
</svg>
