<?xml version="1.0" encoding="UTF-8"?>
<!DOCTYPE svg PUBLIC "-//W3C//DTD SVG 1.1//EN" "http://www.w3.org/Graphics/SVG/1.1/DTD/svg11.dtd">
<!-- Creator: CorelDRAW X7 -->
<svg xmlns="http://www.w3.org/2000/svg" xml:space="preserve" width="240mm" height="240mm" version="1.1" style="shape-rendering:geometricPrecision; text-rendering:geometricPrecision; image-rendering:optimizeQuality; fill-rule:evenodd; clip-rule:evenodd"
viewBox="0 0 24000 24000"
 xmlns:xlink="http://www.w3.org/1999/xlink">
 <defs>
  <style type="text/css">
   <![CDATA[
    .str0 {stroke:white;stroke-width:169.33}
    .str1 {stroke:white;stroke-width:169.33;stroke-linecap:round;stroke-linejoin:round}
    .fil2 {fill:none}
    .fil3 {fill:#00B498}
    .fil4 {fill:#317460}
    .fil1 {fill:#E85C59}
    .fil0 {fill:#F06460}
    .fil5 {fill:#F9CC9F}
    .fil7 {fill:#FBECCF}
    .fil6 {fill:white}
   ]]>
  </style>
   <clipPath id="id0">
    <path d="M11930 1324c5831,0 10558,4678 10558,10449 0,5770 -4727,10448 -10558,10448 -5831,0 -10558,-4678 -10558,-10448 0,-5771 4727,-10449 10558,-10449z"/>
   </clipPath>
 </defs>
 <g id="Capa_x0020_1">
  <metadata id="CorelCorpID_0Corel-Layer"/>
  <path class="fil0" d="M11892 421c6346,0 11489,5090 11489,11369 0,6279 -5143,11369 -11489,11369 -6345,0 -11489,-5090 -11489,-11369 0,-6279 5144,-11369 11489,-11369zm0 534c6047,0 10949,4851 10949,10835 0,5984 -4902,10834 -10949,10834 -6046,0 -10948,-4850 -10948,-10834 0,-5984 4902,-10835 10948,-10835z"/>
  <path class="fil0" d="M11930 1324c5831,0 10558,4678 10558,10449 0,5770 -4727,10448 -10558,10448 -5831,0 -10558,-4678 -10558,-10448 0,-5771 4727,-10449 10558,-10449z"/>
  <g style="clip-path:url(#id0)">
   <g id="_663393371024">
    <polygon id="1" class="fil1" points="42920,28992 33716,40229 5677,18488 5718,10900 3965,9371 12035,2911 20490,9281 "/>
   </g>
  </g>
  <path class="fil2" d="M11930 1324c5831,0 10558,4678 10558,10449 0,5770 -4727,10448 -10558,10448 -5831,0 -10558,-4678 -10558,-10448 0,-5771 4727,-10449 10558,-10449z"/>
  <path class="fil3 str0" d="M5643 11150c0,824 -77,7130 34,7338l4368 9 -1 -7213 4443 20 -1 7191 4406 -2 5 -8246 2 -83 -13248 14 -8 -465 13253 25 6 -81c-1105,9 -2213,-7 -3319,0 -576,3 -2961,-71 -3311,37 -380,138 -5758,46 -6641,46l12 1410z"/>
  <path class="fil4" d="M14400 11723l73 6661 4406 -2 5 -8246 -6625 0 11 1158c361,35 766,286 1134,288 185,2 368,51 553,49 159,-2 313,3 443,92z"/>
  <polygon class="fil5 str1" points="10045,18497 14486,18495 14487,11304 10044,11284 "/>
  <path class="fil3 str0" d="M4810 9736c134,1 268,0 402,-2 32,-1 212,-3 231,0l14491 37 -6540 -509c-936,-18 -2830,-675 -2840,-1640 -11,-984 1863,-1675 2819,-1692l-1106 -2251c-315,194 -661,508 -948,744 -298,244 -631,508 -924,747 -398,324 -5498,4406 -5585,4566z"/>
  <path class="fil4" d="M12294 5859c2284,202 2163,3305 -22,3421l0 414 7475 -15c-226,-257 -7460,-5995 -7480,-6000l27 2180z"/>
  <path class="fil5 str1" d="M4450 9928c103,-101 226,-208 360,-266 87,-158 5187,-4190 5585,-4510 293,-236 626,-497 924,-738 287,-233 633,-543 948,-735 20,5 7241,5717 7467,5974l406 288c145,-160 299,-390 427,-500 -36,-156 -69,-156 -219,-270 -1235,-944 -2634,-2125 -3891,-3116 -703,-555 -1353,-1096 -2075,-1660 -225,-175 -1934,-1581 -2118,-1668l-8299 6644c98,217 339,509 485,557z"/>
  <polygon class="fil5 str0" points="6385,16458 9342,16457 9341,11291 6387,11291 "/>
  <polygon class="fil5 str0" points="15200,16461 18139,16448 18138,11298 15198,11298 "/>
  <path class="fil6" d="M10778 16332l2 1422 2940 -20c43,-603 26,-1484 8,-2103l-2958 -7 8 708z"/>
  <polygon class="fil6" points="10777,14153 13733,14146 13736,12043 10770,12025 "/>
  <path class="fil6" d="M7115 12644l9 2866 1455 -23c82,-678 40,-2665 40,-3444l-1511 -3 7 604z"/>
  <path class="fil6" d="M15930 12368c7,763 -27,2443 29,3104 477,41 958,16 1436,13 -3,-999 33,-2483 -16,-3431 -364,-54 -1029,-14 -1449,-22l0 336z"/>
  <polygon class="fil7" points="6016,16243 6015,16678 9711,16694 9715,16251 "/>
  <polygon class="fil7 str0" points="14818,16227 14827,16695 18506,16694 18524,16229 "/>
  <g id="_663393362832">
   <path class="fil5 str1" d="M12272 9280c2185,-116 2306,-3219 22,-3421 -956,17 -1751,742 -1740,1715 10,952 782,1688 1718,1706z"/>
   <path class="fil6 str1" d="M12074 8904l17 -1166 -1162 4c45,294 237,649 376,791 137,138 500,322 769,371z"/>
   <path class="fil6 str1" d="M10930 7385l1139 8 17 -1161c-606,84 -1077,550 -1156,1153z"/>
   <path class="fil6 str1" d="M12455 7381l1120 -3c-74,-633 -511,-994 -1112,-1125l-8 1128z"/>
   <path class="fil6 str1" d="M12455 8866c563,-31 1065,-545 1107,-1093l-1102 -12 -5 1105z"/>
  </g>
  <path class="fil7" d="M10598 14557c-447,186 -231,811 274,674 384,-105 231,-884 -274,-674z"/>
  <polygon class="fil5 str1" points="18966,10184 18963,9783 5724,9760 5732,10197 "/>
 </g>
</svg>
