<?xml version="1.0" encoding="utf-8"?>
<!-- Generator: Adobe Illustrator 16.0.3, SVG Export Plug-In . SVG Version: 6.00 Build 0)  -->
<!DOCTYPE svg PUBLIC "-//W3C//DTD SVG 1.1//EN" "http://www.w3.org/Graphics/SVG/1.1/DTD/svg11.dtd">
<svg version="1.1" xmlns="http://www.w3.org/2000/svg" xmlns:xlink="http://www.w3.org/1999/xlink" x="0px" y="0px"
	 width="1732.023px" height="579px" viewBox="0 0 1732.023 579" enable-background="new 0 0 1732.023 579" xml:space="preserve">
<g id="Capa_1" display="none">
</g>
<g id="fermat_BNK">
	<g>
		<text transform="matrix(1 0 0 1 1067.9595 340.1201)" fill="#58595B" font-family="'AquaGrotesque'" font-size="185.5446">MKP</text>
		<g>
			<text transform="matrix(1 0 0 1 1078.3433 383.9131)" fill="#58595B" font-family="'Canaro-LightDEMO'" font-size="38.1218">Marketplace platform</text>
		</g>
		<text transform="matrix(1 0 0 1 552.7856 339.1592)" fill="#58595B" font-family="'Canaro-LightDEMO'" font-size="148.6048">Fermat</text>
	</g>
	<rect fill="none" width="1732.023" height="579"/>
	<g>
		<path fill-rule="evenodd" clip-rule="evenodd" fill="#F06460" d="M293.079,67.083L293.079,67.083 M71.306,286.544
			 M293.079,506.006 M514.853,286.544 M504.424,286.544 M81.734,286.544 M293.079,77.403"/>
		<path fill-rule="evenodd" clip-rule="evenodd" fill="#F06460" d="M89.995,286.211"/>
		<path fill-rule="evenodd" clip-rule="evenodd" fill="#F06460" d="M293.801,84.531"/>
		<g>
			<defs>
				<path id="SVGID_1_" d="M89.995,286.211"/>
			</defs>
			<defs>
				<path id="SVGID_2_" d="M293.801,84.531"/>
			</defs>
			<clipPath id="SVGID_3_">
				<use xlink:href="#SVGID_1_"  overflow="visible"/>
			</clipPath>
			<clipPath id="SVGID_4_" clip-path="url(#SVGID_3_)">
				<use xlink:href="#SVGID_2_"  overflow="visible"/>
			</clipPath>
		</g>
	</g>
	<path fill-rule="evenodd" clip-rule="evenodd" fill="#F06460" d="M294.984,67.083c122.784,0,222.319,98.5,222.319,220.001
		c0,121.507-99.536,220.002-222.319,220.002S72.663,408.592,72.663,287.085C72.663,165.583,172.201,67.083,294.984,67.083
		L294.984,67.083z M294.984,77.428c-117.009,0-211.867,93.867-211.867,209.657c0,115.793,94.858,209.657,211.867,209.657
		s211.867-93.864,211.867-209.657C506.852,171.294,411.994,77.428,294.984,77.428z"/>
	<ellipse fill-rule="evenodd" clip-rule="evenodd" fill="#F06460" cx="296.939" cy="285.802" rx="204.307" ry="202.18"/>
	<g>
		<defs>
			<ellipse id="SVGID_5_" cx="296.939" cy="285.802" rx="204.307" ry="202.18"/>
		</defs>
		<clipPath id="SVGID_6_">
			<use xlink:href="#SVGID_5_"  overflow="visible"/>
		</clipPath>
		<g clip-path="url(#SVGID_6_)">
			<polygon fill-rule="evenodd" clip-rule="evenodd" fill="#E85C59" points="797.078,571.427 618.977,788.886 166.752,441.626 
				217.926,325.231 249.589,248.618 265.594,233.858 264.902,212.009 281.872,194.707 324.527,220.488 381.354,150.652 			"/>
		</g>
	</g>
	<path fill-rule="evenodd" clip-rule="evenodd" fill="#317460" d="M213.426,211.7l-0.08,68.221
		c5.439-2.351,7.942-9.14,10.579-11.214c9.189,4.134,11.842,14.556,3.993,22.85c-5.324,5.627-13.576,11.13-14.506,21.98
		l0.059,56.095l111.047,0.361c-2.925-7.738-8.306-9.491-11.076-12.369c0.304-12.928,10.419-14.455,19.33-8.09
		c4.926,3.52,11.052,21.42,14.952,23.478c0.258-0.549,7.162-0.769,7.856-3.928c0.867-3.923-4.477-14.165-4.589-14.961
		c-0.276-1.94-5.076-12.121-6.159-14.723c-9.918-80.457,6.252-36.081,0.004,0c4.837-2.531,19.634-10.316,27.902-12.271
		l-0.126-113.928c-3.117-2.318-5.221-11.313-8.484-14.732c-5.409,4.629-9.233,18.367-16.447,12.332l-3.516-12.552
		c-4.706,6.897-15.327-1.807-19.995-8.849c-12.13,11.375-21.509,14.223-21.556,14.05c-0.094-0.349-2.329-4.387-2.526-4.559
		c-4.495,7.169-11.713,8.097-16.55,0.64c-2.058,3.274-5.47,7.79-11.634,7.738c-6.049-0.049-4.771-7.319-7.293-10.471
		c-5.231,8.5-14.521,6.318-19.203-0.893c-2.355,3.524-6.405,8.01-12.055,7.914c-6.037-0.108-11.655,7.234-14.169,4.083
		C217.574,211.03,216.478,210.005,213.426,211.7z"/>
	<path fill-rule="evenodd" clip-rule="evenodd" fill="#F7F5E8" d="M288.896,334.09c29.824,0,54.15-24.326,54.15-54.15
		s-24.326-54.15-54.15-54.15c-29.822,0-54.148,24.326-54.148,54.15S259.074,334.09,288.896,334.09z"/>
	
		<path fill-rule="evenodd" clip-rule="evenodd" fill="#F9CC9F" stroke="#F2EFEF" stroke-width="3" stroke-linecap="round" stroke-linejoin="round" stroke-miterlimit="22.9256" d="
		M372.739,327.13c-8.268,1.954-6.74,3.782-11.582,6.309c-4.861-7.251-7.514-19.405-10.073-30.119
		c-1.631-6.839-3.225-13.097-5.329-17.12c-1.509-2.883-5.625-2.245-8.357-1.375c-6.065,1.929-4.509,8.797-2.681,16.822l3.192,13.991
		c1.856,8.15,5.484,20.281,6.928,23.764c1.092,2.634,13.476,31.483,2.887,30.382c-3.899-2.058-10.026-16.729-14.952-20.248
		c-8.91-6.365-19.025-4.838-19.33,8.09c2.77,2.878,8.151,4.631,11.076,12.369c3.051,2.737,7.03,11.038,8.985,15.351
		c-5.015,0-46.81-8.967-51.406-7.214l51.406,7.214c3.333,9.224,12.641,21.438,19.109,27.846c5.296,5.255,5.292,7.691,8.488,14.601
		c2.663,5.746,5.784,11.08,6.103,18.115c4.551-2.269,19.217-5.845,24.476-6.608l36.151-9.562c-2.821-24.289-2.226-7.448-1.537-31.83
		c0.323-11.334-1.416-20.586-2.104-31.525c-1.209-19.255-5.498-44.81-27.982-36.457c-3.928-5.066-7.813-4.696-14.826-2.831
		l-5.25-114.588l4.649,1.601c1.097,0.958,0.544,75.352,0.544,86.899C381.326,335.843,383.702,330.438,372.739,327.13z"/>
	
		<path fill-rule="evenodd" clip-rule="evenodd" fill="#F9CC9F" stroke="#F2EFEF" stroke-width="3" stroke-linecap="round" stroke-linejoin="round" stroke-miterlimit="22.9256" d="
		M158.556,355.833c3.408,4.674,6.785,10.8,10.202,16.645c2.918,4.987,7.802,12.444,10.087,17.591l11.479,18.716
		c3.883-4.505,12.871-7.04,18.425-9.769c14.809-7.279,18.401,2.419,49.92-4.771l21.137-8.16l-75.62-0.164
		c-1.664-5.386-0.652-14.651-0.673-20.623c-0.038-10.996-1.012-8.798,3.883-16.518c12.569-19.808-8.057-27.021,20.522-57.223
		c7.849-8.294,5.196-18.716-3.993-22.85c-2.637,2.074-5.14,8.863-10.579,11.214c-2.92,2.875-6.473,3.757-9.064,6.217l0.769-72.507
		l4.781,4.753l1.113,63.578c-5.348,1.997-20.141,15.273-23.487,19.027c-4.162,4.669-7.284,10.64-9.768,18.046
		c-2.5,7.457-3.065,15.51-5.346,22.437C170.958,345.672,163.056,354.934,158.556,355.833z"/>
	<path fill-rule="evenodd" clip-rule="evenodd" fill="#F7F5E8" d="M279.805,386.084l1.847,0.112
		c4.601-1.748,46.836-0.853,51.851-0.853c-1.955-4.313-5.934-12.613-8.985-15.351l-111.047-0.361l-0.059-56.095
		c-4.31,7.799,1.626,23.201-6.016,35.242c-4.896,7.72-3.921,5.521-3.883,16.518c0.021,5.972-0.991,15.237,0.673,20.623
		L279.805,386.084z"/>
	<path fill-rule="evenodd" clip-rule="evenodd" fill="#F7F5E8" d="M223.864,171.953l-11.396-15.02l159.198,0.061
		c0.178,1.758-11.09,4.795-11.052,6.199c0.07,2.613,5.615,33.801,2.644,33.168c-1.322,3.487-0.426-15.69,5.877-9.833l3.478,26.674
		l9.899,6.524l-0.216-68.969l-178.631-0.009l-0.026,72.1c0.842-0.818,7.727-3.867,9.745-9.606
		c1.758-5.001-1.446-12.533,0.715-16.175c5.479-9.233,37.582-2.43,26.044-19.864L223.864,171.953z"/>
	<path fill-rule="evenodd" clip-rule="evenodd" fill="#FEFEFE" d="M427.831,429.735l-36.151,9.562
		c-5.259,0.764-19.925,4.34-24.476,6.608l-5.367,0.797l7.776,28.845c23.909-6.131,54.811-29.064,65.015-39.151l-0.22-8.202
		L427.831,429.735z"/>
	<path fill-rule="evenodd" clip-rule="evenodd" fill="#FEFEFE" d="M134.483,364.435c3.431,5.699,6.164,10.34,9.644,16.357
		c3.3,5.704,7.028,11.319,9.899,16.977l2.486,3.886l14.127,24.214c5.027-1.603,18.148-9.548,21.781-12.585l-2.098-4.499
		l-11.479-18.716c-2.285-5.146-7.169-12.604-10.087-17.591c-3.417-5.845-6.794-11.967-10.202-16.645l-1.753-3.876
		C149.623,354.605,141.699,361.411,134.483,364.435z"/>
	<path fill-rule="evenodd" clip-rule="evenodd" fill="#F7F5E8" d="M372.739,327.13c10.963,3.309,8.592,8.713,8.592-26.126
		c0-11.549,0.492-87.434-0.609-88.39l-8.109,0.588L372.739,327.13z"/>
	
		<path fill-rule="evenodd" clip-rule="evenodd" fill="#00B498" stroke="#FFFFFF" stroke-width="3" stroke-linecap="round" stroke-linejoin="round" stroke-miterlimit="22.9256" d="
		M366.768,168.201c-5.17-4.258-11.91-1.254-19.114-2.191l12.927,33.255l0.759,7.765c4.818,9.09,23.356,5.214,18.612-7.567
		l-3.984-9.037l-3.853-6.529c-1.964-4.249-5.578-9.838-6.548-13.607C365.483,169.957,366.805,168.489,366.768,168.201z"/>
	<g>
		<path fill-rule="evenodd" clip-rule="evenodd" fill="#00B498" d="M315.884,166.364c0.543,3.886,5.371,31.469,6.431,33.543
			l0.225,7.117c4.303,6.489,14.488,6.351,18.819,0l-0.202-7.471l-9.674-33.185l16.17-0.358l-16.17,0.358
			C326.726,167.465,321.105,166.148,315.884,166.364L315.884,166.364z M225.022,206.373c2.449-15.008,9.59-28.266,11.387-39.833
			l16.339-0.162c-0.778,3.138-8.992,33.871-7.886,33.841l-0.234,6.199c4.312,6.644,14.434,7.928,19.252,0.096l-0.126-6.642
			c1.397-10.905,3.352-22.463,4.636-33.539c-6.107-0.176-10.75,0.34-16.175-0.874c-5.071-0.157-11.361-1.701-15.805,1.081
			c-3.407-0.422-7.143-0.48-10.619-0.326c-3.288,0.15-2.21,0.234-4.584,0.844c-2.491-0.075,1.083,0.091-3.208,0.426l1.474,2.648
			c-4.396,8.263-9.215,18.176-12.344,27.223c-0.265,0.766-0.518,1.525-0.757,2.278C203.183,212.45,220.508,215.14,225.022,206.373
			L225.022,206.373z M244.863,200.219l18.891-0.347C257.366,199.963,251.221,200.132,244.863,200.219L244.863,200.219z
			 M283.482,206.577c4.458,6.869,14.919,7.047,19.058,0.443l0.155-7.141l-0.052-0.469l-2.606-33.344l-15.791,0.12l-0.708,33.347
			l-0.014,0.731L283.482,206.577z"/>
		
			<path fill-rule="evenodd" clip-rule="evenodd" fill="none" stroke="#FFFFFF" stroke-width="3" stroke-linecap="round" stroke-linejoin="round" stroke-miterlimit="22.9256" d="
			M315.884,166.364c0.543,3.886,5.371,31.469,6.431,33.543l0.225,7.117c4.303,6.489,14.488,6.351,18.819,0l-0.202-7.471
			l-9.674-33.185l16.17-0.358l-16.17,0.358C326.726,167.465,321.105,166.148,315.884,166.364L315.884,166.364z M225.022,206.373
			c2.449-15.008,9.59-28.266,11.387-39.833l16.339-0.162c-0.778,3.138-8.992,33.871-7.886,33.841l-0.234,6.199
			c4.312,6.644,14.434,7.928,19.252,0.096l-0.126-6.642c1.397-10.905,3.352-22.463,4.636-33.539
			c-6.107-0.176-10.75,0.34-16.175-0.874c-5.071-0.157-11.361-1.701-15.805,1.081c-3.407-0.422-7.143-0.48-10.619-0.326
			c-3.288,0.15-2.21,0.234-4.584,0.844c-2.491-0.075,1.083,0.091-3.208,0.426l1.474,2.648c-4.396,8.263-9.215,18.176-12.344,27.223
			c-0.265,0.766-0.518,1.525-0.757,2.278C203.183,212.45,220.508,215.14,225.022,206.373L225.022,206.373z M244.863,200.219
			c6.358-0.087,12.503-0.255,18.891-0.347 M283.482,206.577c4.458,6.869,14.919,7.047,19.058,0.443l0.155-7.141l-0.052-0.469
			l-2.606-33.344l-15.791,0.12l-0.708,33.347l-0.014,0.731L283.482,206.577z"/>
	</g>
	
		<path fill-rule="evenodd" clip-rule="evenodd" fill="#F9CC9F" stroke="#FFFFFF" stroke-width="3" stroke-linecap="round" stroke-linejoin="round" stroke-miterlimit="22.9256" d="
		M244.888,199.532l7.86-33.154l-16.339,0.162l-10.766,33.616c-0.628,1.969-0.593,4.102-0.621,6.218
		c2.318,2.903,4.113,5.287,9.672,5.383c5.208,0.092,7.764-2.09,9.935-5.336L244.888,199.532L244.888,199.532z M341.359,207.024
		l2.043,2.018c6.646,5.559,12.96,2.25,17.938-2.013l-0.759-7.765l-12.927-33.255l-16.17,0.361l9.674,33.183L341.359,207.024
		L341.359,207.024z M302.643,199.408l0.052,0.471l-0.155,7.139c0.183,0.159,0.431,0.188,0.52,0.508
		c0.042,0.16,8.306,9.979,19.48-0.501l-0.225-7.117c-1.06-2.074-5.887-29.658-6.431-33.543l-15.847-0.298L302.643,199.408
		L302.643,199.408z M263.754,199.872l0.126,6.642c2.325,2.906,4.141,5.193,9.714,5.24c5.676,0.047,7.994-2.161,9.887-5.177
		l0.042-6.313l0.014-0.731l0.708-33.347l-15.856,0.146C267.105,177.409,265.151,188.97,263.754,199.872z"/>
	<path fill-rule="evenodd" clip-rule="evenodd" fill="#00B498" d="M266.229,169.539c-0.406,3.342-2.892,26.649-3.766,28.444
		l-0.073,6.105c-3.581,5.636-12.318,5.686-16.138,0.312l0.051-6.409l6.508-28.411l0.255-1.315
		C257.794,168.133,261.828,169.314,266.229,169.539z"/>
	<path fill-rule="evenodd" clip-rule="evenodd" fill="#F7F5E8" d="M209.88,168.238l167.658,0.099l-0.487-4.146
		c-0.038-2.271-0.666-7.188-0.854-10.033l-165.373-0.098L209.88,168.238z"/>
	
		<path fill-rule="evenodd" clip-rule="evenodd" fill="#00B498" stroke="#F2EFEF" stroke-width="0.4799" stroke-linecap="round" stroke-linejoin="round" stroke-miterlimit="22.9256" d="
		M154.026,397.769c-2.871-5.657-6.6-11.272-9.899-16.977c-3.48-6.018-6.213-10.658-9.644-16.357l-2.813-3.872l-18.697,11.728
		c14.39,33.808,45.357,62.222,55.868,70.648l7.232-7.246l-5.435-9.824l-14.127-24.214L154.026,397.769z"/>
	<path fill-rule="evenodd" clip-rule="evenodd" fill="#F7F5E8" d="M213.346,279.921l0.038-66.679l-8.333,0.389l-0.769,72.507
		C207.455,283.886,210.426,282.796,213.346,279.921z"/>
	<path fill-rule="evenodd" clip-rule="evenodd" fill="#317460" d="M244.63,263.905l19.96-0.141l5.142,36.447l48.271-0.047
		l3.065-34.551c-1.701-4.528-7.982-2.65-8.155,0.464l-1.261,22.817c-0.028,0.529,0.014,1.584-0.699,2.285
		c-0.267,0.262-1.504,0.73-1.636,0.73c-35.566,0.722-30.701,3.291-32.69-9.524c-4.685-30.176,1.106-27.773-32.505-26.914
		L244.63,263.905z"/>
	<path fill-rule="evenodd" clip-rule="evenodd" fill="#317460" d="M289.871,254.943c-16.759,5.517-7.661,28.659,7.593,23.419
		C312.121,273.326,305.292,249.865,289.871,254.943L289.871,254.943z M291.244,264.523l0.197-6.22l4.063,0.131l-0.122,6.088
		l6.299,0.127l-0.038,4.129l-6.234,0.045l0.014,6.105l-4.12,0.007l0.08-6.016l-6.168-0.188l-0.061-4.204L291.244,264.523z"/>
	<path fill-rule="evenodd" clip-rule="evenodd" fill="#317460" d="M303.201,316.101c3.455,0,6.271-2.816,6.271-6.276
		c0-3.454-2.817-6.271-6.271-6.271c-3.459,0-6.276,2.816-6.276,6.271C296.925,313.284,299.742,316.101,303.201,316.101z"/>
	<path fill-rule="evenodd" clip-rule="evenodd" fill="#317460" d="M282.423,316.653c3.455,0,6.271-2.816,6.271-6.271
		c0-3.46-2.817-6.276-6.271-6.276s-6.271,2.816-6.271,6.276C276.151,313.837,278.968,316.653,282.423,316.653z"/>
</g>
</svg>
