<?xml version="1.0" encoding="utf-8"?>
<!-- Generator: Adobe Illustrator 17.0.0, SVG Export Plug-In . SVG Version: 6.00 Build 0)  -->
<!DOCTYPE svg PUBLIC "-//W3C//DTD SVG 1.1//EN" "http://www.w3.org/Graphics/SVG/1.1/DTD/svg11.dtd">
<svg version="1.1" id="Layer_1" xmlns="http://www.w3.org/2000/svg" xmlns:xlink="http://www.w3.org/1999/xlink" x="0px" y="0px"
	 width="792px" height="612px" viewBox="0 0 792 612" enable-background="new 0 0 792 612" xml:space="preserve">
<g>
	<path fill="#230D68" d="M592.452,378.827c-5.592,65.411-34.21,119.358-121.49,123.086c0,0-55.468,1.316-74.561,1.316
		c-18.543,0-73.929-2.412-73.929-2.412c-64.556-5.263-120.148-37.171-123.437-121.989c0,0-2.193-57.52-2.193-76.693
		c0-18.022,2.193-72.088,2.193-72.088c3.947-72.319,35.745-116.288,121.437-120.016c0,0,58.134-1.535,77.511-1.535
		c18.258,0,73.031,1.535,73.031,1.535c69.464,4.825,116.832,53.049,121.437,120.016c0,0,2.632,46.178,2.632,75.817
		C595.084,324.104,592.452,378.827,592.452,378.827z"/>
	<path fill="#14073C" d="M573.194,263.115l-19.689-19.689l-24.4,23.826l-42.261-42.261l-41.484,41.484l-12.653-12.653l22.873-22.873
		l-33.895-33.895l-9.034-1.613l0.773-0.773l-29.736-29.736l-7.285,3.424l2.876,11.014l-7.588,11.565l19.385,19.385l-8.706,6.714
		l32.743,32.743l-18.726,18.726l-43.513-43.513l-46.951,46.951l41.337,41.337l-56.374,51.093l118.147,118.147
		c21.531-0.294,54.405-1.07,54.812-1.08c66.661-2.849,102.032-38.718,108.096-109.657c0.02-0.421,2.377-49.634,2.377-65.918
		C574.319,293.038,573.767,276.652,573.194,263.115z"/>
	<g>
		<g>
			<defs>
				<circle id="SVGID_1_" cx="329.023" cy="248.018" r="33.091"/>
			</defs>
			<clipPath id="SVGID_2_">
				<use xlink:href="#SVGID_1_"  overflow="visible"/>
			</clipPath>
			<linearGradient id="SVGID_3_" gradientUnits="userSpaceOnUse" x1="225.1167" y1="287.4676" x2="566.8088" y2="287.4676">
				<stop  offset="0" style="stop-color:#FEE506"/>
				<stop  offset="1" style="stop-color:#ED1E79"/>
			</linearGradient>
			<rect x="225.117" y="149.42" clip-path="url(#SVGID_2_)" fill="url(#SVGID_3_)" width="341.692" height="276.095"/>
		</g>
		<g>
			<defs>
				<path id="SVGID_4_" d="M367.764,281.054c-9.341,10.943-23.226,17.891-38.741,17.891h0c-15.516,0-29.401-6.948-38.742-17.892
					l-34.122-36.712c-4.739-5.099-12.714-5.39-17.813-0.651c-5.099,4.739-5.39,12.714-0.651,17.813l53.195,57.233v45.636
					c11.67,8.702,24.484,15.93,38.134,21.543c12.102,4.977,24.856,8.695,38.134,10.882v-78.061l28.807-30.993l-17.208-18.514
					L367.764,281.054z"/>
			</defs>
			<clipPath id="SVGID_5_">
				<use xlink:href="#SVGID_4_"  overflow="visible"/>
			</clipPath>
			<linearGradient id="SVGID_6_" gradientUnits="userSpaceOnUse" x1="225.1167" y1="287.4676" x2="566.8088" y2="287.4676">
				<stop  offset="0" style="stop-color:#FEE506"/>
				<stop  offset="1" style="stop-color:#ED1E79"/>
			</linearGradient>
			<rect x="225.117" y="149.42" clip-path="url(#SVGID_5_)" fill="url(#SVGID_6_)" width="341.692" height="276.095"/>
		</g>
		<g>
			<defs>
				<circle id="SVGID_7_" cx="462.904" cy="248.018" r="33.091"/>
			</defs>
			<clipPath id="SVGID_8_">
				<use xlink:href="#SVGID_7_"  overflow="visible"/>
			</clipPath>
			<linearGradient id="SVGID_9_" gradientUnits="userSpaceOnUse" x1="225.1167" y1="287.4676" x2="566.8088" y2="287.4676">
				<stop  offset="0" style="stop-color:#FEE506"/>
				<stop  offset="1" style="stop-color:#ED1E79"/>
			</linearGradient>
			<rect x="225.117" y="149.42" clip-path="url(#SVGID_8_)" fill="url(#SVGID_9_)" width="341.692" height="276.095"/>
		</g>
		<g>
			<defs>
				<path id="SVGID_10_" d="M553.582,243.689c-5.099-4.739-13.074-4.448-17.813,0.651l-34.124,36.714
					c-9.341,10.943-23.226,17.891-38.741,17.891c-15.516,0-29.402-6.948-38.742-17.892l-10.99-11.824l-17.208,18.514l28.807,30.993
					v78.061c13.279-2.188,26.032-5.906,38.134-10.882c13.65-5.613,26.464-12.842,38.134-21.543v-45.636l53.195-57.233
					C558.973,256.404,558.681,248.429,553.582,243.689z"/>
			</defs>
			<clipPath id="SVGID_11_">
				<use xlink:href="#SVGID_10_"  overflow="visible"/>
			</clipPath>
			<linearGradient id="SVGID_12_" gradientUnits="userSpaceOnUse" x1="225.1167" y1="287.4676" x2="566.8088" y2="287.4676">
				<stop  offset="0" style="stop-color:#FEE506"/>
				<stop  offset="1" style="stop-color:#ED1E79"/>
			</linearGradient>
			<rect x="225.117" y="149.42" clip-path="url(#SVGID_11_)" fill="url(#SVGID_12_)" width="341.692" height="276.095"/>
		</g>
		<g>
			<path fill="#ED1E79" d="M419.701,243.689c-5.099-4.739-13.074-4.448-17.813,0.651l-5.924,6.374l-5.924-6.374
				c-4.739-5.099-12.715-5.39-17.814-0.651c-5.099,4.739-5.39,12.714-0.651,17.813l7.181,7.726l17.208,18.514l17.208-18.514
				l7.181-7.726C425.091,256.404,424.8,248.429,419.701,243.689z"/>
		</g>
		<g>
			<path fill="#FFFFFF" d="M395.963,289.701c-0.545,0-1.063-0.226-1.434-0.623l-24.389-26.24c-2.648-2.849-4.029-6.559-3.886-10.448
				c0.142-3.889,1.79-7.488,4.639-10.135c2.702-2.513,6.222-3.897,9.911-3.897c4.035,0,7.922,1.694,10.668,4.647l4.49,4.834
				l4.49-4.834c5.257-5.656,14.919-6.012,20.581-0.75c2.849,2.647,4.496,6.249,4.639,10.135c0.142,3.889-1.239,7.599-3.888,10.448
				l-24.389,26.24C397.026,289.475,396.508,289.701,395.963,289.701z M380.805,242.274c-2.696,0-5.27,1.013-7.245,2.849
				c-2.082,1.935-3.287,4.566-3.392,7.408c-0.103,2.845,0.906,5.557,2.842,7.637l22.954,24.698l22.954-24.698
				c1.937-2.081,2.945-4.792,2.842-7.637c-0.103-2.842-1.308-5.473-3.39-7.408c-4.169-3.874-11.171-3.61-15.047,0.551l-5.924,6.375
				c-0.742,0.795-2.126,0.795-2.868,0l-5.924-6.375C386.599,243.513,383.755,242.274,380.805,242.274z"/>
		</g>
	</g>
	<g>
		<path fill="#FFFFFF" d="M376.776,164.742l-0.634-2.023c-0.295-0.943-1.388-1.439-2.441-1.11s-1.667,1.361-1.371,2.304
			l4.945,15.783c-0.88-0.094-1.792-0.016-2.69,0.265c-3.5,1.097-5.449,4.823-4.352,8.323c1.097,3.5,4.823,5.449,8.323,4.352
			c3.466-1.086,5.405-4.749,4.379-8.219c-0.004-0.016-0.004-0.032-0.009-0.047l-4.661-14.878c4.895-3.225,9.321,3.362,9.321,3.362
			C386.396,162.724,379.584,163.831,376.776,164.742z"/>
		<path fill="#FFFFFF" d="M420.568,196.347l-16.825-7.024c-1.14-0.476-2.411-0.031-2.839,0.994l-7.134,17.088
			c-0.686-0.715-1.525-1.306-2.497-1.712c-3.791-1.583-8.147,0.208-9.73,3.999c-1.583,3.791,0.208,8.147,3.999,9.73
			c3.695,1.542,7.918-0.124,9.596-3.719c0.021-0.042,0.05-0.079,0.068-0.123l8.339-19.976l12.697,5.3l-5.646,13.525
			c-0.686-0.715-1.525-1.306-2.497-1.712c-3.791-1.583-8.147,0.208-9.73,3.999c-1.583,3.791,0.208,8.147,3.999,9.73
			c3.695,1.542,7.918-0.124,9.596-3.719c0.021-0.042,0.05-0.079,0.068-0.123l9.827-23.54
			C422.286,198.04,421.709,196.823,420.568,196.347z"/>
	</g>
	<g>
		<path fill="#FFFFFF" d="M396.36,486.629c-16.647,0-66.547-2.165-67.049-2.187c-32.672-2.662-58.866-12.319-77.929-28.706
			c-22.337-19.202-34.377-47.365-35.787-83.708c-0.02-0.522-1.988-52.338-1.988-69.543c0-16.178,1.968-64.885,1.988-65.375
			c1.92-35.183,11.003-60.994,27.768-78.935c18.37-19.659,45.892-30.024,84.137-31.688c0.561-0.015,52.917-1.392,70.293-1.392
			c16.377,0,65.709,1.377,66.205,1.391c31.279,2.17,58.354,13.867,78.383,33.828c19.857,19.791,31.459,46.327,33.55,76.74
			c0.025,0.442,2.389,42.214,2.389,68.81c0,16.38-2.362,65.688-2.386,66.184c-6.271,73.373-42.89,110.438-111.954,113.389
			C463.439,485.449,413.479,486.629,396.36,486.629z M397.793,129.095c-17.324,0-69.627,1.375-70.154,1.39
			c-70.851,3.083-104.185,36.026-108.049,106.815c-0.019,0.461-1.983,49.088-1.983,65.186c0,17.13,1.965,68.869,1.985,69.39
			c3.203,82.589,61.569,104.63,109.969,108.576c0.426,0.017,50.239,2.178,66.8,2.178c17.072,0,66.984-1.179,67.486-1.19
			c66.661-2.849,102.032-38.718,108.096-109.657c0.02-0.421,2.377-49.634,2.377-65.918c0-26.48-2.356-68.141-2.381-68.559
			c-4.168-60.611-46.613-102.552-108.135-106.825C463.391,130.47,414.114,129.095,397.793,129.095z"/>
	</g>
	<path fill="none" d="M463.804,130.48c-0.413-0.01-49.689-1.385-66.011-1.385c-17.324,0-69.627,1.375-70.154,1.39
		c-70.851,3.083-104.185,36.026-108.049,106.815c-0.019,0.461-1.983,49.088-1.983,65.186c0,17.13,1.965,68.869,1.985,69.39
		c3.203,82.589,61.569,104.63,109.969,108.576c0.426,0.017,50.239,2.178,66.8,2.178c3.233,0,7.645-0.042,12.674-0.111
		L290.888,364.371l56.374-51.093l-41.337-41.337l46.951-46.951l43.513,43.513l25.5-25.5l23.471,23.471l41.484-41.484l42.261,42.261
		l24.4-23.826l19.689,19.689c-0.61-14.412-1.243-25.595-1.255-25.81C567.771,176.693,525.325,134.753,463.804,130.48z"/>
</g>
</svg>
