<?xml version="1.0" encoding="utf-8"?>
<!-- Generator: Adobe Illustrator 17.0.0, SVG Export Plug-In . SVG Version: 6.00 Build 0)  -->
<!DOCTYPE svg PUBLIC "-//W3C//DTD SVG 1.1//EN" "http://www.w3.org/Graphics/SVG/1.1/DTD/svg11.dtd">
<svg version="1.1" id="Layer_1" xmlns="http://www.w3.org/2000/svg" xmlns:xlink="http://www.w3.org/1999/xlink" x="0px" y="0px"
	 width="792px" height="612px" viewBox="0 0 792 612" enable-background="new 0 0 792 612" xml:space="preserve">
<g>
	<path fill="#3C3C3A" d="M630.926,506.762c0,18.777-15.221,33.998-33.998,33.998H194.821c-18.777,0-33.998-15.221-33.998-33.998
		V104.654c0-18.777,15.221-33.998,33.998-33.998h402.107c18.777,0,33.998,15.221,33.998,33.998V506.762z"/>
	<linearGradient id="SVGID_1_" gradientUnits="userSpaceOnUse" x1="236.727" y1="30.058" x2="555.0214" y2="581.36">
		<stop  offset="0" style="stop-color:#FAEF42"/>
		<stop  offset="1" style="stop-color:#76C4EF"/>
	</linearGradient>
	<path fill="url(#SVGID_1_)" d="M596.927,550.422H194.821c-24.074,0-43.66-19.588-43.66-43.662V104.654
		c0-24.072,19.586-43.658,43.66-43.658h402.106c24.074,0,43.658,19.586,43.658,43.658V506.76
		C640.585,530.834,621.002,550.422,596.927,550.422z M194.821,80.316c-13.422,0-24.34,10.918-24.34,24.338V506.76
		c0,13.422,10.918,24.342,24.34,24.342h402.106c13.422,0,24.338-10.92,24.338-24.342V104.654c0-13.42-10.916-24.338-24.338-24.338
		H194.821z"/>
</g>
<g>
	<defs>
		<circle id="SVGID_2_" cx="315.228" cy="268.2" r="39.866"/>
	</defs>
	<clipPath id="SVGID_3_">
		<use xlink:href="#SVGID_2_"  overflow="visible"/>
	</clipPath>
	<linearGradient id="SVGID_4_" gradientUnits="userSpaceOnUse" x1="272.4029" y1="101.8684" x2="519.3439" y2="529.5829">
		<stop  offset="0" style="stop-color:#FAEF42"/>
		<stop  offset="0.0528" style="stop-color:#F2EC4C"/>
		<stop  offset="0.5162" style="stop-color:#B0D7A3"/>
		<stop  offset="0.8424" style="stop-color:#86C9DA"/>
		<stop  offset="1" style="stop-color:#76C4EF"/>
	</linearGradient>
	<rect x="190.049" y="149.415" clip-path="url(#SVGID_3_)" fill="url(#SVGID_4_)" width="411.648" height="332.621"/>
</g>
<g>
	<defs>
		<circle id="SVGID_5_" cx="476.52" cy="268.2" r="39.866"/>
	</defs>
	<clipPath id="SVGID_6_">
		<use xlink:href="#SVGID_5_"  overflow="visible"/>
	</clipPath>
	<linearGradient id="SVGID_7_" gradientUnits="userSpaceOnUse" x1="272.4029" y1="101.8684" x2="519.3439" y2="529.5829">
		<stop  offset="0" style="stop-color:#FAEF42"/>
		<stop  offset="0.0528" style="stop-color:#F2EC4C"/>
		<stop  offset="0.5162" style="stop-color:#B0D7A3"/>
		<stop  offset="0.8424" style="stop-color:#86C9DA"/>
		<stop  offset="1" style="stop-color:#76C4EF"/>
	</linearGradient>
	<rect x="190.049" y="149.415" clip-path="url(#SVGID_6_)" fill="url(#SVGID_7_)" width="411.648" height="332.621"/>
</g>
<g>
	<defs>
		<path id="SVGID_8_" d="M394.146,317.665l-20.614-22.179L361.901,308c-11.253,13.184-27.981,21.553-46.673,21.553h0
			c-18.692,0-35.421-8.37-46.674-21.555l-41.109-44.229c-5.709-6.143-15.317-6.494-21.46-0.784
			c-6.143,5.71-6.494,15.317-0.785,21.46l64.086,68.95v54.979c14.059,10.483,29.497,19.191,45.942,25.954
			c14.58,5.995,29.944,10.475,45.941,13.11v-94.043l33.117-35.63C394.244,317.725,394.186,317.708,394.146,317.665z"/>
	</defs>
	<clipPath id="SVGID_9_">
		<use xlink:href="#SVGID_8_"  overflow="visible"/>
	</clipPath>
	<linearGradient id="SVGID_10_" gradientUnits="userSpaceOnUse" x1="272.4029" y1="101.8684" x2="519.3439" y2="529.5829">
		<stop  offset="0" style="stop-color:#FAEF42"/>
		<stop  offset="0.0528" style="stop-color:#F2EC4C"/>
		<stop  offset="0.5162" style="stop-color:#B0D7A3"/>
		<stop  offset="0.8424" style="stop-color:#86C9DA"/>
		<stop  offset="1" style="stop-color:#76C4EF"/>
	</linearGradient>
	<rect x="190.049" y="149.415" clip-path="url(#SVGID_9_)" fill="url(#SVGID_10_)" width="411.648" height="332.621"/>
</g>
<g>
	<defs>
		<path id="SVGID_11_" d="M585.763,262.985c-6.143-5.71-15.751-5.358-21.46,0.784L523.193,308
			c-11.253,13.184-27.981,21.553-46.673,21.553c-18.693,0-35.421-8.37-46.674-21.555l-11.629-12.512l-20.615,22.179
			c-0.04,0.043-0.098,0.06-0.14,0.099l33.117,35.631v94.043c15.997-2.635,31.362-7.115,45.941-13.11
			c16.445-6.763,31.882-15.471,45.941-25.953v-54.979l64.086-68.95C592.257,278.302,591.905,268.694,585.763,262.985z"/>
	</defs>
	<clipPath id="SVGID_12_">
		<use xlink:href="#SVGID_11_"  overflow="visible"/>
	</clipPath>
	<linearGradient id="SVGID_13_" gradientUnits="userSpaceOnUse" x1="272.4029" y1="101.8684" x2="519.3439" y2="529.5829">
		<stop  offset="0" style="stop-color:#FAEF42"/>
		<stop  offset="0.0528" style="stop-color:#F2EC4C"/>
		<stop  offset="0.5162" style="stop-color:#B0D7A3"/>
		<stop  offset="0.8424" style="stop-color:#86C9DA"/>
		<stop  offset="1" style="stop-color:#76C4EF"/>
	</linearGradient>
	<rect x="190.049" y="149.415" clip-path="url(#SVGID_12_)" fill="url(#SVGID_13_)" width="411.648" height="332.621"/>
</g>
<g>
	<defs>
		<path id="SVGID_14_" d="M397.355,275.033c-0.767,0.822-2.197,0.822-2.963,0l-6.12-6.586c-2.072-2.232-5.01-3.513-8.058-3.513
			c-2.786,0-5.445,1.047-7.485,2.944c-2.151,1.999-3.396,4.718-3.505,7.653c-0.107,2.94,0.936,5.741,2.936,7.89l23.714,25.516
			l23.714-25.516c2.001-2.149,3.042-4.951,2.936-7.89c-0.107-2.936-1.351-5.654-3.503-7.653c-4.307-4.002-11.541-3.73-15.546,0.569
			L397.355,275.033z"/>
	</defs>
	<clipPath id="SVGID_15_">
		<use xlink:href="#SVGID_14_"  overflow="visible"/>
	</clipPath>
	<linearGradient id="SVGID_16_" gradientUnits="userSpaceOnUse" x1="289.9922" y1="128.2327" x2="501.7546" y2="495.0159">
		<stop  offset="0" style="stop-color:#FAEF42"/>
		<stop  offset="0.0528" style="stop-color:#F2EC4C"/>
		<stop  offset="0.5162" style="stop-color:#B0D7A3"/>
		<stop  offset="0.8424" style="stop-color:#86C9DA"/>
		<stop  offset="1" style="stop-color:#76C4EF"/>
	</linearGradient>
	<rect x="219.371" y="169.006" clip-path="url(#SVGID_15_)" fill="url(#SVGID_16_)" width="353.005" height="285.236"/>
</g>
<g>
	<defs>
		<path id="SVGID_17_" d="M372.758,167.874l-0.764-2.437c-0.356-1.136-1.672-1.734-2.94-1.337c-1.268,0.397-2.008,1.64-1.652,2.775
			l5.957,19.014c-1.06-0.114-2.159-0.02-3.241,0.319c-4.217,1.321-6.564,5.81-5.243,10.027s5.81,6.564,10.027,5.243
			c4.175-1.308,6.512-5.722,5.275-9.902c-0.005-0.019-0.005-0.038-0.011-0.057l-5.616-17.925c5.897-3.885,11.229,4.05,11.229,4.05
			C384.348,165.443,376.142,166.777,372.758,167.874z"/>
	</defs>
	<clipPath id="SVGID_18_">
		<use xlink:href="#SVGID_17_"  overflow="visible"/>
	</clipPath>
	<linearGradient id="SVGID_19_" gradientUnits="userSpaceOnUse" x1="272.4029" y1="101.8684" x2="519.3439" y2="529.5829">
		<stop  offset="0" style="stop-color:#FAEF42"/>
		<stop  offset="0.0528" style="stop-color:#F2EC4C"/>
		<stop  offset="0.5162" style="stop-color:#B0D7A3"/>
		<stop  offset="0.8424" style="stop-color:#86C9DA"/>
		<stop  offset="1" style="stop-color:#76C4EF"/>
	</linearGradient>
	<rect x="190.049" y="149.415" clip-path="url(#SVGID_18_)" fill="url(#SVGID_19_)" width="411.648" height="332.621"/>
</g>
<g>
	<defs>
		<path id="SVGID_20_" d="M425.517,205.95l-20.27-8.462c-1.374-0.573-2.905-0.037-3.42,1.197l-8.594,20.587
			c-0.827-0.861-1.837-1.573-3.009-2.062c-4.567-1.907-9.815,0.25-11.722,4.817c-1.907,4.567,0.25,9.815,4.817,11.722
			c4.451,1.858,9.539-0.15,11.561-4.48c0.026-0.051,0.06-0.095,0.082-0.148l10.047-24.066l15.296,6.385l-6.802,16.294
			c-0.827-0.861-1.837-1.573-3.009-2.062c-4.567-1.907-9.815,0.25-11.722,4.817c-1.907,4.567,0.25,9.815,4.817,11.722
			c4.451,1.858,9.539-0.15,11.561-4.48c0.026-0.051,0.06-0.095,0.082-0.148l11.839-28.359
			C427.586,207.989,426.89,206.523,425.517,205.95z"/>
	</defs>
	<clipPath id="SVGID_21_">
		<use xlink:href="#SVGID_20_"  overflow="visible"/>
	</clipPath>
	<linearGradient id="SVGID_22_" gradientUnits="userSpaceOnUse" x1="272.4029" y1="101.8684" x2="519.3439" y2="529.5829">
		<stop  offset="0" style="stop-color:#FAEF42"/>
		<stop  offset="0.0528" style="stop-color:#F2EC4C"/>
		<stop  offset="0.5162" style="stop-color:#B0D7A3"/>
		<stop  offset="0.8424" style="stop-color:#86C9DA"/>
		<stop  offset="1" style="stop-color:#76C4EF"/>
	</linearGradient>
	<rect x="190.049" y="149.415" clip-path="url(#SVGID_21_)" fill="url(#SVGID_22_)" width="411.648" height="332.621"/>
</g>
</svg>
