<?xml version="1.0" encoding="utf-8"?>
<!-- Generator: Adobe Illustrator 17.0.0, SVG Export Plug-In . SVG Version: 6.00 Build 0)  -->
<!DOCTYPE svg PUBLIC "-//W3C//DTD SVG 1.1//EN" "http://www.w3.org/Graphics/SVG/1.1/DTD/svg11.dtd">
<svg version="1.1" id="Layer_1" xmlns="http://www.w3.org/2000/svg" xmlns:xlink="http://www.w3.org/1999/xlink" x="0px" y="0px"
	 width="792px" height="612px" viewBox="0 0 792 612" enable-background="new 0 0 792 612" xml:space="preserve">
<g>
	<path fill="#3C3C3A" d="M588.53,470.656c0,15.39-12.476,27.866-27.866,27.866h-329.58c-15.39,0-27.866-12.476-27.866-27.866
		V141.075c0-15.39,12.476-27.866,27.866-27.866h329.58c15.39,0,27.866,12.476,27.866,27.866V470.656z"/>
	<linearGradient id="SVGID_1_" gradientUnits="userSpaceOnUse" x1="265.4316" y1="79.9334" x2="526.3159" y2="531.7983">
		<stop  offset="0" style="stop-color:#FAEF42"/>
		<stop  offset="1" style="stop-color:#76C4EF"/>
	</linearGradient>
	<path fill="url(#SVGID_1_)" d="M560.664,506.44H231.085c-19.732,0-35.785-16.051-35.785-35.783V141.075
		c0-19.73,16.053-35.783,35.785-35.783h329.579c19.732,0,35.783,16.053,35.783,35.783v329.582
		C596.447,490.388,580.395,506.44,560.664,506.44z M231.085,121.126c-11.001,0-19.95,8.949-19.95,19.948v329.582
		c0,11.001,8.949,19.948,19.95,19.948h329.579c11.001,0,19.948-8.947,19.948-19.948V141.075c0-10.999-8.947-19.948-19.948-19.948
		H231.085z"/>
</g>
<g>
	<g>
		<defs>
			<circle id="SVGID_2_" cx="330.192" cy="314.175" r="32.676"/>
		</defs>
		<clipPath id="SVGID_3_">
			<use xlink:href="#SVGID_2_"  overflow="visible"/>
		</clipPath>
		<linearGradient id="SVGID_4_" gradientUnits="userSpaceOnUse" x1="295.0913" y1="177.8441" x2="497.4919" y2="528.4122">
			<stop  offset="0" style="stop-color:#FAEF42"/>
			<stop  offset="0.0528" style="stop-color:#F2EC4C"/>
			<stop  offset="0.5162" style="stop-color:#B0D7A3"/>
			<stop  offset="0.8424" style="stop-color:#86C9DA"/>
			<stop  offset="1" style="stop-color:#76C4EF"/>
		</linearGradient>
		<rect x="227.592" y="216.815" clip-path="url(#SVGID_3_)" fill="url(#SVGID_4_)" width="337.399" height="272.626"/>
	</g>
	<g>
		<defs>
			<path id="SVGID_5_" d="M419.711,309.9c-5.035-4.68-12.91-4.392-17.59,0.643l-33.694,36.251c-0.049,0.058-0.103,0.125-0.153,0.184
				c-9.222,10.696-22.851,17.484-38.082,17.484h0c-15.321,0-29.032-6.861-38.256-17.667l-33.694-36.251
				c-4.68-5.035-12.555-5.323-17.59-0.643c-5.035,4.68-5.323,12.555-0.643,17.59l52.527,56.514v45.063
				c11.523,8.592,24.177,15.73,37.655,21.273c11.95,4.914,24.543,8.585,37.655,10.745v-77.081l27.143-29.204
				c-0.004-0.003-0.008-0.006-0.012-0.009l25.375-27.301C425.034,322.455,424.746,314.58,419.711,309.9z"/>
		</defs>
		<clipPath id="SVGID_6_">
			<use xlink:href="#SVGID_5_"  overflow="visible"/>
		</clipPath>
		<linearGradient id="SVGID_7_" gradientUnits="userSpaceOnUse" x1="295.0913" y1="177.8441" x2="497.4919" y2="528.4122">
			<stop  offset="0" style="stop-color:#FAEF42"/>
			<stop  offset="0.0528" style="stop-color:#F2EC4C"/>
			<stop  offset="0.5162" style="stop-color:#B0D7A3"/>
			<stop  offset="0.8424" style="stop-color:#86C9DA"/>
			<stop  offset="1" style="stop-color:#76C4EF"/>
		</linearGradient>
		<rect x="227.592" y="216.815" clip-path="url(#SVGID_6_)" fill="url(#SVGID_7_)" width="337.399" height="272.626"/>
	</g>
</g>
<g>
	<defs>
		<circle id="SVGID_8_" cx="461.974" cy="275.123" r="32.676"/>
	</defs>
	<clipPath id="SVGID_9_">
		<use xlink:href="#SVGID_8_"  overflow="visible"/>
	</clipPath>
	<linearGradient id="SVGID_10_" gradientUnits="userSpaceOnUse" x1="294.6732" y1="138.7923" x2="497.0737" y2="489.3604">
		<stop  offset="0" style="stop-color:#FAEF42"/>
		<stop  offset="0.0528" style="stop-color:#F2EC4C"/>
		<stop  offset="0.5162" style="stop-color:#B0D7A3"/>
		<stop  offset="0.8424" style="stop-color:#86C9DA"/>
		<stop  offset="1" style="stop-color:#76C4EF"/>
	</linearGradient>
	<rect x="227.174" y="177.763" clip-path="url(#SVGID_9_)" fill="url(#SVGID_10_)" width="337.399" height="272.626"/>
</g>
<g>
	<defs>
		<path id="SVGID_11_" d="M551.513,270.848c-5.035-4.68-12.91-4.392-17.59,0.643l-33.695,36.253
			c-9.223,10.806-22.934,17.666-38.255,17.666c-15.321,0-29.032-6.861-38.256-17.667l-9.532-10.255l-16.897,18.179
			c-0.033,0.035-0.08,0.049-0.115,0.081l27.144,29.204v77.081c13.112-2.16,25.705-5.831,37.655-10.746
			c13.479-5.543,26.132-12.68,37.655-21.272v-45.063l52.527-56.514C556.835,283.403,556.547,275.528,551.513,270.848z"/>
	</defs>
	<clipPath id="SVGID_12_">
		<use xlink:href="#SVGID_11_"  overflow="visible"/>
	</clipPath>
	<linearGradient id="SVGID_13_" gradientUnits="userSpaceOnUse" x1="294.6732" y1="138.7923" x2="497.0737" y2="489.3604">
		<stop  offset="0" style="stop-color:#FAEF42"/>
		<stop  offset="0.0528" style="stop-color:#F2EC4C"/>
		<stop  offset="0.5162" style="stop-color:#B0D7A3"/>
		<stop  offset="0.8424" style="stop-color:#86C9DA"/>
		<stop  offset="1" style="stop-color:#76C4EF"/>
	</linearGradient>
	<rect x="227.174" y="177.763" clip-path="url(#SVGID_12_)" fill="url(#SVGID_13_)" width="337.399" height="272.626"/>
</g>
<g>
	<defs>
		<path id="SVGID_14_" d="M397.088,280.724c-0.628,0.674-1.801,0.674-2.429,0l-5.016-5.398c-1.699-1.83-4.106-2.879-6.605-2.879
			c-2.283,0-4.463,0.858-6.135,2.413c-1.763,1.639-2.783,3.867-2.872,6.273c-0.087,2.409,0.768,4.705,2.406,6.467l19.437,20.914
			l19.437-20.914c1.64-1.762,2.494-4.058,2.406-6.467c-0.087-2.406-1.108-4.634-2.871-6.273c-3.53-3.281-9.459-3.057-12.742,0.466
			L397.088,280.724z"/>
	</defs>
	<clipPath id="SVGID_15_">
		<use xlink:href="#SVGID_14_"  overflow="visible"/>
	</clipPath>
	<linearGradient id="SVGID_16_" gradientUnits="userSpaceOnUse" x1="309.0899" y1="160.4013" x2="482.657" y2="461.0282">
		<stop  offset="0" style="stop-color:#FAEF42"/>
		<stop  offset="0.0528" style="stop-color:#F2EC4C"/>
		<stop  offset="0.5162" style="stop-color:#B0D7A3"/>
		<stop  offset="0.8424" style="stop-color:#86C9DA"/>
		<stop  offset="1" style="stop-color:#76C4EF"/>
	</linearGradient>
	<rect x="251.206" y="193.82" clip-path="url(#SVGID_15_)" fill="url(#SVGID_16_)" width="289.334" height="233.789"/>
</g>
<g>
	<defs>
		<path id="SVGID_17_" d="M376.928,192.893l-0.626-1.998c-0.292-0.931-1.371-1.421-2.41-1.096s-1.646,1.344-1.354,2.275
			l4.883,15.585c-0.869-0.093-1.77-0.016-2.657,0.262c-3.456,1.083-5.38,4.762-4.297,8.218c1.083,3.456,4.762,5.38,8.218,4.297
			c3.422-1.072,5.337-4.69,4.324-8.116c-0.004-0.016-0.004-0.031-0.009-0.047l-4.603-14.692c4.833-3.184,9.204,3.32,9.204,3.32
			C386.427,190.9,379.701,191.993,376.928,192.893z"/>
	</defs>
	<clipPath id="SVGID_18_">
		<use xlink:href="#SVGID_17_"  overflow="visible"/>
	</clipPath>
	<linearGradient id="SVGID_19_" gradientUnits="userSpaceOnUse" x1="294.6731" y1="138.7923" x2="497.0737" y2="489.3604">
		<stop  offset="0" style="stop-color:#FAEF42"/>
		<stop  offset="0.0528" style="stop-color:#F2EC4C"/>
		<stop  offset="0.5162" style="stop-color:#B0D7A3"/>
		<stop  offset="0.8424" style="stop-color:#86C9DA"/>
		<stop  offset="1" style="stop-color:#76C4EF"/>
	</linearGradient>
	<rect x="227.174" y="177.763" clip-path="url(#SVGID_18_)" fill="url(#SVGID_19_)" width="337.399" height="272.626"/>
</g>
<g>
	<defs>
		<path id="SVGID_20_" d="M420.17,224.101l-16.614-6.936c-1.126-0.47-2.381-0.031-2.803,0.981l-7.044,16.874
			c-0.678-0.706-1.505-1.289-2.466-1.69c-3.743-1.563-8.045,0.205-9.608,3.949s0.205,8.045,3.949,9.608
			c3.648,1.523,7.819-0.123,9.476-3.672c0.021-0.041,0.049-0.078,0.067-0.121l8.234-19.725l12.537,5.234l-5.575,13.355
			c-0.678-0.706-1.505-1.289-2.466-1.69c-3.743-1.563-8.045,0.205-9.608,3.949s0.205,8.045,3.949,9.608
			c3.648,1.523,7.819-0.123,9.476-3.672c0.021-0.041,0.049-0.078,0.067-0.121l9.703-23.244
			C421.866,225.772,421.296,224.571,420.17,224.101z"/>
	</defs>
	<clipPath id="SVGID_21_">
		<use xlink:href="#SVGID_20_"  overflow="visible"/>
	</clipPath>
	<linearGradient id="SVGID_22_" gradientUnits="userSpaceOnUse" x1="294.6732" y1="138.7923" x2="497.0737" y2="489.3604">
		<stop  offset="0" style="stop-color:#FAEF42"/>
		<stop  offset="0.0528" style="stop-color:#F2EC4C"/>
		<stop  offset="0.5162" style="stop-color:#B0D7A3"/>
		<stop  offset="0.8424" style="stop-color:#86C9DA"/>
		<stop  offset="1" style="stop-color:#76C4EF"/>
	</linearGradient>
	<rect x="227.174" y="177.763" clip-path="url(#SVGID_21_)" fill="url(#SVGID_22_)" width="337.399" height="272.626"/>
</g>
<rect x="386.7" y="322.804" transform="matrix(-0.6845 -0.7291 0.7291 -0.6845 440.1836 842.0234)" fill="#3C3C3A" width="31.227" height="5.895"/>
</svg>
