<?xml version="1.0" encoding="utf-8"?>
<!-- Generator: Adobe Illustrator 17.0.0, SVG Export Plug-In . SVG Version: 6.00 Build 0)  -->
<!DOCTYPE svg PUBLIC "-//W3C//DTD SVG 1.1//EN" "http://www.w3.org/Graphics/SVG/1.1/DTD/svg11.dtd">
<svg version="1.1" id="Layer_1" xmlns="http://www.w3.org/2000/svg" xmlns:xlink="http://www.w3.org/1999/xlink" x="0px" y="0px"
	 width="792px" height="612px" viewBox="0 0 792 612" enable-background="new 0 0 792 612" xml:space="preserve">
<path fill="#230D68" d="M609.58,386.103c-6.096,71.301-37.291,130.106-132.43,134.17c0,0-60.463,1.434-81.275,1.434
	c-20.213,0-80.587-2.629-80.587-2.629c-70.37-5.737-130.967-40.518-134.553-132.975c0,0-2.39-62.7-2.39-83.599
	c0-19.645,2.39-78.579,2.39-78.579c4.303-78.831,38.964-126.759,132.373-130.823c0,0,63.369-1.673,84.491-1.673
	c19.902,0,79.608,1.673,79.608,1.673c75.719,5.259,127.353,57.826,132.373,130.823c0,0,2.869,50.337,2.869,82.644
	C612.449,326.453,609.58,386.103,609.58,386.103z"/>
<path fill="#14073C" d="M611.95,283.334l-44.825-44.825l-26.597,25.971l-46.067-46.067l-45.22,45.22l-25.585-25.585l-27.796,27.796
	l-47.431-47.431l-51.179,51.179l45.06,45.059l-61.45,55.694l150.888,150.888c22.477-0.418,45.402-0.962,45.402-0.962
	c95.139-4.064,126.334-62.868,132.43-134.17c0,0,2.869-59.651,2.869-79.534C612.449,301.091,612.247,292.697,611.95,283.334z"/>
<g>
	<g>
		<defs>
			<circle id="SVGID_1_" cx="322.429" cy="243.515" r="36.071"/>
		</defs>
		<clipPath id="SVGID_2_">
			<use xlink:href="#SVGID_1_"  overflow="visible"/>
		</clipPath>
		<linearGradient id="SVGID_3_" gradientUnits="userSpaceOnUse" x1="209.1658" y1="286.517" x2="581.6277" y2="286.517">
			<stop  offset="0" style="stop-color:#FEE506"/>
			<stop  offset="1" style="stop-color:#ED1E79"/>
		</linearGradient>
		<rect x="209.166" y="136.038" clip-path="url(#SVGID_2_)" fill="url(#SVGID_3_)" width="372.462" height="300.958"/>
	</g>
	<g>
		<defs>
			<path id="SVGID_4_" d="M364.659,279.526c-10.182,11.929-25.317,19.502-42.23,19.502h0c-16.913,0-32.049-7.574-42.231-19.503
				l-37.195-40.018c-5.166-5.558-13.859-5.876-19.417-0.71c-5.558,5.166-5.876,13.859-0.71,19.417l57.986,62.387v49.745
				c12.721,9.485,26.689,17.364,41.568,23.483c13.192,5.425,27.094,9.478,41.568,11.862v-85.091l31.401-33.784l-18.758-20.181
				L364.659,279.526z"/>
		</defs>
		<clipPath id="SVGID_5_">
			<use xlink:href="#SVGID_4_"  overflow="visible"/>
		</clipPath>
		<linearGradient id="SVGID_6_" gradientUnits="userSpaceOnUse" x1="209.1658" y1="286.517" x2="581.6277" y2="286.517">
			<stop  offset="0" style="stop-color:#FEE506"/>
			<stop  offset="1" style="stop-color:#ED1E79"/>
		</linearGradient>
		<rect x="209.166" y="136.038" clip-path="url(#SVGID_5_)" fill="url(#SVGID_6_)" width="372.462" height="300.958"/>
	</g>
	<g>
		<defs>
			<circle id="SVGID_7_" cx="468.366" cy="243.515" r="36.071"/>
		</defs>
		<clipPath id="SVGID_8_">
			<use xlink:href="#SVGID_7_"  overflow="visible"/>
		</clipPath>
		<linearGradient id="SVGID_9_" gradientUnits="userSpaceOnUse" x1="209.1658" y1="286.517" x2="581.6277" y2="286.517">
			<stop  offset="0" style="stop-color:#FEE506"/>
			<stop  offset="1" style="stop-color:#ED1E79"/>
		</linearGradient>
		<rect x="209.166" y="136.038" clip-path="url(#SVGID_8_)" fill="url(#SVGID_9_)" width="372.462" height="300.958"/>
	</g>
	<g>
		<defs>
			<path id="SVGID_10_" d="M567.21,238.797c-5.558-5.166-14.252-4.848-19.417,0.71l-37.197,40.02
				c-10.182,11.929-25.317,19.502-42.23,19.502c-16.913,0-32.049-7.574-42.231-19.503l-11.98-12.889l-18.757,20.181l31.401,33.784
				v85.091c14.474-2.385,28.376-6.438,41.568-11.862c14.879-6.119,28.847-13.998,41.568-23.483v-49.746l57.986-62.387
				C573.086,252.656,572.768,243.963,567.21,238.797z"/>
		</defs>
		<clipPath id="SVGID_11_">
			<use xlink:href="#SVGID_10_"  overflow="visible"/>
		</clipPath>
		<linearGradient id="SVGID_12_" gradientUnits="userSpaceOnUse" x1="209.1658" y1="286.517" x2="581.6277" y2="286.517">
			<stop  offset="0" style="stop-color:#FEE506"/>
			<stop  offset="1" style="stop-color:#ED1E79"/>
		</linearGradient>
		<rect x="209.166" y="136.038" clip-path="url(#SVGID_11_)" fill="url(#SVGID_12_)" width="372.462" height="300.958"/>
	</g>
	<g>
		<path fill="#ED1E79" d="M421.272,238.797c-5.558-5.166-14.251-4.848-19.417,0.71l-6.458,6.948l-6.458-6.948
			c-5.166-5.558-13.86-5.876-19.418-0.71c-5.558,5.166-5.876,13.859-0.71,19.417l7.828,8.422l18.758,20.181l18.757-20.181
			l7.828-8.422C427.148,252.656,426.83,243.963,421.272,238.797z"/>
	</g>
	<g>
		<path fill="#FFFFFF" d="M395.397,288.952c-0.594,0-1.159-0.246-1.563-0.68l-26.585-28.603c-2.887-3.106-4.392-7.15-4.236-11.389
			c0.154-4.24,1.951-8.163,5.057-11.047c2.945-2.739,6.783-4.248,10.804-4.248c4.398,0,8.636,1.847,11.629,5.065l4.894,5.269
			l4.894-5.269c5.73-6.166,16.263-6.553,22.435-0.817c3.106,2.885,4.9,6.812,5.057,11.047c0.154,4.24-1.351,8.284-4.238,11.389
			l-26.585,28.603C396.556,288.706,395.991,288.952,395.397,288.952z M378.874,237.254c-2.939,0-5.745,1.105-7.898,3.106
			c-2.27,2.109-3.583,4.978-3.698,8.075c-0.113,3.102,0.988,6.057,3.097,8.325l25.021,26.922l25.021-26.922
			c2.112-2.268,3.21-5.224,3.097-8.325c-0.113-3.097-1.426-5.966-3.696-8.075c-4.544-4.223-12.177-3.935-16.402,0.6l-6.458,6.949
			c-0.809,0.867-2.318,0.867-3.127,0l-6.458-6.949C385.189,238.604,382.09,237.254,378.874,237.254z"/>
	</g>
</g>
</svg>
