<?xml version="1.0" encoding="utf-8"?>
<!-- Generator: Adobe Illustrator 16.0.0, SVG Export Plug-In . SVG Version: 6.00 Build 0)  -->
<!DOCTYPE svg PUBLIC "-//W3C//DTD SVG 1.1//EN" "http://www.w3.org/Graphics/SVG/1.1/DTD/svg11.dtd">
<svg version="1.1" xmlns="http://www.w3.org/2000/svg" xmlns:xlink="http://www.w3.org/1999/xlink" x="0px" y="0px" width="480px"
	 height="500px" viewBox="0 0 480 500" enable-background="new 0 0 480 500" xml:space="preserve">
<g id="Capa_2">
	<linearGradient id="SVGID_1_" gradientUnits="userSpaceOnUse" x1="240" y1="466.3125" x2="240" y2="4.882813e-004">
		<stop  offset="0" style="stop-color:#6E6064"/>
		<stop  offset="1" style="stop-color:#AAA39F"/>
	</linearGradient>
	<path fill-rule="evenodd" clip-rule="evenodd" fill="url(#SVGID_1_)" d="M240,0c128.769,0,233.156,104.387,233.156,233.156
		c0,128.769-104.387,233.156-233.156,233.156S6.844,361.925,6.844,233.156C6.844,104.387,111.23,0,240,0L240,0z"/>
</g>
<g id="Capa_3">
	<linearGradient id="SVGID_2_" gradientUnits="userSpaceOnUse" x1="240" y1="466.3125" x2="240" y2="34.8213">
		<stop  offset="0" style="stop-color:#2E262E"/>
		<stop  offset="0.1434" style="stop-color:#372F36"/>
		<stop  offset="0.3773" style="stop-color:#4F474C"/>
		<stop  offset="0.6725" style="stop-color:#766F70"/>
		<stop  offset="1" style="stop-color:#AAA39F"/>
	</linearGradient>
	<path fill-rule="evenodd" clip-rule="evenodd" fill="url(#SVGID_2_)" d="M362.606,34.821
		c66.349,41.102,110.549,114.551,110.549,198.335c0,128.769-104.387,233.156-233.156,233.156S6.844,361.925,6.844,233.156
		c0-17.421,1.925-34.392,5.549-50.723c13.427-4.737,27.687-7.292,42.469-7.292c18,0,35.227,3.783,51.112,10.689
		c9.783-7.365,22.337-11.792,36.028-11.792c19.475,0,36.648,8.957,46.819,22.589c15.616-11.846,33.208-20.791,52.124-26.124
		C248.295,102.133,298.252,47.138,362.606,34.821L362.606,34.821z"/>
</g>
<g id="Capa_1">
	<path fill-rule="evenodd" clip-rule="evenodd" fill="#2E262E" d="M93.932,275.786l-6.959,11.812l-6.839-12.89l-7.366,0.921
		l-9.666-14.75l-12.429,5.544l-13.349,19.028c-6.072,7.501-12.238,14.684-18.51,21.624C49.725,399.608,137.069,466.313,240,466.313
		c23.631,0,46.438-3.529,67.932-10.066c-3.937-2.304-7.905-4.452-11.91-6.413c1.351,4.643,0.82,4.663,1.894,8.27
		c-27.005-19.641-58.667-29.022-83.831-54.646c-37.731-56.158-93.875-58.625-113.193-127.671H93.932L93.932,275.786z"/>
	<linearGradient id="SVGID_3_" gradientUnits="userSpaceOnUse" x1="393.9141" y1="220.6016" x2="393.9141" y2="132.6812">
		<stop  offset="0" style="stop-color:#FF0000"/>
		<stop  offset="1" style="stop-color:#CC3300"/>
	</linearGradient>
	<polygon fill-rule="evenodd" clip-rule="evenodd" fill="url(#SVGID_3_)" points="401.964,141.428 401.964,132.681 378.947,154.776 
		373.425,165.364 365.6,172.323 365.6,181.936 358.694,195.854 358.694,220.602 367.44,220.602 367.44,212.316 373.425,212.316 
		373.425,218.76 382.171,218.76 382.171,210.016 394.141,210.016 394.141,218.76 408.192,218.76 413.933,218.76 417.397,218.76 
		420.377,218.76 429.135,218.76 429.135,156.267 417.397,142.348 417.397,146.952 413.933,160.871 401.964,141.428 	"/>
	<path fill-rule="evenodd" clip-rule="evenodd" fill="#201A20" d="M364.934,199.447l6.96,5.983l6.838-12.889l7.365,0.921
		l9.668-14.752l12.428,5.545l13.35,24.857l-8.286-37.287l8.284,0.46c2.148-5.678,6.138-9.282,7.595-14.269
		c9.29,40.603,23.896,76.039,41.774,107.506C455.15,378.968,357.782,466.313,240,466.313c-41.145,0-79.792-10.673-113.348-29.379
		c11.819-8.766,23.83-16.585,36.193-22.637c-1.35,4.642-0.82,4.664-1.894,8.27c27.006-19.639,58.667-29.021,83.833-54.645
		c37.729-56.159,93.872-99.427,113.19-168.475H364.934L364.934,199.447z"/>
	<path fill-rule="evenodd" clip-rule="evenodd" fill="#201A20" d="M240.001,291.998c-81.198-6.972-101.653-118.537-113.287-244.581
		h-2.905v220.762c7.747,23.238,27.111,58.095,58.096,81.333c19.364-6.195,38.729-10.07,58.095-11.619
		c19.365,1.549,38.732,5.424,58.097,11.619c30.985-23.238,50.349-58.095,58.096-81.333V47.417h-2.905
		C341.652,173.461,321.199,285.026,240.001,291.998L240.001,291.998z"/>
	<path fill-rule="evenodd" clip-rule="evenodd" fill="#090909" d="M240.001,268.179c-0.001,34.856-9.096,43.81-11.62,48.84
		C121.588,317.56,123.81,206.103,123.81,47.417v220.762c7.747,23.238,27.111,58.095,58.096,81.333
		c19.364-6.195,38.729-10.07,58.095-11.619c19.365,1.549,38.732,5.424,58.097,11.619c30.985-23.238,50.349-58.095,58.096-81.333
		V47.417c0,158.686,2.22,270.143-104.571,269.602C249.099,311.988,240.001,303.035,240.001,268.179L240.001,268.179z"/>
	<radialGradient id="SVGID_4_" cx="240.001" cy="140.3691" r="83.3427" gradientUnits="userSpaceOnUse">
		<stop  offset="0" style="stop-color:#FFCC00"/>
		<stop  offset="0.35" style="stop-color:#FFCC00"/>
		<stop  offset="0.4508" style="stop-color:#FFAD00"/>
		<stop  offset="0.7164" style="stop-color:#FF6100"/>
		<stop  offset="0.906" style="stop-color:#FF3000"/>
		<stop  offset="1" style="stop-color:#FF1E00"/>
	</radialGradient>
	<path fill-rule="evenodd" clip-rule="evenodd" fill="url(#SVGID_4_)" d="M341.717,140.369
		C310.606,114.199,291.432,80.81,240,80.822c-51.215,0.011-70.824,33.432-101.715,59.547c30.891,26.116,50.5,59.536,101.715,59.548
		C291.432,199.928,310.606,166.541,341.717,140.369L341.717,140.369z"/>
	<radialGradient id="SVGID_5_" cx="240.002" cy="140.3691" r="58.2891" gradientUnits="userSpaceOnUse">
		<stop  offset="0" style="stop-color:#FFCC00"/>
		<stop  offset="0.25" style="stop-color:#FFCC00"/>
		<stop  offset="0.3427" style="stop-color:#FCC300"/>
		<stop  offset="0.4939" style="stop-color:#F4AB00"/>
		<stop  offset="0.6848" style="stop-color:#E78300"/>
		<stop  offset="0.9058" style="stop-color:#D44C00"/>
		<stop  offset="1" style="stop-color:#CC3300"/>
	</radialGradient>
	<path fill-rule="evenodd" clip-rule="evenodd" fill="url(#SVGID_5_)" d="M240.001,82.08c32.191,0,58.29,26.098,58.29,58.289
		c0,32.192-26.099,58.289-58.29,58.289c-32.192,0-58.289-26.097-58.289-58.289C181.713,108.178,207.809,82.08,240.001,82.08
		L240.001,82.08z"/>
	<radialGradient id="SVGID_6_" cx="240" cy="140.3701" r="52.6737" gradientUnits="userSpaceOnUse">
		<stop  offset="0" style="stop-color:#CC3300"/>
		<stop  offset="1" style="stop-color:#FF6600"/>
	</radialGradient>
	<path fill-rule="evenodd" clip-rule="evenodd" fill="url(#SVGID_6_)" d="M208.003,179.221c6.553,9.801,18.555,11.62,31.997,17.065
		c13.44-5.445,25.443-7.265,31.996-17.065c-4.627,3.919-17.831,6.489-22.008,1.927c6.71-7.915,22.833-2.72,29.221-10.056
		c-8.4,4.203-15.205-3.277-23.114-4.209c2.442-2.732,11.983-5.079,17.509-3.313c-2.952-4.515-11.501-5.61-16.032-6.969
		c10.024-7.625,16.224,1.328,31.646-2.056c-18.689-3.367-16.516-11.17-35.847-13.253c4.686-4.058,24.848,6.342,32.699-12.123
		c-11.823,10.153-19.501-1.999-31.453,0.186c2.57-10.967,15.195-13.195,28.561-8.74c-6.127-6.64-24.62-9.682-32.161-8.481
		c3.599-11.546,19.051-5.098,26.635-7.647C254.054,101.854,257.945,87.04,240,84.454c-17.945,2.586-14.055,17.401-37.651,20.033
		c7.583,2.55,23.035-3.899,26.633,7.647c-7.54-1.201-26.035,1.841-32.161,8.481c13.366-4.456,25.991-2.227,28.563,8.74
		c-11.953-2.185-19.63,9.967-31.454-0.186c7.852,18.465,28.012,8.065,32.697,12.123c-19.332,2.083-17.156,9.886-35.846,13.253
		c15.422,3.383,21.621-5.57,31.646,2.056c-4.531,1.359-13.079,2.454-16.032,6.969c5.527-1.766,15.067,0.581,17.51,3.313
		c-7.91,0.932-14.715,8.412-23.116,4.209c6.389,7.336,22.512,2.141,29.221,10.056C225.834,185.71,212.63,183.141,208.003,179.221
		L208.003,179.221z"/>
	<path fill-rule="evenodd" clip-rule="evenodd" fill="#090909" d="M240,84.453c-8.677,8.713-12.256,37.955-12.256,55.916
		c0,17.962,3.579,47.203,12.256,55.917c8.715-8.713,12.256-37.955,12.256-55.917C252.256,122.408,248.677,93.167,240,84.453
		L240,84.453z"/>
	<path fill-rule="evenodd" clip-rule="evenodd" fill="#090909" d="M123.81,297.244v39.486
		c-16.654-11.618-24.012-33.695-29.048-45.313c-1.937,37.762,1.937,75.522,11.62,113.285c11.232-0.373,23.238,3.318,34.856,11.618
		c0,8.956-0.864,17.911-2.589,26.866c30.647,14.815,65.029,23.126,101.351,23.126c36.324,0,70.705-8.311,101.351-23.126
		c-1.726-8.955-2.589-17.91-2.589-26.866c11.619-8.3,23.623-11.991,34.856-11.618c9.684-37.763,13.557-75.523,11.619-113.285
		c-5.034,11.618-12.392,33.695-29.047,45.313v-39.481c-3.993,7.612-8.771,15.514-14.327,23.293
		c-9.781,13.693-22.046,27.148-36.821,38.229l-4.791,3.593l-5.693-1.823c-18.134-5.802-36.322-9.472-54.557-11
		c-18.234,1.528-36.421,5.198-54.556,11l-5.694,1.823l-4.791-3.593c-14.775-11.081-27.042-24.536-36.822-38.229
		C132.582,312.761,127.804,304.858,123.81,297.244L123.81,297.244z"/>
</g>
<g id="Capa_7">
	<g>
		<path fill="#090909" d="M147.612,364.026c-0.606,0.182-1.56,0.515-2.861,0.998c-2.301,1.061-3.905,2.377-4.814,3.951
			c-0.575,1.029-0.681,3.044-0.318,6.04c0.03,0.122,0.121,0.341,0.272,0.659c0.151,0.317,0.227,0.553,0.227,0.704
			c0-0.151-0.303,0.681-0.908,2.497c-0.272,0.938-0.409,1.907-0.409,2.907v7.72c0,0.182,0.075,0.379,0.227,0.59
			c0.151,0.213,0.242,0.379,0.272,0.501c0.03,0.15-0.016,0.447-0.136,0.886c-0.121,0.438-0.182,0.749-0.182,0.931v7.266
			c0-0.303-0.076,0.985-0.227,3.86c-0.152,2.543-0.197,4.33-0.136,5.359c0.393,4.663,0.59,6.691,0.59,6.085v10.265
			c0,1.665-0.106,3.239-0.318,4.724c-0.243,0.757-0.53,1.892-0.863,3.405c-0.243,1.847-0.243,3.405,0,4.677
			c0.333,0.908,0.696,2.272,1.09,4.089c-0.152,1.604-0.182,3.783-0.091,6.539c0.363,1.938,1.726,3.376,4.087,4.314
			c0.817,0.303,2.089,0.954,3.815,1.952c0.211,0.394,0.159,1.015-0.159,1.862c-0.318,0.848-0.734,1.256-1.249,1.226
			c-1.878-0.151-3.74-0.303-5.586-0.453c-3.209-0.243-5.298-0.349-6.267-0.318c-0.272,0-0.583,0.137-0.931,0.408
			c-0.348,0.273-0.552,0.409-0.613,0.409h-6.404c-0.363,0-1.067,0.053-2.111,0.159c-1.045,0.105-1.87,0.158-2.475,0.158
			c-1.666,0-2.968-0.348-3.906-1.044c-0.03-0.938,0.106-2.089,0.409-3.451c0.938-0.212,2.209-0.712,3.815-1.499
			c1.09-0.938,2.331-2.422,3.724-4.45c0.666-0.97,0.969-2.604,0.909-4.904c0-0.213-0.091-0.599-0.273-1.158
			c-0.182-0.561-0.272-0.932-0.272-1.113v-6.494c0,0.575-0.045-0.832-0.136-4.224c-0.091-2.755-0.091-4.602,0-5.54
			c0.302-3.027,0.242-5.662-0.182-7.903c-0.061-0.182,0-2.376,0.182-6.584c0.121-1.636,0.288-4.118,0.5-7.448
			c-0.03,0.061-0.348-3.694-0.954-11.263c-0.03-0.637-0.212-1.469-0.545-2.499c-0.575,1.545-1.09,3.135-1.544,4.77
			c-1.12,3.693-2.665,9.189-4.632,16.485c-0.03,1-0.212,2.514-0.545,4.541c-0.788,1.908-1.817,4.845-3.088,8.812
			c0,1.361-0.106,3.391-0.318,6.085c-0.697,2.332-1.726,5.873-3.088,10.628c-0.212,2.118-0.788,5.434-1.726,9.945
			c-0.424,1.393-1.271,3.27-2.543,5.631c-0.243,0.091-0.591,0.228-1.045,0.409c-1.06,0.545-2.437,0.727-4.132,0.545
			c-0.303-0.576-0.697-1.408-1.181-2.498c-0.636-2.815-1.68-7.04-3.133-12.671c-0.484-0.727-1.121-1.998-1.908-3.815
			c0.151-1.393,0.121-3.284-0.091-5.676c-0.757-2.119-1.65-3.543-2.679-4.27c0.061-0.636,0.091-1.286,0.091-1.952
			c0-3.784-0.97-6.661-2.907-8.63c-0.212-0.847-0.53-1.998-0.954-3.451c-0.484-2.391-1.151-5.632-1.999-9.718
			c-0.545-1.514-1.317-3.771-2.316-6.768c-0.272-1.211-0.561-2.422-0.863-3.633c-0.394-1.423-0.969-2.543-1.726-3.361
			c-0.091-1.302-0.47-2.937-1.135-4.904c-0.454,0.121-0.802,2.043-1.044,5.769c-0.091,1.453,0.015,3.663,0.318,6.629
			c0.302,3.181,0.454,4.648,0.454,4.406v7.72c0,1.636-0.045,5.359-0.136,11.173c-0.091,4.935-0.106,8.658-0.045,11.172
			c0.182,0.757,0.424,2.573,0.727,5.449c0,2.423,0.242,6.025,0.727,10.809c0.333,1.817,1.544,3.285,3.633,4.406
			c1.21,0.574,2.482,1.361,3.815,2.361c0.302,1.119,0.151,2.058-0.454,2.814c-0.757,0.363-1.877,0.545-3.361,0.545
			c-0.606,0-2.891-0.212-6.857-0.635c-0.697-0.062-1.605,0-2.725,0.182c-1.423,0.211-2.332,0.332-2.725,0.363
			c-1.424,0.09-3.633-0.062-6.631-0.455c-0.545-0.727-0.817-1.514-0.817-2.361c0-0.696,0.257-1.211,0.772-1.543
			c0.727-0.122,1.741-0.47,3.043-1.045c0.787-0.515,1.755-1.393,2.906-2.634c0.666-1.332,1.12-2.877,1.363-4.633
			c0.211-1.604,0.424-3.209,0.636-4.813v-6.268c0-2.876-0.045-4.026-0.136-3.451c0.636-3.694,0.954-5.965,0.954-6.813v-5.813
			l-1.226-9.945v-5.631c0-0.182,0.053-0.47,0.159-0.863c0.105-0.394,0.159-0.65,0.159-0.771c0.061-0.637,0.03-1.636-0.091-2.999
			l-0.227-2.225v-7.176c0,0.151,0.091-0.62,0.272-2.315c0.151-1.483,0.166-2.513,0.045-3.088c-0.03-0.212-0.167-0.742-0.409-1.59
			c-0.212-0.757-0.318-1.228-0.318-1.409v-6.493c0-0.121-0.129-0.666-0.386-1.635s-0.401-1.711-0.431-2.227
			c0-0.09-0.425-0.908-1.272-2.451c-0.757-1.393-1.499-2.331-2.225-2.816c-0.212-0.12-1.09-0.317-2.634-0.59
			c-0.182-0.03-0.272-0.408-0.272-1.135c-0.03-0.727,0.03-1.241,0.182-1.545c0.515-0.484,1.287-0.728,2.316-0.728
			c1.392-0.029,2.209-0.075,2.452-0.136l9.9,0.228c0.545,0.182,1.015,0.271,1.408,0.271c0.302,0,0.62-0.052,0.954-0.158
			c0.333-0.106,0.575-0.159,0.727-0.159c0.454,0,1.09,0.272,1.907,0.818c0.484,0.333,1.151,1.816,1.999,4.45
			c0.272,1.544,0.636,3.467,1.09,5.768c0.393,1.303,0.969,3.255,1.726,5.858c0.515,1.998,1.302,4.33,2.362,6.994
			c1.846,4.783,4.057,11.793,6.63,21.027c0.061,0.271-0.152,1.361-0.636,3.27c-0.152,0.212-0.379,0.515-0.681,0.909
			c-0.152,1.968-0.212,2.996-0.182,3.088c0.151,0.394,1.105,0.848,2.861,1.361c0.394,1.515,0.984,3.618,1.771,6.313
			c0.424,0.938,1.044,2.438,1.862,4.496c0.211,1.18,0.59,2.618,1.135,4.314c0.484-0.879,1-1.848,1.544-2.907
			c0.424-1.12,1.014-2.771,1.771-4.95c0-0.393,0.045-0.998,0.136-1.816c0.484-2.544,1.514-5.782,3.088-9.718
			c0.121-0.849,0.363-2.136,0.727-3.861c0.666-1.635,1.499-4.269,2.498-7.902c0.243-1.877,0.484-3.792,0.727-5.744
			c0.242-1.953,0.651-3.657,1.226-5.11c0.454-0.786,0.999-1.982,1.635-3.587c0.727-4.209,2.135-10.248,4.224-18.12
			c0.061-0.969,0.393-2.271,0.999-3.906c0.605-0.665,1.295-0.999,2.066-0.999c0.772,0,1.9-0.023,3.383-0.068
			c1.483-0.046,2.664-0.068,3.542-0.068c0.121,0,0.355,0.061,0.704,0.182s0.583,0.182,0.704,0.182l10.854-0.227
			c0.333-0.061,0.673,0.212,1.022,0.817c0.348,0.606,0.522,1.166,0.522,1.681C147.657,363.769,147.642,363.905,147.612,364.026z"/>
		<path fill="#090909" d="M202.66,409.222c0,1.591-0.042,2.804-0.125,3.64c-0.279,0.642-0.572,1.632-0.878,2.97
			c-0.056,1.339-0.349,2.761-0.878,4.267c-0.446,0.559-1.102,1.464-1.966,2.719c-0.224,0.837-0.837,2.036-1.841,3.597
			c-0.809,0.81-2.036,2.064-3.681,3.766c-0.251,0.084-0.572,0.224-0.962,0.418c-0.363,0.335-1.004,0.823-1.924,1.464
			c-4.573,2.426-8.924,3.807-13.05,4.141h-5.521c0.056,0-0.056-0.083-0.334-0.251c-3.012-0.083-5.271-0.502-6.776-1.255
			c-0.391-0.083-0.92-0.223-1.589-0.418c-1.116-0.445-2.789-1.24-5.02-2.384c-2.677-1.7-5.187-4.1-7.529-7.194
			c-1.312-1.729-2.468-3.959-3.472-6.693c-0.948-2.537-1.479-4.67-1.589-6.399c-0.196-2.956-0.083-5.855,0.334-8.7
			c0.167-0.361,0.39-0.878,0.669-1.547c0.167-0.838,0.46-2.051,0.878-3.64c0.613-0.977,1.422-2.398,2.426-4.267
			c0.139-0.307,0.209-0.669,0.209-1.087c0.14-0.14,0.418-0.098,0.837,0.125c0.139-0.39,0.139-0.947,0-1.673
			c0.362-0.111,0.878-0.35,1.547-0.712c0.223-0.586,0.753-1.297,1.589-2.133c1.673-0.893,4.197-2.202,7.571-3.932
			c0.864-0.418,1.965-0.78,3.304-1.088c3.402-0.78,5.716-1.171,6.943-1.171h3.263c2.537,0,4.712,0.237,6.525,0.711
			c0.976,0.279,3.123,1.061,6.441,2.343c0.696,0.446,1.799,1.144,3.305,2.091c2.175,1.395,4.155,3.304,5.939,5.73
			c1.59,2.175,2.621,4.183,3.095,6.023c0.223,0.307,0.502,0.767,0.836,1.38c0.613,1.674,0.962,4.156,1.046,7.445
			c0,0.112,0.063,0.37,0.188,0.774S202.66,408.999,202.66,409.222z M193.374,410.311c-0.251-3.515-0.935-6.721-2.049-9.621
			c-1.422-3.736-3.096-6.678-5.02-8.825c-2.733-3.013-5.717-4.783-8.951-5.313c-3.068-0.502-5.173-0.67-6.316-0.502
			c-2.231,0.278-4.127,0.767-5.688,1.464c-0.196,0.083-1.464,0.822-3.807,2.216c-0.14,0.279-0.391,0.614-0.753,1.005
			c-0.224,0.057-0.474,0.141-0.753,0.251c-0.559,0.726-1.255,1.701-2.091,2.928c-0.112,0.335-0.293,0.81-0.544,1.422
			c-0.418,0.67-0.865,1.464-1.338,2.385c-0.251,1.031-0.642,2.579-1.171,4.643c0.027,0.781,0.014,1.966-0.042,3.556
			c0,0.083-0.056,0.266-0.167,0.544s-0.153,0.474-0.125,0.585c0.39,1.813,0.948,4.323,1.674,7.529
			c-0.084,0.224-0.14,0.488-0.167,0.795c0.195,0.391,0.474,0.92,0.836,1.589c0.027,0.363,0.111,0.837,0.251,1.423
			c1.171,2.343,1.784,3.542,1.84,3.598c0.837,1.45,1.98,2.83,3.43,4.141c0.027,0.027,0.209,0.6,0.543,1.715
			c0.111,0.027,0.585,0.111,1.422,0.251c1.366,1.254,2.412,2.106,3.137,2.552c2.063,1.228,5.799,1.604,11.209,1.129
			c0.446-0.139,1.032-0.319,1.757-0.543c0.92-0.195,2.244-0.655,3.974-1.381c0.39-0.361,0.906-0.795,1.548-1.297
			c2.788-1.729,4.447-3.862,4.978-6.399c0.278-0.335,0.613-0.809,1.003-1.422c0.056-0.529,0.139-1.158,0.251-1.883
			c0.167-0.168,0.335-0.433,0.502-0.795c0.056-0.642,0.195-2.035,0.418-4.183C193.36,412.137,193.43,410.952,193.374,410.311z"/>
		<path fill="#090909" d="M254.527,434.403c-0.224,0.307-0.586,0.684-1.087,1.129c-1.255,0.696-2.161,1.046-2.719,1.046h-5.02
			c-1.702,0-2.97-0.07-3.807-0.209c-0.613-0.224-1.548-0.544-2.802-0.963c-1.061-0.334-2.915-2.007-5.564-5.019
			c-0.223-0.251-1.311-2.05-3.262-5.396c-1.757-3.038-3.137-5.591-4.141-7.654c-0.251-0.78-0.697-1.784-1.338-3.012
			c-0.279-0.307-0.977-0.418-2.092-0.334c-0.697,0.083-1.408,0.167-2.133,0.251c-0.92-0.056-2.287-0.069-4.1-0.042
			c-0.195,0-0.433,0.167-0.711,0.502c0.111,1.087,0.251,4.503,0.418,10.248c0.027,1.115,0.251,2.579,0.669,4.391
			c0,0.503,0.139,1.242,0.418,2.218c0.585,1.004,1.534,1.729,2.844,2.175c1.06,0.308,2.119,0.614,3.179,0.921
			c0.027,0.307,0,0.669-0.083,1.087c-0.81,0.335-1.632,0.502-2.468,0.502h-4.392c-0.056,0-0.433-0.07-1.129-0.209
			c-0.697-0.14-1.199-0.209-1.506-0.209c-0.865,0-3.124,0.139-6.776,0.418h-4.225c-0.418,0-0.92-0.125-1.506-0.376
			c0-0.084-0.035-0.251-0.104-0.502c-0.07-0.251-0.104-0.433-0.104-0.544c1.449-0.391,2.342-0.669,2.677-0.837
			c1.031-0.474,1.868-1.282,2.509-2.426c0.278-0.502,0.474-1.784,0.585-3.849c0-0.334,0.098-1.198,0.293-2.593
			c0.167-1.282,0.251-2.259,0.251-2.928c0-3.793,0.035-5.842,0.104-6.149c0.069-0.307,0.327-0.809,0.774-1.506
			c-0.196-0.194-0.447-0.57-0.753-1.129c-0.14-0.502-0.209-1.213-0.209-2.133v-4.226c0-0.027-0.042-0.46-0.125-1.296
			c0.028,0.334,0.153-1.506,0.376-5.522c-0.028-0.056-0.098-0.152-0.209-0.293c-0.307-1.087-0.293-2.522,0.042-4.308
			c0.111-0.502-0.07-2.175-0.544-5.019c-0.028-0.894-0.279-2.064-0.753-3.515c-0.613-0.753-1.408-1.227-2.384-1.422
			c-0.836-0.194-1.659-0.376-2.468-0.544c0-1.589-0.042-1.924-0.125-1.003c0.056-0.446,0.335-0.684,0.836-0.712
			c1.143-0.055,2.97-0.181,5.479-0.376c2.315-0.223,3.5-0.335,3.556-0.335h5.396c1.003,0,2.035-0.083,3.095-0.251
			c1.06-0.167,1.966-0.251,2.719-0.251c0.948,0,2.133,0.084,3.556,0.251c0.892,0.195,2.202,0.475,3.932,0.837
			c0.167,0.111,0.446,0.237,0.836,0.376c2.677,0.419,5.047,1.688,7.111,3.807c1.143,1.199,2.161,3.319,3.053,6.358
			c0.027,0.446,0.069,1.102,0.126,1.965c0.056,0.698,0,1.743-0.167,3.138c-0.363,2.956-1.061,5.187-2.092,6.692
			c-0.949,1.395-2.775,3.346-5.479,5.856c-0.028,0.586,0.083,1.102,0.334,1.548c1.757,3.374,3.514,6.748,5.271,10.122
			c2.091,3.653,4.628,6.763,7.613,9.328c0.251,0.223,1.282,0.585,3.096,1.087c1.087,0.279,2.007,0.349,2.76,0.209
			c1.115-0.223,1.91-0.307,2.384-0.251C254.5,433.72,254.527,434.013,254.527,434.403z M231.605,398.598
			c0-0.92-0.07-1.533-0.209-1.84c-1.395-3.708-2.579-6.08-3.555-7.111c-1.338-1.449-2.831-2.37-4.475-2.761
			c-1.088-0.251-2.845-0.32-5.271-0.209c-0.251,0.028-0.642,0.182-1.171,0.46c-0.447,4.797-0.726,8.673-0.837,11.628
			c0.14,0.224,0.279,0.544,0.418,0.962c0,0.391-0.125,1.981-0.376,4.77c-0.167,1.84-0.125,3.681,0.125,5.521
			c0.083,0.084,0.195,0.209,0.334,0.376h4.141c0.474,0.112,0.976,0.168,1.506,0.168c1.646,0,3.228-0.524,4.748-1.569
			c1.52-1.046,2.447-1.903,2.782-2.572C230.992,404.134,231.605,401.526,231.605,398.598z"/>
		<path fill="#090909" d="M301.793,405.165c0.167,1.422,0.027,3.932-0.418,7.529c-0.279,1.115-0.684,2.747-1.213,4.894
			c-1.144,4.741-3.221,8.52-6.232,11.335c-1.172,1.089-2.678,2.176-4.518,3.264c-2.175,1.311-3.932,2.021-5.27,2.133
			c-0.168,0.111-0.447,0.237-0.838,0.376c-4.127,0.613-6.12,0.921-5.98,0.921h-27.23c-0.224-0.976-0.153-1.59,0.209-1.841
			c1.171-0.418,1.979-0.627,2.426-0.627c0.167-0.223,0.404-0.529,0.711-0.92c1.312-1.366,1.967-2.873,1.967-4.519
			c0-0.027-0.084-0.376-0.251-1.046c0.111-0.278,0.194-0.683,0.251-1.213c-0.111-0.223-0.251-0.57-0.418-1.045
			c-0.028-0.168,0.027-0.481,0.167-0.941s0.223-0.801,0.251-1.024c0.056-1.06,0.084-2.733,0.084-5.02v-4.727
			c-0.028-3.207,0-7.864,0.083-13.972c0-0.083-0.069-0.271-0.209-0.564s-0.209-0.508-0.209-0.648c0-0.445,0.069-1.136,0.209-2.07
			c0.14-0.934,0.209-1.638,0.209-2.111c0-0.111-0.083-0.32-0.251-0.628c-0.167-0.307-0.278-0.558-0.334-0.753
			c0.027-0.529-0.015-1.338-0.126-2.427c-0.476-1.867-1.187-3.053-2.134-3.555c-0.781-0.391-2.119-0.725-4.016-1.004
			c-0.027-0.167-0.041-0.529-0.041-1.087c1.198-0.586,2.397-0.753,3.597-0.502c0.39,0.307,0.654,0.446,0.795,0.418
			c0.194-0.111,0.432-0.251,0.711-0.418c0.921-0.027,1.841-0.056,2.761-0.084c1.004,0.028,1.784,0.446,2.343,1.255
			c0.083,0,0.181-0.014,0.292-0.042c0.251-0.418,0.67-0.962,1.255-1.631c0.67,0.111,1.604,0.251,2.803,0.418
			c0.056,0.028,0.174-0.056,0.355-0.251c0.181-0.194,0.341-0.32,0.481-0.376c0.864-0.279,2.161-0.419,3.89-0.419h10.625
			c4.601,1.032,7.85,1.966,9.745,2.803c3.598,1.562,6.554,3.959,8.868,7.194c0.474,0.613,1.129,1.604,1.966,2.97
			C300.385,397.636,301.263,400.955,301.793,405.165z M299.911,405.123c-3.402-0.223-5.8-0.307-7.195-0.251
			c-0.223-0.111-0.307-0.585-0.251-1.422c-0.501-1.227-1.296-2.983-2.384-5.271c-1.478-3.012-3.109-5.402-4.894-7.173
			c-1.785-1.771-4.685-3.02-8.7-3.744c-1.813-0.307-2.636-0.46-2.468-0.46h-4.309c-0.111,0-0.878,0.132-2.3,0.396
			c-1.423,0.266-2.371,0.426-2.845,0.481c-0.391,1.952-0.545,4.072-0.461,6.358c0.057,1.087,0.084,3.304,0.084,6.65v16.521
			c0-0.027-0.041,0.446-0.125,1.423c-0.057,0.864-0.057,1.506,0,1.925c0.139,1.617,0.209,2.314,0.209,2.091
			c-0.084,1.115-0.098,2.05-0.041,2.802c0,0.168,0.082,0.544,0.25,1.13c0.14,0.475,0.195,0.836,0.168,1.087
			c-0.028,0.028-0.488,0.209-1.381,0.544c-0.643,0.279-1.032,0.642-1.172,1.088c0.475,0.419,1.102,0.67,1.883,0.754
			c0.557,0.027,1.115,0.041,1.674,0.041c5.604,0.642,8.854,0.962,9.746,0.962c2.648,0,4.99-0.403,7.026-1.213
			c1.785-0.726,3.249-1.674,4.393-2.845c2.453-2.481,4.084-5.563,4.894-9.244c0.39-1.784,0.669-4.754,0.836-8.909
			c0-0.335-0.251-0.809-0.753-1.422c-0.056-0.391,0.027-0.613,0.251-0.67c0.418-0.139,1.283-0.292,2.594-0.46
			c1.144-0.11,2.774-0.293,4.894-0.543C299.785,405.556,299.911,405.347,299.911,405.123z"/>
		<path fill="#090909" d="M364.202,409.222c0,1.591-0.042,2.804-0.126,3.64c-0.278,0.642-0.571,1.632-0.878,2.97
			c-0.057,1.339-0.349,2.761-0.878,4.267c-0.447,0.559-1.104,1.464-1.967,2.719c-0.224,0.837-0.837,2.036-1.841,3.597
			c-0.809,0.81-2.035,2.064-3.681,3.766c-0.251,0.084-0.571,0.224-0.962,0.418c-0.362,0.335-1.004,0.823-1.924,1.464
			c-4.574,2.426-8.924,3.807-13.051,4.141h-5.521c0.056,0-0.057-0.083-0.335-0.251c-3.013-0.083-5.271-0.502-6.776-1.255
			c-0.391-0.083-0.92-0.223-1.59-0.418c-1.115-0.445-2.789-1.24-5.02-2.384c-2.677-1.7-5.187-4.1-7.529-7.194
			c-1.311-1.729-2.468-3.959-3.472-6.693c-0.948-2.537-1.478-4.67-1.589-6.399c-0.195-2.956-0.084-5.855,0.335-8.7
			c0.167-0.361,0.39-0.878,0.669-1.547c0.167-0.838,0.46-2.051,0.878-3.64c0.613-0.977,1.422-2.398,2.426-4.267
			c0.14-0.307,0.209-0.669,0.209-1.087c0.14-0.14,0.419-0.098,0.837,0.125c0.139-0.39,0.139-0.947,0-1.673
			c0.363-0.111,0.879-0.35,1.549-0.712c0.223-0.586,0.752-1.297,1.589-2.133c1.673-0.893,4.196-2.202,7.571-3.932
			c0.863-0.418,1.966-0.78,3.304-1.088c3.401-0.78,5.716-1.171,6.944-1.171h3.262c2.537,0,4.712,0.237,6.525,0.711
			c0.976,0.279,3.123,1.061,6.441,2.343c0.696,0.446,1.799,1.144,3.305,2.091c2.175,1.395,4.154,3.304,5.939,5.73
			c1.589,2.175,2.621,4.183,3.096,6.023c0.223,0.307,0.502,0.767,0.837,1.38c0.612,1.674,0.962,4.156,1.045,7.445
			c0,0.112,0.063,0.37,0.188,0.774C364.14,408.686,364.202,408.999,364.202,409.222z M354.916,410.311
			c-0.251-3.515-0.935-6.721-2.05-9.621c-1.423-3.736-3.096-6.678-5.02-8.825c-2.732-3.013-5.716-4.783-8.951-5.313
			c-3.067-0.502-5.173-0.67-6.315-0.502c-2.232,0.278-4.128,0.767-5.689,1.464c-0.195,0.083-1.464,0.822-3.806,2.216
			c-0.14,0.279-0.392,0.614-0.753,1.005c-0.225,0.057-0.476,0.141-0.754,0.251c-0.558,0.726-1.255,1.701-2.091,2.928
			c-0.112,0.335-0.293,0.81-0.544,1.422c-0.418,0.67-0.864,1.464-1.338,2.385c-0.251,1.031-0.643,2.579-1.172,4.643
			c0.027,0.781,0.014,1.966-0.041,3.556c0,0.083-0.057,0.266-0.168,0.544s-0.153,0.474-0.125,0.585
			c0.39,1.813,0.947,4.323,1.673,7.529c-0.084,0.224-0.14,0.488-0.167,0.795c0.194,0.391,0.474,0.92,0.836,1.589
			c0.027,0.363,0.111,0.837,0.251,1.423c1.171,2.343,1.784,3.542,1.84,3.598c0.837,1.45,1.979,2.83,3.431,4.141
			c0.027,0.027,0.21,0.6,0.544,1.715c0.111,0.027,0.586,0.111,1.422,0.251c1.366,1.254,2.412,2.106,3.137,2.552
			c2.063,1.228,5.801,1.604,11.21,1.129c0.446-0.139,1.031-0.319,1.758-0.543c0.92-0.195,2.244-0.655,3.974-1.381
			c0.39-0.361,0.905-0.795,1.547-1.297c2.788-1.729,4.448-3.862,4.979-6.399c0.278-0.335,0.613-0.809,1.004-1.422
			c0.056-0.529,0.139-1.158,0.251-1.883c0.167-0.168,0.334-0.433,0.502-0.795c0.055-0.642,0.194-2.035,0.418-4.183
			C354.901,412.137,354.972,410.952,354.916,410.311z"/>
		<path fill="#090909" d="M416.068,434.403c-0.224,0.307-0.586,0.684-1.087,1.129c-1.255,0.696-2.161,1.046-2.719,1.046h-5.021
			c-1.701,0-2.969-0.07-3.806-0.209c-0.613-0.224-1.548-0.544-2.802-0.963c-1.062-0.334-2.915-2.007-5.564-5.019
			c-0.223-0.251-1.311-2.05-3.262-5.396c-1.758-3.038-3.138-5.591-4.142-7.654c-0.251-0.78-0.697-1.784-1.339-3.012
			c-0.278-0.307-0.976-0.418-2.091-0.334c-0.697,0.083-1.408,0.167-2.133,0.251c-0.92-0.056-2.288-0.069-4.1-0.042
			c-0.195,0-0.433,0.167-0.711,0.502c0.11,1.087,0.251,4.503,0.418,10.248c0.027,1.115,0.251,2.579,0.669,4.391
			c0,0.503,0.14,1.242,0.418,2.218c0.586,1.004,1.533,1.729,2.846,2.175c1.059,0.308,2.118,0.614,3.179,0.921
			c0.027,0.307,0,0.669-0.084,1.087c-0.809,0.335-1.631,0.502-2.468,0.502h-4.393c-0.056,0-0.433-0.07-1.129-0.209
			c-0.697-0.14-1.199-0.209-1.506-0.209c-0.864,0-3.123,0.139-6.776,0.418h-4.225c-0.418,0-0.92-0.125-1.506-0.376
			c0-0.084-0.035-0.251-0.104-0.502s-0.104-0.433-0.104-0.544c1.45-0.391,2.343-0.669,2.677-0.837
			c1.031-0.474,1.868-1.282,2.51-2.426c0.278-0.502,0.474-1.784,0.586-3.849c0-0.334,0.097-1.198,0.292-2.593
			c0.168-1.282,0.251-2.259,0.251-2.928c0-3.793,0.035-5.842,0.104-6.149c0.069-0.307,0.328-0.809,0.774-1.506
			c-0.195-0.194-0.446-0.57-0.753-1.129c-0.14-0.502-0.209-1.213-0.209-2.133v-4.226c0-0.027-0.042-0.46-0.126-1.296
			c0.027,0.334,0.153-1.506,0.377-5.522c-0.028-0.056-0.099-0.152-0.209-0.293c-0.308-1.087-0.293-2.522,0.041-4.308
			c0.111-0.502-0.069-2.175-0.543-5.019c-0.028-0.894-0.279-2.064-0.753-3.515c-0.614-0.753-1.408-1.227-2.384-1.422
			c-0.837-0.194-1.66-0.376-2.468-0.544c0-1.589-0.042-1.924-0.126-1.003c0.056-0.446,0.335-0.684,0.837-0.712
			c1.143-0.055,2.97-0.181,5.479-0.376c2.315-0.223,3.5-0.335,3.557-0.335h5.395c1.004,0,2.035-0.083,3.097-0.251
			c1.059-0.167,1.966-0.251,2.718-0.251c0.948,0,2.134,0.084,3.556,0.251c0.892,0.195,2.202,0.475,3.933,0.837
			c0.167,0.111,0.445,0.237,0.836,0.376c2.677,0.419,5.047,1.688,7.11,3.807c1.143,1.199,2.161,3.319,3.054,6.358
			c0.027,0.446,0.069,1.102,0.126,1.965c0.056,0.698,0,1.743-0.167,3.138c-0.363,2.956-1.061,5.187-2.093,6.692
			c-0.948,1.395-2.774,3.346-5.479,5.856c-0.028,0.586,0.083,1.102,0.334,1.548c1.757,3.374,3.514,6.748,5.271,10.122
			c2.091,3.653,4.628,6.763,7.611,9.328c0.251,0.223,1.282,0.585,3.097,1.087c1.087,0.279,2.007,0.349,2.76,0.209
			c1.115-0.223,1.91-0.307,2.384-0.251C416.04,433.72,416.068,434.013,416.068,434.403z M393.146,398.598
			c0-0.92-0.069-1.533-0.209-1.84c-1.395-3.708-2.58-6.08-3.556-7.111c-1.339-1.449-2.83-2.37-4.476-2.761
			c-1.087-0.251-2.844-0.32-5.271-0.209c-0.251,0.028-0.642,0.182-1.171,0.46c-0.446,4.797-0.726,8.673-0.837,11.628
			c0.14,0.224,0.278,0.544,0.418,0.962c0,0.391-0.125,1.981-0.376,4.77c-0.167,1.84-0.125,3.681,0.126,5.521
			c0.083,0.084,0.194,0.209,0.334,0.376h4.142c0.474,0.112,0.976,0.168,1.506,0.168c1.645,0,3.227-0.524,4.747-1.569
			c1.52-1.046,2.447-1.903,2.782-2.572C392.533,404.134,393.146,401.526,393.146,398.598z"/>
	</g>
	<g>
		<path fill="#090909" d="M167.022,358.96c-0.049,0.309-0.106,0.678-0.171,1.108v2.827c-0.041,0-0.114,0.013-0.219,0.037
			s-0.179,0.036-0.219,0.036c-0.016-0.064-0.081-0.548-0.195-1.449c-0.065-0.521-0.305-0.919-0.719-1.195
			c-0.179-0.13-0.601-0.122-1.268,0.024c-0.333,0.032-0.813,0.109-1.438,0.231c-0.219,0.073-0.358,0.211-0.415,0.414
			c-0.138,0.521-0.152,1.272-0.042,2.255c0.11,0.983,0.079,2.335-0.091,4.058c0-0.009,0.053,0.552,0.158,1.681
			c-0.032,0.39-0.041,0.975-0.024,1.755c0.089,0.414,0.219,1.044,0.39,1.889c0.081,0.406,0.353,0.666,0.816,0.78
			c0.374,0.089,0.748,0.175,1.121,0.256c0,0.121-0.093,0.301-0.28,0.536h-6.908c-0.065,0-0.098-0.049-0.098-0.146
			c0-0.024,0.004-0.089,0.012-0.195c0.252-0.057,0.622-0.174,1.109-0.353c0.422-0.228,0.735-0.5,0.938-0.816
			c0.057-0.09,0.114-0.455,0.17-1.097c0.033-1.122,0.073-2.296,0.122-3.522v-4.386h0.329c0.017-0.008,0.045-0.044,0.085-0.109
			c-0.114-0.268-0.252-0.653-0.415-1.157c-0.017-0.098-0.082-0.72-0.195-1.865h-2.254c-0.236,0-0.528,0.13-0.877,0.39
			c-0.349,0.261-0.54,0.472-0.573,0.635c-0.17,0.723-0.337,1.223-0.5,1.498c-0.081,0.139-0.264,0.208-0.548,0.208
			c0-0.033-0.017-0.135-0.049-0.305c-0.024-0.146-0.029-0.252-0.012-0.317c0.097-0.333,0.191-0.849,0.28-1.548
			c0.106-0.845,0.187-1.413,0.244-1.706l0.39-0.512c-0.244-0.024,0.5-0.036,2.229-0.036c0.503,0,1.269,0.045,2.297,0.134
			c1.027,0.09,1.521,0.134,1.48,0.134h2.01c-0.008,0,0.235-0.04,0.731-0.121c0.537-0.081,1.052-0.135,1.548-0.159
			c0.187-0.023,0.374-0.048,0.561-0.072C166.779,358.753,166.941,358.813,167.022,358.96z"/>
		<path fill="#090909" d="M184.031,358.972c0,0.09-0.048,0.171-0.146,0.244c-0.341,0.089-0.634,0.211-0.877,0.365
			c-0.138,0.09-0.302,0.276-0.493,0.561s-0.286,0.499-0.286,0.646c0,0.732,0.008,1.021,0.024,0.865
			c-0.065,0.195-0.138,0.48-0.219,0.854c0,0.098,0.053,0.516,0.159,1.255c0.032,0.252,0.049,0.581,0.049,0.987
			c0,0.479-0.027,1.062-0.08,1.748s-0.079,1.005-0.079,0.956v1.804c0,1.835,0.215,3.107,0.646,3.813
			c0.081,0.139,0.26,0.28,0.536,0.427c0.276,0.146,0.512,0.228,0.707,0.244c-0.049,0.081-0.138,0.203-0.268,0.365h-5.69
			c0-0.049-0.012-0.124-0.036-0.226s-0.037-0.173-0.037-0.213c0.178-0.081,0.434-0.203,0.768-0.366
			c0.251-0.121,0.487-0.495,0.707-1.12c0.187-0.544,0.28-0.972,0.28-1.28v-1.779c0-0.121-0.029-0.454-0.085-0.999
			c-0.041-0.414-0.041-0.747,0-0.999c0.032-0.187-0.037-0.503-0.207-0.95c-0.398,0.293-1,0.512-1.804,0.658
			c-0.422,0.081-0.788,0.098-1.096,0.049c-0.423-0.073-0.646-0.109-0.67-0.109h-3.07c-0.187,0.105-0.427,0.3-0.719,0.584
			c-0.122,0.195-0.162,0.472-0.122,0.829c0.065,0.138,0.138,0.337,0.219,0.597c-0.024-0.113-0.053,0.109-0.085,0.67
			c-0.008,0.041,0.021,0.679,0.085,1.913c0.065,1.333,0.524,2.08,1.377,2.242c0.032,0.009,0.207,0.073,0.523,0.195
			c-0.276,0.301-0.589,0.451-0.938,0.451c-0.097,0-0.215-0.013-0.353-0.037c-0.163-0.024-0.264-0.036-0.305-0.036l-4.801-0.073
			c0.008-0.146,0.195-0.293,0.561-0.438c0.43-0.179,0.759-0.442,0.987-0.792c0.17-0.269,0.284-0.771,0.341-1.512
			c0.064-0.771,0.073-1.43,0.024-1.974c-0.032-0.065-0.082-0.154-0.146-0.269c-0.008-0.625,0.028-1.555,0.11-2.79
			c0.008-0.04,0.053-0.17,0.134-0.39c0.073-0.187,0.105-0.341,0.098-0.463c-0.09-0.138-0.203-0.378-0.342-0.719
			c0.024,0.098,0.053-0.171,0.085-0.804c0.008-0.13-0.006-0.321-0.043-0.573c-0.036-0.251-0.055-0.394-0.055-0.426v-1.963
			c0-0.26-0.183-0.572-0.548-0.938c-0.365-0.366-0.727-0.605-1.084-0.719c0.008-0.017,0.097-0.154,0.268-0.415
			c0.292-0.008,0.747-0.036,1.364-0.085c0.585-0.049,0.89-0.073,0.914-0.073h2.315c0.105,0,0.215-0.012,0.329-0.036
			s0.19-0.037,0.231-0.037c0.162,0,0.446,0.158,0.853,0.476c-0.284,0.138-0.568,0.28-0.853,0.426
			c-0.35,0.188-0.605,0.395-0.768,0.622c-0.26,0.357-0.39,1.027-0.39,2.011v2.607c0,0.049,0.012,0.102,0.036,0.158
			s0.037,0.102,0.037,0.134c0.382,0.171,0.707,0.256,0.975,0.256h4.837c0.17,0.024,0.422,0.078,0.755,0.159
			c0.008,0,0.118,0.048,0.329,0.146c0.162,0.073,0.289,0.11,0.378,0.11c0.057,0,0.105-0.009,0.146-0.024
			c0.26-0.309,0.39-0.683,0.39-1.121c0-0.22-0.045-0.536-0.134-0.95s-0.13-0.703-0.122-0.865c0-0.13-0.024-0.386-0.073-0.768
			c-0.057-0.446-0.089-0.765-0.097-0.951c-0.041-0.788-0.643-1.49-1.804-2.107c0.154-0.163,0.272-0.244,0.353-0.244h1.816
			c-0.105,0,0.231-0.008,1.011-0.024c0.682-0.024,1.206-0.028,1.572-0.012C182.801,358.785,183.333,358.866,184.031,358.972z"/>
		<path fill="#090909" d="M197.203,370.145c-0.024,0.423-0.077,1.02-0.158,1.792c-0.098,0.212-0.219,0.508-0.366,0.89
			c-0.032,0.162-0.093,0.39-0.183,0.683c-0.033,0.089-0.138,0.239-0.317,0.45c-0.211,0.26-0.382,0.39-0.512,0.39h-3.107
			c-0.057,0-0.422-0.012-1.097-0.036s-1.04-0.036-1.096-0.036h-1.877c-0.049,0-0.298-0.022-0.749-0.067
			c-0.451-0.045-0.705-0.067-0.762-0.067h-1.839l-0.159-0.17c0.089-0.114,0.443-0.357,1.06-0.731
			c0.422-0.268,0.633-0.593,0.633-0.975v-3.851c0-0.626,0.098-1.466,0.292-2.522c-0.105-0.324-0.126-0.73-0.061-1.218
			c-0.146-0.122-0.219-0.293-0.219-0.512c0-0.017,0.081-0.35,0.244-0.999c0.008-0.057-0.032-0.171-0.122-0.341
			c-0.114-0.203-0.175-0.309-0.183-0.317c-0.057-0.171-0.082-0.438-0.073-0.805c0-0.504,0-0.78,0-0.829
			c-0.024-0.275-0.082-0.499-0.17-0.67c-0.122-0.235-0.321-0.422-0.597-0.561c-0.244-0.105-0.487-0.215-0.731-0.328
			c0.114-0.269,0.235-0.41,0.365-0.427c0.252,0.032,0.613,0.041,1.084,0.024c0.52-0.122,0.771-0.183,0.755-0.183h2.157
			c0.033,0,0.278,0.028,0.737,0.085c0.458,0.057,0.806,0.09,1.042,0.098c0.098,0,0.91-0.053,2.437-0.158
			c0.35-0.024,1.264,0,2.742,0.073c0.13,0.089,0.195,0.198,0.195,0.328c0,0.073-0.027,0.179-0.08,0.317
			c-0.053,0.138-0.079,0.239-0.079,0.305c-0.008,0.268-0.093,1.153-0.256,2.656c-0.024,0.049-0.142,0.126-0.353,0.231
			c-0.049-0.081-0.199-0.516-0.451-1.305c-0.163-0.512-0.463-0.791-0.902-0.84c-0.179-0.041-0.361-0.081-0.549-0.122
			c-0.251-0.057-0.447-0.065-0.584-0.024c-0.357,0.105-1.133,0.118-2.327,0.036c-0.658-0.049-1.153-0.036-1.486,0.037
			c-0.098,0.024-0.163,0.117-0.195,0.28c0.292,0.951,0.305,1.792,0.037,2.522c0.016-0.049,0.024,0.154,0.024,0.609
			c0,0.113-0.021,0.35-0.061,0.707c-0.041,0.292-0.049,0.527-0.024,0.706c0.008,0.081,0.085,0.188,0.231,0.316h4.594
			c0.146-0.048,0.288-0.097,0.426-0.146c0.227-0.081,0.386-0.207,0.475-0.378c0.081-0.211,0.231-0.504,0.451-0.877
			c0.26,0,0.426,0.089,0.5,0.268c-0.033,0.463-0.065,1.057-0.098,1.779c-0.008,0.479-0.065,1.182-0.17,2.107
			c-0.032,0.138-0.195,0.183-0.487,0.134c-0.105-0.194-0.292-0.45-0.561-0.768c-0.495-0.373-0.947-0.561-1.353-0.561h-1.681
			c-0.106,0-0.313-0.02-0.622-0.061s-0.54-0.061-0.694-0.061c-0.431,0-0.703,0.126-0.816,0.377c-0.13,0.285-0.195,0.504-0.195,0.658
			c0,0.146,0.028,0.423,0.085,0.828c0.057,0.406,0.081,0.719,0.073,0.938c-0.008,0.114-0.047,0.327-0.116,0.64
			s-0.104,0.559-0.104,0.737c0,0.139,0.016,0.265,0.049,0.378c0.057,0.195,0.278,0.431,0.664,0.707s0.717,0.435,0.993,0.476
			c0.041,0.016,0.081,0.032,0.122,0.048c0.081,0.024,0.154,0.037,0.219,0.037h2.022c0.455,0,0.837-0.073,1.146-0.22
			c0.431-0.194,0.849-0.52,1.255-0.975c0.447-0.504,0.687-0.983,0.719-1.438C196.622,370.08,196.886,370.056,197.203,370.145z"/>
	</g>
	<g>
		<path fill="#090909" d="M244.727,444.966c-0.174,1.104-0.379,2.426-0.611,3.966v10.109c-0.145,0-0.406,0.043-0.783,0.131
			c-0.379,0.087-0.639,0.13-0.785,0.13c-0.059-0.231-0.289-1.961-0.697-5.186c-0.232-1.858-1.088-3.282-2.57-4.27
			c-0.639-0.465-2.15-0.436-4.531,0.087c-1.191,0.116-2.905,0.393-5.142,0.828c-0.784,0.262-1.278,0.756-1.481,1.481
			c-0.495,1.859-0.545,4.546-0.152,8.062c0.392,3.515,0.283,8.352-0.327,14.509c0-0.028,0.188,1.976,0.567,6.014
			c-0.117,1.395-0.146,3.486-0.087,6.274c0.319,1.482,0.784,3.733,1.395,6.754c0.29,1.453,1.263,2.382,2.919,2.789
			c1.336,0.319,2.672,0.625,4.009,0.916c0,0.436-0.334,1.074-1.002,1.917h-24.707c-0.232,0-0.348-0.175-0.348-0.523
			c0-0.087,0.014-0.319,0.043-0.697c0.9-0.202,2.222-0.624,3.965-1.264c1.51-0.813,2.628-1.787,3.354-2.92
			c0.203-0.319,0.407-1.626,0.611-3.921c0.116-4.01,0.261-8.206,0.436-12.594v-15.686h1.176c0.058-0.029,0.159-0.159,0.305-0.393
			c-0.407-0.958-0.901-2.338-1.481-4.14c-0.059-0.349-0.291-2.571-0.698-6.666h-8.061c-0.843,0-1.889,0.465-3.138,1.394
			c-1.249,0.931-1.932,1.686-2.048,2.266c-0.61,2.586-1.206,4.373-1.787,5.36c-0.291,0.494-0.944,0.74-1.961,0.74
			c0-0.115-0.058-0.479-0.174-1.089c-0.087-0.522-0.103-0.901-0.044-1.134c0.349-1.19,0.682-3.035,1.002-5.533
			c0.377-3.021,0.667-5.055,0.871-6.101l1.395-1.83c-0.872-0.087,1.786-0.131,7.974-0.131c1.801,0,4.539,0.16,8.214,0.479
			c3.674,0.32,5.439,0.479,5.294,0.479h7.19c-0.029,0,0.842-0.146,2.614-0.437c1.917-0.289,3.762-0.479,5.533-0.566
			c0.668-0.087,1.336-0.174,2.004-0.261C243.855,444.226,244.436,444.443,244.727,444.966z"/>
		<path fill="#090909" d="M290.609,484.967c-0.087,1.511-0.276,3.646-0.566,6.405c-0.349,0.756-0.784,1.815-1.307,3.181
			c-0.117,0.581-0.335,1.395-0.654,2.44c-0.116,0.319-0.494,0.857-1.133,1.612c-0.755,0.93-1.365,1.395-1.83,1.395h-11.111
			c-0.203,0-1.511-0.044-3.922-0.131s-3.718-0.131-3.921-0.131h-6.711c-0.174,0-1.067-0.08-2.68-0.239
			c-1.611-0.16-2.521-0.239-2.724-0.239h-6.579l-0.566-0.61c0.319-0.406,1.583-1.278,3.791-2.615c1.51-0.959,2.265-2.12,2.265-3.485
			v-13.77c0-2.237,0.349-5.243,1.046-9.02c-0.378-1.161-0.45-2.615-0.218-4.357c-0.522-0.437-0.784-1.046-0.784-1.83
			c0-0.059,0.29-1.249,0.871-3.573c0.029-0.202-0.116-0.609-0.436-1.22c-0.407-0.727-0.625-1.104-0.653-1.134
			c-0.203-0.61-0.291-1.568-0.262-2.876c0-1.8,0-2.788,0-2.962c-0.087-0.987-0.29-1.787-0.609-2.396
			c-0.436-0.844-1.148-1.511-2.135-2.006c-0.872-0.377-1.743-0.769-2.614-1.176c0.406-0.959,0.842-1.467,1.307-1.525
			c0.9,0.117,2.193,0.146,3.878,0.088c1.858-0.437,2.76-0.654,2.702-0.654h7.712c0.115,0,0.994,0.103,2.637,0.306
			c1.641,0.203,2.883,0.319,3.726,0.349c0.349,0,3.253-0.189,8.715-0.566c1.248-0.088,4.516,0,9.804,0.261
			c0.465,0.32,0.697,0.712,0.697,1.177c0,0.262-0.095,0.639-0.283,1.133c-0.189,0.494-0.283,0.857-0.283,1.089
			c-0.029,0.959-0.334,4.126-0.915,9.499c-0.087,0.175-0.509,0.451-1.264,0.828c-0.174-0.29-0.712-1.844-1.612-4.662
			c-0.582-1.83-1.656-2.832-3.225-3.006c-0.64-0.146-1.293-0.29-1.961-0.436c-0.9-0.203-1.598-0.232-2.091-0.088
			c-1.278,0.378-4.053,0.422-8.323,0.131c-2.353-0.174-4.125-0.131-5.316,0.131c-0.349,0.087-0.581,0.422-0.697,1.002
			c1.046,3.398,1.09,6.405,0.131,9.021c0.058-0.175,0.087,0.552,0.087,2.178c0,0.407-0.072,1.25-0.218,2.527
			c-0.146,1.046-0.174,1.889-0.087,2.527c0.028,0.29,0.305,0.668,0.828,1.134h16.428c0.522-0.175,1.03-0.349,1.524-0.524
			c0.813-0.29,1.38-0.74,1.699-1.351c0.29-0.755,0.828-1.801,1.613-3.137c0.93,0,1.525,0.32,1.786,0.958
			c-0.116,1.656-0.232,3.777-0.349,6.362c-0.029,1.715-0.232,4.227-0.609,7.539c-0.116,0.494-0.697,0.653-1.744,0.479
			c-0.378-0.696-1.046-1.612-2.004-2.745c-1.772-1.336-3.385-2.005-4.836-2.005h-6.014c-0.378,0-1.119-0.071-2.223-0.218
			c-1.104-0.145-1.932-0.218-2.483-0.218c-1.54,0-2.514,0.451-2.92,1.351c-0.465,1.018-0.697,1.802-0.697,2.354
			c0,0.523,0.102,1.511,0.305,2.963c0.203,1.453,0.29,2.571,0.262,3.355c-0.029,0.407-0.167,1.169-0.414,2.287
			s-0.37,1.998-0.37,2.637c0,0.494,0.058,0.944,0.175,1.351c0.202,0.697,0.994,1.54,2.375,2.527
			c1.379,0.988,2.563,1.555,3.551,1.699c0.146,0.059,0.29,0.116,0.436,0.174c0.29,0.088,0.552,0.131,0.784,0.131h7.234
			c1.626,0,2.991-0.261,4.095-0.784c1.54-0.697,3.036-1.858,4.489-3.485c1.597-1.801,2.454-3.515,2.57-5.143
			C288.532,484.734,289.477,484.647,290.609,484.967z"/>
		<path fill="#090909" d="M343.553,499.172c-0.523,0.232-1.293,0.306-2.311,0.218c-1.685-0.146-2.469-0.218-2.353-0.218h-3.485
			c-4.213,0-7.495,0.218-9.848,0.654c-1.308,0.231-2.179,0.101-2.614-0.393c-0.059-0.871-0.016-1.612,0.131-2.223
			c0.58-0.059,1.394-0.262,2.439-0.61c0.436-0.262,0.77-0.697,1.002-1.307c0.232-0.61,0.275-1.09,0.131-1.438
			c-0.378-1.684-0.959-4.211-1.743-7.582c-0.059-0.203-0.378-1.03-0.958-2.483c-0.465-1.161-0.697-2.048-0.697-2.657
			c-0.029-0.175-0.218-0.262-0.567-0.262c-0.494,0-2.876,0.116-7.146,0.349l-9.194,0.131c-0.668-0.029-1.293,0.581-1.873,1.83
			c-0.291,0.639-0.697,1.583-1.221,2.832c-0.669,2.034-0.988,3.239-0.959,3.617c0-0.203-0.146,0.668-0.436,2.613
			c-0.203,1.366-0.203,2.295,0,2.789c0.115,0.291,0.559,0.756,1.33,1.395c0.769,0.639,1.43,1.062,1.982,1.264
			c0.145,0.059,0.377,0.131,0.697,0.218c0.231,0.407,0.42,0.727,0.566,0.959c-0.61,0.174-1.453,0.363-2.527,0.566
			c-1.686-0.146-4.111-0.262-7.277-0.349c-0.668,0.203-1.699,0.406-3.094,0.61c-0.059,0-1.119-0.131-3.181-0.393
			c-0.059-0.146-0.088-0.276-0.088-0.392c0-0.349,0.436-0.843,1.308-1.481c0.319-0.437,0.856-1.003,1.613-1.7
			c0.667-0.436,1.248-1.184,1.742-2.244c0.494-1.06,1.249-2.708,2.266-4.945c0.436-1.395,1.09-3.501,1.961-6.318
			c0.58-1.336,1.321-3.369,2.222-6.101c0.668-2.004,1.642-4.981,2.92-8.933c0.116-0.116,0.262-0.29,0.437-0.523
			c0.087,0.466,0.202,0.697,0.348,0.697c0.203,0,0.465-0.624,0.785-1.873c0.29-1.133,0.436-1.946,0.436-2.44
			c0-0.087-0.016-0.131-0.044-0.131c-0.059,0.088-0.16,0.349-0.305,0.785c0-0.29,0.028-0.697,0.087-1.221
			c0.464-1.22,1.118-3.021,1.961-5.403c0.202-1.133,0.827-2.817,1.873-5.054c0.146-0.494,0.363-1.249,0.653-2.266
			c0.262-0.873,0.77-2.18,1.525-3.923c0.087-0.377,0.305-0.915,0.653-1.611c0.176-0.203,0.857-0.262,2.049-0.175
			c1.133,0.029,2.847,0.131,5.142,0.305c0.755,2.179,2.105,5.651,4.053,10.414c0.058,0.553,0.218,1.366,0.479,2.44
			c0.464,1.366,1.074,2.63,1.829,3.791c-0.146,0.204-0.029,0.959,0.349,2.266c0.465,1.046,1.147,2.586,2.048,4.619
			c0.61,2.005,1.554,4.793,2.832,8.366c0.087,0.813,0.363,1.977,0.829,3.486c0,0.232,0.072,0.596,0.218,1.089
			c0.349,0.756,0.973,2.208,1.873,4.357c0.319,0.465,0.756,1.176,1.308,2.135c-0.029,0.232,0,0.552,0.087,0.96
			c0.406,1.19,1.031,2.86,1.874,5.01c0.29,0.494,0.784,1.395,1.481,2.701c0.174,0.349,1.002,0.8,2.483,1.352
			c0.436,0.146,1.075,0.364,1.918,0.654V499.172z M321.154,476.339c-0.029-0.028-1.089-2.919-3.18-8.671
			c-0.349-1.162-0.887-2.891-1.612-5.186c-0.349-0.697-0.813-1.699-1.395-3.006c-0.174-0.61-0.479-1.482-0.915-2.615
			c-1.047,2.383-2.209,4.794-3.486,7.233c-0.174,0.175-0.378,0.451-0.61,0.828c-0.087,0.436-0.247,1.104-0.479,2.004
			c-0.204,0.407-0.451,0.988-0.741,1.744c-0.029,0.494-0.102,1.133-0.218,1.917c-0.203,0.29-0.436,0.697-0.697,1.22
			c-0.146,0.669-0.363,1.612-0.653,2.832c-0.146,0.232-0.334,0.552-0.566,0.958c0.058-0.318,0.087-0.071,0.087,0.741H321.154z"/>
		<path fill="#090909" d="M412.704,497.342c0.115,0.203,0.174,0.407,0.174,0.61c0,0.987-0.596,1.481-1.786,1.481
			c-0.232,0-0.465-0.044-0.697-0.131c-0.697-0.319-1.497-0.508-2.397-0.566c-0.639-0.058-1.467-0.058-2.483,0
			c-1.249,0.029-2.063,0.044-2.439,0.044c-4.097-0.087-6.486-0.065-7.168,0.065c-0.684,0.131-1.765,0.268-3.246,0.414
			c-1.308,0.115-2.121-0.146-2.441-0.785c-0.086-0.202-0.043-0.485,0.131-0.85c0.176-0.363,0.407-0.574,0.698-0.632
			c0.087-0.029,1.205-0.146,3.354-0.349c1.656-0.175,2.673-1.569,3.05-4.183c0.059-1.743,0.146-4.372,0.262-7.888
			c0-0.203-0.051-0.537-0.152-1.002c-0.103-0.464-0.152-0.799-0.152-1.002c0.058-2.382-0.131-5.767-0.566-10.152v-3.442
			c0-0.058-0.124-0.589-0.37-1.591c-0.247-1.003-0.386-1.722-0.414-2.157c-0.146-1.945-0.189-3.282-0.131-4.009
			c0-0.028,0.079-0.318,0.239-0.871c0.159-0.551,0.24-1.017,0.24-1.395c0-0.61-0.189-1.075-0.566-1.395
			c-0.697,0.494-1.221,1.41-1.568,2.746c-0.262,0.406-0.582,0.987-0.959,1.742c-0.116,0.553-0.334,1.351-0.653,2.396
			c-0.146,0.203-0.378,0.566-0.697,1.089c-0.059,0.32-0.175,0.756-0.349,1.308c-0.522,1.075-1.294,2.645-2.311,4.706
			c-0.059,0.407-0.174,1.018-0.349,1.83c-0.261,0.349-0.552,0.8-0.871,1.351c-0.059,0.436-0.218,1.018-0.479,1.743
			c-0.522,0.9-1.249,2.281-2.178,4.14c-0.088,0.582-0.291,1.424-0.61,2.527c-0.146,0.174-0.349,0.436-0.61,0.784
			c-0.029,0.087-0.232,0.712-0.609,1.873c-0.233,0.378-0.509,0.915-0.828,1.612c-0.087,0.408-0.262,1.032-0.522,1.875
			c-0.233,0.29-0.509,0.77-0.828,1.438c0,0.029-0.887,2.091-2.658,6.187c-0.029,0.554-0.335,1.309-0.915,2.267
			c-0.029,0-0.684,0.072-1.961,0.218c-0.784,0.088-1.395-0.095-1.83-0.544c-0.436-0.45-1.118-1.723-2.048-3.813
			c-0.465-0.9-1.105-2.236-1.918-4.009c-0.291-0.929-0.727-2.178-1.307-3.748c-0.088-0.202-1.656-3.268-4.706-9.193
			c-0.087-0.378-0.247-0.915-0.479-1.612c-1.423-2.73-3.486-7.044-6.188-12.941c-0.262-1.161-0.784-2.86-1.568-5.099
			c-0.756-1.539-1.555-2.309-2.396-2.309c-0.232,0.203-0.349,0.973-0.349,2.309c0.116,0.35,0.232,0.872,0.349,1.569
			c0.028,0.378,0.015,0.915-0.044,1.612c-0.028,0.843-0.043,1.235-0.043,1.177v4.183l-1.09,16.428v3.616
			c0-0.262-0.021,0.043-0.064,0.915c-0.044,0.872-0.065,2.296-0.065,4.271c0.028,0.522,0.174,1.22,0.436,2.091
			c0.726,1.191,1.423,1.99,2.091,2.396c0.581,0.116,1.467,0.407,2.658,0.873c0.436,0.232,0.566,0.639,0.392,1.22
			c-0.581,0.668-2.236,0.827-4.967,0.479h-3.966c-0.784,0-1.38,0.028-1.786,0.087c-1.917,0.203-3.878,0.29-5.883,0.261
			c-0.262-0.174-0.436-0.479-0.522-0.914c-0.088-0.494,0.043-0.828,0.392-1.003c0.146-0.087,0.814-0.202,2.005-0.349
			c0.262-0.146,0.61-0.349,1.046-0.61c1.395-0.668,2.338-1.961,2.832-3.878c0.116-0.464,0.29-1.975,0.523-4.531
			c0.145-0.377,0.333-0.916,0.566-1.613c0.202-1.045,0.305-1.757,0.305-2.135v-3.312c0-0.115,0.036-0.29,0.108-0.522
			s0.109-0.377,0.109-0.436c-0.029-1.771,0.203-4.358,0.697-7.757c0.058-0.231,0.131-1.204,0.218-2.919
			c0.115-2.964,0.145-4.968,0.087-6.014c0-0.115,0.044-0.37,0.131-0.762c0.087-0.393,0.131-0.632,0.131-0.72v-6.101
			c0-0.115,0.152-0.544,0.457-1.285c0.306-0.74,0.501-1.256,0.589-1.547c0.115-0.522,0.115-1.146,0-1.873
			c-0.233-0.436-0.566-1.09-1.003-1.961c-0.029-0.61-0.392-1.38-1.089-2.31c-0.378-0.059-0.93-0.146-1.655-0.262
			c-0.727-0.116-1.692-0.29-2.897-0.523c-1.206-0.231-1.852-0.362-1.939-0.392c-0.814-0.232-1.235-0.61-1.264-1.133
			c0.697-0.61,1.874-0.813,3.529-0.61c1.221,0.175,2.876,0.407,4.967,0.697c0.262,0.029,0.683,0,1.264-0.087
			c0.727-0.146,1.235-0.218,1.526-0.218c0.145-0.028,1.801,0.059,4.967,0.262c0.871,0.029,1.568,0.914,2.092,2.657
			c0.231,0.378,0.609,1.089,1.133,2.136c0.145,0.553,0.392,1.351,0.741,2.396c0.493,0.436,1.089,1.147,1.786,2.135
			c0.028,0.553,0.102,1.351,0.218,2.396c0.232,0.32,0.508,0.77,0.828,1.351c2.323,5.259,4.517,10.414,6.579,15.47
			c0.493,1.22,1.01,2.65,1.548,4.291c0.537,1.643,1.328,3.465,2.374,5.469c0.436,0.465,0.987,1.177,1.656,2.135
			c0.087,0.117,0.218,0.713,0.392,1.787c0.146,0.669,0.465,1.046,0.959,1.134c0.349-0.059,0.624-0.277,0.827-0.655
			c0.9-1.713,1.932-4.27,3.095-7.668c1.161-3.399,2.294-6.145,3.398-8.235c0.116-0.436,0.319-1.104,0.61-2.004
			c0.231-0.523,0.595-1.322,1.089-2.397c0.028-0.116,0.181-0.327,0.457-0.632s0.443-0.53,0.502-0.676
			c0.087-0.609,0.29-1.466,0.609-2.57l1.22-2.788c0.437-0.61,1.163-1.641,2.18-3.095c0.087-0.087,0.246-0.784,0.479-2.092
			c0.028-0.145,0.899-2.294,2.614-6.449c0.028-0.522,0.188-1.321,0.479-2.396c0.784-1.771,2.526-2.426,5.229-1.961
			c0.319,0.174,0.813,0.363,1.481,0.566c2.12,0.203,3.66,0.189,4.619-0.044c0.58,0,1.394-0.058,2.439-0.174
			c0.232-0.146,0.624-0.341,1.177-0.589c0.552-0.246,1.147-0.268,1.787-0.064c0.319,0.116,0.493,0.348,0.522,0.696
			c0.087,0.901-0.363,1.453-1.351,1.656c-0.844,0.116-1.686,0.232-2.528,0.349c-0.232,0.174-0.631,0.45-1.197,0.827
			c-0.566,0.378-1.345,1.046-2.331,2.006c-0.029,0.059-0.276,1.118-0.741,3.181c-0.378,1.685-0.334,4.212,0.131,7.582
			c0.203,1.568,0.334,3.006,0.393,4.313c0,1.394,0.043,3.529,0.13,6.405c0-0.087-0.059,1.511-0.174,4.793
			c-0.059,1.829,0.072,3.646,0.392,5.447c0.319,1.162,0.654,2.904,1.003,5.228c0.174,3.08,0.319,4.881,0.436,5.404
			c0.319,1.598,1.117,2.934,2.396,4.008c0.377,0.32,0.871,0.465,1.482,0.436c0.755-0.058,1.233-0.058,1.438,0
			C412.138,496.674,412.442,496.935,412.704,497.342z"/>
	</g>
</g>
<g id="Capa_6">
	<g>
		<linearGradient id="SVGID_7_" gradientUnits="userSpaceOnUse" x1="62.3804" y1="396.3281" x2="409.4148" y2="471.8356">
			<stop  offset="0" style="stop-color:#FF6600"/>
			<stop  offset="0.5" style="stop-color:#FFCC00"/>
			<stop  offset="1" style="stop-color:#FF6600"/>
		</linearGradient>
		<path fill="url(#SVGID_7_)" d="M150.614,361.023c-0.606,0.182-1.56,0.516-2.861,0.999c-2.301,1.061-3.906,2.377-4.814,3.951
			c-0.575,1.029-0.681,3.043-0.318,6.04c0.03,0.122,0.121,0.341,0.272,0.659c0.151,0.317,0.227,0.553,0.227,0.704
			c0-0.151-0.303,0.681-0.908,2.497c-0.272,0.938-0.409,1.907-0.409,2.906v7.721c0,0.182,0.075,0.379,0.227,0.59
			c0.151,0.213,0.242,0.379,0.272,0.5c0.03,0.151-0.016,0.447-0.136,0.886c-0.121,0.438-0.182,0.749-0.182,0.931v7.267
			c0-0.303-0.076,0.984-0.227,3.859c-0.152,2.544-0.197,4.331-0.136,5.36c0.393,4.663,0.59,6.691,0.59,6.085v10.265
			c0,1.665-0.106,3.239-0.318,4.723c-0.243,0.757-0.53,1.892-0.863,3.406c-0.243,1.847-0.243,3.405,0,4.677
			c0.333,0.908,0.696,2.271,1.09,4.088c-0.152,1.604-0.182,3.784-0.091,6.54c0.363,1.937,1.726,3.376,4.087,4.314
			c0.817,0.303,2.089,0.954,3.814,1.952c0.212,0.394,0.159,1.015-0.159,1.862c-0.318,0.848-0.734,1.256-1.249,1.226
			c-1.877-0.151-3.74-0.303-5.586-0.453c-3.209-0.243-5.298-0.349-6.267-0.318c-0.272,0-0.583,0.137-0.931,0.408
			c-0.349,0.273-0.553,0.409-0.613,0.409h-6.403c-0.363,0-1.067,0.053-2.111,0.159c-1.045,0.105-1.87,0.158-2.476,0.158
			c-1.665,0-2.967-0.348-3.906-1.044c-0.03-0.938,0.106-2.089,0.409-3.451c0.938-0.212,2.21-0.712,3.815-1.499
			c1.09-0.939,2.332-2.423,3.724-4.45c0.666-0.97,0.969-2.604,0.908-4.904c0-0.213-0.091-0.599-0.272-1.159
			s-0.272-0.932-0.272-1.113v-6.493c0,0.575-0.045-0.832-0.136-4.225c-0.091-2.754-0.091-4.601,0-5.539
			c0.302-3.028,0.242-5.662-0.182-7.903c-0.061-0.182,0-2.376,0.182-6.585c0.121-1.635,0.288-4.117,0.5-7.448
			c-0.03,0.061-0.348-3.693-0.954-11.263c-0.03-0.636-0.212-1.468-0.545-2.498c-0.575,1.545-1.09,3.134-1.544,4.769
			c-1.12,3.694-2.664,9.189-4.632,16.485c-0.03,1-0.212,2.514-0.545,4.542c-0.788,1.908-1.816,4.845-3.088,8.812
			c0,1.361-0.106,3.391-0.318,6.084c-0.697,2.332-1.726,5.874-3.088,10.628c-0.212,2.119-0.788,5.435-1.726,9.945
			c-0.424,1.393-1.272,3.271-2.543,5.632c-0.243,0.091-0.59,0.228-1.044,0.409c-1.06,0.545-2.438,0.727-4.133,0.545
			c-0.303-0.576-0.697-1.408-1.181-2.498c-0.636-2.816-1.68-7.04-3.134-12.672c-0.484-0.727-1.12-1.998-1.907-3.814
			c0.151-1.393,0.121-3.284-0.091-5.677c-0.757-2.119-1.65-3.542-2.68-4.269c0.061-0.636,0.091-1.286,0.091-1.952
			c0-3.785-0.969-6.661-2.906-8.63c-0.212-0.847-0.53-1.998-0.954-3.451c-0.485-2.392-1.151-5.632-1.999-9.718
			c-0.545-1.515-1.317-3.771-2.316-6.768c-0.272-1.211-0.561-2.422-0.863-3.634c-0.394-1.423-0.969-2.543-1.726-3.36
			c-0.091-1.302-0.47-2.937-1.135-4.904c-0.454,0.121-0.802,2.043-1.044,5.768c-0.091,1.453,0.015,3.664,0.318,6.63
			c0.302,3.18,0.454,4.647,0.454,4.405v7.721c0,1.635-0.045,5.359-0.136,11.172c-0.091,4.936-0.106,8.659-0.045,11.172
			c0.182,0.758,0.424,2.574,0.727,5.45c0,2.422,0.242,6.025,0.727,10.809c0.333,1.816,1.544,3.284,3.633,4.406
			c1.21,0.574,2.482,1.361,3.815,2.361c0.302,1.119,0.151,2.058-0.454,2.814c-0.757,0.363-1.878,0.545-3.361,0.545
			c-0.606,0-2.892-0.212-6.858-0.635c-0.697-0.062-1.605,0-2.725,0.182c-1.423,0.211-2.332,0.332-2.725,0.363
			c-1.423,0.09-3.633-0.062-6.63-0.455c-0.545-0.727-0.817-1.514-0.817-2.361c0-0.696,0.257-1.211,0.772-1.543
			c0.727-0.122,1.741-0.47,3.043-1.045c0.787-0.515,1.755-1.394,2.906-2.635c0.666-1.332,1.12-2.876,1.362-4.632
			c0.211-1.604,0.424-3.209,0.636-4.814v-6.267c0-2.877-0.045-4.027-0.137-3.452c0.636-3.693,0.954-5.964,0.954-6.812v-5.813
			l-1.227-9.945v-5.632c0-0.182,0.053-0.47,0.159-0.863c0.105-0.394,0.159-0.65,0.159-0.771c0.061-0.637,0.03-1.635-0.091-2.998
			l-0.228-2.225v-7.176c0,0.151,0.091-0.62,0.272-2.315c0.152-1.483,0.167-2.513,0.046-3.089c-0.03-0.212-0.167-0.742-0.409-1.59
			c-0.212-0.757-0.318-1.227-0.318-1.408v-6.494c0-0.121-0.129-0.666-0.386-1.635s-0.401-1.71-0.431-2.226
			c0-0.09-0.424-0.908-1.271-2.451c-0.757-1.393-1.499-2.331-2.226-2.816c-0.212-0.12-1.09-0.317-2.634-0.591
			c-0.182-0.03-0.272-0.408-0.272-1.135c-0.03-0.727,0.03-1.241,0.182-1.545c0.515-0.483,1.287-0.727,2.316-0.727
			c1.393-0.029,2.21-0.075,2.453-0.136l9.9,0.228c0.545,0.182,1.014,0.271,1.408,0.271c0.302,0,0.62-0.052,0.954-0.158
			s0.575-0.159,0.727-0.159c0.454,0,1.09,0.272,1.907,0.817c0.484,0.333,1.15,1.816,1.998,4.451c0.272,1.544,0.636,3.467,1.09,5.767
			c0.393,1.303,0.969,3.256,1.726,5.859c0.515,1.998,1.301,4.329,2.361,6.994c1.847,4.783,4.057,11.793,6.631,21.027
			c0.061,0.271-0.152,1.361-0.636,3.27c-0.152,0.212-0.379,0.515-0.681,0.908c-0.152,1.968-0.212,2.997-0.182,3.089
			c0.151,0.394,1.105,0.848,2.861,1.361c0.393,1.515,0.983,3.618,1.771,6.313c0.424,0.938,1.045,2.438,1.862,4.497
			c0.211,1.18,0.59,2.618,1.135,4.313c0.484-0.878,0.999-1.847,1.544-2.906c0.424-1.12,1.015-2.771,1.771-4.951
			c0-0.393,0.045-0.998,0.136-1.816c0.484-2.543,1.514-5.781,3.088-9.718c0.121-0.848,0.363-2.135,0.727-3.86
			c0.666-1.635,1.499-4.27,2.498-7.902c0.242-1.877,0.484-3.792,0.727-5.745c0.242-1.953,0.651-3.656,1.226-5.109
			c0.455-0.786,1-1.982,1.635-3.587c0.727-4.209,2.134-10.249,4.224-18.12c0.061-0.969,0.393-2.272,0.999-3.907
			c0.605-0.665,1.294-0.998,2.066-0.998c0.772,0,1.9-0.023,3.384-0.068c1.483-0.046,2.664-0.068,3.542-0.068
			c0.121,0,0.355,0.061,0.704,0.182s0.583,0.182,0.704,0.182l10.854-0.227c0.333-0.061,0.673,0.212,1.022,0.816
			c0.348,0.606,0.522,1.166,0.522,1.681C150.66,360.766,150.644,360.902,150.614,361.023z"/>
		<linearGradient id="SVGID_8_" gradientUnits="userSpaceOnUse" x1="65.5728" y1="381.6563" x2="412.6081" y2="457.1639">
			<stop  offset="0" style="stop-color:#FF6600"/>
			<stop  offset="0.5" style="stop-color:#FFCC00"/>
			<stop  offset="1" style="stop-color:#FF6600"/>
		</linearGradient>
		<path fill="url(#SVGID_8_)" d="M205.663,406.22c0,1.59-0.042,2.803-0.125,3.639c-0.279,0.643-0.572,1.633-0.878,2.971
			c-0.056,1.339-0.349,2.761-0.878,4.266c-0.447,0.559-1.102,1.464-1.966,2.72c-0.223,0.837-0.836,2.036-1.84,3.597
			c-0.809,0.81-2.036,2.064-3.681,3.765c-0.251,0.084-0.572,0.224-0.962,0.418c-0.363,0.335-1.004,0.823-1.925,1.464
			c-4.573,2.427-8.923,3.808-13.05,4.142h-5.521c0.056,0-0.056-0.083-0.335-0.251c-3.011-0.083-5.271-0.502-6.776-1.255
			c-0.391-0.083-0.92-0.223-1.589-0.418c-1.116-0.445-2.789-1.24-5.02-2.385c-2.677-1.7-5.187-4.099-7.529-7.193
			c-1.311-1.729-2.468-3.96-3.472-6.693c-0.948-2.537-1.479-4.67-1.589-6.4c-0.195-2.955-0.083-5.854,0.334-8.7
			c0.167-0.361,0.39-0.878,0.669-1.547c0.167-0.837,0.46-2.05,0.878-3.639c0.613-0.977,1.422-2.398,2.426-4.268
			c0.139-0.307,0.209-0.669,0.209-1.087c0.139-0.14,0.418-0.098,0.836,0.125c0.139-0.39,0.139-0.947,0-1.673
			c0.362-0.111,0.878-0.349,1.548-0.711c0.223-0.586,0.753-1.297,1.589-2.133c1.673-0.893,4.197-2.202,7.571-3.933
			c0.864-0.418,1.966-0.78,3.304-1.088c3.402-0.78,5.716-1.171,6.944-1.171h3.262c2.538,0,4.712,0.237,6.526,0.711
			c0.976,0.279,3.122,1.061,6.441,2.344c0.696,0.446,1.798,1.144,3.305,2.091c2.175,1.395,4.154,3.304,5.939,5.729
			c1.589,2.176,2.62,4.184,3.095,6.024c0.224,0.307,0.502,0.767,0.837,1.38c0.613,1.673,0.962,4.156,1.046,7.445
			c0,0.112,0.063,0.37,0.188,0.774S205.663,405.997,205.663,406.22z M196.376,407.308c-0.251-3.514-0.935-6.72-2.049-9.621
			c-1.422-3.735-3.096-6.677-5.02-8.825c-2.733-3.012-5.717-4.782-8.951-5.312c-3.068-0.502-5.173-0.67-6.316-0.502
			c-2.231,0.278-4.127,0.767-5.688,1.464c-0.196,0.083-1.464,0.822-3.807,2.216c-0.14,0.279-0.391,0.614-0.753,1.004
			c-0.224,0.057-0.474,0.141-0.753,0.251c-0.558,0.726-1.254,1.701-2.091,2.929c-0.112,0.335-0.293,0.81-0.544,1.422
			c-0.418,0.67-0.865,1.464-1.339,2.385c-0.251,1.031-0.642,2.579-1.171,4.642c0.027,0.781,0.014,1.967-0.042,3.557
			c0,0.083-0.056,0.266-0.167,0.544s-0.153,0.474-0.125,0.585c0.39,1.813,0.948,4.322,1.673,7.529
			c-0.084,0.224-0.14,0.488-0.167,0.795c0.195,0.391,0.474,0.92,0.837,1.589c0.027,0.363,0.111,0.837,0.251,1.423
			c1.171,2.342,1.784,3.541,1.84,3.597c0.836,1.451,1.979,2.831,3.43,4.142c0.027,0.027,0.209,0.6,0.543,1.715
			c0.111,0.027,0.585,0.111,1.422,0.251c1.366,1.254,2.412,2.105,3.137,2.551c2.063,1.228,5.799,1.604,11.209,1.129
			c0.446-0.139,1.031-0.319,1.757-0.543c0.92-0.195,2.245-0.655,3.974-1.381c0.39-0.361,0.906-0.794,1.548-1.296
			c2.788-1.729,4.447-3.862,4.978-6.4c0.278-0.335,0.613-0.809,1.003-1.422c0.056-0.529,0.139-1.157,0.251-1.882
			c0.167-0.168,0.335-0.433,0.502-0.795c0.056-0.642,0.195-2.035,0.418-4.183C196.362,409.134,196.432,407.949,196.376,407.308z"/>
		<linearGradient id="SVGID_9_" gradientUnits="userSpaceOnUse" x1="67.2915" y1="373.751" x2="414.3292" y2="449.2592">
			<stop  offset="0" style="stop-color:#FF6600"/>
			<stop  offset="0.5" style="stop-color:#FFCC00"/>
			<stop  offset="1" style="stop-color:#FF6600"/>
		</linearGradient>
		<path fill="url(#SVGID_9_)" d="M257.529,431.401c-0.224,0.307-0.586,0.684-1.087,1.129c-1.255,0.696-2.162,1.046-2.72,1.046h-5.02
			c-1.701,0-2.969-0.07-3.806-0.209c-0.614-0.224-1.549-0.544-2.803-0.963c-1.061-0.334-2.914-2.007-5.563-5.02
			c-0.223-0.251-1.311-2.049-3.262-5.396c-1.757-3.039-3.137-5.591-4.141-7.654c-0.251-0.78-0.697-1.784-1.338-3.012
			c-0.28-0.307-0.977-0.418-2.092-0.334c-0.697,0.083-1.408,0.167-2.133,0.251c-0.921-0.056-2.287-0.069-4.1-0.042
			c-0.195,0-0.433,0.167-0.711,0.502c0.111,1.087,0.251,4.503,0.418,10.248c0.027,1.115,0.251,2.579,0.669,4.391
			c0,0.502,0.139,1.241,0.418,2.217c0.585,1.005,1.533,1.73,2.844,2.176c1.06,0.308,2.119,0.614,3.179,0.921
			c0.027,0.307,0,0.669-0.083,1.087c-0.809,0.335-1.631,0.502-2.468,0.502h-4.392c-0.056,0-0.433-0.07-1.129-0.209
			c-0.698-0.14-1.2-0.209-1.506-0.209c-0.865,0-3.123,0.139-6.776,0.418h-4.225c-0.418,0-0.92-0.125-1.506-0.376
			c0-0.084-0.035-0.251-0.104-0.502c-0.07-0.251-0.104-0.433-0.104-0.544c1.449-0.391,2.342-0.669,2.677-0.837
			c1.031-0.474,1.868-1.282,2.51-2.427c0.278-0.502,0.474-1.784,0.585-3.848c0-0.334,0.098-1.198,0.293-2.593
			c0.167-1.282,0.251-2.26,0.251-2.929c0-3.792,0.035-5.841,0.104-6.148c0.069-0.307,0.327-0.809,0.774-1.506
			c-0.196-0.194-0.447-0.57-0.753-1.129c-0.14-0.503-0.209-1.214-0.209-2.134v-4.225c0-0.027-0.042-0.46-0.125-1.296
			c0.028,0.334,0.153-1.506,0.376-5.522c-0.028-0.056-0.098-0.152-0.209-0.293c-0.307-1.087-0.293-2.522,0.042-4.308
			c0.111-0.502-0.07-2.176-0.544-5.02c-0.028-0.893-0.279-2.063-0.753-3.514c-0.613-0.753-1.409-1.227-2.384-1.422
			c-0.836-0.194-1.659-0.376-2.468-0.544c0-1.59-0.042-1.925-0.125-1.004c0.056-0.446,0.335-0.684,0.836-0.712
			c1.143-0.055,2.97-0.181,5.479-0.376c2.314-0.223,3.5-0.335,3.556-0.335h5.396c1.003,0,2.035-0.083,3.095-0.251
			c1.06-0.167,1.966-0.251,2.719-0.251c0.948,0,2.133,0.084,3.556,0.251c0.892,0.195,2.202,0.475,3.931,0.837
			c0.168,0.111,0.446,0.237,0.837,0.376c2.677,0.42,5.047,1.688,7.111,3.808c1.142,1.199,2.16,3.318,3.052,6.358
			c0.027,0.446,0.069,1.102,0.126,1.965c0.056,0.698,0,1.743-0.167,3.138c-0.363,2.955-1.061,5.187-2.092,6.692
			c-0.948,1.395-2.774,3.346-5.479,5.855c-0.028,0.586,0.083,1.102,0.334,1.549c1.757,3.374,3.514,6.748,5.271,10.122
			c2.091,3.653,4.629,6.762,7.612,9.327c0.251,0.224,1.282,0.586,3.096,1.088c1.087,0.279,2.007,0.349,2.761,0.209
			c1.115-0.223,1.91-0.307,2.384-0.251C257.501,430.718,257.529,431.011,257.529,431.401z M234.608,395.596
			c0-0.92-0.07-1.533-0.209-1.84c-1.395-3.709-2.58-6.08-3.555-7.111c-1.338-1.449-2.831-2.37-4.476-2.761
			c-1.088-0.251-2.844-0.32-5.271-0.209c-0.251,0.028-0.642,0.182-1.171,0.46c-0.447,4.796-0.726,8.673-0.837,11.628
			c0.14,0.224,0.279,0.544,0.418,0.962c0,0.391-0.125,1.98-0.376,4.77c-0.167,1.84-0.125,3.681,0.125,5.521
			c0.083,0.084,0.195,0.209,0.334,0.376h4.141c0.474,0.112,0.976,0.168,1.506,0.168c1.645,0,3.228-0.523,4.748-1.568
			c1.519-1.046,2.447-1.903,2.782-2.572C233.994,401.132,234.608,398.523,234.608,395.596z"/>
		<linearGradient id="SVGID_10_" gradientUnits="userSpaceOnUse" x1="69.6504" y1="362.9141" x2="416.6857" y2="438.4218">
			<stop  offset="0" style="stop-color:#FF6600"/>
			<stop  offset="0.5" style="stop-color:#FFCC00"/>
			<stop  offset="1" style="stop-color:#FF6600"/>
		</linearGradient>
		<path fill="url(#SVGID_10_)" d="M304.795,402.163c0.167,1.422,0.027,3.932-0.418,7.528c-0.279,1.116-0.684,2.748-1.213,4.895
			c-1.145,4.74-3.222,8.52-6.233,11.335c-1.171,1.088-2.677,2.175-4.518,3.263c-2.175,1.312-3.932,2.022-5.27,2.134
			c-0.168,0.111-0.446,0.237-0.837,0.376c-4.128,0.613-6.121,0.921-5.981,0.921h-27.23c-0.224-0.976-0.153-1.59,0.209-1.841
			c1.171-0.418,1.98-0.627,2.427-0.627c0.167-0.223,0.404-0.529,0.711-0.921c1.311-1.366,1.966-2.872,1.966-4.518
			c0-0.027-0.084-0.376-0.251-1.046c0.111-0.278,0.194-0.683,0.251-1.213c-0.111-0.223-0.251-0.57-0.418-1.045
			c-0.028-0.168,0.027-0.481,0.167-0.941s0.223-0.802,0.251-1.025c0.056-1.06,0.084-2.732,0.084-5.019v-4.728
			c-0.028-3.206,0-7.863,0.083-13.971c0-0.083-0.069-0.271-0.209-0.564s-0.209-0.508-0.209-0.648c0-0.445,0.069-1.136,0.209-2.07
			c0.14-0.934,0.209-1.639,0.209-2.112c0-0.111-0.083-0.32-0.251-0.628c-0.167-0.307-0.278-0.558-0.334-0.753
			c0.027-0.529-0.015-1.338-0.126-2.426c-0.475-1.867-1.186-3.053-2.133-3.555c-0.781-0.391-2.12-0.725-4.017-1.004
			c-0.027-0.167-0.041-0.529-0.041-1.087c1.198-0.587,2.397-0.754,3.598-0.503c0.39,0.307,0.654,0.446,0.795,0.418
			c0.194-0.111,0.432-0.251,0.711-0.418c0.92-0.027,1.84-0.056,2.76-0.084c1.004,0.028,1.784,0.446,2.343,1.256
			c0.083,0,0.181-0.014,0.292-0.042c0.251-0.418,0.67-0.963,1.255-1.632c0.67,0.111,1.604,0.251,2.804,0.418
			c0.056,0.028,0.174-0.056,0.355-0.251c0.181-0.194,0.341-0.32,0.48-0.376c0.864-0.279,2.161-0.419,3.89-0.419h10.625
			c4.602,1.032,7.85,1.967,9.745,2.804c3.599,1.562,6.554,3.959,8.868,7.193c0.474,0.613,1.129,1.604,1.966,2.971
			C303.387,394.634,304.265,397.952,304.795,402.163z M302.912,402.121c-3.402-0.223-5.8-0.307-7.194-0.251
			c-0.223-0.111-0.307-0.585-0.251-1.423c-0.501-1.227-1.296-2.983-2.385-5.27c-1.478-3.012-3.109-5.403-4.894-7.174
			s-4.685-3.019-8.7-3.743c-1.813-0.307-2.635-0.46-2.468-0.46h-4.309c-0.111,0-0.878,0.132-2.3,0.396
			c-1.423,0.266-2.371,0.426-2.845,0.481c-0.391,1.952-0.544,4.071-0.46,6.358c0.056,1.087,0.084,3.304,0.084,6.649v16.522
			c0-0.027-0.042,0.446-0.126,1.423c-0.056,0.864-0.056,1.505,0,1.924c0.14,1.617,0.209,2.315,0.209,2.091
			c-0.083,1.116-0.098,2.051-0.041,2.803c0,0.168,0.083,0.544,0.251,1.13c0.139,0.475,0.194,0.836,0.167,1.087
			c-0.028,0.028-0.488,0.209-1.38,0.544c-0.643,0.279-1.032,0.642-1.172,1.088c0.475,0.418,1.102,0.669,1.883,0.753
			c0.557,0.027,1.114,0.041,1.673,0.041c5.605,0.642,8.854,0.962,9.746,0.962c2.648,0,4.991-0.403,7.027-1.213
			c1.784-0.725,3.248-1.673,4.392-2.844c2.453-2.481,4.085-5.563,4.895-9.244c0.39-1.784,0.669-4.755,0.836-8.909
			c0-0.335-0.251-0.809-0.753-1.422c-0.056-0.391,0.027-0.613,0.251-0.67c0.418-0.139,1.282-0.292,2.593-0.46
			c1.144-0.11,2.774-0.293,4.894-0.543C302.787,402.554,302.912,402.345,302.912,402.121z"/>
		<linearGradient id="SVGID_11_" gradientUnits="userSpaceOnUse" x1="72.8794" y1="348.0977" x2="419.9089" y2="423.6041">
			<stop  offset="0" style="stop-color:#FF6600"/>
			<stop  offset="0.5" style="stop-color:#FFCC00"/>
			<stop  offset="1" style="stop-color:#FF6600"/>
		</linearGradient>
		<path fill="url(#SVGID_11_)" d="M367.203,406.22c0,1.59-0.042,2.803-0.126,3.639c-0.278,0.643-0.571,1.633-0.878,2.971
			c-0.057,1.339-0.349,2.761-0.878,4.266c-0.447,0.559-1.103,1.464-1.966,2.72c-0.224,0.837-0.837,2.036-1.842,3.597
			c-0.809,0.81-2.035,2.064-3.681,3.765c-0.251,0.084-0.571,0.224-0.962,0.418c-0.362,0.335-1.004,0.823-1.924,1.464
			c-4.574,2.427-8.924,3.808-13.051,4.142h-5.521c0.056,0-0.057-0.083-0.335-0.251c-3.012-0.083-5.271-0.502-6.776-1.255
			c-0.391-0.083-0.92-0.223-1.59-0.418c-1.115-0.445-2.788-1.24-5.019-2.385c-2.678-1.7-5.188-4.099-7.529-7.193
			c-1.311-1.729-2.469-3.96-3.473-6.693c-0.948-2.537-1.478-4.67-1.589-6.4c-0.195-2.955-0.084-5.854,0.335-8.7
			c0.167-0.361,0.39-0.878,0.669-1.547c0.167-0.837,0.46-2.05,0.878-3.639c0.613-0.977,1.423-2.398,2.427-4.268
			c0.14-0.307,0.209-0.669,0.209-1.087c0.14-0.14,0.419-0.098,0.837,0.125c0.139-0.39,0.139-0.947,0-1.673
			c0.362-0.111,0.878-0.349,1.548-0.711c0.223-0.586,0.752-1.297,1.589-2.133c1.673-0.893,4.197-2.202,7.571-3.933
			c0.863-0.418,1.966-0.78,3.304-1.088c3.402-0.78,5.717-1.171,6.944-1.171h3.262c2.538,0,4.713,0.237,6.525,0.711
			c0.976,0.279,3.123,1.061,6.442,2.344c0.696,0.446,1.798,1.144,3.304,2.091c2.175,1.395,4.154,3.304,5.94,5.729
			c1.589,2.176,2.62,4.184,3.095,6.024c0.223,0.307,0.502,0.767,0.837,1.38c0.612,1.673,0.962,4.156,1.045,7.445
			c0,0.112,0.063,0.37,0.188,0.774C367.141,405.684,367.203,405.997,367.203,406.22z M357.917,407.308
			c-0.251-3.514-0.935-6.72-2.05-9.621c-1.422-3.735-3.095-6.677-5.02-8.825c-2.732-3.012-5.716-4.782-8.951-5.312
			c-3.067-0.502-5.173-0.67-6.315-0.502c-2.231,0.278-4.128,0.767-5.689,1.464c-0.195,0.083-1.464,0.822-3.806,2.216
			c-0.14,0.279-0.391,0.614-0.753,1.004c-0.224,0.057-0.475,0.141-0.753,0.251c-0.558,0.726-1.255,1.701-2.092,2.929
			c-0.111,0.335-0.293,0.81-0.544,1.422c-0.418,0.67-0.864,1.464-1.338,2.385c-0.251,1.031-0.643,2.579-1.172,4.642
			c0.027,0.781,0.014,1.967-0.041,3.557c0,0.083-0.057,0.266-0.168,0.544s-0.153,0.474-0.125,0.585
			c0.39,1.813,0.947,4.322,1.673,7.529c-0.084,0.224-0.14,0.488-0.167,0.795c0.194,0.391,0.474,0.92,0.836,1.589
			c0.027,0.363,0.111,0.837,0.251,1.423c1.172,2.342,1.785,3.541,1.841,3.597c0.837,1.451,1.979,2.831,3.43,4.142
			c0.027,0.027,0.21,0.6,0.544,1.715c0.111,0.027,0.586,0.111,1.422,0.251c1.366,1.254,2.412,2.105,3.137,2.551
			c2.064,1.228,5.801,1.604,11.211,1.129c0.446-0.139,1.031-0.319,1.757-0.543c0.92-0.195,2.244-0.655,3.974-1.381
			c0.39-0.361,0.905-0.794,1.547-1.296c2.789-1.729,4.448-3.862,4.979-6.4c0.278-0.335,0.613-0.809,1.004-1.422
			c0.056-0.529,0.139-1.157,0.251-1.882c0.167-0.168,0.334-0.433,0.502-0.795c0.055-0.642,0.194-2.035,0.418-4.183
			C357.902,409.134,357.973,407.949,357.917,407.308z"/>
		<linearGradient id="SVGID_12_" gradientUnits="userSpaceOnUse" x1="74.5977" y1="340.1924" x2="421.63" y2="415.6994">
			<stop  offset="0" style="stop-color:#FF6600"/>
			<stop  offset="0.5" style="stop-color:#FFCC00"/>
			<stop  offset="1" style="stop-color:#FF6600"/>
		</linearGradient>
		<path fill="url(#SVGID_12_)" d="M419.069,431.401c-0.224,0.307-0.586,0.684-1.087,1.129c-1.255,0.696-2.161,1.046-2.719,1.046
			h-5.02c-1.702,0-2.97-0.07-3.807-0.209c-0.613-0.224-1.548-0.544-2.802-0.963c-1.061-0.334-2.914-2.007-5.564-5.02
			c-0.223-0.251-1.311-2.049-3.262-5.396c-1.757-3.039-3.137-5.591-4.142-7.654c-0.25-0.78-0.697-1.784-1.339-3.012
			c-0.278-0.307-0.976-0.418-2.091-0.334c-0.697,0.083-1.408,0.167-2.133,0.251c-0.92-0.056-2.287-0.069-4.1-0.042
			c-0.195,0-0.432,0.167-0.711,0.502c0.11,1.087,0.252,4.503,0.418,10.248c0.027,1.115,0.252,2.579,0.67,4.391
			c0,0.502,0.14,1.241,0.418,2.217c0.586,1.005,1.533,1.73,2.845,2.176c1.059,0.308,2.118,0.614,3.179,0.921
			c0.027,0.307,0,0.669-0.084,1.087c-0.809,0.335-1.631,0.502-2.468,0.502h-4.392c-0.057,0-0.434-0.07-1.13-0.209
			c-0.697-0.14-1.199-0.209-1.506-0.209c-0.864,0-3.123,0.139-6.775,0.418h-4.226c-0.418,0-0.92-0.125-1.506-0.376
			c0-0.084-0.035-0.251-0.104-0.502s-0.104-0.433-0.104-0.544c1.45-0.391,2.343-0.669,2.677-0.837
			c1.031-0.474,1.868-1.282,2.511-2.427c0.277-0.502,0.473-1.784,0.586-3.848c0-0.334,0.097-1.198,0.292-2.593
			c0.168-1.282,0.251-2.26,0.251-2.929c0-3.792,0.035-5.841,0.104-6.148c0.069-0.307,0.328-0.809,0.774-1.506
			c-0.195-0.194-0.446-0.57-0.753-1.129c-0.14-0.503-0.209-1.214-0.209-2.134v-4.225c0-0.027-0.042-0.46-0.126-1.296
			c0.027,0.334,0.153-1.506,0.377-5.522c-0.028-0.056-0.099-0.152-0.209-0.293c-0.308-1.087-0.293-2.522,0.041-4.308
			c0.111-0.502-0.069-2.176-0.543-5.02c-0.029-0.893-0.279-2.063-0.754-3.514c-0.614-0.753-1.408-1.227-2.384-1.422
			c-0.837-0.194-1.66-0.376-2.468-0.544c0-1.59-0.042-1.925-0.126-1.004c0.056-0.446,0.335-0.684,0.837-0.712
			c1.143-0.055,2.97-0.181,5.479-0.376c2.314-0.223,3.499-0.335,3.556-0.335h5.395c1.005,0,2.036-0.083,3.097-0.251
			c1.059-0.167,1.966-0.251,2.718-0.251c0.948,0,2.134,0.084,3.557,0.251c0.892,0.195,2.202,0.475,3.932,0.837
			c0.167,0.111,0.445,0.237,0.836,0.376c2.677,0.42,5.047,1.688,7.111,3.808c1.143,1.199,2.16,3.318,3.053,6.358
			c0.027,0.446,0.069,1.102,0.126,1.965c0.056,0.698,0,1.743-0.167,3.138c-0.363,2.955-1.061,5.187-2.092,6.692
			c-0.948,1.395-2.775,3.346-5.479,5.855c-0.028,0.586,0.083,1.102,0.334,1.549c1.757,3.374,3.515,6.748,5.271,10.122
			c2.091,3.653,4.628,6.762,7.612,9.327c0.251,0.224,1.282,0.586,3.096,1.088c1.087,0.279,2.007,0.349,2.76,0.209
			c1.115-0.223,1.91-0.307,2.384-0.251C419.041,430.718,419.069,431.011,419.069,431.401z M396.147,395.596
			c0-0.92-0.069-1.533-0.209-1.84c-1.395-3.709-2.579-6.08-3.555-7.111c-1.339-1.449-2.831-2.37-4.477-2.761
			c-1.087-0.251-2.844-0.32-5.27-0.209c-0.251,0.028-0.642,0.182-1.171,0.46c-0.447,4.796-0.727,8.673-0.838,11.628
			c0.141,0.224,0.279,0.544,0.419,0.962c0,0.391-0.126,1.98-0.376,4.77c-0.168,1.84-0.125,3.681,0.125,5.521
			c0.084,0.084,0.195,0.209,0.335,0.376h4.141c0.474,0.112,0.976,0.168,1.506,0.168c1.645,0,3.227-0.523,4.748-1.568
			c1.52-1.046,2.446-1.903,2.781-2.572C395.534,401.132,396.147,398.523,396.147,395.596z"/>
	</g>
	<g>
		<linearGradient id="SVGID_13_" gradientUnits="userSpaceOnUse" x1="156.0576" y1="362.9873" x2="197.0635" y2="377.4894">
			<stop  offset="0" style="stop-color:#FF6600"/>
			<stop  offset="0.5" style="stop-color:#FFCC00"/>
			<stop  offset="1" style="stop-color:#FF6600"/>
		</linearGradient>
		<path fill="url(#SVGID_13_)" d="M168.023,357.959c-0.049,0.309-0.106,0.678-0.171,1.108v2.827c-0.041,0-0.114,0.013-0.219,0.037
			s-0.179,0.036-0.219,0.036c-0.016-0.064-0.081-0.549-0.195-1.45c-0.065-0.521-0.305-0.918-0.719-1.194
			c-0.179-0.13-0.601-0.122-1.267,0.024c-0.333,0.032-0.813,0.109-1.438,0.231c-0.219,0.073-0.358,0.211-0.415,0.414
			c-0.138,0.521-0.152,1.271-0.042,2.255s0.079,2.335-0.091,4.058c0-0.009,0.053,0.552,0.158,1.681
			c-0.032,0.39-0.041,0.975-0.024,1.755c0.089,0.414,0.219,1.043,0.39,1.889c0.081,0.406,0.353,0.666,0.816,0.78
			c0.374,0.089,0.748,0.175,1.122,0.256c0,0.121-0.093,0.301-0.28,0.536h-6.909c-0.065,0-0.098-0.049-0.098-0.146
			c0-0.024,0.004-0.089,0.012-0.195c0.252-0.057,0.622-0.174,1.109-0.353c0.422-0.228,0.735-0.5,0.938-0.816
			c0.057-0.09,0.114-0.455,0.17-1.098c0.033-1.121,0.073-2.295,0.122-3.521v-4.386h0.329c0.017-0.008,0.045-0.044,0.085-0.109
			c-0.114-0.268-0.252-0.653-0.414-1.158c-0.017-0.098-0.082-0.719-0.195-1.864h-2.254c-0.236,0-0.528,0.13-0.877,0.39
			c-0.349,0.261-0.54,0.472-0.573,0.634c-0.17,0.723-0.337,1.224-0.5,1.499c-0.081,0.139-0.264,0.208-0.548,0.208
			c0-0.033-0.017-0.135-0.049-0.305c-0.024-0.146-0.029-0.252-0.012-0.318c0.097-0.333,0.191-0.849,0.28-1.547
			c0.105-0.845,0.187-1.413,0.244-1.706l0.39-0.512c-0.244-0.024,0.5-0.036,2.229-0.036c0.503,0,1.27,0.045,2.297,0.134
			c1.027,0.09,1.521,0.134,1.48,0.134h2.01c-0.008,0,0.236-0.04,0.731-0.121c0.536-0.081,1.052-0.135,1.547-0.159
			c0.187-0.023,0.374-0.048,0.561-0.072C167.779,357.752,167.941,357.813,168.023,357.959z"/>
		<linearGradient id="SVGID_14_" gradientUnits="userSpaceOnUse" x1="157.564" y1="358.7207" x2="198.5699" y2="373.2228">
			<stop  offset="0" style="stop-color:#FF6600"/>
			<stop  offset="0.5" style="stop-color:#FFCC00"/>
			<stop  offset="1" style="stop-color:#FF6600"/>
		</linearGradient>
		<path fill="url(#SVGID_14_)" d="M185.032,357.971c0,0.09-0.048,0.171-0.146,0.244c-0.341,0.089-0.634,0.211-0.878,0.365
			c-0.138,0.09-0.302,0.276-0.493,0.561s-0.286,0.499-0.286,0.646c0,0.731,0.008,1.02,0.024,0.865
			c-0.065,0.194-0.138,0.479-0.219,0.853c0,0.098,0.053,0.517,0.159,1.256c0.032,0.252,0.049,0.581,0.049,0.987
			c0,0.479-0.027,1.062-0.08,1.748s-0.079,1.005-0.079,0.956v1.804c0,1.835,0.215,3.106,0.646,3.813
			c0.081,0.139,0.26,0.28,0.536,0.427s0.512,0.228,0.707,0.244c-0.049,0.081-0.138,0.203-0.268,0.365h-5.691
			c0-0.049-0.012-0.124-0.036-0.226s-0.037-0.173-0.037-0.213c0.178-0.081,0.435-0.203,0.768-0.366
			c0.251-0.121,0.487-0.495,0.707-1.12c0.187-0.545,0.28-0.972,0.28-1.28v-1.779c0-0.121-0.029-0.454-0.085-0.999
			c-0.041-0.414-0.041-0.747,0-0.999c0.032-0.187-0.037-0.503-0.207-0.95c-0.398,0.293-0.999,0.512-1.804,0.658
			c-0.422,0.081-0.788,0.098-1.096,0.049c-0.423-0.073-0.646-0.109-0.67-0.109h-3.07c-0.187,0.105-0.427,0.3-0.719,0.584
			c-0.122,0.195-0.162,0.472-0.122,0.829c0.065,0.138,0.138,0.337,0.219,0.597c-0.024-0.113-0.053,0.109-0.085,0.67
			c-0.008,0.041,0.021,0.679,0.085,1.913c0.065,1.333,0.524,2.08,1.377,2.242c0.032,0.009,0.207,0.073,0.523,0.195
			c-0.276,0.301-0.589,0.451-0.938,0.451c-0.097,0-0.215-0.013-0.353-0.037c-0.163-0.024-0.264-0.036-0.305-0.036l-4.801-0.073
			c0.008-0.146,0.195-0.293,0.561-0.438c0.43-0.179,0.76-0.442,0.987-0.792c0.17-0.269,0.284-0.772,0.341-1.512
			c0.064-0.771,0.073-1.43,0.024-1.974c-0.032-0.065-0.081-0.154-0.146-0.269c-0.008-0.625,0.028-1.555,0.11-2.79
			c0.008-0.04,0.053-0.17,0.134-0.39c0.073-0.187,0.105-0.341,0.098-0.463c-0.09-0.138-0.203-0.378-0.341-0.719
			c0.024,0.098,0.053-0.171,0.085-0.804c0.008-0.13-0.006-0.321-0.043-0.573c-0.036-0.251-0.055-0.394-0.055-0.426v-1.963
			c0-0.26-0.183-0.572-0.548-0.938c-0.366-0.366-0.728-0.605-1.084-0.719c0.008-0.017,0.097-0.154,0.268-0.415
			c0.292-0.008,0.748-0.036,1.365-0.085c0.585-0.049,0.89-0.073,0.914-0.073h2.315c0.105,0,0.215-0.012,0.329-0.036
			s0.19-0.037,0.231-0.037c0.162,0,0.447,0.158,0.853,0.476c-0.284,0.138-0.568,0.28-0.853,0.426
			c-0.35,0.188-0.605,0.395-0.768,0.622c-0.26,0.357-0.39,1.027-0.39,2.01v2.608c0,0.049,0.012,0.102,0.036,0.158
			s0.037,0.102,0.037,0.134c0.382,0.171,0.707,0.256,0.975,0.256h4.837c0.17,0.024,0.422,0.078,0.756,0.159
			c0.008,0,0.118,0.048,0.329,0.146c0.162,0.073,0.288,0.11,0.377,0.11c0.057,0,0.105-0.009,0.146-0.024
			c0.26-0.309,0.39-0.683,0.39-1.121c0-0.22-0.045-0.536-0.134-0.95s-0.13-0.703-0.122-0.865c0-0.131-0.024-0.387-0.073-0.769
			c-0.057-0.446-0.089-0.764-0.097-0.95c-0.041-0.788-0.642-1.49-1.804-2.107c0.154-0.163,0.272-0.244,0.353-0.244h1.816
			c-0.105,0,0.231-0.008,1.011-0.024c0.682-0.024,1.206-0.028,1.572-0.012C183.801,357.784,184.334,357.865,185.032,357.971z"/>
		<linearGradient id="SVGID_15_" gradientUnits="userSpaceOnUse" x1="159.2427" y1="353.9834" x2="200.2453" y2="368.4843">
			<stop  offset="0" style="stop-color:#FF6600"/>
			<stop  offset="0.5" style="stop-color:#FFCC00"/>
			<stop  offset="1" style="stop-color:#FF6600"/>
		</linearGradient>
		<path fill="url(#SVGID_15_)" d="M198.203,369.144c-0.024,0.423-0.077,1.02-0.158,1.791c-0.098,0.212-0.219,0.509-0.366,0.891
			c-0.032,0.162-0.093,0.39-0.183,0.683c-0.033,0.089-0.138,0.239-0.317,0.45c-0.211,0.26-0.382,0.39-0.512,0.39h-3.107
			c-0.057,0-0.422-0.012-1.097-0.036s-1.04-0.036-1.096-0.036h-1.876c-0.049,0-0.298-0.022-0.75-0.067s-0.705-0.067-0.762-0.067
			h-1.839l-0.159-0.17c0.089-0.114,0.443-0.357,1.06-0.731c0.422-0.268,0.633-0.593,0.633-0.976v-3.85
			c0-0.626,0.098-1.466,0.292-2.522c-0.105-0.324-0.126-0.73-0.061-1.218c-0.146-0.122-0.219-0.293-0.219-0.512
			c0-0.017,0.081-0.35,0.244-0.999c0.008-0.057-0.032-0.171-0.122-0.341c-0.114-0.203-0.175-0.309-0.183-0.318
			c-0.057-0.171-0.082-0.438-0.073-0.804c0-0.504,0-0.78,0-0.829c-0.024-0.275-0.082-0.499-0.17-0.67
			c-0.122-0.235-0.321-0.422-0.597-0.561c-0.244-0.105-0.487-0.215-0.731-0.328c0.114-0.269,0.235-0.41,0.365-0.427
			c0.252,0.032,0.613,0.041,1.084,0.024c0.52-0.122,0.771-0.183,0.755-0.183h2.157c0.033,0,0.278,0.028,0.737,0.085
			c0.458,0.057,0.806,0.09,1.042,0.098c0.098,0,0.91-0.053,2.437-0.158c0.349-0.024,1.263,0,2.741,0.073
			c0.13,0.089,0.195,0.198,0.195,0.328c0,0.073-0.027,0.179-0.08,0.317c-0.053,0.138-0.079,0.239-0.079,0.305
			c-0.008,0.268-0.093,1.153-0.256,2.655c-0.024,0.05-0.142,0.126-0.353,0.231c-0.049-0.08-0.199-0.516-0.451-1.304
			c-0.163-0.512-0.463-0.791-0.902-0.84c-0.179-0.041-0.361-0.081-0.548-0.122c-0.251-0.057-0.447-0.065-0.584-0.024
			c-0.357,0.105-1.134,0.118-2.328,0.036c-0.658-0.049-1.153-0.036-1.486,0.037c-0.098,0.024-0.163,0.117-0.195,0.28
			c0.292,0.95,0.305,1.792,0.037,2.522c0.016-0.049,0.024,0.154,0.024,0.609c0,0.113-0.021,0.35-0.061,0.707
			c-0.041,0.292-0.049,0.527-0.024,0.706c0.008,0.081,0.085,0.188,0.231,0.316h4.594c0.146-0.048,0.288-0.097,0.426-0.146
			c0.227-0.081,0.386-0.207,0.475-0.378c0.081-0.211,0.231-0.504,0.451-0.877c0.26,0,0.426,0.089,0.5,0.268
			c-0.033,0.463-0.065,1.057-0.098,1.779c-0.008,0.479-0.065,1.182-0.17,2.107c-0.032,0.138-0.195,0.183-0.487,0.134
			c-0.105-0.194-0.292-0.45-0.561-0.768c-0.495-0.373-0.946-0.561-1.352-0.561h-1.682c-0.106,0-0.313-0.02-0.622-0.061
			s-0.54-0.061-0.694-0.061c-0.431,0-0.703,0.126-0.816,0.377c-0.13,0.285-0.195,0.504-0.195,0.658c0,0.146,0.028,0.423,0.085,0.828
			c0.057,0.406,0.081,0.719,0.073,0.938c-0.008,0.114-0.047,0.327-0.116,0.64s-0.104,0.559-0.104,0.737
			c0,0.138,0.016,0.264,0.049,0.377c0.057,0.195,0.278,0.431,0.664,0.708c0.386,0.276,0.717,0.435,0.993,0.476
			c0.041,0.016,0.081,0.032,0.122,0.048c0.081,0.024,0.154,0.037,0.219,0.037h2.023c0.455,0,0.836-0.073,1.145-0.22
			c0.431-0.194,0.849-0.521,1.255-0.976c0.447-0.503,0.687-0.982,0.719-1.438C197.623,369.079,197.886,369.055,198.203,369.144z"/>
	</g>
	<g>
		<linearGradient id="SVGID_16_" gradientUnits="userSpaceOnUse" x1="201.9072" y1="461.5947" x2="409.434" y2="515.1016">
			<stop  offset="0" style="stop-color:#FF6600"/>
			<stop  offset="0.5" style="stop-color:#FFCC00"/>
			<stop  offset="1" style="stop-color:#FF6600"/>
		</linearGradient>
		<path fill="url(#SVGID_16_)" d="M247.729,441.964c-0.174,1.104-0.379,2.426-0.611,3.965v10.109c-0.145,0-0.406,0.043-0.783,0.131
			c-0.379,0.087-0.639,0.13-0.785,0.13c-0.059-0.231-0.289-1.96-0.698-5.185c-0.232-1.858-1.088-3.283-2.57-4.271
			c-0.639-0.465-2.149-0.436-4.531,0.087c-1.192,0.116-2.905,0.393-5.142,0.828c-0.784,0.262-1.278,0.756-1.481,1.482
			c-0.494,1.859-0.544,4.546-0.152,8.061c0.392,3.516,0.283,8.352-0.327,14.51c0-0.028,0.188,1.976,0.566,6.013
			c-0.117,1.396-0.146,3.487-0.087,6.275c0.319,1.481,0.784,3.732,1.395,6.754c0.291,1.453,1.264,2.382,2.919,2.789
			c1.336,0.319,2.672,0.625,4.009,0.915c0,0.436-0.334,1.074-1.002,1.917h-24.707c-0.232,0-0.348-0.175-0.348-0.523
			c0-0.087,0.014-0.319,0.043-0.697c0.9-0.202,2.222-0.624,3.965-1.263c1.51-0.813,2.629-1.787,3.355-2.92
			c0.203-0.319,0.407-1.626,0.61-3.922c0.116-4.009,0.261-8.205,0.436-12.593v-15.686h1.176c0.059-0.029,0.16-0.16,0.306-0.394
			c-0.408-0.958-0.901-2.338-1.482-4.139c-0.059-0.349-0.291-2.571-0.697-6.667h-8.061c-0.843,0-1.889,0.465-3.137,1.395
			c-1.249,0.931-1.933,1.686-2.048,2.266c-0.61,2.586-1.206,4.372-1.786,5.359c-0.291,0.494-0.944,0.74-1.961,0.74
			c0-0.115-0.058-0.479-0.174-1.089c-0.087-0.522-0.103-0.9-0.044-1.133c0.349-1.19,0.682-3.035,1.002-5.533
			c0.377-3.021,0.667-5.055,0.871-6.101l1.395-1.83c-0.872-0.087,1.787-0.131,7.974-0.131c1.8,0,4.539,0.16,8.214,0.479
			c3.674,0.32,5.439,0.479,5.294,0.479h7.189c-0.029,0,0.842-0.146,2.615-0.437c1.917-0.289,3.761-0.479,5.533-0.566
			c0.668-0.087,1.337-0.174,2.005-0.261C246.858,441.224,247.438,441.441,247.729,441.964z"/>
		<linearGradient id="SVGID_17_" gradientUnits="userSpaceOnUse" x1="204.4287" y1="451.8193" x2="411.9479" y2="505.3243">
			<stop  offset="0" style="stop-color:#FF6600"/>
			<stop  offset="0.5" style="stop-color:#FFCC00"/>
			<stop  offset="1" style="stop-color:#FF6600"/>
		</linearGradient>
		<path fill="url(#SVGID_17_)" d="M293.611,481.965c-0.086,1.511-0.275,3.646-0.566,6.405c-0.349,0.756-0.784,1.815-1.307,3.181
			c-0.117,0.581-0.335,1.395-0.654,2.44c-0.116,0.319-0.494,0.856-1.133,1.611c-0.755,0.93-1.365,1.395-1.83,1.395h-11.11
			c-0.204,0-1.511-0.044-3.923-0.131c-2.411-0.087-3.718-0.131-3.921-0.131h-6.711c-0.174,0-1.067-0.08-2.68-0.239
			c-1.611-0.16-2.52-0.239-2.723-0.239h-6.58l-0.566-0.61c0.319-0.406,1.583-1.278,3.791-2.614c1.511-0.959,2.266-2.12,2.266-3.485
			v-13.771c0-2.236,0.349-5.242,1.046-9.02c-0.378-1.161-0.45-2.614-0.218-4.356c-0.522-0.437-0.784-1.046-0.784-1.83
			c0-0.059,0.29-1.249,0.871-3.574c0.029-0.202-0.116-0.609-0.436-1.22c-0.407-0.726-0.625-1.104-0.653-1.133
			c-0.203-0.61-0.291-1.568-0.262-2.876c0-1.8,0-2.789,0-2.963c-0.087-0.987-0.29-1.787-0.609-2.396
			c-0.437-0.843-1.149-1.51-2.136-2.005c-0.872-0.377-1.743-0.769-2.614-1.176c0.406-0.959,0.842-1.467,1.307-1.525
			c0.9,0.117,2.193,0.146,3.879,0.088c1.858-0.437,2.759-0.654,2.701-0.654h7.713c0.115,0,0.994,0.103,2.636,0.306
			c1.641,0.203,2.883,0.319,3.726,0.349c0.349,0,3.254-0.189,8.715-0.566c1.248-0.088,4.517,0,9.804,0.261
			c0.465,0.32,0.697,0.712,0.697,1.177c0,0.262-0.095,0.639-0.283,1.133c-0.189,0.494-0.283,0.857-0.283,1.089
			c-0.029,0.959-0.334,4.125-0.915,9.499c-0.087,0.175-0.509,0.451-1.264,0.828c-0.174-0.29-0.712-1.844-1.612-4.662
			c-0.581-1.831-1.655-2.833-3.225-3.007c-0.64-0.146-1.293-0.29-1.961-0.436c-0.9-0.203-1.598-0.232-2.091-0.088
			c-1.278,0.378-4.052,0.422-8.323,0.131c-2.353-0.174-4.125-0.131-5.315,0.131c-0.349,0.087-0.581,0.422-0.697,1.002
			c1.046,3.399,1.09,6.406,0.131,9.021c0.058-0.175,0.087,0.552,0.087,2.179c0,0.407-0.072,1.25-0.218,2.527
			c-0.146,1.046-0.174,1.889-0.087,2.527c0.028,0.29,0.305,0.668,0.828,1.133h16.427c0.522-0.175,1.03-0.349,1.525-0.523
			c0.813-0.29,1.38-0.74,1.699-1.351c0.29-0.755,0.828-1.801,1.612-3.137c0.93,0,1.525,0.32,1.786,0.958
			c-0.116,1.656-0.232,3.776-0.349,6.361c-0.029,1.716-0.232,4.228-0.609,7.539c-0.116,0.494-0.697,0.653-1.743,0.479
			c-0.378-0.696-1.046-1.611-2.004-2.744c-1.773-1.336-3.386-2.005-4.837-2.005h-6.014c-0.378,0-1.119-0.071-2.223-0.218
			c-1.104-0.145-1.932-0.218-2.483-0.218c-1.54,0-2.513,0.451-2.919,1.351c-0.465,1.018-0.697,1.802-0.697,2.354
			c0,0.522,0.102,1.51,0.305,2.962c0.203,1.454,0.29,2.572,0.262,3.356c-0.029,0.407-0.167,1.169-0.414,2.287
			s-0.37,1.997-0.37,2.636c0,0.494,0.058,0.944,0.175,1.351c0.202,0.697,0.994,1.541,2.374,2.528
			c1.379,0.988,2.563,1.555,3.551,1.699c0.146,0.059,0.29,0.116,0.436,0.174c0.29,0.088,0.552,0.131,0.784,0.131h7.234
			c1.626,0,2.991-0.261,4.096-0.784c1.54-0.697,3.035-1.858,4.488-3.486c1.597-1.801,2.454-3.514,2.57-5.142
			C291.534,481.732,292.479,481.646,293.611,481.965z"/>
		<linearGradient id="SVGID_18_" gradientUnits="userSpaceOnUse" x1="206.7817" y1="442.6973" x2="414.3013" y2="496.2023">
			<stop  offset="0" style="stop-color:#FF6600"/>
			<stop  offset="0.5" style="stop-color:#FFCC00"/>
			<stop  offset="1" style="stop-color:#FF6600"/>
		</linearGradient>
		<path fill="url(#SVGID_18_)" d="M346.555,496.169c-0.523,0.232-1.293,0.306-2.31,0.218c-1.685-0.146-2.47-0.218-2.353-0.218
			h-3.486c-4.212,0-7.495,0.218-9.848,0.654c-1.308,0.231-2.179,0.101-2.614-0.393c-0.059-0.871-0.016-1.612,0.131-2.222
			c0.58-0.059,1.394-0.262,2.439-0.61c0.436-0.262,0.77-0.697,1.002-1.307c0.232-0.61,0.275-1.09,0.131-1.438
			c-0.378-1.684-0.959-4.212-1.743-7.582c-0.059-0.203-0.378-1.03-0.958-2.483c-0.465-1.161-0.697-2.048-0.697-2.657
			c-0.029-0.176-0.218-0.263-0.566-0.263c-0.494,0-2.876,0.116-7.146,0.349l-9.194,0.132c-0.668-0.029-1.293,0.581-1.873,1.83
			c-0.291,0.639-0.697,1.583-1.22,2.832c-0.669,2.033-0.988,3.238-0.959,3.616c0-0.203-0.146,0.668-0.436,2.614
			c-0.203,1.366-0.203,2.295,0,2.789c0.115,0.291,0.559,0.756,1.329,1.395c0.769,0.639,1.43,1.061,1.982,1.263
			c0.145,0.059,0.377,0.131,0.697,0.218c0.231,0.407,0.42,0.727,0.566,0.959c-0.61,0.174-1.453,0.363-2.527,0.566
			c-1.685-0.146-4.111-0.262-7.277-0.349c-0.668,0.203-1.699,0.406-3.094,0.61c-0.059,0-1.118-0.131-3.18-0.393
			c-0.059-0.146-0.088-0.276-0.088-0.392c0-0.349,0.436-0.843,1.308-1.481c0.319-0.436,0.856-1.002,1.612-1.699
			c0.667-0.436,1.248-1.184,1.742-2.244c0.494-1.06,1.249-2.708,2.266-4.946c0.436-1.394,1.09-3.5,1.961-6.317
			c0.58-1.337,1.322-3.37,2.223-6.101c0.668-2.004,1.641-4.982,2.919-8.933c0.116-0.116,0.262-0.29,0.437-0.523
			c0.087,0.466,0.202,0.697,0.348,0.697c0.203,0,0.465-0.624,0.785-1.873c0.29-1.133,0.436-1.946,0.436-2.44
			c0-0.087-0.016-0.131-0.044-0.131c-0.059,0.088-0.16,0.349-0.305,0.785c0-0.29,0.028-0.697,0.087-1.221
			c0.464-1.221,1.118-3.021,1.961-5.403c0.202-1.133,0.827-2.817,1.873-5.054c0.146-0.495,0.364-1.25,0.654-2.267
			c0.262-0.872,0.77-2.179,1.525-3.922c0.087-0.377,0.305-0.915,0.653-1.611c0.175-0.203,0.856-0.262,2.048-0.175
			c1.133,0.029,2.847,0.131,5.143,0.305c0.755,2.179,2.105,5.65,4.052,10.414c0.058,0.553,0.218,1.366,0.479,2.44
			c0.464,1.365,1.074,2.629,1.829,3.79c-0.146,0.204-0.029,0.96,0.349,2.267c0.465,1.046,1.147,2.586,2.048,4.619
			c0.61,2.004,1.555,4.793,2.833,8.366c0.087,0.813,0.363,1.976,0.828,3.485c0,0.232,0.072,0.596,0.218,1.089
			c0.349,0.757,0.973,2.209,1.873,4.358c0.319,0.465,0.756,1.176,1.308,2.135c-0.029,0.232,0,0.552,0.087,0.959
			c0.406,1.19,1.031,2.861,1.874,5.011c0.29,0.494,0.784,1.395,1.482,2.701c0.174,0.349,1.002,0.8,2.483,1.351
			c0.436,0.146,1.074,0.364,1.917,0.654V496.169z M324.157,473.337c-0.029-0.028-1.089-2.919-3.181-8.671
			c-0.349-1.162-0.887-2.891-1.612-5.186c-0.349-0.697-0.813-1.7-1.395-3.007c-0.174-0.61-0.479-1.481-0.915-2.614
			c-1.046,2.382-2.208,4.793-3.485,7.233c-0.174,0.175-0.378,0.451-0.61,0.828c-0.088,0.436-0.248,1.104-0.479,2.004
			c-0.205,0.407-0.452,0.988-0.742,1.743c-0.029,0.494-0.102,1.133-0.218,1.917c-0.203,0.29-0.436,0.698-0.697,1.221
			c-0.146,0.669-0.363,1.612-0.653,2.832c-0.146,0.232-0.334,0.552-0.566,0.958c0.058-0.318,0.087-0.071,0.087,0.741H324.157z"/>
		<linearGradient id="SVGID_19_" gradientUnits="userSpaceOnUse" x1="211.207" y1="425.5332" x2="418.7266" y2="479.0382">
			<stop  offset="0" style="stop-color:#FF6600"/>
			<stop  offset="0.5" style="stop-color:#FFCC00"/>
			<stop  offset="1" style="stop-color:#FF6600"/>
		</linearGradient>
		<path fill="url(#SVGID_19_)" d="M415.706,494.339c0.115,0.204,0.174,0.407,0.174,0.61c0,0.987-0.596,1.481-1.786,1.481
			c-0.232,0-0.465-0.044-0.697-0.131c-0.697-0.319-1.496-0.508-2.396-0.566c-0.639-0.058-1.468-0.058-2.484,0
			c-1.249,0.029-2.063,0.044-2.439,0.044c-4.096-0.087-6.486-0.065-7.168,0.065c-0.684,0.131-1.765,0.268-3.246,0.414
			c-1.308,0.115-2.121-0.146-2.44-0.785c-0.087-0.202-0.043-0.485,0.131-0.85c0.175-0.362,0.406-0.573,0.697-0.631
			c0.087-0.029,1.205-0.146,3.354-0.349c1.656-0.175,2.674-1.569,3.051-4.183c0.059-1.743,0.146-4.373,0.262-7.888
			c0-0.203-0.051-0.537-0.152-1.002c-0.103-0.464-0.152-0.799-0.152-1.002c0.058-2.383-0.131-5.767-0.566-10.152v-3.443
			c0-0.058-0.125-0.588-0.371-1.59c-0.247-1.003-0.386-1.722-0.414-2.157c-0.146-1.945-0.189-3.282-0.131-4.01
			c0-0.028,0.079-0.318,0.239-0.871c0.159-0.551,0.24-1.017,0.24-1.395c0-0.609-0.189-1.074-0.566-1.394
			c-0.697,0.494-1.221,1.409-1.568,2.745c-0.262,0.406-0.582,0.987-0.959,1.743c-0.116,0.553-0.334,1.351-0.653,2.396
			c-0.146,0.203-0.378,0.566-0.697,1.089c-0.059,0.32-0.175,0.756-0.349,1.308c-0.522,1.075-1.293,2.644-2.31,4.706
			c-0.059,0.407-0.174,1.018-0.349,1.83c-0.261,0.349-0.552,0.8-0.871,1.351c-0.059,0.436-0.218,1.018-0.479,1.743
			c-0.523,0.9-1.25,2.28-2.179,4.139c-0.088,0.583-0.291,1.425-0.61,2.528c-0.146,0.174-0.349,0.436-0.61,0.784
			c-0.029,0.087-0.232,0.712-0.609,1.873c-0.233,0.378-0.509,0.915-0.828,1.612c-0.087,0.407-0.262,1.031-0.522,1.874
			c-0.233,0.29-0.509,0.77-0.828,1.438c0,0.029-0.887,2.091-2.657,6.187c-0.029,0.553-0.335,1.308-0.915,2.266
			c-0.029,0-0.685,0.072-1.962,0.218c-0.784,0.088-1.395-0.095-1.83-0.544c-0.436-0.45-1.118-1.722-2.048-3.813
			c-0.465-0.9-1.104-2.236-1.917-4.009c-0.291-0.93-0.727-2.179-1.307-3.748c-0.088-0.202-1.657-3.268-4.707-9.193
			c-0.087-0.378-0.247-0.915-0.479-1.612c-1.423-2.73-3.485-7.045-6.188-12.941c-0.262-1.161-0.784-2.861-1.568-5.099
			c-0.756-1.539-1.555-2.309-2.396-2.309c-0.232,0.203-0.349,0.973-0.349,2.309c0.116,0.349,0.232,0.871,0.349,1.568
			c0.028,0.378,0.015,0.915-0.044,1.613c-0.028,0.843-0.043,1.235-0.043,1.177v4.183l-1.09,16.428v3.616
			c0-0.262-0.021,0.043-0.064,0.915c-0.044,0.871-0.065,2.295-0.065,4.271c0.028,0.522,0.174,1.22,0.436,2.091
			c0.726,1.191,1.423,1.99,2.091,2.396c0.581,0.116,1.467,0.407,2.658,0.872c0.436,0.232,0.566,0.639,0.392,1.22
			c-0.581,0.668-2.236,0.827-4.967,0.479h-3.965c-0.785,0-1.381,0.028-1.787,0.087c-1.917,0.203-3.878,0.29-5.882,0.261
			c-0.262-0.174-0.436-0.479-0.522-0.914c-0.088-0.494,0.043-0.828,0.392-1.003c0.146-0.087,0.813-0.202,2.004-0.349
			c0.262-0.145,0.61-0.348,1.046-0.609c1.395-0.668,2.338-1.961,2.832-3.878c0.116-0.464,0.29-1.975,0.523-4.532
			c0.145-0.377,0.333-0.915,0.566-1.612c0.202-1.045,0.305-1.757,0.305-2.135v-3.312c0-0.116,0.037-0.29,0.109-0.523
			c0.072-0.232,0.109-0.377,0.109-0.436c-0.029-1.771,0.203-4.357,0.697-7.756c0.058-0.231,0.131-1.204,0.218-2.92
			c0.115-2.963,0.145-4.967,0.087-6.013c0-0.115,0.044-0.37,0.131-0.762c0.087-0.393,0.131-0.632,0.131-0.72v-6.101
			c0-0.115,0.152-0.544,0.457-1.285c0.306-0.74,0.501-1.256,0.589-1.547c0.115-0.522,0.115-1.146,0-1.874
			c-0.233-0.436-0.566-1.09-1.003-1.961c-0.029-0.609-0.392-1.379-1.09-2.309c-0.377-0.059-0.93-0.146-1.655-0.262
			c-0.727-0.116-1.692-0.29-2.897-0.523c-1.206-0.231-1.852-0.362-1.939-0.392c-0.813-0.232-1.234-0.61-1.263-1.133
			c0.696-0.61,1.873-0.813,3.528-0.61c1.221,0.175,2.876,0.407,4.968,0.697c0.262,0.029,0.683,0,1.264-0.087
			c0.726-0.146,1.234-0.218,1.525-0.218c0.145-0.028,1.801,0.059,4.967,0.262c0.872,0.029,1.569,0.914,2.093,2.657
			c0.231,0.378,0.609,1.089,1.133,2.135c0.145,0.553,0.392,1.351,0.74,2.396c0.493,0.437,1.089,1.148,1.786,2.136
			c0.028,0.553,0.102,1.351,0.218,2.396c0.232,0.32,0.508,0.77,0.828,1.351c2.323,5.259,4.518,10.414,6.58,15.47
			c0.493,1.22,1.009,2.65,1.547,4.291c0.537,1.642,1.328,3.464,2.374,5.469c0.436,0.465,0.987,1.177,1.656,2.135
			c0.087,0.117,0.218,0.713,0.392,1.787c0.146,0.668,0.465,1.045,0.959,1.133c0.35-0.059,0.625-0.276,0.828-0.654
			c0.9-1.713,1.932-4.27,3.094-7.669c1.161-3.398,2.294-6.144,3.398-8.234c0.116-0.437,0.319-1.104,0.61-2.005
			c0.231-0.523,0.595-1.321,1.089-2.396c0.028-0.116,0.181-0.327,0.457-0.632c0.277-0.305,0.443-0.53,0.502-0.676
			c0.088-0.609,0.291-1.466,0.61-2.57l1.22-2.789c0.437-0.61,1.162-1.641,2.179-3.094c0.087-0.087,0.246-0.784,0.479-2.092
			c0.028-0.145,0.899-2.294,2.614-6.449c0.028-0.522,0.188-1.321,0.479-2.396c0.784-1.771,2.527-2.426,5.229-1.961
			c0.319,0.174,0.813,0.363,1.481,0.566c2.12,0.203,3.66,0.189,4.619-0.044c0.581,0,1.395-0.058,2.44-0.174
			c0.232-0.146,0.624-0.341,1.177-0.589c0.551-0.246,1.146-0.268,1.786-0.064c0.319,0.116,0.493,0.348,0.522,0.696
			c0.087,0.901-0.363,1.453-1.351,1.656c-0.843,0.116-1.685,0.232-2.527,0.349c-0.232,0.174-0.631,0.45-1.197,0.827
			c-0.566,0.378-1.346,1.046-2.332,2.005c-0.029,0.059-0.276,1.118-0.741,3.182c-0.378,1.685-0.334,4.212,0.131,7.581
			c0.203,1.569,0.334,3.007,0.393,4.314c0,1.394,0.043,3.528,0.13,6.404c0-0.087-0.059,1.512-0.174,4.794
			c-0.059,1.829,0.072,3.646,0.392,5.447c0.319,1.162,0.654,2.904,1.003,5.228c0.174,3.079,0.319,4.881,0.436,5.404
			c0.32,1.598,1.118,2.934,2.397,4.008c0.377,0.32,0.871,0.465,1.481,0.436c0.755-0.058,1.233-0.058,1.438,0
			C415.14,493.672,415.444,493.933,415.706,494.339z"/>
	</g>
</g>
</svg>
