<?xml version="1.0" encoding="utf-8"?>
<!-- Generator: Adobe Illustrator 17.0.0, SVG Export Plug-In . SVG Version: 6.00 Build 0)  -->
<!DOCTYPE svg PUBLIC "-//W3C//DTD SVG 1.1//EN" "http://www.w3.org/Graphics/SVG/1.1/DTD/svg11.dtd">
<svg version="1.1" id="Layer_1" xmlns="http://www.w3.org/2000/svg" xmlns:xlink="http://www.w3.org/1999/xlink" x="0px" y="0px"
	 width="450px" height="450px" viewBox="0 0 450 450" enable-background="new 0 0 450 450" xml:space="preserve">
<g>
	<g>
		<g>
			<linearGradient id="SVGID_1_" gradientUnits="userSpaceOnUse" x1="100.2598" y1="181.1746" x2="346.6528" y2="181.1746">
				<stop  offset="0" style="stop-color:#EDEEF0"/>
				<stop  offset="0.2906" style="stop-color:#FFFFFF"/>
				<stop  offset="0.5369" style="stop-color:#F7F7F8"/>
				<stop  offset="0.7586" style="stop-color:#FFFFFF"/>
				<stop  offset="1" style="stop-color:#EDEEF0"/>
			</linearGradient>
			<linearGradient id="SVGID_2_" gradientUnits="userSpaceOnUse" x1="98.1714" y1="181.1746" x2="348.7412" y2="181.1746">
				<stop  offset="0" style="stop-color:#EDEEF0"/>
				<stop  offset="0.2906" style="stop-color:#FFFFFF"/>
				<stop  offset="0.5369" style="stop-color:#F7F7F8"/>
				<stop  offset="0.7586" style="stop-color:#FFFFFF"/>
				<stop  offset="1" style="stop-color:#EDEEF0"/>
			</linearGradient>
			<path fill="url(#SVGID_1_)" stroke="url(#SVGID_2_)" stroke-width="4.1767" stroke-miterlimit="10" d="M310.568,94.061
				c-23.268-23.269-54.205-36.083-87.112-36.083c-32.907,0-63.844,12.814-87.113,36.083c-23.269,23.269-36.083,54.206-36.083,87.113
				c0,23.091,6.432,45.6,18.602,65.11l-11.405,36.702l40.545-4.426c10.546,8.183,22.253,14.554,34.797,18.941
				c13.039,4.558,26.718,6.87,40.658,6.87c32.907,0,63.844-12.814,87.112-36.083c23.27-23.269,36.085-54.207,36.085-87.114
				C346.653,148.268,333.838,117.33,310.568,94.061z M186.073,288.138c-11.532-4.033-22.295-9.892-31.99-17.415l-3.169-2.459
				l-3.988,0.435l-25.507,2.784l6.916-22.256l1.348-4.339l-2.405-3.855c-11.186-17.932-17.099-38.631-17.099-59.86
				c0-30.257,11.783-58.703,33.178-80.098c21.395-21.395,49.841-33.178,80.099-33.178c30.258,0,58.704,11.783,80.098,33.178
				c21.396,21.394,33.179,49.841,33.179,80.098c0,30.258-11.783,58.705-33.18,80.1c-21.394,21.395-49.839,33.178-80.097,33.178
				C210.635,294.451,198.057,292.327,186.073,288.138z"/>
			<linearGradient id="SVGID_3_" gradientUnits="userSpaceOnUse" x1="106.5249" y1="181.1746" x2="340.3878" y2="181.1746">
				<stop  offset="0" style="stop-color:#EDEEF0"/>
				<stop  offset="0.2906" style="stop-color:#FFFFFF"/>
				<stop  offset="0.5369" style="stop-color:#F7F7F8"/>
				<stop  offset="0.7586" style="stop-color:#FFFFFF"/>
				<stop  offset="1" style="stop-color:#EDEEF0"/>
			</linearGradient>
			<path fill="url(#SVGID_3_)" stroke="#64DE1B" stroke-width="4.6988" stroke-miterlimit="10" d="M306.138,98.492
				c-22.084-22.085-51.448-34.249-82.682-34.249c-31.234,0-60.598,12.163-82.683,34.248c-22.085,22.085-34.248,51.449-34.248,82.683
				c0,21.913,6.104,43.281,17.652,61.794l1.519,2.435l-0.852,2.74l-6.916,22.256l-1.654,5.322l5.541-0.605l25.507-2.784l2.519-0.275
				l2.002,1.553c10.007,7.765,21.118,13.813,33.024,17.977c12.374,4.325,25.357,6.519,38.59,6.519
				c31.234,0,60.598-12.163,82.681-34.248c22.086-22.085,34.25-51.449,34.25-82.684C340.388,149.94,328.224,120.577,306.138,98.492z
				"/>
			<g>
				<path fill="#2BBF11" d="M123.882,147.138c-3.686,10.814-5.61,22.277-5.61,34.037c0,19.713,5.489,38.931,15.872,55.577l4.366,7
					l-5.702,18.349l20.48-2.236l5.755,4.466c9.002,6.985,18.995,12.425,29.701,16.169c11.123,3.888,22.803,5.86,34.712,5.86
					c28.096,0,54.509-10.941,74.374-30.807c19.868-19.867,30.81-46.281,30.81-74.378c0-4.073-0.237-8.109-0.691-12.096
					c-24.299,13.27-54.428,21.126-87.063,21.126C192.979,190.203,150.468,173.275,123.882,147.138z"/>
				<path fill="#64DE1B" d="M223.457,75.99c-28.096,0-54.511,10.941-74.377,30.808c-11.551,11.551-20.078,25.318-25.198,40.34
					c26.586,26.137,69.097,43.066,117.005,43.066c32.635,0,62.764-7.856,87.063-21.126c-2.676-23.518-13.131-45.293-30.118-62.279
					C277.967,86.931,251.553,75.99,223.457,75.99z"/>
			</g>
		</g>
		<g>
			<g>
				<linearGradient id="SVGID_4_" gradientUnits="userSpaceOnUse" x1="154.897" y1="152.5832" x2="182.1563" y2="152.5832">
					<stop  offset="0" style="stop-color:#EDEEF0"/>
					<stop  offset="0.2906" style="stop-color:#FFFFFF"/>
					<stop  offset="0.5369" style="stop-color:#F7F7F8"/>
					<stop  offset="0.7586" style="stop-color:#FFFFFF"/>
					<stop  offset="1" style="stop-color:#EDEEF0"/>
				</linearGradient>
				<circle fill="url(#SVGID_4_)" cx="168.527" cy="152.584" r="13.63"/>
				<linearGradient id="SVGID_5_" gradientUnits="userSpaceOnUse" x1="209.8266" y1="152.5832" x2="237.086" y2="152.5832">
					<stop  offset="0" style="stop-color:#EDEEF0"/>
					<stop  offset="0.2906" style="stop-color:#FFFFFF"/>
					<stop  offset="0.5369" style="stop-color:#F7F7F8"/>
					<stop  offset="0.7586" style="stop-color:#FFFFFF"/>
					<stop  offset="1" style="stop-color:#EDEEF0"/>
				</linearGradient>
				<circle fill="url(#SVGID_5_)" cx="223.456" cy="152.584" r="13.63"/>
				<linearGradient id="SVGID_6_" gradientUnits="userSpaceOnUse" x1="264.7563" y1="152.5832" x2="292.0156" y2="152.5832">
					<stop  offset="0" style="stop-color:#EDEEF0"/>
					<stop  offset="0.2906" style="stop-color:#FFFFFF"/>
					<stop  offset="0.5369" style="stop-color:#F7F7F8"/>
					<stop  offset="0.7586" style="stop-color:#FFFFFF"/>
					<stop  offset="1" style="stop-color:#EDEEF0"/>
				</linearGradient>
				<circle fill="url(#SVGID_6_)" cx="278.386" cy="152.584" r="13.63"/>
			</g>
			<g>
				<linearGradient id="SVGID_7_" gradientUnits="userSpaceOnUse" x1="154.897" y1="210.3362" x2="182.1563" y2="210.3362">
					<stop  offset="0" style="stop-color:#EDEEF0"/>
					<stop  offset="0.2906" style="stop-color:#FFFFFF"/>
					<stop  offset="0.5369" style="stop-color:#F7F7F8"/>
					<stop  offset="0.7586" style="stop-color:#FFFFFF"/>
					<stop  offset="1" style="stop-color:#EDEEF0"/>
				</linearGradient>
				<circle fill="url(#SVGID_7_)" cx="168.527" cy="210.337" r="13.63"/>
				<linearGradient id="SVGID_8_" gradientUnits="userSpaceOnUse" x1="209.8266" y1="210.3362" x2="237.086" y2="210.3362">
					<stop  offset="0" style="stop-color:#EDEEF0"/>
					<stop  offset="0.2906" style="stop-color:#FFFFFF"/>
					<stop  offset="0.5369" style="stop-color:#F7F7F8"/>
					<stop  offset="0.7586" style="stop-color:#FFFFFF"/>
					<stop  offset="1" style="stop-color:#EDEEF0"/>
				</linearGradient>
				<circle fill="url(#SVGID_8_)" cx="223.456" cy="210.337" r="13.63"/>
				<linearGradient id="SVGID_9_" gradientUnits="userSpaceOnUse" x1="264.7563" y1="210.3362" x2="292.0156" y2="210.3362">
					<stop  offset="0" style="stop-color:#EDEEF0"/>
					<stop  offset="0.2906" style="stop-color:#FFFFFF"/>
					<stop  offset="0.5369" style="stop-color:#F7F7F8"/>
					<stop  offset="0.7586" style="stop-color:#FFFFFF"/>
					<stop  offset="1" style="stop-color:#EDEEF0"/>
				</linearGradient>
				<circle fill="url(#SVGID_9_)" cx="278.386" cy="210.337" r="13.63"/>
			</g>
		</g>
	</g>
	<g>
		<text transform="matrix(1 0 0 1 27.0698 370.6333)" fill="#808285" font-family="'Musket'" font-size="65.0131">Fermat Chat</text>
	</g>
</g>
</svg>
