<?xml version="1.0" encoding="utf-8"?>
<!-- Generator: Adobe Illustrator 17.0.0, SVG Export Plug-In . SVG Version: 6.00 Build 0)  -->
<!DOCTYPE svg PUBLIC "-//W3C//DTD SVG 1.1//EN" "http://www.w3.org/Graphics/SVG/1.1/DTD/svg11.dtd">
<svg version="1.1" id="Layer_1" xmlns="http://www.w3.org/2000/svg" xmlns:xlink="http://www.w3.org/1999/xlink" x="0px" y="0px"
	 width="612px" height="612px" viewBox="0 0 612 612" enable-background="new 0 0 612 612" xml:space="preserve">
<circle fill="none" stroke="#001B29" stroke-width="6.8217" stroke-miterlimit="10" cx="301.102" cy="241.863" r="94.775"/>
<g>
	<g>
		<path fill="#D7D8DC" d="M264.129,312.683c-0.507,0-1.012-0.092-1.545-0.279l-0.135-0.047l-0.126-0.067
			c-2.13-1.129-2.768-2.607-2.918-3.784c-3.662-1.464-6.949-4.232-9.166-7.762l-1.833-2.918l3.446-0.025
			c4.279-0.031,8.725-0.378,9.693-0.655c4.136-1.178,9.873-7.525,11.854-11.207c3.173-5.898,4.426-12.144,5.438-18.035
			c0.536-3.118,1.682-13.655-6.064-18.335c-2.942-1.778-6.536-2.757-10.118-2.757c-2.846,0-5.574,0.626-7.888,1.811
			c-11.063,5.667-23.066,12.628-25.473,23.577c-1.188,5.397,1.186,12.158,5.642,16.075c1.892,1.659,5.315,4.162,8.736,5.75
			l5.834,2.709l-6.365,0.935c-2.563,0.376-5.045,0.567-7.377,0.567c-4.818,0-9.077-0.81-12.658-2.407
			c-4.02-1.792-7.391-4.911-10.365-7.663l-0.455-0.421c-0.405-0.373-0.771-0.795-1.126-1.203c-0.506-0.583-1.075-1.239-1.549-1.45
			c-0.054,0.028-0.161,0.075-0.246,0.112c-0.442,0.193-1.047,0.458-1.816,0.458c-0.534,0-1.053-0.13-1.543-0.386
			c-1.692-0.883-2.922-3.385-4.475-6.823c-0.395-0.875-0.769-1.702-1.023-2.143c-0.284-0.492-0.562-1.004-0.844-1.523
			c-0.933-1.718-1.897-3.496-3.136-4.525c-0.484-0.403-0.98-0.732-1.461-1.051c-1.726-1.146-3.874-2.572-3.256-6.772
			c0.052-0.351,0.095-0.698,0.137-1.041c0.267-2.171,0.6-4.873,3.276-6.672c4.685-3.15,7.801-6.868,10.814-10.463
			c1.813-2.163,3.525-4.206,5.511-6.062c1.117-1.043,3.712-3.154,6.717-5.597c4.849-3.944,10.884-8.852,12.785-10.964
			c2.219-2.466,3.794-5.195,5.463-8.084c2.24-3.88,4.557-7.892,8.51-11.112c3.558-2.899,18.942-11.594,23.042-13.709
			c7.824-4.036,14.833-7.063,20.835-8.998c3.025-0.975,6.172-1.467,9.216-1.943c2.674-0.418,5.439-0.851,8.024-1.607l0.952-0.273
			c2.725-0.774,6.457-1.834,7.701-3.927l3.34-5.617l0.232,6.531c0.071,2.016-0.294,4.15-1.043,6.258
			c0.215-0.068,0.433-0.137,0.652-0.206c1.674-0.525,3.571-1.121,5.949-2.412c0.52-0.281,1.058-0.592,1.619-0.944l1.231-0.771
			l1.077,0.973c6.747,6.095,12.476,13.185,17.026,21.075c10.495,18.201,14.033,39.588,9.964,60.223l-0.691,3.504l-2.544-2.508
			c-0.502-0.495-1.019-0.976-1.545-1.449c-3.082-2.777-6.374-4.959-9.785-6.487c-3.03-1.358-5.938-1.922-10.022-1.94
			c-0.247,0.02-1.114,0.095-1.99,0.17c-2.217,0.191-2.217,0.191-2.331,0.191h-1.394c-0.983,4.243-2.897,8.308-5.697,12.098
			c-3.374,4.573-6.09,7.097-10.76,10.003c-1.21,0.753-2.57,1.403-3.885,2.032c-2.617,1.251-5.322,2.545-6.689,4.584
			c-2.071,3.089-4.13,8.389-2.225,10.499c0.268,0.298,0.865,0.36,1.319,0.36c2.013,0,5.296-1.159,9.758-3.446l7.463-3.824
			l-5.054,6.693c-2.502,3.313-4.808,7.171-6.492,9.989c-1.122,1.876-1.932,3.232-2.516,3.975c-1.421,1.801-3.739,3.438-5.602,4.753
			c-0.354,0.249-0.693,0.489-1.01,0.718c-4.98,3.602-9.667,5.353-14.326,5.353c-1.012,0-2.032-0.086-3.032-0.256
			c-2.136-0.363-3.987-0.547-5.501-0.547c-2.187,0-3.243,0.374-4.092,0.675C265.58,312.454,264.934,312.683,264.129,312.683z
			 M248.486,212.912c-1.39,1.097-2.846,2.388-4.407,3.902c-2.498,2.421-3.407,3.624-4.615,6.099
			c2.357-1.181,4.367-2.468,5.817-3.741c1.724-1.512,1.998-2.448,2.45-3.998C247.933,214.487,248.148,213.748,248.486,212.912z"/>
		<path fill="#FFFFFF" d="M316.448,172.966c0.133,3.744-1.458,7.805-3.985,11.102c-2.044,2.668-4.7,4.835-7.562,5.911
			c-3.713,1.394-10.362,2.593-16.101,2.593c-1.117,0-2.2-0.046-3.219-0.144c3.187,0.892,6.212,1.242,8.966,1.242
			c5.577,0,10.041-1.436,12.472-2.718c4.524-2.389,7.017-3.995,8.742-9.156c2.17-1.037,4.98-1.341,9.084-3.569
			c0.551-0.299,1.123-0.63,1.722-1.004c6.429,5.808,12.084,12.694,16.649,20.609c10.688,18.534,13.583,39.422,9.743,58.89
			c-0.523-0.516-1.062-1.016-1.609-1.509c-3.032-2.731-6.441-5.09-10.284-6.812c-3.594-1.61-6.906-2.097-10.875-2.108
			c-0.059,0-4.192,0.362-4.255,0.362c0.224-4.88,0.414-7.983-0.166-11.025c-1.53-8.019-4.639-13.729-11.089-19.388
			c-5.589-4.905-11.272-5.336-16.946-5.702c-1.335-0.086-2.632-0.153-3.979-0.153c-3.762,0-7.908,0.523-14.307,2.615
			c3.685-0.791,7.712-1.204,11.734-1.204c9.143,0,18.252,2.133,23.222,6.8c9.736,11.045,9.935,21.037,8.475,28.561
			c-0.99,5.098-3.278,9.258-5.58,12.374c-3.172,4.297-5.68,6.683-10.23,9.513c-3.567,2.22-8.736,3.569-11.155,7.178
			c-1.845,2.752-5.084,9.501-2.055,12.857c0.632,0.701,1.587,0.994,2.746,0.994c2.887,0,7.042-1.816,10.635-3.657
			c-4.132,5.471-7.646,12.231-8.985,13.933c-1.495,1.893-4.284,3.696-6.228,5.102c-4.074,2.946-8.496,4.988-13.201,4.988
			c-0.893,0-1.796-0.074-2.709-0.229c-2.477-0.421-4.359-0.575-5.824-0.575c-3.961,0-4.862,1.124-6.166,1.124
			c-0.274,0-0.566-0.05-0.907-0.17c-2.165-1.146-1.989-2.573-1.883-3.443c-3.83-1.157-7.256-3.897-9.473-7.427
			c4.014-0.03,8.887-0.351,10.208-0.73c4.766-1.358,10.81-8.041,13.018-12.144c3.178-5.907,4.515-12.071,5.64-18.62
			c1.251-7.28,0.118-16.026-6.965-20.305c-3.241-1.958-7.183-3.034-11.112-3.034c-3.04,0-6.073,0.645-8.764,2.022
			c-10.47,5.363-23.794,12.683-26.474,24.875c-1.375,6.251,1.405,13.672,6.251,17.931c1.982,1.739,5.577,4.37,9.195,6.05
			c-2.336,0.343-4.727,0.547-7.098,0.547c-4.164,0-8.263-0.63-11.874-2.241c-3.924-1.75-7.234-4.909-10.298-7.74
			c-1.081-0.995-2.076-2.716-3.587-3.139c-0.123-0.034-0.242-0.049-0.359-0.049c-0.737,0-1.36,0.594-2.095,0.594
			c-0.206,0-0.422-0.047-0.651-0.167c-1.745-0.91-3.688-6.426-4.726-8.223c-1.297-2.249-2.482-4.958-4.415-6.566
			c-2.406-2-4.62-2.156-4.044-6.066c0.368-2.478,0.3-4.862,2.584-6.398c7.743-5.206,11.371-11.861,16.565-16.715
			c2.848-2.66,16.416-13.121,19.617-16.68c5.465-6.076,7.297-13.729,13.758-18.993c3.395-2.766,18.763-11.455,22.709-13.492
			c6.414-3.309,13.674-6.662,20.543-8.876c5.525-1.78,11.536-1.881,17.19-3.536C309.897,177.088,314.645,175.999,316.448,172.966
			 M235.179,228.381c0.511,0,0.946-1.881,2.103-2.362c3.142-1.303,6.715-3.163,9.267-5.402c4.727-4.146,0.961-5.751,8.386-13.709
			c-4.525,1.707-8.533,4.976-12.194,8.526c-3.662,3.551-4.247,4.871-6.539,9.979c-0.716,1.598-1.526,2.429-1.357,2.699
			C234.965,228.3,235.073,228.381,235.179,228.381 M319.827,159.766l-6.682,11.235c-0.853,1.435-4.296,2.413-6.575,3.061
			c-0.333,0.095-0.657,0.187-0.966,0.277c-2.466,0.722-5.049,1.126-7.783,1.554c-3.116,0.488-6.339,0.992-9.507,2.013
			c-6.104,1.968-13.212,5.036-21.127,9.119c-3.548,1.831-19.48,10.755-23.375,13.928c-4.226,3.443-6.633,7.611-8.96,11.641
			c-1.617,2.8-3.144,5.444-5.228,7.761c-1.801,2.001-8.025,7.064-12.57,10.76c-3.156,2.566-5.649,4.594-6.813,5.681
			c-2.072,1.937-3.903,4.121-5.673,6.232c-2.928,3.493-5.955,7.105-10.414,10.103c-3.404,2.289-3.83,5.745-4.112,8.032
			c-0.04,0.327-0.081,0.659-0.13,0.992c-0.796,5.41,2.264,7.443,4.093,8.657c0.458,0.304,0.891,0.592,1.296,0.929
			c0.955,0.794,1.83,2.406,2.676,3.966c0.289,0.533,0.576,1.06,0.867,1.565c0.207,0.359,0.578,1.18,0.937,1.974
			c1.767,3.913,3.094,6.565,5.341,7.737c0.762,0.399,1.581,0.603,2.429,0.603c0.672,0,1.249-0.127,1.72-0.28
			c0.153,0.168,0.311,0.35,0.44,0.499c0.371,0.427,0.791,0.911,1.278,1.36l0.448,0.415c3.083,2.853,6.578,6.086,10.888,8.008
			c3.829,1.708,8.35,2.574,13.439,2.574c2.425,0,5.001-0.198,7.657-0.588l3.488-0.513l1.701,2.709
			c2.241,3.568,5.488,6.43,9.143,8.12c0.529,1.716,1.755,3.089,3.669,4.103l0.253,0.134l0.27,0.095
			c0.741,0.261,1.455,0.387,2.182,0.387c1.136,0,2.012-0.31,2.716-0.56c0.783-0.277,1.594-0.564,3.45-0.564
			c1.406,0,3.149,0.175,5.18,0.52c1.106,0.188,2.234,0.283,3.353,0.283c5.079,0,10.133-1.87,15.453-5.717
			c0.311-0.225,0.645-0.461,0.991-0.705c1.964-1.387,4.409-3.113,6.001-5.13c0.664-0.844,1.501-2.244,2.659-4.182
			c1.661-2.779,3.937-6.586,6.376-9.816l10.108-13.385l-14.928,7.648c-5.492,2.814-7.922,3.234-8.882,3.234
			c-0.017,0-0.033,0-0.049,0c-0.449-1.242,0.535-4.861,2.55-7.867c1.074-1.602,3.538-2.78,5.921-3.92
			c1.363-0.652,2.771-1.325,4.072-2.135c4.903-3.051,7.752-5.699,11.291-10.494c2.629-3.559,4.52-7.356,5.64-11.318
			c0.168-0.005,0.494-0.033,2.411-0.198c0.791-0.068,1.573-0.136,1.888-0.162c3.746,0.023,6.413,0.54,9.164,1.772
			c3.228,1.446,6.351,3.519,9.284,6.16c0.58,0.523,1.051,0.964,1.48,1.388l5.088,5.023l1.384-7.015
			c4.16-21.09,0.543-42.95-10.184-61.554c-4.65-8.063-10.505-15.31-17.402-21.541l-2.154-1.946l-2.461,1.539
			c-0.503,0.315-0.999,0.604-1.517,0.884c-1.072,0.582-2.047,1.015-2.948,1.363c0.186-1.144,0.263-2.277,0.224-3.381
			L319.827,159.766L319.827,159.766z M252.219,295.874l-7.739-3.593c-3.028-1.406-6.34-3.752-8.278-5.453
			c-3.897-3.425-6.061-9.537-5.032-14.216c2.227-10.133,13.8-16.813,24.472-22.28c2.044-1.047,4.468-1.6,7.012-1.6
			c3.237,0,6.478,0.881,9.124,2.48c6.705,4.051,5.648,13.55,5.165,16.364c-0.986,5.735-2.202,11.807-5.237,17.45
			c-2.066,3.84-7.403,9.333-10.686,10.268C260.22,295.498,256.344,295.826,252.219,295.874L252.219,295.874z"/>
	</g>
	<g>
		<path fill="#001B29" d="M269.817,320.058c-0.547,0-1.091-0.098-1.662-0.298l-0.16-0.057l-0.149-0.079
			c-2.129-1.127-2.853-2.621-3.066-3.842c-3.657-1.509-6.932-4.293-9.153-7.828l-2.169-3.453l4.078-0.03
			c4.184-0.031,8.672-0.376,9.6-0.642c4.05-1.154,9.688-7.406,11.641-11.035c3.147-5.851,4.394-12.065,5.401-17.928
			c0.526-3.062,1.656-13.408-5.9-17.973c-2.888-1.745-6.416-2.706-9.936-2.706c-2.791,0-5.463,0.613-7.728,1.772
			c-10.991,5.63-22.916,12.541-25.29,23.339c-1.162,5.28,1.165,11.897,5.531,15.735c1.874,1.644,5.265,4.123,8.651,5.695
			l6.904,3.206l-7.531,1.106c-2.581,0.379-5.08,0.572-7.429,0.572c-4.867,0-9.174-0.82-12.8-2.438
			c-4.072-1.815-7.465-4.955-10.459-7.724l-0.456-0.422c-0.419-0.386-0.792-0.815-1.152-1.23c-0.413-0.476-0.911-1.05-1.294-1.29
			c-0.031,0.014-0.063,0.029-0.094,0.042c-0.444,0.194-1.115,0.488-1.958,0.488c-0.592,0-1.166-0.144-1.706-0.427
			c-1.792-0.935-3.051-3.487-4.633-6.991c-0.391-0.866-0.761-1.685-1.007-2.111c-0.285-0.494-0.564-1.009-0.848-1.53
			c-0.917-1.689-1.865-3.436-3.051-4.423c-0.47-0.391-0.958-0.715-1.431-1.029c-1.809-1.201-4.059-2.696-3.409-7.116
			c0.052-0.349,0.094-0.693,0.136-1.033c0.276-2.242,0.62-5.032,3.429-6.921c4.643-3.121,7.743-6.819,10.741-10.396
			c1.82-2.171,3.54-4.222,5.541-6.093c1.125-1.052,3.725-3.165,6.733-5.612c4.584-3.729,10.864-8.835,12.746-10.927
			c2.194-2.439,3.761-5.152,5.42-8.025c2.256-3.907,4.59-7.948,8.593-11.209c3.744-3.05,19.702-11.994,23.102-13.749
			c7.838-4.044,14.866-7.079,20.889-9.02c3.051-0.983,6.211-1.478,9.267-1.956c2.786-0.436,5.417-0.848,7.982-1.598l0.956-0.274
			c2.667-0.758,6.321-1.796,7.494-3.768l3.952-6.647l0.274,7.729c0.065,1.848-0.228,3.792-0.841,5.727
			c1.657-0.52,3.535-1.11,5.88-2.383c0.512-0.278,1.045-0.585,1.601-0.934l1.456-0.912l1.275,1.152
			c6.775,6.121,12.526,13.241,17.095,21.16c10.538,18.274,14.091,39.749,10.004,60.466l-0.817,4.144l-3.009-2.964
			c-0.5-0.492-1.015-0.97-1.536-1.441c-3.054-2.75-6.314-4.912-9.691-6.425c-2.979-1.335-5.843-1.89-9.865-1.909
			c-0.265,0.021-1.115,0.095-1.974,0.168c-2.232,0.192-2.232,0.192-2.361,0.192h-1.115c-1.013,4.192-2.924,8.208-5.692,11.955
			c-3.405,4.614-6.145,7.161-10.857,10.093c-1.227,0.764-2.596,1.418-3.92,2.052c-2.573,1.23-5.234,2.503-6.548,4.462
			c-1.949,2.908-4.014,8.119-2.255,10.067c0.136,0.15,0.541,0.243,1.058,0.243c1.958,0,5.187-1.146,9.598-3.407l8.833-4.526
			l-5.981,7.92c-2.491,3.299-4.791,7.147-6.472,9.958c-1.128,1.888-1.943,3.252-2.541,4.012c-1.452,1.84-3.792,3.492-5.673,4.82
			c-0.353,0.249-0.692,0.489-1.009,0.719c-5.044,3.646-9.798,5.419-14.535,5.419c-1.031,0-2.07-0.087-3.088-0.26
			c-2.119-0.36-3.95-0.543-5.444-0.543c-2.125,0-3.15,0.362-3.973,0.654C271.388,319.809,270.683,320.058,269.817,320.058z
			 M253.415,221.007c-1.083,0.905-2.211,1.929-3.401,3.083c-2.104,2.04-3.066,3.204-4.047,5.029
			c1.912-1.024,3.546-2.112,4.771-3.188c1.647-1.445,1.895-2.293,2.345-3.833C253.182,221.757,253.288,221.395,253.415,221.007z"/>
		<path fill="#FFFFFF" d="M322.137,179.99c0.133,3.744-1.458,7.805-3.985,11.102c-2.044,2.668-4.699,4.835-7.562,5.911
			c-3.713,1.394-10.362,2.593-16.1,2.593c-1.117,0-2.2-0.045-3.22-0.144c3.187,0.892,6.212,1.242,8.966,1.242
			c5.577,0,10.041-1.436,12.472-2.718c4.524-2.389,7.017-3.994,8.742-9.156c2.17-1.037,4.98-1.341,9.084-3.569
			c0.551-0.299,1.123-0.63,1.722-1.005c6.429,5.808,12.084,12.694,16.649,20.609c10.688,18.534,13.583,39.422,9.743,58.89
			c-0.523-0.516-1.062-1.016-1.609-1.509c-3.032-2.731-6.441-5.09-10.284-6.812c-3.594-1.61-6.906-2.097-10.875-2.108
			c-0.059,0-4.192,0.362-4.255,0.362c0.224-4.88,0.414-7.983-0.166-11.025c-1.53-8.019-4.639-13.729-11.089-19.388
			c-5.589-4.905-11.272-5.336-16.946-5.702c-1.335-0.086-2.632-0.153-3.979-0.153c-3.762,0-7.908,0.523-14.307,2.615
			c3.685-0.791,7.712-1.204,11.734-1.204c9.143,0,18.252,2.133,23.222,6.8c9.736,11.045,9.935,21.037,8.475,28.561
			c-0.991,5.098-3.278,9.258-5.58,12.373c-3.172,4.297-5.68,6.683-10.229,9.513c-3.567,2.22-8.736,3.569-11.155,7.178
			c-1.845,2.752-5.084,9.501-2.055,12.857c0.632,0.701,1.587,0.994,2.746,0.994c2.887,0,7.042-1.816,10.635-3.657
			c-4.132,5.471-7.647,12.231-8.985,13.933c-1.495,1.894-4.284,3.697-6.228,5.102c-4.074,2.946-8.496,4.988-13.201,4.988
			c-0.893,0-1.796-0.074-2.709-0.229c-2.477-0.421-4.359-0.575-5.824-0.575c-3.961,0-4.862,1.124-6.166,1.124
			c-0.274,0-0.566-0.05-0.907-0.17c-2.165-1.146-1.989-2.573-1.883-3.443c-3.83-1.157-7.256-3.897-9.473-7.427
			c4.014-0.03,8.887-0.352,10.208-0.73c4.766-1.358,10.81-8.041,13.018-12.144c3.178-5.907,4.515-12.071,5.64-18.62
			c1.251-7.28,0.118-16.026-6.965-20.305c-3.241-1.958-7.183-3.034-11.112-3.034c-3.04,0-6.073,0.645-8.764,2.022
			c-10.47,5.363-23.794,12.684-26.474,24.875c-1.375,6.251,1.405,13.672,6.251,17.931c1.982,1.739,5.577,4.37,9.194,6.05
			c-2.336,0.343-4.727,0.547-7.098,0.547c-4.164,0-8.263-0.63-11.874-2.241c-3.924-1.75-7.234-4.909-10.298-7.74
			c-1.081-0.995-2.076-2.716-3.587-3.139c-0.123-0.034-0.242-0.049-0.359-0.049c-0.737,0-1.36,0.594-2.095,0.594
			c-0.206,0-0.422-0.047-0.651-0.167c-1.745-0.91-3.688-6.426-4.726-8.223c-1.298-2.249-2.482-4.958-4.415-6.566
			c-2.406-2-4.619-2.156-4.044-6.066c0.368-2.478,0.299-4.862,2.585-6.398c7.743-5.206,11.371-11.86,16.565-16.715
			c2.848-2.66,16.415-13.121,19.618-16.679c5.465-6.076,7.297-13.729,13.758-18.993c3.395-2.766,18.763-11.455,22.709-13.491
			c6.414-3.309,13.674-6.662,20.543-8.877c5.525-1.78,11.536-1.881,17.19-3.536C315.585,184.112,320.333,183.023,322.137,179.99
			 M240.867,235.404c0.511,0,0.946-1.881,2.103-2.362c3.142-1.303,6.715-3.163,9.267-5.402c4.727-4.146,0.961-5.752,8.386-13.709
			c-4.525,1.707-8.533,4.976-12.194,8.526c-3.662,3.551-4.247,4.871-6.539,9.979c-0.716,1.599-1.526,2.429-1.357,2.699
			C240.653,235.324,240.762,235.404,240.867,235.404 M326.134,164.372l-7.906,13.293c-0.71,1.194-4.256,2.202-6.161,2.743
			c-0.335,0.095-0.661,0.188-0.972,0.279c-2.423,0.709-4.983,1.11-7.694,1.534c-3.143,0.492-6.393,1-9.614,2.038
			c-6.141,1.98-13.285,5.063-21.234,9.164c-3.562,1.838-19.567,10.805-23.497,14.007c-4.327,3.525-6.766,7.749-9.125,11.835
			c-1.598,2.767-3.107,5.38-5.142,7.642c-1.764,1.96-7.964,7.003-12.491,10.684c-3.166,2.575-5.667,4.609-6.849,5.713
			c-2.104,1.966-3.948,4.167-5.732,6.294c-2.896,3.455-5.891,7.028-10.267,9.971c-3.671,2.468-4.12,6.116-4.418,8.53
			c-0.04,0.322-0.079,0.647-0.128,0.975c-0.861,5.854,2.561,8.126,4.4,9.347c0.442,0.293,0.859,0.571,1.235,0.883
			c0.85,0.707,1.692,2.259,2.507,3.759c0.292,0.539,0.582,1.071,0.877,1.582c0.19,0.329,0.569,1.169,0.904,1.911
			c1.828,4.047,3.209,6.795,5.657,8.072c0.862,0.452,1.791,0.683,2.755,0.683c0.554,0,1.054-0.078,1.487-0.186
			c0.05,0.057,0.097,0.112,0.141,0.162c0.383,0.441,0.817,0.941,1.333,1.416l0.448,0.414c3.123,2.889,6.663,6.164,11.078,8.133
			c3.919,1.748,8.538,2.635,13.726,2.635c2.459,0,5.07-0.2,7.759-0.596l3.034-0.446l1.457,2.32c2.258,3.595,5.508,6.497,9.176,8.258
			c0.766,2.108,2.405,3.419,3.903,4.212l0.3,0.159l0.32,0.112c0.818,0.287,1.608,0.427,2.416,0.427c1.257,0,2.236-0.347,2.951-0.6
			c0.761-0.269,1.479-0.524,3.215-0.524c1.367,0,3.07,0.172,5.062,0.51c1.145,0.194,2.313,0.293,3.471,0.293
			c5.232,0,10.422-1.914,15.866-5.851c0.309-0.223,0.64-0.457,0.984-0.7c2.002-1.413,4.493-3.172,6.148-5.269
			c0.692-0.88,1.495-2.224,2.711-4.257c1.653-2.766,3.917-6.553,6.334-9.753l11.96-15.838l-17.663,9.05
			c-4.523,2.318-6.87,2.972-8.032,3.119c-0.02-1.303,0.853-4.191,2.557-6.734c0.967-1.442,3.342-2.578,5.64-3.676
			c1.38-0.66,2.807-1.342,4.141-2.172c4.925-3.065,7.931-5.858,11.486-10.674c2.574-3.485,4.455-7.196,5.612-11.067
			c0.344-0.028,0.919-0.078,1.932-0.165c0.766-0.066,1.523-0.132,1.854-0.159c3.624,0.025,6.202,0.524,8.849,1.71
			c3.161,1.416,6.223,3.449,9.1,6.041c0.571,0.514,1.034,0.949,1.458,1.367l6.02,5.943l1.637-8.299
			c4.193-21.257,0.547-43.291-10.265-62.042c-4.687-8.126-10.588-15.431-17.54-21.712l-2.549-2.303l-2.912,1.822
			c-0.488,0.305-0.972,0.587-1.478,0.862c-0.621,0.337-1.203,0.621-1.757,0.867c0.075-0.773,0.1-1.539,0.074-2.291L326.134,164.372
			L326.134,164.372z M258.059,302.191l-7.593-3.526c-2.965-1.377-6.21-3.676-8.111-5.343c-3.718-3.268-5.787-9.088-4.808-13.535
			c2.162-9.833,13.576-16.411,24.106-21.804c1.945-0.996,4.258-1.522,6.691-1.522c3.111,0,6.222,0.845,8.76,2.378
			c6.324,3.82,5.3,12.939,4.835,15.642c-0.976,5.678-2.178,11.686-5.163,17.236c-1.961,3.645-7.185,9.048-10.259,9.924
			C265.731,301.828,262.001,302.138,258.059,302.191L258.059,302.191z"/>
	</g>
	<g>
		<polygon fill="#D7D8DC" points="349.508,227.883 297.209,227.883 384.537,113.873 348.254,207.254 407.173,207.254 
			291.752,333.054 		"/>
		<path fill="#FFFFFF" d="M377.861,125.75l-32.415,83.426h57.356l-101.7,110.845l51.655-94.06h-51.655L377.861,125.75
			 M391.214,101.997l-16.404,21.416L298.05,223.624l-4.734,6.181h7.785h45.159l-48.528,88.366l-15.331,27.917l21.532-23.468
			l101.7-110.845l5.911-6.442h-8.743h-51.739l30.381-78.19L391.214,101.997L391.214,101.997z"/>
	</g>
	<g>
		<linearGradient id="SVGID_1_" gradientUnits="userSpaceOnUse" x1="261.1084" y1="246.3186" x2="381.8242" y2="246.3186">
			<stop  offset="0" style="stop-color:#76A9DA"/>
			<stop  offset="0.3265" style="stop-color:#5FA098"/>
			<stop  offset="0.648" style="stop-color:#70A63B"/>
			<stop  offset="1" style="stop-color:#A1BC31"/>
		</linearGradient>
		<polygon fill="url(#SVGID_1_)" points="323.735,240.194 276.03,240.194 372.285,122.199 332.967,217.428 381.824,217.428 
			261.108,370.439 		"/>
		<path fill="#FFFFFF" d="M365.534,133.516l-35.44,85.835h47.767L270.389,355.572l56.403-117.3h-46.714L365.534,133.516
			 M379.037,110.882l-16.482,20.204L277.1,235.843l-5.117,6.273h8.096h40.601l-53.754,111.79l-15.097,31.397l21.579-27.351
			l107.472-136.222l4.911-6.224h-7.928h-42.022l33.247-80.524L379.037,110.882L379.037,110.882z"/>
	</g>
</g>
<path fill="#D7D8DC" d="M224.756,276.701c0,0-3.79-12.128,25.771-29.94C250.527,246.761,218.693,255.099,224.756,276.701z"/>
<g>
	<path fill="#D7D8DC" stroke="#FFFFFF" stroke-width="3.1216" stroke-miterlimit="10" d="M140.481,373.639H78.213l-12.734-13.109
		h88.112L140.481,373.639z M117.54,426.075h-16.386v-45.882h16.386V426.075z"/>
	<path fill="#D7D8DC" stroke="#FFFFFF" stroke-width="3.1216" stroke-miterlimit="10" d="M137.204,426.075v-65.546h16.386v65.546
		H137.204z M160.145,399.857h19.664v26.218h16.387v-65.546h-16.387v26.219h-19.664V399.857z"/>
	<path fill="#D7D8DC" stroke="#FFFFFF" stroke-width="3.1216" stroke-miterlimit="10" d="M199.472,360.529h16.386v39.328
		l13.109,13.108h29.496v-52.436h16.386v65.546h-55.714l-19.664-19.664V360.529z"/>
	<path fill="#D7D8DC" stroke="#FFFFFF" stroke-width="3.1216" stroke-miterlimit="10" d="M261.833,360.529h55.62l19.664,19.664
		v45.882H320.73v-42.604l-9.832-9.832h-36.05L261.833,360.529z M278.126,426.075v-45.882h16.386v45.882H278.126z"/>
	<path fill="#D7D8DC" stroke="#FFFFFF" stroke-width="3.1216" stroke-miterlimit="10" d="M363.334,412.966h13.109l19.664-19.663
		l-19.664-19.664h-39.327l-12.828-13.109h58.71l32.772,32.773l-32.772,32.772h-19.664V412.966z M356.78,426.075v-45.882h-16.387
		v45.882H356.78z"/>
	<path fill="#D7D8DC" stroke="#FFFFFF" stroke-width="3.1216" stroke-miterlimit="10" d="M415.77,373.639l-12.641-13.109h91.295
		l-13.108,13.109H415.77z M419.048,426.075h58.991l-13.109-13.109h-29.495v-13.108h16.386l13.109-13.109h-29.495v-6.555h-16.387
		V426.075z"/>
	<path fill="#D7D8DC" stroke="#FFFFFF" stroke-width="3.1216" stroke-miterlimit="10" d="M478.038,373.639l-12.547-13.109h48.597
		l19.664,19.664l-9.832,9.832h-19.664l9.832-9.832l-6.555-6.555H478.038z M497.702,426.075h-16.387v-45.882h16.387V426.075z
		 M504.256,396.58v13.108h13.109l16.387,16.387h19.664L523.92,396.58H504.256z"/>
</g>
<g>
	<g>
		<path fill="#FFFFFF" stroke="#FFFFFF" stroke-width="8.4096" stroke-miterlimit="10" d="M130.36,382.878H68.092l-12.734-13.109
			h88.112L130.36,382.878z M107.419,435.315H91.033v-45.882h16.386V435.315z"/>
		<path fill="#FFFFFF" stroke="#FFFFFF" stroke-width="8.4096" stroke-miterlimit="10" d="M127.083,435.315v-65.546h16.386v65.546
			H127.083z M150.024,409.097h19.664v26.218h16.387v-65.546h-16.387v26.219h-19.664V409.097z"/>
		<path fill="#FFFFFF" stroke="#FFFFFF" stroke-width="8.4096" stroke-miterlimit="10" d="M189.351,369.769h16.386v39.328
			l13.109,13.108h29.496v-52.437h16.386v65.546h-55.714l-19.664-19.664V369.769z"/>
		<path fill="#FFFFFF" stroke="#FFFFFF" stroke-width="8.4096" stroke-miterlimit="10" d="M251.712,369.769h55.62l19.664,19.664
			v45.882h-16.387V392.71l-9.832-9.832h-36.05L251.712,369.769z M268.005,435.315v-45.882h16.386v45.882H268.005z"/>
		<path fill="#FFFFFF" stroke="#FFFFFF" stroke-width="8.4096" stroke-miterlimit="10" d="M353.213,422.205h13.109l19.664-19.663
			l-19.664-19.664h-39.327l-12.828-13.109h58.71l32.772,32.773l-32.772,32.773h-19.664V422.205z M346.659,435.315v-45.882h-16.387
			v45.882H346.659z"/>
		<path fill="#FFFFFF" stroke="#FFFFFF" stroke-width="8.4096" stroke-miterlimit="10" d="M405.649,382.878l-12.641-13.109h91.295
			l-13.108,13.109H405.649z M408.927,435.315h58.991l-13.109-13.109h-29.495v-13.108h16.386l13.109-13.109h-29.495v-6.555h-16.387
			V435.315z"/>
		<path fill="#FFFFFF" stroke="#FFFFFF" stroke-width="8.4096" stroke-miterlimit="10" d="M467.917,382.878l-12.547-13.109h48.597
			l19.664,19.664l-9.832,9.832h-19.664l9.832-9.832l-6.555-6.555H467.917z M487.581,435.315h-16.387v-45.882h16.387V435.315z
			 M494.135,405.819v13.108h13.109l16.387,16.387h19.664l-29.496-29.495H494.135z"/>
	</g>
</g>
<g>
	<g>
		<path fill="#001B29" d="M130.317,382.878H68.049l-12.734-13.109h88.112L130.317,382.878z M107.376,435.315H90.99v-45.882h16.386
			V435.315z"/>
		<path fill="#001B29" d="M127.04,435.315v-65.546h16.386v65.546H127.04z M149.981,409.097h19.663v26.218h16.387v-65.546h-16.387
			v26.219h-19.663V409.097z"/>
		<path fill="#001B29" d="M189.308,369.769h16.386v39.328l13.109,13.108h29.496v-52.437h16.386v65.546h-55.714l-19.664-19.664
			V369.769z"/>
		<path fill="#001B29" d="M251.669,369.769h55.62l19.664,19.664v45.882h-16.387V392.71l-9.832-9.832h-36.05L251.669,369.769z
			 M267.962,435.315v-45.882h16.386v45.882H267.962z"/>
		<path fill="#001B29" d="M353.17,422.205h13.109l19.664-19.663l-19.664-19.664h-39.327l-12.828-13.109h58.71l32.772,32.773
			l-32.772,32.773H353.17V422.205z M346.616,435.315v-45.882h-16.387v45.882H346.616z"/>
		<path fill="#001B29" d="M405.606,382.878l-12.641-13.109h91.295l-13.108,13.109H405.606z M408.884,435.315h58.991l-13.109-13.109
			H425.27v-13.108h16.386l13.109-13.109H425.27v-6.555h-16.387V435.315z"/>
		<path fill="#001B29" d="M467.874,382.878l-12.547-13.109h48.597l19.664,19.664l-9.832,9.832h-19.664l9.832-9.832l-6.555-6.555
			H467.874z M487.538,435.315h-16.387v-45.882h16.387V435.315z M494.092,405.819v13.108h13.109l16.387,16.387h19.664l-29.496-29.495
			H494.092z"/>
	</g>
</g>
</svg>
