<?xml version="1.0" encoding="utf-8"?>
<!-- Generator: Adobe Illustrator 16.0.0, SVG Export Plug-In . SVG Version: 6.00 Build 0)  -->
<!DOCTYPE svg PUBLIC "-//W3C//DTD SVG 1.1//EN" "http://www.w3.org/Graphics/SVG/1.1/DTD/svg11.dtd">
<svg version="1.1" xmlns="http://www.w3.org/2000/svg" xmlns:xlink="http://www.w3.org/1999/xlink" x="0px" y="0px"
	 width="526.281px" height="576.358px" viewBox="0 0 526.281 576.358" enable-background="new 0 0 526.281 576.358"
	 xml:space="preserve">
<g id="Capa_3">
	<path fill-rule="evenodd" clip-rule="evenodd" fill="#08090A" d="M263.14,0C122.242,0,8.022,114.22,8.022,255.118
		c0,140.897,114.22,255.118,255.118,255.118s255.118-114.221,255.118-255.118C518.258,114.22,404.038,0,263.14,0L263.14,0z"/>
</g>
<g id="Capa_1">
	
		<polygon fill-rule="evenodd" clip-rule="evenodd" fill="#08090A" stroke="#08090A" stroke-width="1.4173" stroke-linecap="round" stroke-linejoin="round" stroke-miterlimit="22.9256" points="
		246.132,308.977 246.132,303.307 280.148,303.307 280.148,308.977 274.479,315.213 251.802,315.213 246.132,308.977 	"/>
	
		<polygon fill-rule="evenodd" clip-rule="evenodd" fill="#808080" stroke="#08090A" stroke-width="1.4173" stroke-linecap="round" stroke-linejoin="round" stroke-miterlimit="22.9256" points="
		263.14,357.166 310.371,357.166 294.435,431.434 263.14,431.434 231.846,431.434 215.91,357.166 263.14,357.166 	"/>
	
		<path fill-rule="evenodd" clip-rule="evenodd" fill="#CCCCCC" stroke="#08090A" stroke-width="1.4173" stroke-linecap="round" stroke-linejoin="round" stroke-miterlimit="22.9256" d="
		M129.912,178.583c-5.669,4.099-11.338,13.866-17.008,29.303c23.622,19.524,38.74,44.717,53.858,67.076l34.016-8.504
		C185.66,237.166,164.872,207.874,129.912,178.583L129.912,178.583z"/>
	
		<path fill-rule="evenodd" clip-rule="evenodd" fill="#CCCCCC" stroke="#08090A" stroke-width="1.4173" stroke-linecap="round" stroke-linejoin="round" stroke-miterlimit="22.9256" d="
		M112.904,207.885c9.449-57.799,44.41-121.267,87.874-181.901c-29.291,50.866-52.914,101.732-70.866,152.598
		C124.243,182.681,118.573,192.449,112.904,207.885L112.904,207.885z"/>
	
		<path fill-rule="evenodd" clip-rule="evenodd" fill="#999999" stroke="#08090A" stroke-width="1.4173" stroke-linecap="round" stroke-linejoin="round" stroke-miterlimit="22.9256" d="
		M129.912,178.583c17.953-50.866,41.575-101.732,70.866-152.598c-9.453,50.922-10.394,101.732-11.338,152.598H129.912
		L129.912,178.583z"/>
	
		<path fill-rule="evenodd" clip-rule="evenodd" fill="#4F5A5C" stroke="#08090A" stroke-width="1.4173" stroke-linecap="round" stroke-linejoin="round" stroke-miterlimit="22.9256" d="
		M192.274,178.583l51.024,65.197l8.504,59.527h-5.669l-45.354-36.85c-15.118-29.292-35.906-58.583-70.866-87.875h5.669h53.858
		H192.274L192.274,178.583z"/>
	
		<path fill-rule="evenodd" clip-rule="evenodd" fill="#999999" stroke="#08090A" stroke-width="1.4173" stroke-linecap="round" stroke-linejoin="round" stroke-miterlimit="22.9256" d="
		M189.439,178.583l45.354,65.197l11.339,59.527l-45.354-36.85c-15.118-29.292-35.906-58.583-70.866-87.875H189.439L189.439,178.583z
		"/>
	
		<polygon fill-rule="evenodd" clip-rule="evenodd" fill="#003399" stroke="#08090A" stroke-width="1.4173" stroke-linecap="round" stroke-linejoin="round" stroke-miterlimit="22.9256" points="
		248.967,362.834 254.636,306.143 240.463,351.496 248.967,362.834 	"/>
	
		<polygon fill-rule="evenodd" clip-rule="evenodd" fill="#000066" stroke="#08090A" stroke-width="1.4173" stroke-linecap="round" stroke-linejoin="round" stroke-miterlimit="22.9256" points="
		240.463,298.701 246.132,303.307 246.132,308.977 251.802,315.213 240.463,351.496 218.16,351.496 208.597,306.143 
		240.463,298.701 	"/>
	
		<polygon fill-rule="evenodd" clip-rule="evenodd" fill="#003399" stroke="#08090A" stroke-width="1.4173" stroke-linecap="round" stroke-linejoin="round" stroke-miterlimit="22.9256" points="
		218.16,351.496 208.597,306.143 166.762,274.961 174.097,303.307 218.16,351.496 	"/>
	
		<polygon fill-rule="evenodd" clip-rule="evenodd" fill="#E6E6E6" stroke="#08090A" stroke-width="1.4173" stroke-linecap="round" stroke-linejoin="round" stroke-miterlimit="22.9256" points="
		215.91,357.166 244.715,357.166 240.463,351.496 218.16,351.496 174.097,303.307 172.643,297.688 169.034,303.307 215.91,357.166 	
		"/>
	
		<polygon fill-rule="evenodd" clip-rule="evenodd" fill="#808080" stroke="#08090A" stroke-width="1.4173" stroke-linecap="round" stroke-linejoin="round" stroke-miterlimit="22.9256" points="
		215.91,357.166 169.034,303.307 189.439,369.934 231.846,431.434 215.91,357.166 	"/>
	
		<polygon fill-rule="evenodd" clip-rule="evenodd" fill="#B3B3B3" stroke="#08090A" stroke-width="1.4173" stroke-linecap="round" stroke-linejoin="round" stroke-miterlimit="22.9256" points="
		263.14,524.807 240.463,431.434 231.846,431.434 202.145,388.359 183.845,470.807 263.14,524.807 	"/>
	
		<polygon fill-rule="evenodd" clip-rule="evenodd" fill="#808080" stroke="#08090A" stroke-width="1.4173" stroke-linecap="round" stroke-linejoin="round" stroke-miterlimit="22.9256" points="
		189.439,369.934 202.145,388.359 189.439,450.557 181.595,450.557 179.72,458.807 159.845,423.557 183.056,349.09 189.439,369.934 
			"/>
	
		<path fill-rule="evenodd" clip-rule="evenodd" fill="#666666" stroke="#08090A" stroke-width="1.4173" stroke-linecap="round" stroke-linejoin="round" stroke-miterlimit="22.9256" d="
		M137.719,407.057c9.091-29.727,21.017-59.455,35.777-89.182l12.033,39.291l-5.061,10.891
		c-15.294,9.813-35.044,27.781-39.938,40.969C140.013,409.703,137.563,409.797,137.719,407.057L137.719,407.057z"/>
	
		<path fill-rule="evenodd" clip-rule="evenodd" fill="#333333" stroke="#08090A" stroke-width="1.4173" stroke-linecap="round" stroke-linejoin="round" stroke-miterlimit="22.9256" d="
		M140.531,409.025c8.672-5.16,17.345-7.484,26.017-6.975l9.715-31.168C161.754,381.051,144.986,397.02,140.531,409.025
		L140.531,409.025z"/>
	
		<polygon fill-rule="evenodd" clip-rule="evenodd" fill="#1B1F22" stroke="#08090A" stroke-width="1.4173" stroke-linecap="round" stroke-linejoin="round" stroke-miterlimit="22.9256" points="
		203.831,354.625 212.678,364.791 222.331,409.131 212.453,394.805 203.831,354.625 	"/>
	
		<polygon fill-rule="evenodd" clip-rule="evenodd" fill="#1B1F22" stroke="#08090A" stroke-width="1.4173" stroke-linecap="round" stroke-linejoin="round" stroke-miterlimit="22.9256" points="
		192.544,341.656 200.069,350.303 208.337,388.836 200.106,376.9 192.544,341.656 	"/>
	
		<polygon fill-rule="evenodd" clip-rule="evenodd" fill="#1B1F22" stroke="#08090A" stroke-width="1.4173" stroke-linecap="round" stroke-linejoin="round" stroke-miterlimit="22.9256" points="
		190.408,362.834 180.313,327.604 188.782,337.334 195.991,370.932 190.408,362.834 	"/>
	
		<polygon fill-rule="evenodd" clip-rule="evenodd" fill="#08090A" stroke="#08090A" stroke-width="1.4173" stroke-linecap="round" stroke-linejoin="round" stroke-miterlimit="22.9256" points="
		243.297,368.504 225.693,368.504 237.373,422.93 248.967,422.93 243.297,368.504 	"/>
	
		<polygon fill-rule="evenodd" clip-rule="evenodd" fill="#08090A" stroke="#08090A" stroke-width="1.4173" stroke-linecap="round" stroke-linejoin="round" stroke-miterlimit="22.9256" points="
		166.762,274.961 200.778,266.457 240.463,298.701 208.597,306.143 166.762,274.961 	"/>
	
		<path fill-rule="evenodd" clip-rule="evenodd" fill="#990000" stroke="#08090A" stroke-width="1.4173" stroke-linecap="round" stroke-linejoin="round" stroke-miterlimit="22.9256" d="
		M258.596,162.799l-9.374,9.155l-3.089,33.741l0.001-0.001c2.27-4.471,4.689-7.946,7.222-11.278h0l6.741-15.833L258.596,162.799
		L258.596,162.799z"/>
	
		<path fill-rule="evenodd" clip-rule="evenodd" fill="#DC090A" stroke="#08090A" stroke-width="1.4173" stroke-linecap="round" stroke-linejoin="round" stroke-miterlimit="22.9256" d="
		M238.452,230.261L238.452,230.261l-5.823-23.332l2.165-36.288c4.81-5.232,9.619-4.794,14.428,1.313l-3.089,33.741v0.001
		c-0.973,1.915-1.918,4.011-2.834,6.359v0.003c-3.049,4.635-4.853,10.594-4.853,17.548
		C238.445,229.825,238.448,230.043,238.452,230.261L238.452,230.261z"/>
	
		<path fill-rule="evenodd" clip-rule="evenodd" fill="#DC090A" stroke="#08090A" stroke-width="1.4173" stroke-linecap="round" stroke-linejoin="round" stroke-miterlimit="22.9256" d="
		M238.452,230.261L238.452,230.261c0.05,3.061,0.449,6.013,1.149,8.796l-18.989-24.264l-3.545-36.21l7.313-13.05l8.249,41.397
		L238.452,230.261L238.452,230.261z"/>
	
		<path fill-rule="evenodd" clip-rule="evenodd" fill="#990000" stroke="#08090A" stroke-width="1.4173" stroke-linecap="round" stroke-linejoin="round" stroke-miterlimit="22.9256" d="
		M232.628,206.929l-8.249-41.397c2.534,4.726,8.537,9.169,10.414,5.109L232.628,206.929L232.628,206.929z"/>
	
		<path fill-rule="evenodd" clip-rule="evenodd" fill="#990000" stroke="#08090A" stroke-width="1.4173" stroke-linecap="round" stroke-linejoin="round" stroke-miterlimit="22.9256" d="
		M203.661,173.22c3.578,2.866,8.468,4.935,13.406,5.363l3.545,36.21l-17.508-22.371L203.661,173.22L203.661,173.22z"/>
	
		<polygon fill-rule="evenodd" clip-rule="evenodd" fill="#DC090A" stroke="#08090A" stroke-width="1.4173" stroke-linecap="round" stroke-linejoin="round" stroke-miterlimit="22.9256" points="
		195.448,182.638 203.104,192.422 203.661,143.97 195.833,151.048 195.448,182.638 	"/>
	
		<polygon fill-rule="evenodd" clip-rule="evenodd" fill="#990000" stroke="#08090A" stroke-width="1.4173" stroke-linecap="round" stroke-linejoin="round" stroke-miterlimit="22.9256" points="
		195.78,155.455 195.448,182.638 192.274,178.583 189.439,178.583 189.811,159.485 195.78,155.455 	"/>
	
		<path fill-rule="evenodd" clip-rule="evenodd" fill="#990000" stroke="#08090A" stroke-width="1.4173" stroke-linecap="round" stroke-linejoin="round" stroke-miterlimit="22.9256" d="
		M242.008,161.173c3.984,0,7.214,3.897,7.214,8.705c0,0.641-0.058,1.266-0.167,1.867c-4.746-5.896-9.49-6.273-14.235-1.131
		c-0.017-0.243-0.026-0.488-0.026-0.736C234.793,165.07,238.023,161.173,242.008,161.173L242.008,161.173z"/>
	
		<path fill-rule="evenodd" clip-rule="evenodd" fill="#FF9933" stroke="#08090A" stroke-width="1.4173" stroke-linecap="round" stroke-linejoin="round" stroke-miterlimit="22.9256" d="
		M95.928,262.236c-3.875,0-7.017,3.525-7.017,7.875c0,4.349,3.142,7.875,7.017,7.875c0.089,0,0.178-0.002,0.266-0.006
		c-1-4.049-2.061-8.151,0.229-15.724C96.26,262.243,96.095,262.236,95.928,262.236L95.928,262.236z"/>
	
		<path fill-rule="evenodd" clip-rule="evenodd" fill="#FFCC00" stroke="#08090A" stroke-width="1.4173" stroke-linecap="round" stroke-linejoin="round" stroke-miterlimit="22.9256" d="
		M89.953,274.24L89.953,274.24l-0.003-0.007L89.953,274.24L89.953,274.24z M96.419,262.255l0.011-0.02
		c-9.416-18.436-21.666-36.871-36.75-55.307c11.277,21.17,21.209,43.199,29.737,66.12c-0.326-0.908-0.505-1.899-0.505-2.938
		c0-4.35,3.142-7.875,7.017-7.875C96.093,262.236,96.257,262.243,96.419,262.255L96.419,262.255z"/>
	
		<path fill-rule="evenodd" clip-rule="evenodd" fill="#FF9933" stroke="#08090A" stroke-width="1.4173" stroke-linecap="round" stroke-linejoin="round" stroke-miterlimit="22.9256" d="
		M166.762,274.961l5.07,19.592c-4.822-2.242-8.144-5.701-11.09-10.379c-1.969-5.792-2.718-13.646-1.687-20.75L166.762,274.961
		L166.762,274.961z"/>
	
		<path fill-rule="evenodd" clip-rule="evenodd" fill="#FFCC00" stroke="#08090A" stroke-width="1.4173" stroke-linecap="round" stroke-linejoin="round" stroke-miterlimit="22.9256" d="
		M159.056,263.423l-4.196-6.268l-58.43,5.081c-2.335,7.706-1.202,11.821-0.188,15.938l64.5,6
		C158.773,278.381,158.024,270.527,159.056,263.423L159.056,263.423z"/>
	
		<path fill-rule="evenodd" clip-rule="evenodd" fill="#CCCCCC" stroke="#08090A" stroke-width="1.4173" stroke-linecap="round" stroke-linejoin="round" stroke-miterlimit="22.9256" d="
		M396.368,178.583c5.67,4.099,11.339,13.866,17.008,29.303c-23.622,19.524-38.74,44.717-53.857,67.076l-34.017-8.504
		C340.62,237.166,361.408,207.874,396.368,178.583L396.368,178.583z"/>
	
		<path fill-rule="evenodd" clip-rule="evenodd" fill="#CCCCCC" stroke="#08090A" stroke-width="1.4173" stroke-linecap="round" stroke-linejoin="round" stroke-miterlimit="22.9256" d="
		M413.376,207.885c-9.448-57.799-44.409-121.267-87.874-181.901c29.292,50.866,52.914,101.732,70.866,152.598
		C402.038,182.681,407.707,192.449,413.376,207.885L413.376,207.885z"/>
	
		<path fill-rule="evenodd" clip-rule="evenodd" fill="#999999" stroke="#08090A" stroke-width="1.4173" stroke-linecap="round" stroke-linejoin="round" stroke-miterlimit="22.9256" d="
		M396.368,178.583c-17.952-50.866-41.574-101.732-70.866-152.598c9.453,50.922,10.395,101.732,11.339,152.598H396.368
		L396.368,178.583z"/>
	
		<path fill-rule="evenodd" clip-rule="evenodd" fill="#4F5A5C" stroke="#08090A" stroke-width="1.4173" stroke-linecap="round" stroke-linejoin="round" stroke-miterlimit="22.9256" d="
		M334.006,178.583l-51.023,65.197l-8.504,59.527h5.67l45.354-36.85c15.118-29.292,35.906-58.583,70.866-87.875h-5.669h-53.858
		H334.006L334.006,178.583z"/>
	
		<path fill-rule="evenodd" clip-rule="evenodd" fill="#999999" stroke="#08090A" stroke-width="1.4173" stroke-linecap="round" stroke-linejoin="round" stroke-miterlimit="22.9256" d="
		M336.841,178.583l-45.354,65.197l-11.338,59.527l45.354-36.85c15.118-29.292,35.906-58.583,70.866-87.875H336.841L336.841,178.583z
		"/>
	
		<polygon fill-rule="evenodd" clip-rule="evenodd" fill="#000066" stroke="#08090A" stroke-width="1.4173" stroke-linecap="round" stroke-linejoin="round" stroke-miterlimit="22.9256" points="
		271.645,306.143 263.14,306.143 254.636,306.143 248.967,362.834 263.14,362.834 277.313,362.834 271.645,306.143 	"/>
	
		<polygon fill-rule="evenodd" clip-rule="evenodd" fill="#003399" stroke="#08090A" stroke-width="1.4173" stroke-linecap="round" stroke-linejoin="round" stroke-miterlimit="22.9256" points="
		277.313,362.834 271.645,306.143 285.817,351.496 277.313,362.834 	"/>
	
		<polygon fill-rule="evenodd" clip-rule="evenodd" fill="#000066" stroke="#08090A" stroke-width="1.4173" stroke-linecap="round" stroke-linejoin="round" stroke-miterlimit="22.9256" points="
		285.817,298.701 280.148,303.307 280.148,308.977 274.479,315.213 285.817,351.496 308.12,351.496 317.684,306.143 
		285.817,298.701 	"/>
	
		<polygon fill-rule="evenodd" clip-rule="evenodd" fill="#003399" stroke="#08090A" stroke-width="1.4173" stroke-linecap="round" stroke-linejoin="round" stroke-miterlimit="22.9256" points="
		308.12,351.496 317.684,306.143 359.519,274.961 352.184,303.307 308.12,351.496 	"/>
	
		<polygon fill-rule="evenodd" clip-rule="evenodd" fill="#E6E6E6" stroke="#08090A" stroke-width="1.4173" stroke-linecap="round" stroke-linejoin="round" stroke-miterlimit="22.9256" points="
		310.371,357.166 281.565,357.166 285.817,351.496 308.12,351.496 352.184,303.307 353.638,297.688 357.246,303.307 
		310.371,357.166 	"/>
	
		<polygon fill-rule="evenodd" clip-rule="evenodd" fill="#808080" stroke="#08090A" stroke-width="1.4173" stroke-linecap="round" stroke-linejoin="round" stroke-miterlimit="22.9256" points="
		310.371,357.166 357.246,303.307 336.841,369.934 294.435,431.434 310.371,357.166 	"/>
	
		<polygon fill-rule="evenodd" clip-rule="evenodd" fill="#B3B3B3" stroke="#08090A" stroke-width="1.4173" stroke-linecap="round" stroke-linejoin="round" stroke-miterlimit="22.9256" points="
		263.14,524.807 285.817,431.434 294.435,431.434 324.136,388.359 342.436,470.807 263.14,524.807 	"/>
	
		<polygon fill-rule="evenodd" clip-rule="evenodd" fill="#808080" stroke="#08090A" stroke-width="1.4173" stroke-linecap="round" stroke-linejoin="round" stroke-miterlimit="22.9256" points="
		336.841,369.934 324.136,388.359 336.841,450.557 344.686,450.557 346.561,458.807 366.436,423.557 343.225,349.09 
		336.841,369.934 	"/>
	
		<path fill-rule="evenodd" clip-rule="evenodd" fill="#666666" stroke="#08090A" stroke-width="1.4173" stroke-linecap="round" stroke-linejoin="round" stroke-miterlimit="22.9256" d="
		M388.562,407.057c-9.091-29.727-21.017-59.455-35.777-89.182l-12.033,39.291l5.061,10.891
		c15.294,9.813,35.044,27.781,39.938,40.969C386.267,409.703,388.718,409.797,388.562,407.057L388.562,407.057z"/>
	
		<path fill-rule="evenodd" clip-rule="evenodd" fill="#333333" stroke="#08090A" stroke-width="1.4173" stroke-linecap="round" stroke-linejoin="round" stroke-miterlimit="22.9256" d="
		M385.749,409.025c-8.672-5.16-17.345-7.484-26.018-6.975l-9.715-31.168C364.526,381.051,381.294,397.02,385.749,409.025
		L385.749,409.025z"/>
	
		<polygon fill-rule="evenodd" clip-rule="evenodd" fill="#1B1F22" stroke="#08090A" stroke-width="1.4173" stroke-linecap="round" stroke-linejoin="round" stroke-miterlimit="22.9256" points="
		322.449,354.625 313.602,364.791 303.949,409.131 313.828,394.805 322.449,354.625 	"/>
	
		<polygon fill-rule="evenodd" clip-rule="evenodd" fill="#1B1F22" stroke="#08090A" stroke-width="1.4173" stroke-linecap="round" stroke-linejoin="round" stroke-miterlimit="22.9256" points="
		333.736,341.656 326.212,350.303 317.943,388.836 326.174,376.9 333.736,341.656 	"/>
	
		<polygon fill-rule="evenodd" clip-rule="evenodd" fill="#1B1F22" stroke="#08090A" stroke-width="1.4173" stroke-linecap="round" stroke-linejoin="round" stroke-miterlimit="22.9256" points="
		335.872,362.834 345.968,327.604 337.498,337.334 330.289,370.932 335.872,362.834 	"/>
	
		<polygon fill-rule="evenodd" clip-rule="evenodd" fill="#08090A" stroke="#08090A" stroke-width="1.4173" stroke-linecap="round" stroke-linejoin="round" stroke-miterlimit="22.9256" points="
		282.983,368.504 300.587,368.504 288.908,422.93 277.313,422.93 282.983,368.504 	"/>
	
		<polygon fill-rule="evenodd" clip-rule="evenodd" fill="#08090A" stroke="#08090A" stroke-width="1.4173" stroke-linecap="round" stroke-linejoin="round" stroke-miterlimit="22.9256" points="
		263.14,368.504 275.074,368.504 271.9,422.93 263.14,422.93 254.38,422.93 251.206,368.504 263.14,368.504 	"/>
	
		<path fill-rule="evenodd" clip-rule="evenodd" fill="#999999" stroke="#08090A" stroke-width="1.4173" stroke-linecap="round" stroke-linejoin="round" stroke-miterlimit="22.9256" d="
		M282.982,263.512c-5.682,3.785-12.504,5.993-19.842,5.993s-14.161-2.208-19.842-5.993v-5.667
		c5.681,3.785,12.504,5.991,19.842,5.991s14.161-2.207,19.842-5.991V263.512L282.982,263.512z"/>
	
		<path fill-rule="evenodd" clip-rule="evenodd" fill="#DC090A" stroke="#08090A" stroke-width="1.4173" stroke-linecap="round" stroke-linejoin="round" stroke-miterlimit="22.9256" d="
		M263.14,181.204c7.338,11.339,14.161,16.291,19.842,30.851v45.788c-5.682,3.785-12.504,5.993-19.842,5.993
		s-14.161-2.208-19.842-5.993v-45.788C248.979,197.495,255.802,192.543,263.14,181.204L263.14,181.204z"/>
	
		<polygon fill-rule="evenodd" clip-rule="evenodd" fill="#08090A" stroke="#08090A" stroke-width="1.4173" stroke-linecap="round" stroke-linejoin="round" stroke-miterlimit="22.9256" points="
		359.519,274.961 325.502,266.457 285.817,298.701 317.684,306.143 359.519,274.961 	"/>
	
		<polygon fill-rule="evenodd" clip-rule="evenodd" fill="#FFCC00" stroke="#08090A" stroke-width="1.4173" stroke-linecap="round" stroke-linejoin="round" stroke-miterlimit="22.9256" points="
		345.927,275.445 321.849,269.425 293.758,292.25 316.313,297.516 345.927,275.445 	"/>
	
		<path fill-rule="evenodd" clip-rule="evenodd" fill="#990000" stroke="#08090A" stroke-width="1.4173" stroke-linecap="round" stroke-linejoin="round" stroke-miterlimit="22.9256" d="
		M263.14,72.766l6.044,74.25l-3,31.566l6.741,15.833h-0.001c-3.11-4.092-6.392-7.97-9.785-13.211
		c-3.393,5.242-6.675,9.119-9.785,13.211h0l6.741-15.833l-3-31.566L263.14,72.766L263.14,72.766z"/>
	
		<polygon fill-rule="evenodd" clip-rule="evenodd" fill="#DC090A" stroke="#08090A" stroke-width="1.4173" stroke-linecap="round" stroke-linejoin="round" stroke-miterlimit="22.9256" points="
		263.14,143.079 263.14,72.766 269.185,147.016 269.055,148.386 263.14,143.079 	"/>
	
		<path fill-rule="evenodd" clip-rule="evenodd" fill="#990000" stroke="#08090A" stroke-width="1.4173" stroke-linecap="round" stroke-linejoin="round" stroke-miterlimit="22.9256" d="
		M267.685,162.799l9.374,9.155l3.09,33.741l-0.002-0.001c-2.27-4.471-4.688-7.946-7.222-11.278h0.001l-6.741-15.833L267.685,162.799
		L267.685,162.799z"/>
	
		<path fill-rule="evenodd" clip-rule="evenodd" fill="#DC090A" stroke="#08090A" stroke-width="1.4173" stroke-linecap="round" stroke-linejoin="round" stroke-miterlimit="22.9256" d="
		M287.828,230.261l0.002,0.001l5.821-23.333l-2.165-36.288c-4.809-5.232-9.618-4.794-14.428,1.313l3.09,33.741v0.001
		c0.973,1.915,1.918,4.011,2.834,6.359v0.003c3.049,4.635,4.853,10.594,4.853,17.548
		C287.835,229.825,287.832,230.043,287.828,230.261L287.828,230.261z"/>
	
		<path fill-rule="evenodd" clip-rule="evenodd" fill="#DC090A" stroke="#08090A" stroke-width="1.4173" stroke-linecap="round" stroke-linejoin="round" stroke-miterlimit="22.9256" d="
		M287.828,230.261L287.828,230.261c-0.05,3.061-0.449,6.013-1.149,8.796l18.989-24.264l3.545-36.21l-7.313-13.05l-8.249,41.397
		L287.828,230.261L287.828,230.261z"/>
	
		<path fill-rule="evenodd" clip-rule="evenodd" fill="#990000" stroke="#08090A" stroke-width="1.4173" stroke-linecap="round" stroke-linejoin="round" stroke-miterlimit="22.9256" d="
		M293.651,206.929l8.249-41.397c-2.533,4.726-8.536,9.169-10.414,5.109L293.651,206.929L293.651,206.929z"/>
	
		<path fill-rule="evenodd" clip-rule="evenodd" fill="#990000" stroke="#08090A" stroke-width="1.4173" stroke-linecap="round" stroke-linejoin="round" stroke-miterlimit="22.9256" d="
		M322.619,173.22c-3.578,2.866-8.469,4.935-13.406,5.363l-3.545,36.21l17.508-22.371L322.619,173.22L322.619,173.22z"/>
	
		<polygon fill-rule="evenodd" clip-rule="evenodd" fill="#DC090A" stroke="#08090A" stroke-width="1.4173" stroke-linecap="round" stroke-linejoin="round" stroke-miterlimit="22.9256" points="
		330.832,182.638 323.176,192.422 322.619,143.97 330.447,151.048 330.832,182.638 	"/>
	
		<polygon fill-rule="evenodd" clip-rule="evenodd" fill="#990000" stroke="#08090A" stroke-width="1.4173" stroke-linecap="round" stroke-linejoin="round" stroke-miterlimit="22.9256" points="
		330.5,155.455 330.832,182.638 334.006,178.583 336.841,178.583 336.47,159.485 330.5,155.455 	"/>
	
		<path fill-rule="evenodd" clip-rule="evenodd" fill="#990000" stroke="#08090A" stroke-width="1.4173" stroke-linecap="round" stroke-linejoin="round" stroke-miterlimit="22.9256" d="
		M284.272,161.173c-3.983,0-7.214,3.897-7.214,8.705c0,0.641,0.059,1.266,0.167,1.867c4.745-5.896,9.49-6.273,14.235-1.131
		c0.017-0.243,0.025-0.488,0.025-0.736C291.486,165.07,288.257,161.173,284.272,161.173L284.272,161.173z"/>
	
		<path fill-rule="evenodd" clip-rule="evenodd" fill="#666666" stroke="#08090A" stroke-width="1.4173" stroke-linecap="round" stroke-linejoin="round" stroke-miterlimit="22.9256" d="
		M274.479,303.307l5.423-37.958l-0.001,0c-5.002,2.652-10.705,4.155-16.76,4.155s-11.758-1.503-16.76-4.155l-0.001,0l5.423,37.958
		c3.732,2.398,7.793,2.836,11.338,2.836C266.686,306.143,270.746,305.705,274.479,303.307L274.479,303.307z"/>
	
		<path fill-rule="evenodd" clip-rule="evenodd" fill="#FF0000" stroke="#08090A" stroke-width="1.4173" stroke-linecap="round" stroke-linejoin="round" stroke-miterlimit="22.9256" d="
		M263.14,286.517c5.641-4.057,10.437-7.645,16.079-16.389l-1.542,10.789c-4.083,4.305-6.604,6.33-11.138,9.539l-0.655,15.58h-2.744
		h-2.744l-0.655-15.58c-4.535-3.209-7.055-5.233-11.139-9.539l-1.541-10.789C252.703,278.873,257.5,282.46,263.14,286.517
		L263.14,286.517z"/>
	
		<path fill-rule="evenodd" clip-rule="evenodd" fill="#FF9933" stroke="#08090A" stroke-width="1.4173" stroke-linecap="round" stroke-linejoin="round" stroke-miterlimit="22.9256" d="
		M430.352,262.236c3.875,0,7.017,3.525,7.017,7.875c0,4.349-3.142,7.875-7.017,7.875c-0.089,0-0.177-0.002-0.266-0.006
		c1.001-4.049,2.061-8.151-0.229-15.724C430.021,262.243,430.186,262.236,430.352,262.236L430.352,262.236z"/>
	
		<path fill-rule="evenodd" clip-rule="evenodd" fill="#FFCC00" stroke="#08090A" stroke-width="1.4173" stroke-linecap="round" stroke-linejoin="round" stroke-miterlimit="22.9256" d="
		M436.328,274.24L436.328,274.24l0.003-0.007L436.328,274.24L436.328,274.24z M429.861,262.255l-0.011-0.02
		c9.415-18.436,21.666-36.871,36.75-55.307c-11.277,21.17-21.21,43.199-29.737,66.12c0.326-0.908,0.505-1.899,0.505-2.938
		c0-4.35-3.142-7.875-7.017-7.875C430.187,262.236,430.023,262.243,429.861,262.255L429.861,262.255z"/>
	
		<path fill-rule="evenodd" clip-rule="evenodd" fill="#FF9933" stroke="#08090A" stroke-width="1.4173" stroke-linecap="round" stroke-linejoin="round" stroke-miterlimit="22.9256" d="
		M359.519,274.961l-5.07,19.592c4.821-2.242,8.144-5.701,11.09-10.379c1.969-5.792,2.718-13.646,1.687-20.75L359.519,274.961
		L359.519,274.961z"/>
	
		<path fill-rule="evenodd" clip-rule="evenodd" fill="#FFCC00" stroke="#08090A" stroke-width="1.4173" stroke-linecap="round" stroke-linejoin="round" stroke-miterlimit="22.9256" d="
		M367.225,263.423l4.195-6.268l58.431,5.081c2.335,7.706,1.202,11.821,0.188,15.938l-64.5,6
		C367.507,278.381,368.256,270.527,367.225,263.423L367.225,263.423z"/>
	
		<path fill-rule="evenodd" clip-rule="evenodd" fill="#E0E5EB" stroke="#08090A" stroke-width="1.4173" stroke-linecap="round" stroke-linejoin="round" stroke-miterlimit="22.9256" d="
		M263.141,201.26c-13.639,0-24.695,11.126-24.695,28.347s11.056,31.181,24.695,31.181c13.639,0,24.694-13.96,24.694-31.181
		S276.779,201.26,263.141,201.26L263.141,201.26z"/>
	
		<polygon fill-rule="evenodd" clip-rule="evenodd" fill="#FFCC00" stroke="#08090A" stroke-width="1.4173" stroke-linecap="round" stroke-linejoin="round" stroke-miterlimit="22.9256" points="
		180.354,275.445 204.432,269.425 232.523,292.25 209.966,297.516 180.354,275.445 	"/>
	
		<polygon fill-rule="evenodd" clip-rule="evenodd" fill="#DC090A" stroke="#08090A" stroke-width="1.4173" stroke-linecap="round" stroke-linejoin="round" stroke-miterlimit="22.9256" points="
		263.14,143.079 263.14,72.766 257.096,147.016 257.226,148.386 263.14,143.079 	"/>
	
		<polygon fill-rule="evenodd" clip-rule="evenodd" fill="#CCCCCC" stroke="#08090A" stroke-width="1.4173" stroke-linecap="round" stroke-linejoin="round" stroke-miterlimit="22.9256" points="
		285.817,431.434 263.14,431.434 240.463,431.434 263.14,524.807 285.817,431.434 	"/>
	<path fill-rule="evenodd" clip-rule="evenodd" fill="#0000A2" d="M276.06,221.916c-0.525-4.616-4.544-6.095-9.591-6.449
		l-0.112-6.413l-3.902,0.068l0.108,6.244c-1.027,0.018-2.075,0.057-3.117,0.096l-0.11-6.285l-3.9,0.068l0.11,6.412
		c-2.622,0.099-5.233,0.104-7.868,0.149l0.073,4.169c0,0,2.881-0.105,2.834-0.051c1.581-0.027,2.111,0.882,2.275,1.671
		c0.111,6.357,0.191,10.923,0.307,17.567c-0.061,0.499-0.34,1.297-1.444,1.318c0.051,0.043-2.839,0.049-2.839,0.049l-0.693,4.674
		l5.079-0.089c0.945-0.016,1.876-0.017,2.789-0.026l0.116,6.485l3.899-0.067l-0.112-6.417c1.072,0.002,2.108-0.007,3.12-0.025
		l0.11,6.387l3.904-0.069l-0.111-6.474c6.556-0.492,11.121-2.226,11.583-8.397c0.374-4.971-1.999-7.144-5.739-7.974
		C275.068,227.348,276.448,225.292,276.06,221.916L276.06,221.916L276.06,221.916z M270.841,235.879
		c0.086,4.847-8.222,4.44-10.869,4.489l-0.148-8.592C262.469,231.729,270.752,230.824,270.841,235.879L270.841,235.879
		L270.841,235.879z M268.813,223.788c0.076,4.409-6.854,4.015-9.059,4.054l-0.136-7.793
		C261.821,220.01,268.731,219.189,268.813,223.788L268.813,223.788L268.813,223.788z"/>
</g>
<g id="Capa_2">
	
		<path fill="none" stroke="#08090A" stroke-width="16.0447" stroke-linecap="square" stroke-linejoin="bevel" stroke-miterlimit="22.9256" d="
		M229.851,565.662h16.227l16.166-35.488c0.224-0.488,0.707-0.777,1.211-0.777v-0.006h16.867l4.347-9.551h-51.666l-4.356,9.551
		h15.654c0.738,0,1.337,0.6,1.337,1.338c0,0.238-0.063,0.463-0.173,0.656L229.851,565.662L229.851,565.662z M246.932,568.336
		h-19.154v-0.006c-0.185,0-0.374-0.037-0.554-0.119c-0.669-0.307-0.963-1.096-0.658-1.766l15.662-34.381h-15.655v-0.004
		c-0.186,0-0.374-0.039-0.554-0.121c-0.669-0.305-0.964-1.096-0.658-1.766l5.526-12.117c0.184-0.52,0.679-0.893,1.261-0.893h54.586
		c0.189-0.002,0.382,0.037,0.565,0.121c0.673,0.305,0.97,1.098,0.664,1.77l-5.552,12.199c-0.204,0.477-0.678,0.811-1.229,0.811
		H264.31l-16.116,35.379C248.01,567.963,247.515,568.336,246.932,568.336L246.932,568.336z M271.148,565.662h48.267l0.733-0.832
		l3.779-8.313h-30.324c-0.738,0-1.338-0.6-1.338-1.338c0-0.238,0.063-0.463,0.174-0.658l2.929-6.416
		c0.224-0.488,0.706-0.777,1.212-0.777v-0.006h29.235l4.167-9.145h-28.018c-0.738,0-1.337-0.598-1.337-1.336
		c0-0.227,0.056-0.438,0.154-0.625l2.932-6.445c0.223-0.492,0.708-0.785,1.217-0.787v-0.002h31.545l4.166-9.143h-48.614
		L271.148,565.662L271.148,565.662z M320.629,568.336h-0.612h-50.941v-0.006c-0.186,0-0.374-0.037-0.554-0.119
		c-0.669-0.307-0.964-1.096-0.658-1.766l22.049-48.389c0.184-0.52,0.679-0.893,1.261-0.893h51.542v0.006
		c0.186,0,0.374,0.039,0.554,0.121c0.669,0.305,0.964,1.096,0.658,1.764l-5.336,11.711c-0.184,0.52-0.679,0.893-1.261,0.893h-31.541
		l-1.75,3.846h28.016v0.006c0.186,0,0.374,0.037,0.554,0.119c0.669,0.307,0.964,1.096,0.658,1.766l-5.336,11.709
		c-0.184,0.52-0.679,0.893-1.261,0.893h-29.236l-1.756,3.848h30.324v0.002c0.184,0,0.37,0.037,0.549,0.117
		c0.672,0.303,0.972,1.094,0.669,1.766l-1.014,2.229l35.522-40.301c0.245-0.301,0.618-0.492,1.035-0.492h23.489v0.006h0.037
		c0.735,0.02,1.315,0.633,1.295,1.369l-1.435,48.387l0.002,0.072c0,0.738-0.599,1.338-1.337,1.338h-20.377v-0.006
		c-0.04,0-0.08-0.002-0.12-0.004c-0.732-0.066-1.272-0.715-1.207-1.447l0.373-4.113h-17.886l-4.104,4.992
		c-0.241,0.35-0.644,0.578-1.101,0.578H320.629L320.629,568.336z M366.105,550.947h-11.547c-0.738,0-1.337-0.598-1.337-1.336
		c0-0.352,0.135-0.67,0.355-0.908l13.14-16.365c0.264-0.328,0.649-0.498,1.04-0.498v-0.004h0.136c0.738,0,1.337,0.6,1.337,1.338
		c0,0.08-0.007,0.158-0.021,0.236l-1.777,16.342c-0.072,0.684-0.652,1.193-1.326,1.193V550.947L366.105,550.947z M357.343,548.273
		h7.566l1.185-10.898L357.343,548.273L357.343,548.273z M369.209,533.41c-0.074,0.41-0.334,0.756-0.69,0.945 M322.977,565.662
		h16.792l4.176-5.078c0.264-0.32,0.645-0.486,1.029-0.486v-0.006h19.969c0.739,0,1.338,0.6,1.338,1.338
		c0,0.08-0.008,0.16-0.021,0.238l-0.362,3.994h17.626l1.358-45.822h-21.515L322.977,565.662L322.977,565.662z M391.156,565.662
		h21.223l21.555-47.328c0.223-0.49,0.706-0.779,1.211-0.779v-0.004h0.189c0.738,0,1.337,0.598,1.337,1.336
		c0,0.111-0.014,0.219-0.039,0.322l-7.493,46.453h17.96l35.675-47.574c0.261-0.348,0.66-0.533,1.064-0.533v-0.004h0.188
		c0.739,0,1.338,0.598,1.338,1.336c0,0.24-0.063,0.463-0.173,0.658l-21.019,46.117h21.223l29.458-64.684h-34.692l-28.479,38.602
		c-0.262,0.357-0.666,0.545-1.076,0.545v0.004h-0.188c-0.738,0-1.337-0.598-1.337-1.338c0-0.104,0.012-0.205,0.034-0.301
		l6.51-37.512h-34.995L391.156,565.662L391.156,565.662z M413.233,568.336h-24.15v-0.006c-0.186,0-0.374-0.037-0.554-0.119
		c-0.669-0.307-0.963-1.096-0.657-1.766l30.642-67.248c0.184-0.52,0.679-0.893,1.261-0.893h37.437v0.002
		c0.074,0,0.149,0.006,0.225,0.02c0.727,0.123,1.215,0.814,1.092,1.541l-5.887,33.92l25.721-34.861
		c0.237-0.373,0.654-0.621,1.129-0.621h37.436v0.006c0.186,0,0.374,0.037,0.554,0.119c0.669,0.307,0.964,1.098,0.658,1.766
		l-30.626,67.248c-0.184,0.52-0.68,0.893-1.262,0.893H462.1v-0.006c-0.185,0-0.374-0.037-0.554-0.119
		c-0.669-0.307-0.963-1.096-0.658-1.766l17.12-37.563l-29.11,38.82c-0.235,0.379-0.656,0.633-1.137,0.633h-20.188v-0.004
		c-0.068,0-0.138-0.006-0.208-0.018c-0.728-0.115-1.223-0.799-1.107-1.525l6.287-38.977l-18.05,39.631
		C414.312,567.963,413.816,568.336,413.233,568.336L413.233,568.336z"/>
	<path fill="#FFFFFF" d="M229.851,565.662h16.227l16.166-35.488c0.224-0.488,0.707-0.777,1.211-0.777v-0.006h16.867l4.347-9.551
		h-51.666l-4.356,9.551h15.654c0.738,0,1.337,0.6,1.337,1.338c0,0.238-0.063,0.463-0.173,0.656L229.851,565.662L229.851,565.662z
		 M246.932,568.336h-19.154v-0.006c-0.185,0-0.374-0.037-0.554-0.119c-0.669-0.307-0.963-1.096-0.658-1.766l15.662-34.381h-15.655
		v-0.004c-0.186,0-0.374-0.039-0.554-0.121c-0.669-0.305-0.964-1.096-0.658-1.766l5.526-12.117c0.184-0.52,0.679-0.893,1.261-0.893
		h54.586c0.189-0.002,0.382,0.037,0.565,0.121c0.673,0.305,0.97,1.098,0.664,1.77l-5.552,12.199
		c-0.204,0.477-0.678,0.811-1.229,0.811H264.31l-16.116,35.379C248.01,567.963,247.515,568.336,246.932,568.336L246.932,568.336z
		 M271.148,565.662h48.267l0.733-0.832l3.779-8.313h-30.324c-0.738,0-1.338-0.6-1.338-1.338c0-0.238,0.063-0.463,0.174-0.658
		l2.929-6.416c0.224-0.488,0.706-0.777,1.212-0.777v-0.006h29.235l4.167-9.145h-28.018c-0.738,0-1.337-0.598-1.337-1.336
		c0-0.227,0.056-0.438,0.154-0.625l2.932-6.445c0.223-0.492,0.708-0.785,1.217-0.787v-0.002h31.545l4.166-9.143h-48.614
		L271.148,565.662L271.148,565.662z M320.629,568.336h-0.612h-50.941v-0.006c-0.186,0-0.374-0.037-0.554-0.119
		c-0.669-0.307-0.964-1.096-0.658-1.766l22.049-48.389c0.184-0.52,0.679-0.893,1.261-0.893h51.542v0.006
		c0.186,0,0.374,0.039,0.554,0.121c0.669,0.305,0.964,1.096,0.658,1.764l-5.336,11.711c-0.184,0.52-0.679,0.893-1.261,0.893h-31.541
		l-1.75,3.846h28.016v0.006c0.186,0,0.374,0.037,0.554,0.119c0.669,0.307,0.964,1.096,0.658,1.766l-5.336,11.709
		c-0.184,0.52-0.679,0.893-1.261,0.893h-29.236l-1.756,3.848h30.324v0.002c0.184,0,0.37,0.037,0.549,0.117
		c0.672,0.303,0.972,1.094,0.669,1.766l-1.014,2.229l35.522-40.301c0.245-0.301,0.618-0.492,1.035-0.492h23.489v0.006h0.037
		c0.735,0.02,1.315,0.633,1.295,1.369l-1.435,48.387l0.002,0.072c0,0.738-0.599,1.338-1.337,1.338h-20.377v-0.006
		c-0.04,0-0.08-0.002-0.12-0.004c-0.732-0.066-1.272-0.715-1.207-1.447l0.373-4.113h-17.886l-4.104,4.992
		c-0.241,0.35-0.644,0.578-1.101,0.578H320.629L320.629,568.336z M366.105,550.947h-11.547c-0.738,0-1.337-0.598-1.337-1.336
		c0-0.352,0.135-0.67,0.355-0.908l13.14-16.365c0.264-0.328,0.649-0.498,1.04-0.498v-0.004h0.136c0.738,0,1.337,0.6,1.337,1.338
		c0,0.08-0.007,0.158-0.021,0.236l-1.777,16.342c-0.072,0.684-0.652,1.193-1.326,1.193V550.947L366.105,550.947z M357.343,548.273
		h7.566l1.185-10.898L357.343,548.273L357.343,548.273z M369.209,533.41c-0.074,0.41-0.334,0.756-0.69,0.945L369.209,533.41
		L369.209,533.41z M322.977,565.662h16.792l4.176-5.078c0.264-0.32,0.645-0.486,1.029-0.486v-0.006h19.969
		c0.739,0,1.338,0.6,1.338,1.338c0,0.08-0.008,0.16-0.021,0.238l-0.362,3.994h17.626l1.358-45.822h-21.515L322.977,565.662
		L322.977,565.662z M391.156,565.662h21.223l21.555-47.328c0.223-0.49,0.706-0.779,1.211-0.779v-0.004h0.189
		c0.738,0,1.337,0.598,1.337,1.336c0,0.111-0.014,0.219-0.039,0.322l-7.493,46.453h17.96l35.675-47.574
		c0.261-0.348,0.66-0.533,1.064-0.533v-0.004h0.188c0.739,0,1.338,0.598,1.338,1.336c0,0.24-0.063,0.463-0.173,0.658l-21.019,46.117
		h21.223l29.458-64.684h-34.692l-28.479,38.602c-0.262,0.357-0.666,0.545-1.076,0.545v0.004h-0.188
		c-0.738,0-1.337-0.598-1.337-1.338c0-0.104,0.012-0.205,0.034-0.301l6.51-37.512h-34.995L391.156,565.662L391.156,565.662z
		 M413.233,568.336h-24.15v-0.006c-0.186,0-0.374-0.037-0.554-0.119c-0.669-0.307-0.963-1.096-0.657-1.766l30.642-67.248
		c0.184-0.52,0.679-0.893,1.261-0.893h37.437v0.002c0.074,0,0.149,0.006,0.225,0.02c0.727,0.123,1.215,0.814,1.092,1.541
		l-5.887,33.92l25.721-34.861c0.237-0.373,0.654-0.621,1.129-0.621h37.436v0.006c0.186,0,0.374,0.037,0.554,0.119
		c0.669,0.307,0.964,1.098,0.658,1.766l-30.626,67.248c-0.184,0.52-0.68,0.893-1.262,0.893H462.1v-0.006
		c-0.185,0-0.374-0.037-0.554-0.119c-0.669-0.307-0.963-1.096-0.658-1.766l17.12-37.563l-29.11,38.82
		c-0.235,0.379-0.656,0.633-1.137,0.633h-20.188v-0.004c-0.068,0-0.138-0.006-0.208-0.018c-0.728-0.115-1.223-0.799-1.107-1.525
		l6.287-38.977l-18.05,39.631C414.312,567.963,413.816,568.336,413.233,568.336L413.233,568.336z"/>
	<polygon fill="#FFCC00" points="227.778,566.998 246.932,566.998 263.455,530.729 281.183,530.729 286.746,518.502 
		232.148,518.502 226.573,530.729 244.301,530.729 227.778,566.998 	"/>
	<polygon fill="#FFCC00" points="269.074,566.998 320.627,566.998 326.001,555.18 293.602,555.18 296.579,548.66 326.669,548.66 
		332.054,536.842 301.964,536.842 304.93,530.32 337.329,530.32 342.714,518.502 291.172,518.502 269.074,566.998 	"/>
	<path fill="#FFCC00" d="M366.104,549.611h-11.547l13.197-16.438h0.136L366.104,549.611L366.104,549.611z M320.016,566.998h20.377
		l4.58-5.568h19.969l-0.505,5.568h20.377l1.438-48.496h-23.49L320.016,566.998L320.016,566.998z"/>
	<polygon fill="#FFCC00" points="389.081,566.998 413.231,566.998 435.143,518.887 435.331,518.887 427.57,566.998 447.758,566.998 
		483.836,518.887 484.023,518.887 462.097,566.998 486.247,566.998 516.923,499.643 479.487,499.643 450.604,538.793 
		450.415,538.793 457.208,499.643 419.772,499.643 389.081,566.998 	"/>
	
		<path fill="none" stroke="#08090A" stroke-width="16.0447" stroke-linecap="square" stroke-linejoin="bevel" stroke-miterlimit="22.9256" d="
		M64.158,499.65h28.388l2.975-3.375l-12.108-36.184c-0.206-0.615,0.063-1.275,0.607-1.584l37.931-23.539H91.748l-35.197,23.543
		c-0.612,0.41-1.439,0.246-1.849-0.365c-0.275-0.412-0.292-0.922-0.085-1.336l9.944-21.842h-23.66L11.428,499.65h23.675L43,482.322
		c0.112-0.246,0.289-0.441,0.502-0.574H43.5l12.289-7.736c0.623-0.393,1.447-0.205,1.839,0.418c0.09,0.143,0.149,0.295,0.18,0.451
		L64.158,499.65L64.158,499.65z M96.108,499.65h0.542l-0.149-0.445L96.108,499.65L96.108,499.65z M98.503,502.324h-5.354H63.126
		v-0.004c-0.594,0-1.136-0.4-1.29-1.004l-6.173-24.076l-10.407,6.553l-8.039,17.641c-0.183,0.52-0.679,0.891-1.261,0.891H9.354
		v-0.004c-0.185,0-0.374-0.039-0.553-0.121c-0.669-0.305-0.964-1.096-0.658-1.766l30.642-67.248c0.183-0.52,0.679-0.891,1.261-0.891
		h26.587v0.004c0.186,0,0.374,0.039,0.554,0.121c0.669,0.305,0.964,1.096,0.658,1.766l-8.881,19.506l31.556-21.109
		c0.229-0.18,0.516-0.287,0.83-0.287h35.282v0.004c0.446,0.002,0.882,0.225,1.133,0.633c0.387,0.625,0.193,1.447-0.433,1.834
		l-41.057,25.479l11.283,33.721l37.302-42.318c0.245-0.301,0.618-0.492,1.035-0.492h23.49v0.004l0.037,0.002
		c0.735,0.02,1.315,0.633,1.295,1.367l-1.413,47.637l21.925-48.117c0.184-0.52,0.679-0.893,1.261-0.893h43.606
		c3.17,0,5.661,0.438,7.511,1.281c1.384,0.631,2.418,1.492,3.117,2.566c0.708,1.09,1.053,2.359,1.053,3.799
		c0,1.803-0.552,3.895-1.62,6.254c-0.009,0.025-0.02,0.051-0.031,0.076c-1.061,2.332-2.636,4.514-4.535,6.295
		c-1.156,1.082-2.434,2.021-3.792,2.76c1.354,1.035,2.125,2.42,2.479,3.941c0.436,1.871,0.208,3.932-0.33,5.75
		c-0.202,0.68-0.443,1.32-0.707,1.902l-0.002-0.002l-0.003,0.006c-2.269,4.975-5.406,9.107-9.854,12.01
		c-4.43,2.891-10.118,4.531-17.488,4.531h-41.5v-0.004c-0.186,0-0.374-0.039-0.554-0.121c-0.31-0.141-0.54-0.387-0.667-0.676
		c-0.206,0.473-0.677,0.801-1.225,0.801H137.57v-0.004c-0.04,0-0.08-0.002-0.12-0.006c-0.732-0.066-1.272-0.715-1.207-1.447
		l0.373-4.111H118.73l-4.104,4.99c-0.241,0.35-0.645,0.578-1.101,0.578H98.503L98.503,502.324z M98.538,496.893l0.923,2.758H112.9
		l4.176-5.078c0.263-0.32,0.644-0.486,1.029-0.486v-0.004h19.969c0.738,0,1.337,0.598,1.337,1.336c0,0.082-0.007,0.16-0.021,0.238
		l-0.362,3.994h17.625l1.359-45.822h-21.516L98.538,496.893L98.538,496.893z M139.237,484.938H127.69
		c-0.738,0-1.337-0.6-1.337-1.338c0-0.35,0.135-0.67,0.355-0.908l13.14-16.365c0.264-0.326,0.65-0.498,1.04-0.498v-0.002h0.136
		c0.738,0,1.337,0.598,1.337,1.336c0,0.08-0.007,0.16-0.021,0.236l-1.776,16.342c-0.073,0.686-0.652,1.195-1.327,1.193V484.938
		L139.237,484.938z M130.474,482.262h7.566l1.185-10.898L130.474,482.262L130.474,482.262z M142.34,467.398
		c-0.073,0.41-0.334,0.756-0.69,0.945 M195.86,462.973h14.459c2.378,0,3.746,0.5,4.455,1.342c0.029,0.033,0.055,0.068,0.08,0.104
		c0.783,1.014,0.637,2.203,0.049,3.496c-0.014,0.031-0.029,0.063-0.045,0.092c-0.538,1.146-1.274,2.119-2.484,2.824
		c-1.16,0.676-2.715,1.066-4.909,1.066h-14.468c-0.738,0-1.336-0.6-1.336-1.338c0-0.209,0.047-0.406,0.133-0.584l2.83-6.219
		C194.85,463.258,195.345,462.965,195.86,462.973L195.86,462.973z M210.319,465.646h-13.618l-1.626,3.574h12.39
		c1.689,0,2.811-0.256,3.572-0.699c0.659-0.385,1.081-0.953,1.404-1.637l0.028-0.066c0.182-0.402,0.297-0.695,0.274-0.773
		l-0.006-0.008C212.53,465.793,211.813,465.646,210.319,465.646L210.319,465.646z M187.98,480.225h16.381
		c2.415,0,3.819,0.656,4.517,1.719c0.743,1.131,0.589,2.516-0.07,3.971c-0.014,0.029-0.028,0.061-0.043,0.088
		c-0.596,1.273-1.467,2.395-2.758,3.209c-1.281,0.811-2.942,1.295-5.113,1.295h-16.381c-0.738,0-1.337-0.598-1.337-1.336
		c0-0.24,0.063-0.465,0.173-0.658l3.42-7.504c0.224-0.488,0.707-0.777,1.212-0.777V480.225L187.98,480.225z M204.361,482.898
		h-15.526l-2.249,4.934h14.307c1.633,0,2.825-0.328,3.693-0.877c0.808-0.512,1.367-1.236,1.76-2.07l0.028-0.068
		c0.294-0.648,0.427-1.168,0.268-1.412C206.437,483.092,205.749,482.898,204.361,482.898L204.361,482.898z M162.465,499.65h39.427
		c6.825,0,12.035-1.482,16.036-4.094c3.982-2.598,6.813-6.344,8.88-10.875h-0.002c0.221-0.488,0.42-1.014,0.581-1.557
		c0.423-1.428,0.61-3.012,0.289-4.393c-0.29-1.246-1.028-2.344-2.453-2.99c-0.257-0.117-0.53-0.219-0.817-0.305
		c-0.707-0.207-1.111-0.949-0.904-1.654c0.019-0.063,0.042-0.123,0.068-0.182l0.035-0.086c0.154-0.375,0.459-0.641,0.815-0.758
		l-0.001-0.004c1.938-0.641,3.769-1.795,5.344-3.271c1.647-1.545,3.012-3.434,3.929-5.449c0.012-0.027,0.025-0.055,0.039-0.08
		c0.904-1.998,1.372-3.723,1.372-5.152c0-0.926-0.202-1.711-0.614-2.346c-0.42-0.646-1.08-1.182-1.988-1.596
		c-1.488-0.68-3.61-1.031-6.404-1.031h-42.751L162.465,499.65L162.465,499.65z M236.897,483.135
		c-3.233,7.104-3.304,11.639-0.408,14.299c3.094,2.84,9.519,3.916,19.034,3.916c9.654,0,17.25-1.133,23.238-4.125
		c5.915-2.957,10.332-7.781,13.707-15.197l12.847-28.199h-16.215l-13.011,28.557l0.005,0.002c-1.546,3.398-3.573,5.65-6.088,7.064
		c-2.484,1.398-5.387,1.938-8.73,1.938c-3.508,0-6.081-0.621-7.471-2.23c-1.467-1.695-1.521-4.215,0.146-7.879
		c0.016-0.033,0.033-0.068,0.052-0.102l12.46-27.35h-16.215L236.897,483.135L236.897,483.135z M234.683,499.398
		c-3.853-3.539-3.993-9.055-0.208-17.371l13.659-29.98c0.184-0.52,0.679-0.893,1.261-0.893h19.143v0.004
		c0.185,0,0.373,0.039,0.553,0.121c0.67,0.307,0.964,1.096,0.658,1.766l-13.32,29.238c-0.012,0.035-0.027,0.068-0.042,0.104
		c-1.176,2.586-1.299,4.178-0.564,5.027c0.812,0.938,2.715,1.301,5.455,1.301c2.905,0,5.383-0.443,7.426-1.594
		c2.013-1.131,3.662-2.99,4.958-5.842l0.005,0.004l0.001-0.004l13.318-29.232c0.184-0.52,0.679-0.893,1.262-0.893h19.143v0.004
		c0.186,0,0.374,0.039,0.554,0.121c0.669,0.307,0.964,1.096,0.658,1.766l-13.708,30.09c-3.643,8.002-8.456,13.23-14.94,16.471
		c-6.411,3.205-14.385,4.418-24.428,4.418C245.342,504.023,238.338,502.754,234.683,499.398L234.683,499.398z M308.499,499.65
		h16.227l16.166-35.486c0.224-0.49,0.706-0.779,1.212-0.779v-0.004h16.867l4.347-9.553H311.65l-4.355,9.553h15.654
		c0.738,0,1.337,0.598,1.337,1.336c0,0.238-0.063,0.463-0.173,0.658L308.499,499.65L308.499,499.65z M325.58,502.324h-19.154v-0.004
		c-0.186,0-0.374-0.039-0.554-0.121c-0.669-0.305-0.964-1.096-0.658-1.766l15.662-34.379h-15.655v-0.006
		c-0.185,0-0.374-0.037-0.554-0.119c-0.669-0.307-0.963-1.098-0.657-1.766l5.525-12.119c0.184-0.52,0.679-0.891,1.261-0.891h54.586
		c0.189-0.002,0.383,0.035,0.566,0.119c0.672,0.307,0.969,1.1,0.663,1.771l-5.551,12.199c-0.205,0.477-0.679,0.811-1.229,0.811
		h-16.873l-16.117,35.379C326.658,501.953,326.162,502.324,325.58,502.324L325.58,502.324z M357.408,477.293
		c-5.354,11.754-3.25,17.719,1.508,20.717c4.995,3.146,12.95,3.34,18.597,3.34c5.708,0,13.93-0.199,22.053-3.451
		c8.08-3.234,16.145-9.52,21.7-21.713c5.355-11.752,3.25-17.717-1.509-20.715c-4.997-3.148-12.955-3.34-18.607-3.34
		c-5.702,0-13.924,0.197-22.046,3.449C371.023,458.814,362.958,465.1,357.408,477.293L357.408,477.293z M357.495,500.266
		c-5.859-3.691-8.605-10.701-2.511-24.08c5.89-12.938,14.494-19.625,23.127-23.082c8.59-3.438,17.126-3.646,23.038-3.646
		c5.974,0,14.406,0.215,20.028,3.756c5.86,3.693,8.606,10.703,2.512,24.08c-5.895,12.938-14.5,19.627-23.132,23.082
		c-8.591,3.439-17.126,3.648-23.045,3.648C371.545,504.023,363.116,503.807,357.495,500.266L357.495,500.266z M375.351,476.186
		c2.351-5.158,5.312-8.77,8.726-11.102c3.457-2.361,7.345-3.402,11.51-3.402c4.407,0,7.563,1.182,9.046,3.861
		c1.422,2.572,1.129,6.4-1.308,11.75c-2.352,5.16-5.313,8.77-8.726,11.102c-3.458,2.363-7.345,3.402-11.511,3.402
		c-4.413,0-7.568-1.18-9.049-3.861C372.618,485.363,372.913,481.535,375.351,476.186L375.351,476.186z M385.58,467.289
		c-3.023,2.064-5.67,5.316-7.807,10.004c-2.051,4.5-2.403,7.533-1.395,9.357c0.948,1.717,3.3,2.473,6.709,2.473
		c3.646,0,7.026-0.896,10.006-2.932c3.023-2.066,5.67-5.316,7.807-10.006c2.051-4.498,2.4-7.531,1.391-9.357
		c-0.949-1.717-3.3-2.473-6.705-2.473C391.941,464.355,388.56,465.252,385.58,467.289L385.58,467.289z"/>
	<path fill="#FFFFFF" d="M64.158,499.65h28.388l2.975-3.375l-12.108-36.184c-0.206-0.615,0.063-1.275,0.607-1.584l37.931-23.539
		H91.748l-35.197,23.543c-0.612,0.41-1.439,0.246-1.849-0.365c-0.275-0.412-0.292-0.922-0.085-1.336l9.944-21.842h-23.66
		L11.428,499.65h23.675L43,482.322c0.112-0.246,0.289-0.441,0.502-0.574H43.5l12.289-7.736c0.623-0.393,1.447-0.205,1.839,0.418
		c0.09,0.143,0.149,0.295,0.18,0.451L64.158,499.65L64.158,499.65z M96.108,499.65h0.542l-0.149-0.445L96.108,499.65L96.108,499.65z
		 M98.503,502.324h-5.354H63.126v-0.004c-0.594,0-1.136-0.4-1.29-1.004l-6.173-24.076l-10.407,6.553l-8.039,17.641
		c-0.183,0.52-0.679,0.891-1.261,0.891H9.354v-0.004c-0.185,0-0.374-0.039-0.553-0.121c-0.669-0.305-0.964-1.096-0.658-1.766
		l30.642-67.248c0.183-0.52,0.679-0.891,1.261-0.891h26.587v0.004c0.186,0,0.374,0.039,0.554,0.121
		c0.669,0.305,0.964,1.096,0.658,1.766l-8.881,19.506l31.556-21.109c0.229-0.18,0.516-0.287,0.83-0.287h35.282v0.004
		c0.446,0.002,0.882,0.225,1.133,0.633c0.387,0.625,0.193,1.447-0.433,1.834l-41.057,25.479l11.283,33.721l37.302-42.318
		c0.245-0.301,0.618-0.492,1.035-0.492h23.49v0.004l0.037,0.002c0.735,0.02,1.315,0.633,1.295,1.367l-1.413,47.637l21.925-48.117
		c0.184-0.52,0.679-0.893,1.261-0.893h43.606c3.17,0,5.661,0.438,7.511,1.281c1.384,0.631,2.418,1.492,3.117,2.566
		c0.708,1.09,1.053,2.359,1.053,3.799c0,1.803-0.552,3.895-1.62,6.254c-0.009,0.025-0.02,0.051-0.031,0.076
		c-1.061,2.332-2.636,4.514-4.535,6.295c-1.156,1.082-2.434,2.021-3.792,2.76c1.354,1.035,2.125,2.42,2.479,3.941
		c0.436,1.871,0.208,3.932-0.33,5.75c-0.202,0.68-0.443,1.32-0.707,1.902l-0.002-0.002l-0.003,0.006
		c-2.269,4.975-5.406,9.107-9.854,12.01c-4.43,2.891-10.118,4.531-17.488,4.531h-41.5v-0.004c-0.186,0-0.374-0.039-0.554-0.121
		c-0.31-0.141-0.54-0.387-0.667-0.676c-0.206,0.473-0.677,0.801-1.225,0.801H137.57v-0.004c-0.04,0-0.08-0.002-0.12-0.006
		c-0.732-0.066-1.272-0.715-1.207-1.447l0.373-4.111H118.73l-4.104,4.99c-0.241,0.35-0.645,0.578-1.101,0.578H98.503L98.503,502.324
		z M98.538,496.893l0.923,2.758H112.9l4.176-5.078c0.263-0.32,0.644-0.486,1.029-0.486v-0.004h19.969
		c0.738,0,1.337,0.598,1.337,1.336c0,0.082-0.007,0.16-0.021,0.238l-0.362,3.994h17.625l1.359-45.822h-21.516L98.538,496.893
		L98.538,496.893z M139.237,484.938H127.69c-0.738,0-1.337-0.6-1.337-1.338c0-0.35,0.135-0.67,0.355-0.908l13.14-16.365
		c0.264-0.326,0.65-0.498,1.04-0.498v-0.002h0.136c0.738,0,1.337,0.598,1.337,1.336c0,0.08-0.007,0.16-0.021,0.236l-1.776,16.342
		c-0.073,0.686-0.652,1.195-1.327,1.193V484.938L139.237,484.938z M130.474,482.262h7.566l1.185-10.898L130.474,482.262
		L130.474,482.262z M142.34,467.398c-0.073,0.41-0.334,0.756-0.69,0.945L142.34,467.398L142.34,467.398z M195.86,462.973h14.459
		c2.378,0,3.746,0.5,4.455,1.342c0.029,0.033,0.055,0.068,0.08,0.104c0.783,1.014,0.637,2.203,0.049,3.496
		c-0.014,0.031-0.029,0.063-0.045,0.092c-0.538,1.146-1.274,2.119-2.484,2.824c-1.16,0.676-2.715,1.066-4.909,1.066h-14.468
		c-0.738,0-1.336-0.6-1.336-1.338c0-0.209,0.047-0.406,0.133-0.584l2.83-6.219C194.85,463.258,195.345,462.965,195.86,462.973
		L195.86,462.973z M210.319,465.646h-13.618l-1.626,3.574h12.39c1.689,0,2.811-0.256,3.572-0.699
		c0.659-0.385,1.081-0.953,1.404-1.637l0.028-0.066c0.182-0.402,0.297-0.695,0.274-0.773l-0.006-0.008
		C212.53,465.793,211.813,465.646,210.319,465.646L210.319,465.646z M187.98,480.225h16.381c2.415,0,3.819,0.656,4.517,1.719
		c0.743,1.131,0.589,2.516-0.07,3.971c-0.014,0.029-0.028,0.061-0.043,0.088c-0.596,1.273-1.467,2.395-2.758,3.209
		c-1.281,0.811-2.942,1.295-5.113,1.295h-16.381c-0.738,0-1.337-0.598-1.337-1.336c0-0.24,0.063-0.465,0.173-0.658l3.42-7.504
		c0.224-0.488,0.707-0.777,1.212-0.777V480.225L187.98,480.225z M204.361,482.898h-15.526l-2.249,4.934h14.307
		c1.633,0,2.825-0.328,3.693-0.877c0.808-0.512,1.367-1.236,1.76-2.07l0.028-0.068c0.294-0.648,0.427-1.168,0.268-1.412
		C206.437,483.092,205.749,482.898,204.361,482.898L204.361,482.898z M162.465,499.65h39.427c6.825,0,12.035-1.482,16.036-4.094
		c3.982-2.598,6.813-6.344,8.88-10.875h-0.002c0.221-0.488,0.42-1.014,0.581-1.557c0.423-1.428,0.61-3.012,0.289-4.393
		c-0.29-1.246-1.028-2.344-2.453-2.99c-0.257-0.117-0.53-0.219-0.817-0.305c-0.707-0.207-1.111-0.949-0.904-1.654
		c0.019-0.063,0.042-0.123,0.068-0.182l0.035-0.086c0.154-0.375,0.459-0.641,0.815-0.758l-0.001-0.004
		c1.938-0.641,3.769-1.795,5.344-3.271c1.647-1.545,3.012-3.434,3.929-5.449c0.012-0.027,0.025-0.055,0.039-0.08
		c0.904-1.998,1.372-3.723,1.372-5.152c0-0.926-0.202-1.711-0.614-2.346c-0.42-0.646-1.08-1.182-1.988-1.596
		c-1.488-0.68-3.61-1.031-6.404-1.031h-42.751L162.465,499.65L162.465,499.65z M236.897,483.135
		c-3.233,7.104-3.304,11.639-0.408,14.299c3.094,2.84,9.519,3.916,19.034,3.916c9.654,0,17.25-1.133,23.238-4.125
		c5.915-2.957,10.332-7.781,13.707-15.197l12.847-28.199h-16.215l-13.011,28.557l0.005,0.002c-1.546,3.398-3.573,5.65-6.088,7.064
		c-2.484,1.398-5.387,1.938-8.73,1.938c-3.508,0-6.081-0.621-7.471-2.23c-1.467-1.695-1.521-4.215,0.146-7.879
		c0.016-0.033,0.033-0.068,0.052-0.102l12.46-27.35h-16.215L236.897,483.135L236.897,483.135z M234.683,499.398
		c-3.853-3.539-3.993-9.055-0.208-17.371l13.659-29.98c0.184-0.52,0.679-0.893,1.261-0.893h19.143v0.004
		c0.185,0,0.373,0.039,0.553,0.121c0.67,0.307,0.964,1.096,0.658,1.766l-13.32,29.238c-0.012,0.035-0.027,0.068-0.042,0.104
		c-1.176,2.586-1.299,4.178-0.564,5.027c0.812,0.938,2.715,1.301,5.455,1.301c2.905,0,5.383-0.443,7.426-1.594
		c2.013-1.131,3.662-2.99,4.958-5.842l0.005,0.004l0.001-0.004l13.318-29.232c0.184-0.52,0.679-0.893,1.262-0.893h19.143v0.004
		c0.186,0,0.374,0.039,0.554,0.121c0.669,0.307,0.964,1.096,0.658,1.766l-13.708,30.09c-3.643,8.002-8.456,13.23-14.94,16.471
		c-6.411,3.205-14.385,4.418-24.428,4.418C245.342,504.023,238.338,502.754,234.683,499.398L234.683,499.398z M308.499,499.65
		h16.227l16.166-35.486c0.224-0.49,0.706-0.779,1.212-0.779v-0.004h16.867l4.347-9.553H311.65l-4.355,9.553h15.654
		c0.738,0,1.337,0.598,1.337,1.336c0,0.238-0.063,0.463-0.173,0.658L308.499,499.65L308.499,499.65z M325.58,502.324h-19.154v-0.004
		c-0.186,0-0.374-0.039-0.554-0.121c-0.669-0.305-0.964-1.096-0.658-1.766l15.662-34.379h-15.655v-0.006
		c-0.185,0-0.374-0.037-0.554-0.119c-0.669-0.307-0.963-1.098-0.657-1.766l5.525-12.119c0.184-0.52,0.679-0.891,1.261-0.891h54.586
		c0.189-0.002,0.383,0.035,0.566,0.119c0.672,0.307,0.969,1.1,0.663,1.771l-5.551,12.199c-0.205,0.477-0.679,0.811-1.229,0.811
		h-16.873l-16.117,35.379C326.658,501.953,326.162,502.324,325.58,502.324L325.58,502.324z M357.408,477.293
		c-5.354,11.754-3.25,17.719,1.508,20.717c4.995,3.146,12.95,3.34,18.597,3.34c5.708,0,13.93-0.199,22.053-3.451
		c8.08-3.234,16.145-9.52,21.7-21.713c5.355-11.752,3.25-17.717-1.509-20.715c-4.997-3.148-12.955-3.34-18.607-3.34
		c-5.702,0-13.924,0.197-22.046,3.449C371.023,458.814,362.958,465.1,357.408,477.293L357.408,477.293z M357.495,500.266
		c-5.859-3.691-8.605-10.701-2.511-24.08c5.89-12.938,14.494-19.625,23.127-23.082c8.59-3.438,17.126-3.646,23.038-3.646
		c5.974,0,14.406,0.215,20.028,3.756c5.86,3.693,8.606,10.703,2.512,24.08c-5.895,12.938-14.5,19.627-23.132,23.082
		c-8.591,3.439-17.126,3.648-23.045,3.648C371.545,504.023,363.116,503.807,357.495,500.266L357.495,500.266z M375.351,476.186
		c2.351-5.158,5.312-8.77,8.726-11.102c3.457-2.361,7.345-3.402,11.51-3.402c4.407,0,7.563,1.182,9.046,3.861
		c1.422,2.572,1.129,6.4-1.308,11.75c-2.352,5.16-5.313,8.77-8.726,11.102c-3.458,2.363-7.345,3.402-11.511,3.402
		c-4.413,0-7.568-1.18-9.049-3.861C372.618,485.363,372.913,481.535,375.351,476.186L375.351,476.186z M385.58,467.289
		c-3.023,2.064-5.67,5.316-7.807,10.004c-2.051,4.5-2.403,7.533-1.395,9.357c0.948,1.717,3.3,2.473,6.709,2.473
		c3.646,0,7.026-0.896,10.006-2.932c3.023-2.066,5.67-5.316,7.807-10.006c2.051-4.498,2.4-7.531,1.391-9.357
		c-0.949-1.717-3.3-2.473-6.705-2.473C391.941,464.355,388.56,465.252,385.58,467.289L385.58,467.289z"/>
	<polygon fill="#003399" points="63.126,500.988 98.502,500.988 84.676,459.668 126.63,433.633 91.349,433.633 55.809,457.404 
		66.633,433.633 40.045,433.633 9.354,500.988 35.957,500.988 44.211,482.875 56.499,475.141 63.126,500.988 	"/>
	<path fill="#003399" d="M139.235,483.6h-11.547l13.198-16.438h0.136L139.235,483.6L139.235,483.6z M93.147,500.988h20.376
		l4.58-5.57h19.969l-0.504,5.57h20.376l1.438-48.496h-23.49L93.147,500.988L93.147,500.988z"/>
	<path fill="#003399" d="M195.838,464.311h14.479c3.872,0,4.169,1.289,3.367,3.057c-0.87,1.9-2.338,3.191-6.221,3.191h-14.467
		L195.838,464.311L195.838,464.311z M187.978,481.563h16.38c3.804,0,4.184,1.697,3.23,3.803c-0.993,2.174-2.895,3.805-6.698,3.805
		H184.51L187.978,481.563L187.978,481.563z M160.39,500.988h41.5c14.196,0,21.793-6.248,26.13-15.758
		c1.633-3.6,2.26-9.441-3.242-11.072l0.056-0.135c4.32-1.428,8.126-5.162,10.071-9.441c3.535-7.744,1.093-12.09-8.812-12.09h-43.606
		L160.39,500.988L160.39,500.988z"/>
	<path fill="#003399" d="M235.683,482.582c-7.018,15.418,0.141,20.104,19.838,20.104c19.698,0,31.138-4.686,38.156-20.104
		l13.709-30.09h-19.143l-13.368,29.342c-2.843,6.248-7.352,8.219-13.601,8.219c-6.249,0-8.951-1.971-6.108-8.219l13.368-29.342
		h-19.143L235.683,482.582L235.683,482.582z"/>
	<polygon fill="#003399" points="306.423,500.988 325.577,500.988 342.1,464.717 359.828,464.717 365.392,452.492 310.793,452.492 
		305.219,464.717 322.946,464.717 306.423,500.988 	"/>
	<path fill="#003399" d="M356.193,476.74c-11.45,25.131,9.701,25.945,21.316,25.945c11.626,0,33.514-0.814,44.964-25.945
		s-9.702-25.947-21.328-25.947C389.531,450.793,367.632,451.609,356.193,476.74L356.193,476.74z M376.559,476.74
		c4.487-9.85,11.213-13.721,19.023-13.721c7.812,0,11.014,3.871,6.526,13.721c-4.487,9.848-11.213,13.721-19.024,13.721
		C375.262,490.461,372.07,486.588,376.559,476.74L376.559,476.74z"/>
</g>
</svg>
