<?xml version="1.0" encoding="utf-8"?>
<!-- Generator: Adobe Illustrator 17.0.0, SVG Export Plug-In . SVG Version: 6.00 Build 0)  -->
<!DOCTYPE svg PUBLIC "-//W3C//DTD SVG 1.1//EN" "http://www.w3.org/Graphics/SVG/1.1/DTD/svg11.dtd">
<svg version="1.1" id="Layer_1" xmlns="http://www.w3.org/2000/svg" xmlns:xlink="http://www.w3.org/1999/xlink" x="0px" y="0px"
	 width="792px" height="612px" viewBox="0 0 792 612" enable-background="new 0 0 792 612" xml:space="preserve">
<g>
	<path fill="#3C3C3A" d="M644.502,518.409c0,19.835-16.079,35.914-35.914,35.914H183.816c-19.835,0-35.914-16.079-35.914-35.914
		V93.636c0-19.835,16.079-35.914,35.914-35.914h424.772c19.835,0,35.914,16.079,35.914,35.914V518.409z"/>
	<linearGradient id="SVGID_1_" gradientUnits="userSpaceOnUse" x1="228.0845" y1="14.8345" x2="564.3192" y2="597.2102">
		<stop  offset="0" style="stop-color:#FAEF42"/>
		<stop  offset="1" style="stop-color:#76C4EF"/>
	</linearGradient>
	<path fill="url(#SVGID_1_)" d="M608.588,564.527H183.815c-25.429,0-46.119-20.688-46.119-46.119V93.636
		c0-25.429,20.69-46.119,46.119-46.119h424.773c25.431,0,46.119,20.69,46.119,46.119v424.773
		C654.707,543.839,634.019,564.527,608.588,564.527z M183.815,67.926c-14.176,0-25.71,11.534-25.71,25.71v424.773
		c0,14.178,11.534,25.71,25.71,25.71h424.773c14.178,0,25.71-11.532,25.71-25.71V93.636c0-14.176-11.532-25.71-25.71-25.71H183.815z
		"/>
</g>
<g>
	<g>
		<defs>
			<circle id="SVGID_2_" cx="481.393" cy="266.4" r="42.113"/>
		</defs>
		<clipPath id="SVGID_3_">
			<use xlink:href="#SVGID_2_"  overflow="visible"/>
		</clipPath>
		<linearGradient id="SVGID_4_" gradientUnits="userSpaceOnUse" x1="265.7708" y1="90.6936" x2="526.6307" y2="542.5162">
			<stop  offset="0" style="stop-color:#FAEF42"/>
			<stop  offset="0.0528" style="stop-color:#F2EC4C"/>
			<stop  offset="0.5162" style="stop-color:#B0D7A3"/>
			<stop  offset="0.8424" style="stop-color:#86C9DA"/>
			<stop  offset="1" style="stop-color:#76C4EF"/>
		</linearGradient>
		<rect x="178.776" y="140.92" clip-path="url(#SVGID_3_)" fill="url(#SVGID_4_)" width="434.85" height="351.369"/>
	</g>
	<g>
		<defs>
			<path id="SVGID_5_" d="M596.793,260.891c-6.489-6.031-16.639-5.66-22.67,0.829l-43.427,46.723
				c-11.887,13.927-29.558,22.768-49.304,22.768c-19.746,0-37.418-8.842-49.305-22.77l-12.285-13.217l-21.777,23.43
				c-0.042,0.045-0.103,0.063-0.148,0.105l34.984,37.639v99.344c16.899-2.784,33.129-7.516,48.531-13.849
				c17.372-7.144,33.679-16.343,48.531-27.416v-58.078l67.698-72.837C603.653,277.072,603.282,266.923,596.793,260.891z"/>
		</defs>
		<clipPath id="SVGID_6_">
			<use xlink:href="#SVGID_5_"  overflow="visible"/>
		</clipPath>
		<linearGradient id="SVGID_7_" gradientUnits="userSpaceOnUse" x1="265.7708" y1="90.6936" x2="526.6307" y2="542.5162">
			<stop  offset="0" style="stop-color:#FAEF42"/>
			<stop  offset="0.0528" style="stop-color:#F2EC4C"/>
			<stop  offset="0.5162" style="stop-color:#B0D7A3"/>
			<stop  offset="0.8424" style="stop-color:#86C9DA"/>
			<stop  offset="1" style="stop-color:#76C4EF"/>
		</linearGradient>
		<rect x="178.776" y="140.92" clip-path="url(#SVGID_6_)" fill="url(#SVGID_7_)" width="434.85" height="351.369"/>
	</g>
	<g>
		<defs>
			<path id="SVGID_8_" d="M371.783,160.42l-0.807-2.575c-0.376-1.2-1.766-1.832-3.106-1.412c-1.34,0.42-2.121,1.732-1.745,2.932
				l6.293,20.086c-1.12-0.12-2.281-0.021-3.424,0.337c-4.454,1.396-6.934,6.138-5.538,10.592c1.396,4.454,6.138,6.934,10.592,5.538
				c4.41-1.382,6.879-6.044,5.573-10.46c-0.006-0.02-0.005-0.04-0.012-0.06l-5.932-18.935c6.229-4.104,11.862,4.279,11.862,4.279
				C384.026,157.852,375.357,159.261,371.783,160.42z"/>
		</defs>
		<clipPath id="SVGID_9_">
			<use xlink:href="#SVGID_8_"  overflow="visible"/>
		</clipPath>
		<linearGradient id="SVGID_10_" gradientUnits="userSpaceOnUse" x1="265.7708" y1="90.6936" x2="526.6307" y2="542.5162">
			<stop  offset="0" style="stop-color:#FAEF42"/>
			<stop  offset="0.0528" style="stop-color:#F2EC4C"/>
			<stop  offset="0.5162" style="stop-color:#B0D7A3"/>
			<stop  offset="0.8424" style="stop-color:#86C9DA"/>
			<stop  offset="1" style="stop-color:#76C4EF"/>
		</linearGradient>
		<rect x="178.776" y="140.92" clip-path="url(#SVGID_9_)" fill="url(#SVGID_10_)" width="434.85" height="351.369"/>
	</g>
	<g>
		<defs>
			<path id="SVGID_11_" d="M427.515,200.642l-21.413-8.939c-1.451-0.606-3.069-0.04-3.613,1.265l-9.078,21.747
				c-0.873-0.91-1.94-1.662-3.178-2.179c-4.825-2.014-10.369,0.264-12.383,5.089s0.264,10.369,5.089,12.383
				c4.702,1.963,10.077-0.158,12.212-4.733c0.027-0.053,0.063-0.1,0.087-0.156l10.613-25.422l16.158,6.745l-7.185,17.212
				c-0.873-0.91-1.94-1.662-3.178-2.179c-4.825-2.014-10.369,0.264-12.383,5.089s0.264,10.369,5.089,12.383
				c4.702,1.963,10.077-0.158,12.212-4.733c0.027-0.053,0.063-0.1,0.087-0.156l12.506-29.958
				C429.701,202.796,428.966,201.247,427.515,200.642z"/>
		</defs>
		<clipPath id="SVGID_12_">
			<use xlink:href="#SVGID_11_"  overflow="visible"/>
		</clipPath>
		<linearGradient id="SVGID_13_" gradientUnits="userSpaceOnUse" x1="265.7708" y1="90.6936" x2="526.6307" y2="542.5162">
			<stop  offset="0" style="stop-color:#FAEF42"/>
			<stop  offset="0.0528" style="stop-color:#F2EC4C"/>
			<stop  offset="0.5162" style="stop-color:#B0D7A3"/>
			<stop  offset="0.8424" style="stop-color:#86C9DA"/>
			<stop  offset="1" style="stop-color:#76C4EF"/>
		</linearGradient>
		<rect x="178.776" y="140.92" clip-path="url(#SVGID_12_)" fill="url(#SVGID_13_)" width="434.85" height="351.369"/>
	</g>
	<g>
		<defs>
			<polygon id="SVGID_14_" points="376.364,296.362 392.216,313.419 416.2,287.978 400.098,271.195 			"/>
		</defs>
		<clipPath id="SVGID_15_">
			<use xlink:href="#SVGID_14_"  overflow="visible"/>
		</clipPath>
		<linearGradient id="SVGID_16_" gradientUnits="userSpaceOnUse" x1="284.3516" y1="118.5439" x2="508.05" y2="506.0009">
			<stop  offset="0" style="stop-color:#FAEF42"/>
			<stop  offset="0.0528" style="stop-color:#F2EC4C"/>
			<stop  offset="0.5162" style="stop-color:#B0D7A3"/>
			<stop  offset="0.8424" style="stop-color:#86C9DA"/>
			<stop  offset="1" style="stop-color:#76C4EF"/>
		</linearGradient>
		<rect x="209.75" y="161.615" clip-path="url(#SVGID_15_)" fill="url(#SVGID_16_)" width="372.903" height="301.314"/>
	</g>
	<g>
		<defs>
			<path id="SVGID_17_" d="M421.252,282.48c2.114-2.271,3.214-5.23,3.101-8.335c-0.113-3.101-1.427-5.973-3.7-8.085
				c-4.338-4.032-11.451-3.905-15.774,0.049l15.791,16.99L421.252,282.48z"/>
		</defs>
		<clipPath id="SVGID_18_">
			<use xlink:href="#SVGID_17_"  overflow="visible"/>
		</clipPath>
		<linearGradient id="SVGID_19_" gradientUnits="userSpaceOnUse" x1="284.3516" y1="118.5439" x2="508.05" y2="506.0009">
			<stop  offset="0" style="stop-color:#FAEF42"/>
			<stop  offset="0.0528" style="stop-color:#F2EC4C"/>
			<stop  offset="0.5162" style="stop-color:#B0D7A3"/>
			<stop  offset="0.8424" style="stop-color:#86C9DA"/>
			<stop  offset="1" style="stop-color:#76C4EF"/>
		</linearGradient>
		<rect x="209.75" y="161.615" clip-path="url(#SVGID_18_)" fill="url(#SVGID_19_)" width="372.903" height="301.314"/>
	</g>
</g>
<g>
	<defs>
		<circle id="SVGID_20_" cx="311.549" cy="316.732" r="42.113"/>
	</defs>
	<clipPath id="SVGID_21_">
		<use xlink:href="#SVGID_20_"  overflow="visible"/>
	</clipPath>
	<linearGradient id="SVGID_22_" gradientUnits="userSpaceOnUse" x1="266.3099" y1="141.0248" x2="527.1698" y2="592.8474">
		<stop  offset="0" style="stop-color:#FAEF42"/>
		<stop  offset="0.0528" style="stop-color:#F2EC4C"/>
		<stop  offset="0.5162" style="stop-color:#B0D7A3"/>
		<stop  offset="0.8424" style="stop-color:#86C9DA"/>
		<stop  offset="1" style="stop-color:#76C4EF"/>
	</linearGradient>
	<rect x="179.315" y="191.252" clip-path="url(#SVGID_21_)" fill="url(#SVGID_22_)" width="434.85" height="351.369"/>
</g>
<g>
	<defs>
		<path id="SVGID_23_" d="M371.783,160.42l-0.807-2.575c-0.376-1.2-1.766-1.832-3.106-1.412c-1.34,0.42-2.121,1.732-1.745,2.932
			l6.293,20.086c-1.12-0.12-2.281-0.021-3.424,0.337c-4.454,1.396-6.934,6.138-5.538,10.592c1.396,4.454,6.138,6.934,10.592,5.538
			c4.41-1.382,6.879-6.044,5.573-10.46c-0.006-0.02-0.005-0.04-0.012-0.06l-5.932-18.935c6.229-4.104,11.862,4.279,11.862,4.279
			C384.026,157.852,375.357,159.261,371.783,160.42z"/>
	</defs>
	<clipPath id="SVGID_24_">
		<use xlink:href="#SVGID_23_"  overflow="visible"/>
	</clipPath>
	<linearGradient id="SVGID_25_" gradientUnits="userSpaceOnUse" x1="265.7709" y1="90.6936" x2="526.6309" y2="542.5162">
		<stop  offset="0" style="stop-color:#FAEF42"/>
		<stop  offset="0.0528" style="stop-color:#F2EC4C"/>
		<stop  offset="0.5162" style="stop-color:#B0D7A3"/>
		<stop  offset="0.8424" style="stop-color:#86C9DA"/>
		<stop  offset="1" style="stop-color:#76C4EF"/>
	</linearGradient>
	<rect x="178.776" y="140.92" clip-path="url(#SVGID_24_)" fill="url(#SVGID_25_)" width="434.85" height="351.369"/>
</g>
<g>
	<defs>
		<path id="SVGID_26_" d="M427.515,200.642l-21.413-8.939c-1.451-0.606-3.069-0.04-3.613,1.265l-9.078,21.747
			c-0.873-0.91-1.94-1.662-3.178-2.179c-4.825-2.014-10.369,0.264-12.383,5.089s0.264,10.369,5.089,12.383
			c4.702,1.963,10.077-0.158,12.212-4.733c0.027-0.053,0.063-0.1,0.087-0.156l10.613-25.422l16.158,6.745l-7.185,17.212
			c-0.873-0.91-1.94-1.662-3.178-2.179c-4.825-2.014-10.369,0.264-12.383,5.089s0.264,10.369,5.089,12.383
			c4.702,1.963,10.077-0.158,12.212-4.733c0.027-0.053,0.063-0.1,0.087-0.156l12.506-29.958
			C429.701,202.796,428.966,201.248,427.515,200.642z"/>
	</defs>
	<clipPath id="SVGID_27_">
		<use xlink:href="#SVGID_26_"  overflow="visible"/>
	</clipPath>
	<linearGradient id="SVGID_28_" gradientUnits="userSpaceOnUse" x1="265.771" y1="90.6936" x2="526.6309" y2="542.5162">
		<stop  offset="0" style="stop-color:#FAEF42"/>
		<stop  offset="0.0528" style="stop-color:#F2EC4C"/>
		<stop  offset="0.5162" style="stop-color:#B0D7A3"/>
		<stop  offset="0.8424" style="stop-color:#86C9DA"/>
		<stop  offset="1" style="stop-color:#76C4EF"/>
	</linearGradient>
	<rect x="178.776" y="140.92" clip-path="url(#SVGID_27_)" fill="url(#SVGID_28_)" width="434.85" height="351.369"/>
</g>
<g>
	<defs>
		<path id="SVGID_29_" d="M414.638,348.002l-22.009-23.444l-31.801,34.215c-0.064,0.075-0.133,0.161-0.197,0.237
			c-11.885,13.785-29.452,22.533-49.081,22.533h0c-19.746,0-37.417-8.842-49.305-22.77l-43.425-46.721
			c-6.031-6.489-16.181-6.86-22.67-0.829c-6.489,6.031-6.86,16.181-0.829,22.67l67.698,72.836v58.078
			c14.851,11.074,31.159,20.273,48.531,27.417c15.402,6.333,31.632,11.065,48.531,13.849v-99.344l34.983-37.638
			c-0.005-0.004-0.011-0.007-0.016-0.011L414.638,348.002z"/>
	</defs>
	<clipPath id="SVGID_30_">
		<use xlink:href="#SVGID_29_"  overflow="visible"/>
	</clipPath>
	<linearGradient id="SVGID_31_" gradientUnits="userSpaceOnUse" x1="266.3099" y1="141.0248" x2="527.1698" y2="592.8474">
		<stop  offset="0" style="stop-color:#FAEF42"/>
		<stop  offset="0.0528" style="stop-color:#F2EC4C"/>
		<stop  offset="0.5162" style="stop-color:#B0D7A3"/>
		<stop  offset="0.8424" style="stop-color:#86C9DA"/>
		<stop  offset="1" style="stop-color:#76C4EF"/>
	</linearGradient>
	<rect x="179.315" y="191.252" clip-path="url(#SVGID_30_)" fill="url(#SVGID_31_)" width="434.85" height="351.369"/>
</g>
</svg>
