<?xml version="1.0" encoding="utf-8"?>
<!-- Generator: Adobe Illustrator 17.0.0, SVG Export Plug-In . SVG Version: 6.00 Build 0)  -->
<!DOCTYPE svg PUBLIC "-//W3C//DTD SVG 1.1//EN" "http://www.w3.org/Graphics/SVG/1.1/DTD/svg11.dtd">
<svg version="1.1" id="Layer_1" xmlns="http://www.w3.org/2000/svg" xmlns:xlink="http://www.w3.org/1999/xlink" x="0px" y="0px"
	 width="172.414px" height="170.345px" viewBox="0 0 172.414 170.345" enable-background="new 0 0 172.414 170.345"
	 xml:space="preserve">
<g>
	<path fill="#1F3975" d="M165.419,135.366c0,15.655-12.691,28.346-28.346,28.346H37.765c-15.655,0-28.346-12.691-28.346-28.346
		V36.059c0-15.655,12.691-28.346,28.346-28.346h99.307c15.655,0,28.346,12.691,28.346,28.346V135.366z"/>
	<path fill="#21AE5C" d="M71.822,108.438c1.694,1.641,3.282,3.381,4.741,5.194c1.478,1.838,2.81,3.706,3.959,5.555
		c0.252,0.405,0.5,0.813,0.742,1.225c0.878,1.495,1.675,3.001,2.371,4.477l0.041,0.096c0.034,0.086,0.069,0.171,0.108,0.255
		c0.037,0.079,0.077,0.166,0.123,0.25c0.721,1.303,2.088,2.11,3.571,2.11c1.482,0,2.85-0.808,3.57-2.108
		c0.046-0.083,0.086-0.172,0.127-0.26c0.037-0.078,0.071-0.159,0.103-0.241l0.043-0.102c0.696-1.477,1.494-2.982,2.371-4.475
		c3.002-5.112,6.804-9.721,11.3-13.697c1.835-1.621,3.713-3.089,5.584-4.363l0.184-0.128c3.478-2.374,6.568-5.258,9.192-8.578
		c5.823-7.367,8.901-16.228,8.901-25.625c0-16.836-10.47-32.099-25.877-38.348c3.822,7.811,5.828,16.437,5.828,25.172
		c0,8.409-1.792,16.528-5.327,24.131c-0.301,0.663-0.635,1.344-1.017,2.069c-3.084,5.992-7.164,11.354-12.119,15.929
		c-0.611,0.563-1.236,1.11-1.87,1.646c-0.302,0.256-0.606,0.511-0.914,0.761C82.801,103.239,77.518,106.278,71.822,108.438z"/>
	<g>
		<path fill="#389DD9" d="M89.882,134.201c-0.744-0.367-1.578-0.579-2.464-0.579c-0.886,0-1.72,0.212-2.464,0.579
			c-1.843,0.91-3.114,2.804-3.114,4.999c0,0.708,0.137,1.383,0.378,2.006c0.053,0.113,0.108,0.225,0.16,0.338
			c0.054,0.116,0.104,0.235,0.157,0.352c0.905,1.635,2.608,2.756,4.583,2.862c0.1,0.005,0.198,0.021,0.3,0.021
			c0.102,0,0.199-0.015,0.3-0.021c1.974-0.106,3.678-1.227,4.583-2.862c0.053-0.117,0.103-0.235,0.157-0.352
			c0.052-0.113,0.107-0.225,0.16-0.338c0.241-0.623,0.378-1.298,0.378-2.006C92.996,137.004,91.726,135.111,89.882,134.201z"/>
	</g>
	<path fill="#F79E1C" d="M98.84,28.252c-3.477-0.992-7.056-1.525-10.65-1.586l-0.324-0.01c-0.26-0.01-0.521-0.01-0.78,0l-0.321,0.01
		c-3.685,0.062-7.366,0.625-10.947,1.674l-0.232,0.074c-2.707,0.809-5.284,1.864-7.65,3.134
		c-7.608,4.085-13.553,10.26-17.311,17.629c-0.536,1.052-1.039,2.121-1.484,3.22c-1.664,4.108-2.682,8.52-2.958,13.11l-0.011,0.116
		c-0.127,0.918-0.187,1.68-0.187,2.399c0,0.842,0.066,1.692,0.203,2.599l0.014,0.125c0.546,8.387,3.59,16.306,8.801,22.899
		c2.539,3.213,5.541,6.032,8.923,8.379l0.436,0.316c1.694,1.155,3.355,2.433,4.96,3.814c5.751-1.998,11.08-4.926,15.858-8.712
		c-0.208-0.188-0.414-0.376-0.619-0.565c-4.334-4.021-8.011-8.668-10.928-13.814c-1.219-2.02-2.269-4.165-3.101-6.344
		c-0.261-0.684-0.514-1.37-0.738-2.07c-0.081-0.252-0.152-0.508-0.224-0.765l-0.09-0.318c-0.254-0.994-0.416-1.992-0.505-2.992
		c-0.049-0.551-0.083-1.103-0.083-1.656c0-0.616,0.034-1.223,0.092-1.824c0.92-9.394,8.86-16.76,18.492-16.76
		c5.093,0,9.849,2.03,13.391,5.718c1.983,2.063,3.438,4.507,4.296,7.156c0.425-2.746,0.638-5.537,0.638-8.362
		C105.803,45.532,103.397,36.349,98.84,28.252z"/>
</g>
</svg>
